<svg id="kity_svg_6" xmlns="http://www.w3.org/2000/svg" xmlns:xlink="http://www.w3.org/1999/xlink" version="1.1" width="618" height="818" style="background: rgb(251, 251, 251); visibility: visible;" viewBox="0 0 618 818"><defs id="kity_defs_7"><linearGradient id="kity_linearGradient_17" x1="0" y1="0" x2="0" y2="1"><stop id="kity_stop_18" offset="0" stop-color="rgb(255, 255, 255)"></stop><stop id="kity_stop_19" offset="1" stop-color="rgb(204, 204, 204)"></stop></linearGradient><marker id="kity_marker_2" orient="auto" refX="6" refY="0" viewBox="-7 -7 14 14" markerWidth="7" markerHeight="7" markerUnits="userSpaceOnUse"><path id="kity_path_3" fill="rgb(123, 115, 191)" stroke="none" d="M6,0A6,6,0,1,1,-6,0A6,6,0,1,1,6,0"></path></marker></defs><g id="kity_g_8"><g id="minder1" text-rendering="optimize-speed"><g id="minder_connect_group1"><path id="kity_path_31" fill="none" stroke="rgb(123, 115, 191)" stroke-width="1" d="M78.5,465.5A74,319,0,0,1,152.5,146.5"></path><path id="kity_path_39" fill="none" stroke="rgb(123, 115, 191)" stroke-width="1" d="M78.5,465.5A74,136,0,0,1,152.5,329.5"></path><path id="kity_path_47" fill="none" stroke="rgb(123, 115, 191)" stroke-width="1" d="M78.5,465.5A74,100,0,0,0,152.5,565.5"></path><path id="kity_path_55" fill="none" stroke="rgb(123, 115, 191)" stroke-width="1" d="M78.5,465.5A74,320,0,0,0,152.5,785.5"></path><path id="kity_path_63" fill="none" stroke="rgb(123, 115, 191)" stroke-width="1" d="M343.5,146.5C351.5,146.5,351.5,29.5,359.5,29.5"></path><path id="kity_path_71" fill="none" stroke="rgb(123, 115, 191)" stroke-width="1" d="M343.5,146.5C351.5,146.5,351.5,55.5,359.5,55.5"></path><path id="kity_path_79" fill="none" stroke="rgb(123, 115, 191)" stroke-width="1" d="M343.5,146.5C351.5,146.5,351.5,81.5,359.5,81.5"></path><path id="kity_path_87" fill="none" stroke="rgb(123, 115, 191)" stroke-width="1" d="M343.5,146.5C351.5,146.5,351.5,107.5,359.5,107.5"></path><path id="kity_path_95" fill="none" stroke="rgb(123, 115, 191)" stroke-width="1" d="M343.5,146.5C351.5,146.5,351.5,133.5,359.5,133.5"></path><path id="kity_path_103" fill="none" stroke="rgb(123, 115, 191)" stroke-width="1" d="M343.5,146.5C351.5,146.5,351.5,159.5,359.5,159.5"></path><path id="kity_path_111" fill="none" stroke="rgb(123, 115, 191)" stroke-width="1" d="M343.5,146.5C351.5,146.5,351.5,185.5,359.5,185.5"></path><path id="kity_path_119" fill="none" stroke="rgb(123, 115, 191)" stroke-width="1" d="M343.5,146.5C351.5,146.5,351.5,211.5,359.5,211.5"></path><path id="kity_path_127" fill="none" stroke="rgb(123, 115, 191)" stroke-width="1" d="M343.5,146.5C351.5,146.5,351.5,237.5,359.5,237.5"></path><path id="kity_path_135" fill="none" stroke="rgb(123, 115, 191)" stroke-width="1" d="M343.5,146.5C351.5,146.5,351.5,263.5,359.5,263.5"></path><path id="kity_path_151" fill="none" stroke="rgb(123, 115, 191)" stroke-width="1" d="M255.5,329.5C263.5,329.5,263.5,310.5,271.5,310.5"></path><path id="kity_path_159" fill="none" stroke="rgb(123, 115, 191)" stroke-width="1" d="M255.5,329.5C263.5,329.5,263.5,349.5,271.5,349.5"></path><path id="kity_path_175" fill="none" stroke="rgb(123, 115, 191)" stroke-width="1" d="M251.5,565.5C259.5,565.5,259.5,383.5,267.5,383.5"></path><path id="kity_path_183" fill="none" stroke="rgb(123, 115, 191)" stroke-width="1" d="M251.5,565.5C259.5,565.5,259.5,409.5,267.5,409.5"></path><path id="kity_path_191" fill="none" stroke="rgb(123, 115, 191)" stroke-width="1" d="M251.5,565.5C259.5,565.5,259.5,435.5,267.5,435.5"></path><path id="kity_path_199" fill="none" stroke="rgb(123, 115, 191)" stroke-width="1" d="M251.5,565.5C259.5,565.5,259.5,461.5,267.5,461.5"></path><path id="kity_path_207" fill="none" stroke="rgb(123, 115, 191)" stroke-width="1" d="M251.5,565.5C259.5,565.5,259.5,526.5,267.5,526.5"></path><path id="kity_path_215" fill="none" stroke="rgb(123, 115, 191)" stroke-width="1" d="M251.5,565.5C259.5,565.5,259.5,656.5,267.5,656.5"></path><path id="kity_path_223" fill="none" stroke="rgb(123, 115, 191)" stroke-width="1" d="M251.5,565.5C259.5,565.5,259.5,747.5,267.5,747.5"></path><path id="kity_path_231" fill="none" stroke="rgb(123, 115, 191)" stroke-width="1" d="M426.5,310.5C434.5,310.5,434.5,297.5,442.5,297.5"></path><path id="kity_path_239" fill="none" stroke="rgb(123, 115, 191)" stroke-width="1" d="M426.5,310.5C434.5,310.5,434.5,323.5,442.5,323.5"></path><path id="kity_path_247" fill="none" stroke="rgb(123, 115, 191)" stroke-width="1" d="M398.5,349.5C406.5,349.5,406.5,349.5,414.5,349.5"></path><path id="kity_path_255" fill="none" stroke="rgb(123, 115, 191)" stroke-width="1" d="M350.5,526.5C358.5,526.5,358.5,487.5,366.5,487.5"></path><path id="kity_path_263" fill="none" stroke="rgb(123, 115, 191)" stroke-width="1" d="M350.5,526.5C358.5,526.5,358.5,513.5,366.5,513.5"></path><path id="kity_path_271" fill="none" stroke="rgb(123, 115, 191)" stroke-width="1" d="M350.5,526.5C358.5,526.5,358.5,539.5,366.5,539.5"></path><path id="kity_path_279" fill="none" stroke="rgb(123, 115, 191)" stroke-width="1" d="M350.5,526.5C358.5,526.5,358.5,565.5,366.5,565.5"></path><path id="kity_path_295" fill="none" stroke="rgb(123, 115, 191)" stroke-width="1" d="M422.5,656.5C430.5,656.5,430.5,591.5,438.5,591.5"></path><path id="kity_path_303" fill="none" stroke="rgb(123, 115, 191)" stroke-width="1" d="M422.5,656.5C430.5,656.5,430.5,617.5,438.5,617.5"></path><path id="kity_path_311" fill="none" stroke="rgb(123, 115, 191)" stroke-width="1" d="M422.5,656.5C430.5,656.5,430.5,643.5,438.5,643.5"></path><path id="kity_path_319" fill="none" stroke="rgb(123, 115, 191)" stroke-width="1" d="M422.5,656.5C430.5,656.5,430.5,669.5,438.5,669.5"></path><path id="kity_path_327" fill="none" stroke="rgb(123, 115, 191)" stroke-width="1" d="M422.5,656.5C430.5,656.5,430.5,695.5,438.5,695.5"></path><path id="kity_path_335" fill="none" stroke="rgb(123, 115, 191)" stroke-width="1" d="M422.5,656.5C430.5,656.5,430.5,721.5,438.5,721.5"></path></g><g id="minder_node1"><path id="kity_path_346" fill="rgba(0, 0, 0, .25)" stroke="none" d="M31.5,453.5h147a5,5,0,0,1,5,5v24a5,5,0,0,1,-5,5h-147a5,5,0,0,1,-5,-5v-24a5,5,0,0,1,5,-5z" display="none"></path><path id="node_outline1" fill="rgb(123, 115, 191)" stroke="rgb(123, 115, 191)" d="M25.5,451.5h106a5,5,0,0,1,5,5v18a5,5,0,0,1,-5,5h-106a5,5,0,0,1,-5,-5v-18a5,5,0,0,1,5,-5z" stroke-width="3"></path><g id="node_text1" fill="white"><text id="kity_text_22" text-rendering="inherit" font-size="16" dy=".8em" y="457.5" font-family="sans-serif" x="32.5">bl_entrypoint</text></g></g><g id="kity_g_12"><path id="kity_path_13" fill="none" stroke="none" d="M32.5,465.5h0v0h0z"></path></g><g id="kity_g_14"><path id="kity_path_15" fill="none" stroke="none" d="M32.5,465.5h0v0h0z"></path><path id="kity_path_16" fill="none" stroke="none"></path></g><g id="minder_node2"><path id="kity_path_342" fill="rgba(0, 0, 0, .25)" stroke="none" d="M173.5,139.5h181a5,5,0,0,1,5,5v14a5,5,0,0,1,-5,5h-181a5,5,0,0,1,-5,-5v-14a5,5,0,0,1,5,-5z" display="none"></path><g id="node_expander1" style="cursor: pointer;"><path id="kity_path_36" fill="white" stroke="gray" d="M153.5,146.5A6,6,0,1,1,141.5,146.5A6,6,0,1,1,153.5,146.5"></path><path id="kity_path_37" fill="none" stroke="gray" d="M143,146.5L152,146.5"></path></g><path id="node_outline2" fill="rgb(239, 238, 246)" stroke="rgb(123, 115, 191)" d="M157.5,133.5h183a3,3,0,0,1,3,3v20a3,3,0,0,1,-3,3h-183a3,3,0,0,1,-3,-3v-20a3,3,0,0,1,3,-3z" stroke-width="1"></path><g id="node_text2" fill="black"><text id="kity_text_33" text-rendering="inherit" font-size="14" dy=".8em" y="139.5" font-family="sans-serif" x="174.5">el3_entrypoint_common</text></g></g><g id="minder_node3"><path id="kity_path_343" fill="rgba(0, 0, 0, .25)" stroke="none" d="M173.5,322.5h79a5,5,0,0,1,5,5v14a5,5,0,0,1,-5,5h-79a5,5,0,0,1,-5,-5v-14a5,5,0,0,1,5,-5z" display="none"></path><g id="node_expander2" style="cursor: pointer;"><path id="kity_path_44" fill="white" stroke="gray" d="M153.5,329.5A6,6,0,1,1,141.5,329.5A6,6,0,1,1,153.5,329.5"></path><path id="kity_path_45" fill="none" stroke="gray" d="M143,329.5L152,329.5"></path></g><path id="node_outline3" fill="rgb(239, 238, 246)" stroke="rgb(123, 115, 191)" d="M157.5,316.5h95a3,3,0,0,1,3,3v20a3,3,0,0,1,-3,3h-95a3,3,0,0,1,-3,-3v-20a3,3,0,0,1,3,-3z" stroke-width="1"></path><g id="node_text3" fill="black"><text id="kity_text_41" text-rendering="inherit" font-size="14" dy=".8em" y="322.5" font-family="sans-serif" x="174.5">bl1_setup</text></g></g><g id="minder_node4"><path id="kity_path_344" fill="rgba(0, 0, 0, .25)" stroke="none" d="M173.5,558.5h75a5,5,0,0,1,5,5v14a5,5,0,0,1,-5,5h-75a5,5,0,0,1,-5,-5v-14a5,5,0,0,1,5,-5z" display="none"></path><g id="node_expander3" style="cursor: pointer;"><path id="kity_path_52" fill="white" stroke="gray" d="M153.5,565.5A6,6,0,1,1,141.5,565.5A6,6,0,1,1,153.5,565.5"></path><path id="kity_path_53" fill="none" stroke="gray" d="M143,565.5L152,565.5"></path></g><path id="node_outline4" fill="rgb(239, 238, 246)" stroke="rgb(123, 115, 191)" d="M157.5,552.5h91a3,3,0,0,1,3,3v20a3,3,0,0,1,-3,3h-91a3,3,0,0,1,-3,-3v-20a3,3,0,0,1,3,-3z" stroke-width="1"></path><g id="node_text4" fill="black"><text id="kity_text_49" text-rendering="inherit" font-size="14" dy=".8em" y="558.5" font-family="sans-serif" x="174.5">bl1_main</text></g></g><g id="minder_node5"><path id="kity_path_345" fill="rgba(0, 0, 0, .25)" stroke="none" d="M173.5,778.5h65a5,5,0,0,1,5,5v14a5,5,0,0,1,-5,5h-65a5,5,0,0,1,-5,-5v-14a5,5,0,0,1,5,-5z" display="none"></path><g id="node_expander4" style="cursor: pointer;" display="none"><path id="kity_path_60" fill="white" stroke="gray" d="M153.5,785.5A6,6,0,1,1,141.5,785.5A6,6,0,1,1,153.5,785.5"></path><path id="kity_path_61" fill="none" stroke="gray"></path></g><path id="node_outline5" fill="rgb(239, 238, 246)" stroke="rgb(123, 115, 191)" d="M157.5,772.5h82a3,3,0,0,1,3,3v20a3,3,0,0,1,-3,3h-82a3,3,0,0,1,-3,-3v-20a3,3,0,0,1,3,-3z" stroke-width="1"></path><g id="node_text5" fill="black"><text id="kity_text_57" text-rendering="inherit" font-size="14" dy=".8em" y="778.5" font-family="sans-serif" x="174.5">el3_exit</text></g></g><g id="minder_node6"><g id="node_expander5" style="cursor: pointer;" display="none"><path id="kity_path_68" fill="white" stroke="gray" d="M359.5,29.5A6,6,0,1,1,347.5,29.5A6,6,0,1,1,359.5,29.5"></path><path id="kity_path_69" fill="none" stroke="gray"></path></g><path id="node_outline6" fill="none" stroke="none" d="M364.5,20.5h51a5,5,0,0,1,5,5v8a5,5,0,0,1,-5,5h-51a5,5,0,0,1,-5,-5v-8a5,5,0,0,1,5,-5z" stroke-width="3"></path><g id="node_text6" fill="black"><text id="kity_text_65" text-rendering="inherit" font-size="12" dy=".8em" y="23.5" font-family="sans-serif" x="364.5">_init_sctlr</text></g></g><g id="minder_node7"><g id="node_expander6" style="cursor: pointer;" display="none"><path id="kity_path_76" fill="white" stroke="gray" d="M359.5,55.5A6,6,0,1,1,347.5,55.5A6,6,0,1,1,359.5,55.5"></path><path id="kity_path_77" fill="none" stroke="gray"></path></g><path id="node_outline7" fill="none" stroke="none" d="M364.5,46.5h125a5,5,0,0,1,5,5v8a5,5,0,0,1,-5,5h-125a5,5,0,0,1,-5,-5v-8a5,5,0,0,1,5,-5z" stroke-width="3"></path><g id="node_text7" fill="black"><text id="kity_text_73" text-rendering="inherit" font-size="12" dy=".8em" y="49.5" font-family="sans-serif" x="364.5">_warm_boot_mailbox</text></g></g><g id="minder_node8"><g id="node_expander7" style="cursor: pointer;" display="none"><path id="kity_path_84" fill="white" stroke="gray" d="M359.5,81.5A6,6,0,1,1,347.5,81.5A6,6,0,1,1,359.5,81.5"></path><path id="kity_path_85" fill="none" stroke="gray"></path></g><path id="node_outline8" fill="none" stroke="none" d="M364.5,72.5h52a5,5,0,0,1,5,5v8a5,5,0,0,1,-5,5h-52a5,5,0,0,1,-5,-5v-8a5,5,0,0,1,5,-5z" stroke-width="3"></path><g id="node_text8" fill="black"><text id="kity_text_81" text-rendering="inherit" font-size="12" dy=".8em" y="75.5" font-family="sans-serif" x="364.5">pie_fixup</text></g></g><g id="minder_node9"><g id="node_expander8" style="cursor: pointer;" display="none"><path id="kity_path_92" fill="white" stroke="gray" d="M359.5,107.5A6,6,0,1,1,347.5,107.5A6,6,0,1,1,359.5,107.5"></path><path id="kity_path_93" fill="none" stroke="gray"></path></g><path id="node_outline9" fill="none" stroke="none" d="M364.5,98.5h93a5,5,0,0,1,5,5v8a5,5,0,0,1,-5,5h-93a5,5,0,0,1,-5,-5v-8a5,5,0,0,1,5,-5z" stroke-width="3"></path><g id="node_text9" fill="black"><text id="kity_text_89" text-rendering="inherit" font-size="12" dy=".8em" y="101.5" font-family="sans-serif" x="364.5">vbar_el3_config</text></g></g><g id="minder_node10"><g id="node_expander9" style="cursor: pointer;" display="none"><path id="kity_path_100" fill="white" stroke="gray" d="M359.5,133.5A6,6,0,1,1,347.5,133.5A6,6,0,1,1,359.5,133.5"></path><path id="kity_path_101" fill="none" stroke="gray"></path></g><path id="node_outline10" fill="none" stroke="none" d="M364.5,124.5h79a5,5,0,0,1,5,5v8a5,5,0,0,1,-5,5h-79a5,5,0,0,1,-5,-5v-8a5,5,0,0,1,5,-5z" stroke-width="3"></path><g id="node_text10" fill="black"><text id="kity_text_97" text-rendering="inherit" font-size="12" dy=".8em" y="127.5" font-family="sans-serif" x="364.5">reset_handler</text></g></g><g id="minder_node11"><g id="node_expander10" style="cursor: pointer;" display="none"><path id="kity_path_108" fill="white" stroke="gray" d="M359.5,159.5A6,6,0,1,1,347.5,159.5A6,6,0,1,1,359.5,159.5"></path><path id="kity_path_109" fill="none" stroke="gray"></path></g><path id="node_outline11" fill="none" stroke="none" d="M364.5,150.5h131a5,5,0,0,1,5,5v8a5,5,0,0,1,-5,5h-131a5,5,0,0,1,-5,-5v-8a5,5,0,0,1,5,-5z" stroke-width="3"></path><g id="node_text11" fill="black"><text id="kity_text_105" text-rendering="inherit" font-size="12" dy=".8em" y="153.5" font-family="sans-serif" x="364.5">el3_arch_init_common</text></g></g><g id="minder_node12"><g id="node_expander11" style="cursor: pointer;" display="none"><path id="kity_path_116" fill="white" stroke="gray" d="M359.5,185.5A6,6,0,1,1,347.5,185.5A6,6,0,1,1,359.5,185.5"></path><path id="kity_path_117" fill="none" stroke="gray"></path></g><path id="node_outline12" fill="none" stroke="none" d="M364.5,176.5h134a5,5,0,0,1,5,5v8a5,5,0,0,1,-5,5h-134a5,5,0,0,1,-5,-5v-8a5,5,0,0,1,5,-5z" stroke-width="3"></path><g id="node_text12" fill="black"><text id="kity_text_113" text-rendering="inherit" font-size="12" dy=".8em" y="179.5" font-family="sans-serif" x="364.5">_secondary_cold_boot</text></g></g><g id="minder_node13"><g id="node_expander12" style="cursor: pointer;" display="none"><path id="kity_path_124" fill="white" stroke="gray" d="M359.5,211.5A6,6,0,1,1,347.5,211.5A6,6,0,1,1,359.5,211.5"></path><path id="kity_path_125" fill="none" stroke="gray"></path></g><path id="node_outline13" fill="none" stroke="none" d="M364.5,202.5h76a5,5,0,0,1,5,5v8a5,5,0,0,1,-5,5h-76a5,5,0,0,1,-5,-5v-8a5,5,0,0,1,5,-5z" stroke-width="3"></path><g id="node_text13" fill="black"><text id="kity_text_121" text-rendering="inherit" font-size="12" dy=".8em" y="205.5" font-family="sans-serif" x="364.5">_init_memory</text></g></g><g id="minder_node14"><g id="node_expander13" style="cursor: pointer;" display="none"><path id="kity_path_132" fill="white" stroke="gray" d="M359.5,237.5A6,6,0,1,1,347.5,237.5A6,6,0,1,1,359.5,237.5"></path><path id="kity_path_133" fill="none" stroke="gray"></path></g><path id="node_outline14" fill="none" stroke="none" d="M364.5,228.5h86a5,5,0,0,1,5,5v8a5,5,0,0,1,-5,5h-86a5,5,0,0,1,-5,-5v-8a5,5,0,0,1,5,-5z" stroke-width="3"></path><g id="node_text14" fill="black"><text id="kity_text_129" text-rendering="inherit" font-size="12" dy=".8em" y="231.5" font-family="sans-serif" x="364.5">_init_c_runtime</text></g></g><g id="minder_node15"><g id="node_expander14" style="cursor: pointer;" display="none"><path id="kity_path_140" fill="white" stroke="gray" d="M359.5,263.5A6,6,0,1,1,347.5,263.5A6,6,0,1,1,359.5,263.5"></path><path id="kity_path_141" fill="none" stroke="gray"></path></g><path id="node_outline15" fill="none" stroke="none" d="M364.5,254.5h106a5,5,0,0,1,5,5v8a5,5,0,0,1,-5,5h-106a5,5,0,0,1,-5,-5v-8a5,5,0,0,1,5,-5z" stroke-width="3"></path><g id="node_text15" fill="black"><text id="kity_text_137" text-rendering="inherit" font-size="12" dy=".8em" y="257.5" font-family="sans-serif" x="364.5">plat_set_my_stack</text></g></g><g id="minder_node17"><g id="node_expander16" style="cursor: pointer;"><path id="kity_path_156" fill="white" stroke="gray" d="M271.5,310.5A6,6,0,1,1,259.5,310.5A6,6,0,1,1,271.5,310.5"></path><path id="kity_path_157" fill="none" stroke="gray" d="M261,310.5L270,310.5"></path></g><path id="node_outline17" fill="none" stroke="none" d="M276.5,301.5h145a5,5,0,0,1,5,5v8a5,5,0,0,1,-5,5h-145a5,5,0,0,1,-5,-5v-8a5,5,0,0,1,5,-5z" stroke-width="3"></path><g id="node_text17" fill="black"><text id="kity_text_153" text-rendering="inherit" font-size="12" dy=".8em" y="304.5" font-family="sans-serif" x="276.5">bl1_early_platform_setup</text></g></g><g id="minder_node18"><g id="node_expander17" style="cursor: pointer;"><path id="kity_path_164" fill="white" stroke="gray" d="M271.5,349.5A6,6,0,1,1,259.5,349.5A6,6,0,1,1,271.5,349.5"></path><path id="kity_path_165" fill="none" stroke="gray" d="M261,349.5L270,349.5"></path></g><path id="node_outline18" fill="none" stroke="none" d="M276.5,340.5h117a5,5,0,0,1,5,5v8a5,5,0,0,1,-5,5h-117a5,5,0,0,1,-5,-5v-8a5,5,0,0,1,5,-5z" stroke-width="3"></path><g id="node_text18" fill="black"><text id="kity_text_161" text-rendering="inherit" font-size="12" dy=".8em" y="343.5" font-family="sans-serif" x="276.5">bl1_plat_arch_setup</text></g></g><g id="minder_node20"><g id="node_expander19" style="cursor: pointer;" display="none"><path id="kity_path_180" fill="white" stroke="gray" d="M267.5,383.5A6,6,0,1,1,255.5,383.5A6,6,0,1,1,267.5,383.5"></path><path id="kity_path_181" fill="none" stroke="gray"></path></g><path id="node_outline20" fill="none" stroke="none" d="M272.5,374.5h88a5,5,0,0,1,5,5v8a5,5,0,0,1,-5,5h-88a5,5,0,0,1,-5,-5v-8a5,5,0,0,1,5,-5z" stroke-width="3"></path><g id="node_text20" fill="black"><text id="kity_text_177" text-rendering="inherit" font-size="12" dy=".8em" y="377.5" font-family="sans-serif" x="272.5">bl1_arch_setup</text></g></g><g id="minder_node21"><g id="node_expander20" style="cursor: pointer;" display="none"><path id="kity_path_188" fill="white" stroke="gray" d="M267.5,409.5A6,6,0,1,1,255.5,409.5A6,6,0,1,1,267.5,409.5"></path><path id="kity_path_189" fill="none" stroke="gray"></path></g><path id="node_outline21" fill="none" stroke="none" d="M272.5,400.5h82a5,5,0,0,1,5,5v8a5,5,0,0,1,-5,5h-82a5,5,0,0,1,-5,-5v-8a5,5,0,0,1,5,-5z" stroke-width="3"></path><g id="node_text21" fill="black"><text id="kity_text_185" text-rendering="inherit" font-size="12" dy=".8em" y="403.5" font-family="sans-serif" x="272.5">auth_mod_init</text></g></g><g id="minder_node22"><g id="node_expander21" style="cursor: pointer;" display="none"><path id="kity_path_196" fill="white" stroke="gray" d="M267.5,435.5A6,6,0,1,1,255.5,435.5A6,6,0,1,1,267.5,435.5"></path><path id="kity_path_197" fill="none" stroke="gray"></path></g><path id="node_outline22" fill="none" stroke="none" d="M272.5,426.5h111a5,5,0,0,1,5,5v8a5,5,0,0,1,-5,5h-111a5,5,0,0,1,-5,-5v-8a5,5,0,0,1,5,-5z" stroke-width="3"></path><g id="node_text22" fill="black"><text id="kity_text_193" text-rendering="inherit" font-size="12" dy=".8em" y="429.5" font-family="sans-serif" x="272.5">bl1_platform_setup</text></g></g><g id="minder_node23"><g id="node_expander22" style="cursor: pointer;" display="none"><path id="kity_path_204" fill="white" stroke="gray" d="M267.5,461.5A6,6,0,1,1,255.5,461.5A6,6,0,1,1,267.5,461.5"></path><path id="kity_path_205" fill="none" stroke="gray"></path></g><path id="node_outline23" fill="none" stroke="none" d="M272.5,452.5h163a5,5,0,0,1,5,5v8a5,5,0,0,1,-5,5h-163a5,5,0,0,1,-5,-5v-8a5,5,0,0,1,5,-5z" stroke-width="3"></path><g id="node_text23" fill="black"><text id="kity_text_201" text-rendering="inherit" font-size="12" dy=".8em" y="455.5" font-family="sans-serif" x="272.5">bl1_plat_get_next_image_id</text></g></g><g id="minder_node24"><g id="node_expander23" style="cursor: pointer;"><path id="kity_path_212" fill="white" stroke="gray" d="M267.5,526.5A6,6,0,1,1,255.5,526.5A6,6,0,1,1,267.5,526.5"></path><path id="kity_path_213" fill="none" stroke="gray" d="M257,526.5L266,526.5"></path></g><path id="node_outline24" fill="none" stroke="none" d="M272.5,517.5h73a5,5,0,0,1,5,5v8a5,5,0,0,1,-5,5h-73a5,5,0,0,1,-5,-5v-8a5,5,0,0,1,5,-5z" stroke-width="3"></path><g id="node_text24" fill="black"><text id="kity_text_209" text-rendering="inherit" font-size="12" dy=".8em" y="520.5" font-family="sans-serif" x="272.5">bl1_load_bl2</text></g></g><g id="minder_node25"><g id="node_expander24" style="cursor: pointer;"><path id="kity_path_220" fill="white" stroke="gray" d="M267.5,656.5A6,6,0,1,1,255.5,656.5A6,6,0,1,1,267.5,656.5"></path><path id="kity_path_221" fill="none" stroke="gray" d="M257,656.5L266,656.5"></path></g><path id="node_outline25" fill="none" stroke="none" d="M272.5,647.5h145a5,5,0,0,1,5,5v8a5,5,0,0,1,-5,5h-145a5,5,0,0,1,-5,-5v-8a5,5,0,0,1,5,-5z" stroke-width="3"></path><g id="node_text25" fill="black"><text id="kity_text_217" text-rendering="inherit" font-size="12" dy=".8em" y="650.5" font-family="sans-serif" x="272.5">bl1_prepare_next_image</text></g></g><g id="minder_node26"><g id="node_expander25" style="cursor: pointer;" display="none"><path id="kity_path_228" fill="white" stroke="gray" d="M267.5,747.5A6,6,0,1,1,255.5,747.5A6,6,0,1,1,267.5,747.5"></path><path id="kity_path_229" fill="none" stroke="gray"></path></g><path id="node_outline26" fill="none" stroke="none" d="M272.5,738.5h77a5,5,0,0,1,5,5v8a5,5,0,0,1,-5,5h-77a5,5,0,0,1,-5,-5v-8a5,5,0,0,1,5,-5z" stroke-width="3"></path><g id="node_text26" fill="black"><text id="kity_text_225" text-rendering="inherit" font-size="12" dy=".8em" y="741.5" font-family="sans-serif" x="272.5">console_flush</text></g></g><g id="minder_node27"><g id="node_expander26" style="cursor: pointer;" display="none"><path id="kity_path_236" fill="white" stroke="gray" d="M442.5,297.5A6,6,0,1,1,430.5,297.5A6,6,0,1,1,442.5,297.5"></path><path id="kity_path_237" fill="none" stroke="gray"></path></g><path id="node_outline27" fill="none" stroke="none" d="M447.5,288.5h108a5,5,0,0,1,5,5v8a5,5,0,0,1,-5,5h-108a5,5,0,0,1,-5,-5v-8a5,5,0,0,1,5,-5z" stroke-width="3"></path><g id="node_text27" fill="black"><text id="kity_text_233" text-rendering="inherit" font-size="12" dy=".8em" y="291.5" font-family="sans-serif" x="447.5">qemu_console_init</text></g></g><g id="minder_node28"><g id="node_expander27" style="cursor: pointer;" display="none"><path id="kity_path_244" fill="white" stroke="gray" d="M442.5,323.5A6,6,0,1,1,430.5,323.5A6,6,0,1,1,442.5,323.5"></path><path id="kity_path_245" fill="none" stroke="gray"></path></g><path id="node_outline28" fill="none" stroke="none" d="M447.5,314.5h120a5,5,0,0,1,5,5v8a5,5,0,0,1,-5,5h-120a5,5,0,0,1,-5,-5v-8a5,5,0,0,1,5,-5z" stroke-width="3"></path><g id="node_text28" fill="black"><text id="kity_text_241" text-rendering="inherit" font-size="12" dy=".8em" y="317.5" font-family="sans-serif" x="447.5">bl1_tzram_layout_set</text></g></g><g id="minder_node29"><g id="node_expander28" style="cursor: pointer;" display="none"><path id="kity_path_252" fill="white" stroke="gray" d="M414.5,349.5A6,6,0,1,1,402.5,349.5A6,6,0,1,1,414.5,349.5"></path><path id="kity_path_253" fill="none" stroke="gray"></path></g><path id="node_outline29" fill="none" stroke="none" d="M419.5,340.5h172a5,5,0,0,1,5,5v8a5,5,0,0,1,-5,5h-172a5,5,0,0,1,-5,-5v-8a5,5,0,0,1,5,-5z" stroke-width="3"></path><g id="node_text29" fill="black"><text id="kity_text_249" text-rendering="inherit" font-size="12" dy=".8em" y="343.5" font-family="sans-serif" x="419.5">QEMU_CONFIGURE_BL1_MMU</text></g></g><g id="minder_node30"><g id="node_expander29" style="cursor: pointer;" display="none"><path id="kity_path_260" fill="white" stroke="gray" d="M366.5,487.5A6,6,0,1,1,354.5,487.5A6,6,0,1,1,366.5,487.5"></path><path id="kity_path_261" fill="none" stroke="gray"></path></g><path id="node_outline30" fill="none" stroke="none" d="M371.5,478.5h150a5,5,0,0,1,5,5v8a5,5,0,0,1,-5,5h-150a5,5,0,0,1,-5,-5v-8a5,5,0,0,1,5,-5z" stroke-width="3"></path><g id="node_text30" fill="black"><text id="kity_text_257" text-rendering="inherit" font-size="12" dy=".8em" y="481.5" font-family="sans-serif" x="371.5">bl1_plat_get_image_desc</text></g></g><g id="minder_node31"><g id="node_expander30" style="cursor: pointer;" display="none"><path id="kity_path_268" fill="white" stroke="gray" d="M366.5,513.5A6,6,0,1,1,354.5,513.5A6,6,0,1,1,366.5,513.5"></path><path id="kity_path_269" fill="none" stroke="gray"></path></g><path id="node_outline31" fill="none" stroke="none" d="M371.5,504.5h195a5,5,0,0,1,5,5v8a5,5,0,0,1,-5,5h-195a5,5,0,0,1,-5,-5v-8a5,5,0,0,1,5,-5z" stroke-width="3"></path><g id="node_text31" fill="black"><text id="kity_text_265" text-rendering="inherit" font-size="12" dy=".8em" y="507.5" font-family="sans-serif" x="371.5">bl1_plat_handle_pre_image_load</text></g></g><g id="minder_node32"><g id="node_expander31" style="cursor: pointer;" display="none"><path id="kity_path_276" fill="white" stroke="gray" d="M366.5,539.5A6,6,0,1,1,354.5,539.5A6,6,0,1,1,366.5,539.5"></path><path id="kity_path_277" fill="none" stroke="gray"></path></g><path id="node_outline32" fill="none" stroke="none" d="M371.5,530.5h103a5,5,0,0,1,5,5v8a5,5,0,0,1,-5,5h-103a5,5,0,0,1,-5,-5v-8a5,5,0,0,1,5,-5z" stroke-width="3"></path><g id="node_text32" fill="black"><text id="kity_text_273" text-rendering="inherit" font-size="12" dy=".8em" y="533.5" font-family="sans-serif" x="371.5">load_auth_image</text></g></g><g id="minder_node33"><g id="node_expander32" style="cursor: pointer;" display="none"><path id="kity_path_284" fill="white" stroke="gray" d="M366.5,565.5A6,6,0,1,1,354.5,565.5A6,6,0,1,1,366.5,565.5"></path><path id="kity_path_285" fill="none" stroke="gray"></path></g><path id="node_outline33" fill="none" stroke="none" d="M371.5,556.5h201a5,5,0,0,1,5,5v8a5,5,0,0,1,-5,5h-201a5,5,0,0,1,-5,-5v-8a5,5,0,0,1,5,-5z" stroke-width="3"></path><g id="node_text33" fill="black"><text id="kity_text_281" text-rendering="inherit" font-size="12" dy=".8em" y="559.5" font-family="sans-serif" x="371.5">bl1_plat_handle_post_image_load</text></g></g><g id="minder_node35"><g id="node_expander34" style="cursor: pointer;" display="none"><path id="kity_path_300" fill="white" stroke="gray" d="M438.5,591.5A6,6,0,1,1,426.5,591.5A6,6,0,1,1,438.5,591.5"></path><path id="kity_path_301" fill="none" stroke="gray"></path></g><path id="node_outline35" fill="none" stroke="none" d="M443.5,582.5h150a5,5,0,0,1,5,5v8a5,5,0,0,1,-5,5h-150a5,5,0,0,1,-5,-5v-8a5,5,0,0,1,5,-5z" stroke-width="3"></path><g id="node_text35" fill="black"><text id="kity_text_297" text-rendering="inherit" font-size="12" dy=".8em" y="585.5" font-family="sans-serif" x="443.5">bl1_plat_get_image_desc</text></g></g><g id="minder_node36"><g id="node_expander35" style="cursor: pointer;" display="none"><path id="kity_path_308" fill="white" stroke="gray" d="M438.5,617.5A6,6,0,1,1,426.5,617.5A6,6,0,1,1,438.5,617.5"></path><path id="kity_path_309" fill="none" stroke="gray"></path></g><path id="node_outline36" fill="none" stroke="none" d="M443.5,608.5h92a5,5,0,0,1,5,5v8a5,5,0,0,1,-5,5h-92a5,5,0,0,1,-5,-5v-8a5,5,0,0,1,5,-5z" stroke-width="3"></path><g id="node_text36" fill="black"><text id="kity_text_305" text-rendering="inherit" font-size="12" dy=".8em" y="611.5" font-family="sans-serif" x="443.5">cm_set_context</text></g></g><g id="minder_node37"><g id="node_expander36" style="cursor: pointer;" display="none"><path id="kity_path_316" fill="white" stroke="gray" d="M438.5,643.5A6,6,0,1,1,426.5,643.5A6,6,0,1,1,438.5,643.5"></path><path id="kity_path_317" fill="none" stroke="gray"></path></g><path id="node_outline37" fill="none" stroke="none" d="M443.5,634.5h118a5,5,0,0,1,5,5v8a5,5,0,0,1,-5,5h-118a5,5,0,0,1,-5,-5v-8a5,5,0,0,1,5,-5z" stroke-width="3"></path><g id="node_text37" fill="black"><text id="kity_text_313" text-rendering="inherit" font-size="12" dy=".8em" y="637.5" font-family="sans-serif" x="443.5">bl1_plat_set_ep_info</text></g></g><g id="minder_node38"><g id="node_expander37" style="cursor: pointer;" display="none"><path id="kity_path_324" fill="white" stroke="gray" d="M438.5,669.5A6,6,0,1,1,426.5,669.5A6,6,0,1,1,438.5,669.5"></path><path id="kity_path_325" fill="none" stroke="gray"></path></g><path id="node_outline38" fill="none" stroke="none" d="M443.5,660.5h116a5,5,0,0,1,5,5v8a5,5,0,0,1,-5,5h-116a5,5,0,0,1,-5,-5v-8a5,5,0,0,1,5,-5z" stroke-width="3"></path><g id="node_text38" fill="black"><text id="kity_text_321" text-rendering="inherit" font-size="12" dy=".8em" y="663.5" font-family="sans-serif" x="443.5">cm_init_my_context</text></g></g><g id="minder_node39"><g id="node_expander38" style="cursor: pointer;" display="none"><path id="kity_path_332" fill="white" stroke="gray" d="M438.5,695.5A6,6,0,1,1,426.5,695.5A6,6,0,1,1,438.5,695.5"></path><path id="kity_path_333" fill="none" stroke="gray"></path></g><path id="node_outline39" fill="none" stroke="none" d="M443.5,686.5h121a5,5,0,0,1,5,5v8a5,5,0,0,1,-5,5h-121a5,5,0,0,1,-5,-5v-8a5,5,0,0,1,5,-5z" stroke-width="3"></path><g id="node_text39" fill="black"><text id="kity_text_329" text-rendering="inherit" font-size="12" dy=".8em" y="689.5" font-family="sans-serif" x="443.5">cm_prepare_el3_exit</text></g></g><g id="minder_node40"><g id="node_expander39" style="cursor: pointer;" display="none"><path id="kity_path_340" fill="white" stroke="gray" d="M438.5,721.5A6,6,0,1,1,426.5,721.5A6,6,0,1,1,438.5,721.5"></path><path id="kity_path_341" fill="none" stroke="gray"></path></g><path id="node_outline40" fill="none" stroke="none" d="M443.5,712.5h124a5,5,0,0,1,5,5v8a5,5,0,0,1,-5,5h-124a5,5,0,0,1,-5,-5v-8a5,5,0,0,1,5,-5z" stroke-width="3"></path><g id="node_text40" fill="black"><text id="kity_text_337" text-rendering="inherit" font-size="12" dy=".8em" y="715.5" font-family="sans-serif" x="443.5">print_entry_point_info</text></g></g></g></g></svg>