<svg id="kity_svg_6" xmlns="http://www.w3.org/2000/svg" xmlns:xlink="http://www.w3.org/1999/xlink" version="1.1" width="462" height="754" style="background: rgb(251, 251, 251); visibility: visible;" viewBox="0 0 462 754"><defs id="kity_defs_7"><linearGradient id="kity_linearGradient_17" x1="0" y1="0" x2="0" y2="1"><stop id="kity_stop_18" offset="0" stop-color="rgb(255, 255, 255)"></stop><stop id="kity_stop_19" offset="1" stop-color="rgb(204, 204, 204)"></stop></linearGradient><marker id="kity_marker_4" orient="auto" refX="6" refY="0" viewBox="-7 -7 14 14" markerWidth="7" markerHeight="7" markerUnits="userSpaceOnUse"><path id="kity_path_5" fill="rgb(115, 161, 191)" stroke="none" d="M6,0A6,6,0,1,1,-6,0A6,6,0,1,1,6,0"></path></marker><marker id="kity_marker_2" orient="auto" refX="6" refY="0" viewBox="-7 -7 14 14" markerWidth="7" markerHeight="7" markerUnits="userSpaceOnUse"><path id="kity_path_3" fill="rgb(123, 115, 191)" stroke="none" d="M6,0A6,6,0,1,1,-6,0A6,6,0,1,1,6,0"></path></marker></defs><g id="kity_g_8"><g id="minder1" text-rendering="optimize-speed"><g id="minder_connect_group1"><path id="kity_path_31" fill="none" stroke="rgb(123, 115, 191)" stroke-width="1" d="M93.5,320.5A89,287,0,0,1,182.5,33.5"></path><path id="kity_path_39" fill="none" stroke="rgb(123, 115, 191)" stroke-width="1" d="M93.5,320.5A89,245,0,0,1,182.5,75.5"></path><path id="kity_path_47" fill="none" stroke="rgb(123, 115, 191)" stroke-width="1" d="M93.5,320.5A89,203,0,0,1,182.5,117.5"></path><path id="kity_path_55" fill="none" stroke="rgb(123, 115, 191)" stroke-width="1" d="M93.5,320.5A89,161,0,0,1,182.5,159.5"></path><path id="kity_path_63" fill="none" stroke="rgb(123, 115, 191)" stroke-width="1" d="M93.5,320.5A89,119,0,0,1,182.5,201.5"></path><path id="kity_path_71" fill="none" stroke="rgb(123, 115, 191)" stroke-width="1" d="M93.5,320.5A89,77,0,0,1,182.5,243.5"></path><path id="kity_path_79" fill="none" stroke="rgb(123, 115, 191)" stroke-width="1" d="M93.5,320.5A89,35,0,0,1,182.5,285.5"></path><path id="kity_path_87" fill="none" stroke="rgb(123, 115, 191)" stroke-width="1" d="M93.5,320.5A89,7,0,0,0,182.5,327.5"></path><path id="kity_path_95" fill="none" stroke="rgb(123, 115, 191)" stroke-width="1" d="M93.5,320.5A89,49,0,0,0,182.5,369.5"></path><path id="kity_path_103" fill="none" stroke="rgb(123, 115, 191)" stroke-width="1" d="M93.5,320.5A89,91,0,0,0,182.5,411.5"></path><path id="kity_path_111" fill="none" stroke="rgb(123, 115, 191)" stroke-width="1" d="M93.5,320.5A89,133,0,0,0,182.5,453.5"></path><path id="kity_path_119" fill="none" stroke="rgb(123, 115, 191)" stroke-width="1" d="M93.5,320.5A89,288,0,0,0,182.5,608.5"></path><path id="kity_path_135" fill="none" stroke="rgb(123, 115, 191)" stroke-width="1" d="M265.5,608.5C273.5,608.5,273.5,491.5,281.5,491.5"></path><path id="kity_path_143" fill="none" stroke="rgb(123, 115, 191)" stroke-width="1" d="M265.5,608.5C273.5,608.5,273.5,517.5,281.5,517.5"></path><path id="kity_path_151" fill="none" stroke="rgb(123, 115, 191)" stroke-width="1" d="M265.5,608.5C273.5,608.5,273.5,543.5,281.5,543.5"></path><path id="kity_path_159" fill="none" stroke="rgb(123, 115, 191)" stroke-width="1" d="M265.5,608.5C273.5,608.5,273.5,569.5,281.5,569.5"></path><path id="kity_path_167" fill="none" stroke="rgb(123, 115, 191)" stroke-width="1" d="M265.5,608.5C273.5,608.5,273.5,595.5,281.5,595.5"></path><path id="kity_path_175" fill="none" stroke="rgb(123, 115, 191)" stroke-width="1" d="M265.5,608.5C273.5,608.5,273.5,621.5,281.5,621.5"></path><path id="kity_path_183" fill="none" stroke="rgb(123, 115, 191)" stroke-width="1" d="M265.5,608.5C273.5,608.5,273.5,647.5,281.5,647.5"></path><path id="kity_path_191" fill="none" stroke="rgb(123, 115, 191)" stroke-width="1" d="M265.5,608.5C273.5,608.5,273.5,673.5,281.5,673.5"></path><path id="kity_path_199" fill="none" stroke="rgb(123, 115, 191)" stroke-width="1" d="M265.5,608.5C273.5,608.5,273.5,699.5,281.5,699.5"></path><path id="kity_path_207" fill="none" stroke="rgb(123, 115, 191)" stroke-width="1" d="M265.5,608.5C273.5,608.5,273.5,725.5,281.5,725.5"></path></g><g id="minder_node1"><path id="kity_path_226" fill="rgba(0, 0, 0, .25)" stroke="none" d="M33.5,303.5h121a22,22,0,0,1,22,22v0a22,22,0,0,1,-22,22h-121a22,22,0,0,1,-22,-22v0a22,22,0,0,1,22,-22z" display="none"></path><path id="node_outline1" fill="rgb(123, 115, 191)" stroke="rgb(123, 115, 191)" d="M25.5,306.5h136a5,5,0,0,1,5,5v18a5,5,0,0,1,-5,5h-136a5,5,0,0,1,-5,-5v-18a5,5,0,0,1,5,-5z" stroke-width="3"></path><g id="node_text1" fill="white"><text id="kity_text_22" text-rendering="inherit" font-size="16" dy=".8em" y="312.5" font-family="sans-serif" x="32.5">uboot_init (BL33)</text></g></g><g id="kity_g_12"><path id="kity_path_13" fill="none" stroke="none" d="M32.5,320.5h0v0h0z"></path></g><g id="kity_g_14"><path id="kity_path_15" fill="none" stroke="none" d="M32.5,320.5h0v0h0z"></path><path id="kity_path_16" fill="none" stroke="none"></path></g><g id="minder_node2"><path id="kity_path_214" fill="rgba(0, 0, 0, .25)" stroke="none" d="M203.5,25.5h55a10,10,0,0,1,10,10v6a10,10,0,0,1,-10,10h-55a10,10,0,0,1,-10,-10v-6a10,10,0,0,1,10,-10z" display="none"></path><g id="node_expander1" style="cursor: pointer;" display="none"><path id="kity_path_36" fill="white" stroke="gray" d="M183.5,33.5A6,6,0,1,1,171.5,33.5A6,6,0,1,1,183.5,33.5"></path><path id="kity_path_37" fill="none" stroke="gray"></path></g><path id="node_outline2" fill="rgb(239, 238, 246)" stroke="rgb(123, 115, 191)" d="M187.5,20.5h74a3,3,0,0,1,3,3v20a3,3,0,0,1,-3,3h-74a3,3,0,0,1,-3,-3v-20a3,3,0,0,1,3,-3z" stroke-width="1"></path><g id="node_text2" fill="black"><text id="kity_text_33" text-rendering="inherit" font-size="14" dy=".8em" y="26.5" font-family="sans-serif" x="204.5">_reset</text></g></g><g id="minder_node3"><path id="kity_path_215" fill="rgba(0, 0, 0, .25)" stroke="none" d="M203.5,67.5h158a10,10,0,0,1,10,10v6a10,10,0,0,1,-10,10h-158a10,10,0,0,1,-10,-10v-6a10,10,0,0,1,10,-10z" display="none"></path><g id="node_expander2" style="cursor: pointer;" display="none"><path id="kity_path_44" fill="white" stroke="gray" d="M183.5,75.5A6,6,0,1,1,171.5,75.5A6,6,0,1,1,183.5,75.5"></path><path id="kity_path_45" fill="none" stroke="gray"></path></g><path id="node_outline3" fill="rgb(239, 238, 246)" stroke="rgb(123, 115, 191)" d="M187.5,62.5h164a3,3,0,0,1,3,3v20a3,3,0,0,1,-3,3h-164a3,3,0,0,1,-3,-3v-20a3,3,0,0,1,3,-3z" stroke-width="1"></path><g id="node_text3" fill="black"><text id="kity_text_41" text-rendering="inherit" font-size="14" dy=".8em" y="68.5" font-family="sans-serif" x="204.5">save_boot_params</text></g></g><g id="minder_node4"><path id="kity_path_216" fill="rgba(0, 0, 0, .25)" stroke="none" d="M203.5,109.5h105a10,10,0,0,1,10,10v6a10,10,0,0,1,-10,10h-105a10,10,0,0,1,-10,-10v-6a10,10,0,0,1,10,-10z" display="none"></path><g id="node_expander3" style="cursor: pointer;" display="none"><path id="kity_path_52" fill="white" stroke="gray" d="M183.5,117.5A6,6,0,1,1,171.5,117.5A6,6,0,1,1,183.5,117.5"></path><path id="kity_path_53" fill="none" stroke="gray"></path></g><path id="node_outline4" fill="rgb(239, 238, 246)" stroke="rgb(123, 115, 191)" d="M187.5,104.5h117a3,3,0,0,1,3,3v20a3,3,0,0,1,-3,3h-117a3,3,0,0,1,-3,-3v-20a3,3,0,0,1,3,-3z" stroke-width="1"></path><g id="node_text4" fill="black"><text id="kity_text_49" text-rendering="inherit" font-size="14" dy=".8em" y="110.5" font-family="sans-serif" x="204.5">align_check</text></g></g><g id="minder_node5"><path id="kity_path_217" fill="rgba(0, 0, 0, .25)" stroke="none" d="M203.5,151.5h79a10,10,0,0,1,10,10v6a10,10,0,0,1,-10,10h-79a10,10,0,0,1,-10,-10v-6a10,10,0,0,1,10,-10z" display="none"></path><g id="node_expander4" style="cursor: pointer;" display="none"><path id="kity_path_60" fill="white" stroke="gray" d="M183.5,159.5A6,6,0,1,1,171.5,159.5A6,6,0,1,1,183.5,159.5"></path><path id="kity_path_61" fill="none" stroke="gray"></path></g><path id="node_outline5" fill="rgb(239, 238, 246)" stroke="rgb(123, 115, 191)" d="M187.5,146.5h94a3,3,0,0,1,3,3v20a3,3,0,0,1,-3,3h-94a3,3,0,0,1,-3,-3v-20a3,3,0,0,1,3,-3z" stroke-width="1"></path><g id="node_text5" fill="black"><text id="kity_text_57" text-rendering="inherit" font-size="14" dy=".8em" y="152.5" font-family="sans-serif" x="204.5">pie_fixup</text></g></g><g id="minder_node6"><path id="kity_path_218" fill="rgba(0, 0, 0, .25)" stroke="none" d="M203.5,193.5h85a10,10,0,0,1,10,10v6a10,10,0,0,1,-10,10h-85a10,10,0,0,1,-10,-10v-6a10,10,0,0,1,10,-10z" display="none"></path><g id="node_expander5" style="cursor: pointer;" display="none"><path id="kity_path_68" fill="white" stroke="gray" d="M183.5,201.5A6,6,0,1,1,171.5,201.5A6,6,0,1,1,183.5,201.5"></path><path id="kity_path_69" fill="none" stroke="gray"></path></g><path id="node_outline6" fill="rgb(239, 238, 246)" stroke="rgb(123, 115, 191)" d="M187.5,188.5h100a3,3,0,0,1,3,3v20a3,3,0,0,1,-3,3h-100a3,3,0,0,1,-3,-3v-20a3,3,0,0,1,3,-3z" stroke-width="1"></path><g id="node_text6" fill="black"><text id="kity_text_65" text-rendering="inherit" font-size="14" dy=".8em" y="194.5" font-family="sans-serif" x="204.5">reset_sctrl</text></g></g><g id="minder_node7"><path id="kity_path_219" fill="rgba(0, 0, 0, .25)" stroke="none" d="M203.5,235.5h169a10,10,0,0,1,10,10v6a10,10,0,0,1,-10,10h-169a10,10,0,0,1,-10,-10v-6a10,10,0,0,1,10,-10z" display="none"></path><g id="node_expander6" style="cursor: pointer;" display="none"><path id="kity_path_76" fill="white" stroke="gray" d="M183.5,243.5A6,6,0,1,1,171.5,243.5A6,6,0,1,1,183.5,243.5"></path><path id="kity_path_77" fill="none" stroke="gray"></path></g><path id="node_outline7" fill="rgb(239, 238, 246)" stroke="rgb(123, 115, 191)" d="M187.5,230.5h173a3,3,0,0,1,3,3v20a3,3,0,0,1,-3,3h-173a3,3,0,0,1,-3,-3v-20a3,3,0,0,1,3,-3z" stroke-width="1"></path><g id="node_text7" fill="black"><text id="kity_text_73" text-rendering="inherit" font-size="14" dy=".8em" y="236.5" font-family="sans-serif" x="204.5">set exception vector</text></g></g><g id="minder_node8"><path id="kity_path_220" fill="rgba(0, 0, 0, .25)" stroke="none" d="M203.5,277.5h82a10,10,0,0,1,10,10v6a10,10,0,0,1,-10,10h-82a10,10,0,0,1,-10,-10v-6a10,10,0,0,1,10,-10z" display="none"></path><g id="node_expander7" style="cursor: pointer;" display="none"><path id="kity_path_84" fill="white" stroke="gray" d="M183.5,285.5A6,6,0,1,1,171.5,285.5A6,6,0,1,1,183.5,285.5"></path><path id="kity_path_85" fill="none" stroke="gray"></path></g><path id="node_outline8" fill="rgb(239, 238, 246)" stroke="rgb(123, 115, 191)" d="M187.5,272.5h97a3,3,0,0,1,3,3v20a3,3,0,0,1,-3,3h-97a3,3,0,0,1,-3,-3v-20a3,3,0,0,1,3,-3z" stroke-width="1"></path><g id="node_text8" fill="black"><text id="kity_text_81" text-rendering="inherit" font-size="14" dy=".8em" y="278.5" font-family="sans-serif" x="204.5">init cntfrq</text></g></g><g id="minder_node9"><path id="kity_path_221" fill="rgba(0, 0, 0, .25)" stroke="none" d="M203.5,319.5h88a10,10,0,0,1,10,10v6a10,10,0,0,1,-10,10h-88a10,10,0,0,1,-10,-10v-6a10,10,0,0,1,10,-10z" display="none"></path><g id="node_expander8" style="cursor: pointer;" display="none"><path id="kity_path_92" fill="white" stroke="gray" d="M183.5,327.5A6,6,0,1,1,171.5,327.5A6,6,0,1,1,183.5,327.5"></path><path id="kity_path_93" fill="none" stroke="gray"></path></g><path id="node_outline9" fill="rgb(239, 238, 246)" stroke="rgb(123, 115, 191)" d="M187.5,314.5h103a3,3,0,0,1,3,3v20a3,3,0,0,1,-3,3h-103a3,3,0,0,1,-3,-3v-20a3,3,0,0,1,3,-3z" stroke-width="1"></path><g id="node_text9" fill="black"><text id="kity_text_89" text-rendering="inherit" font-size="14" dy=".8em" y="320.5" font-family="sans-serif" x="204.5">set smpen</text></g></g><g id="minder_node10"><path id="kity_path_222" fill="rgba(0, 0, 0, .25)" stroke="none" d="M203.5,361.5h154a10,10,0,0,1,10,10v6a10,10,0,0,1,-10,10h-154a10,10,0,0,1,-10,-10v-6a10,10,0,0,1,10,-10z" display="none"></path><g id="node_expander9" style="cursor: pointer;" display="none"><path id="kity_path_100" fill="white" stroke="gray" d="M183.5,369.5A6,6,0,1,1,171.5,369.5A6,6,0,1,1,183.5,369.5"></path><path id="kity_path_101" fill="none" stroke="gray"></path></g><path id="node_outline10" fill="rgb(239, 238, 246)" stroke="rgb(123, 115, 191)" d="M187.5,356.5h160a3,3,0,0,1,3,3v20a3,3,0,0,1,-3,3h-160a3,3,0,0,1,-3,-3v-20a3,3,0,0,1,3,-3z" stroke-width="1"></path><g id="node_text10" fill="black"><text id="kity_text_97" text-rendering="inherit" font-size="14" dy=".8em" y="362.5" font-family="sans-serif" x="204.5">apply_core_errata</text></g></g><g id="minder_node11"><path id="kity_path_223" fill="rgba(0, 0, 0, .25)" stroke="none" d="M203.5,403.5h103a10,10,0,0,1,10,10v6a10,10,0,0,1,-10,10h-103a10,10,0,0,1,-10,-10v-6a10,10,0,0,1,10,-10z" display="none"></path><g id="node_expander10" style="cursor: pointer;" display="none"><path id="kity_path_108" fill="white" stroke="gray" d="M183.5,411.5A6,6,0,1,1,171.5,411.5A6,6,0,1,1,183.5,411.5"></path><path id="kity_path_109" fill="none" stroke="gray"></path></g><path id="node_outline11" fill="rgb(239, 238, 246)" stroke="rgb(123, 115, 191)" d="M187.5,398.5h115a3,3,0,0,1,3,3v20a3,3,0,0,1,-3,3h-115a3,3,0,0,1,-3,-3v-20a3,3,0,0,1,3,-3z" stroke-width="1"></path><g id="node_text11" fill="black"><text id="kity_text_105" text-rendering="inherit" font-size="14" dy=".8em" y="404.5" font-family="sans-serif" x="204.5">lowlevel_init</text></g></g><g id="minder_node12"><path id="kity_path_224" fill="rgba(0, 0, 0, .25)" stroke="none" d="M203.5,445.5h186a10,10,0,0,1,10,10v6a10,10,0,0,1,-10,10h-186a10,10,0,0,1,-10,-10v-6a10,10,0,0,1,10,-10z" display="none"></path><g id="node_expander11" style="cursor: pointer;" display="none"><path id="kity_path_116" fill="white" stroke="gray" d="M183.5,453.5A6,6,0,1,1,171.5,453.5A6,6,0,1,1,183.5,453.5"></path><path id="kity_path_117" fill="none" stroke="gray"></path></g><path id="node_outline12" fill="#00b050" stroke="rgb(123, 115, 191)" d="M187.5,440.5h188a3,3,0,0,1,3,3v20a3,3,0,0,1,-3,3h-188a3,3,0,0,1,-3,-3v-20a3,3,0,0,1,3,-3z" stroke-width="1"></path><g id="node_text12" fill="black"><text id="kity_text_113" text-rendering="inherit" font-size="14" dy=".8em" y="446.5" font-family="sans-serif" x="204.5">secondary cpu handle</text></g></g><g id="minder_node13"><path id="kity_path_225" fill="rgba(0, 0, 0, .25)" stroke="none" d="M203.5,600.5h57a10,10,0,0,1,10,10v6a10,10,0,0,1,-10,10h-57a10,10,0,0,1,-10,-10v-6a10,10,0,0,1,10,-10z" display="none"></path><g id="node_expander12" style="cursor: pointer;"><path id="kity_path_124" fill="white" stroke="gray" d="M183.5,608.5A6,6,0,1,1,171.5,608.5A6,6,0,1,1,183.5,608.5"></path><path id="kity_path_125" fill="none" stroke="gray" d="M173,608.5L182,608.5"></path></g><path id="node_outline13" fill="rgb(239, 238, 246)" stroke="rgb(123, 115, 191)" d="M187.5,595.5h75a3,3,0,0,1,3,3v20a3,3,0,0,1,-3,3h-75a3,3,0,0,1,-3,-3v-20a3,3,0,0,1,3,-3z" stroke-width="1"></path><g id="node_text13" fill="black"><text id="kity_text_121" text-rendering="inherit" font-size="14" dy=".8em" y="601.5" font-family="sans-serif" x="204.5">_main</text></g></g><g id="minder_node15"><g id="node_expander14" style="cursor: pointer;" display="none"><path id="kity_path_140" fill="white" stroke="gray" d="M281.5,491.5A6,6,0,1,1,269.5,491.5A6,6,0,1,1,281.5,491.5"></path><path id="kity_path_141" fill="none" stroke="gray"></path></g><path id="node_outline15" fill="none" stroke="none" d="M286.5,482.5h53a5,5,0,0,1,5,5v8a5,5,0,0,1,-5,5h-53a5,5,0,0,1,-5,-5v-8a5,5,0,0,1,5,-5z" stroke-width="3"></path><g id="node_text15" fill="black"><text id="kity_text_137" text-rendering="inherit" font-size="12" dy=".8em" y="485.5" font-family="sans-serif" x="286.5">set_stack</text></g></g><g id="minder_node16"><g id="node_expander15" style="cursor: pointer;" display="none"><path id="kity_path_148" fill="white" stroke="gray" d="M281.5,517.5A6,6,0,1,1,269.5,517.5A6,6,0,1,1,281.5,517.5"></path><path id="kity_path_149" fill="none" stroke="gray"></path></g><path id="node_outline16" fill="none" stroke="none" d="M286.5,508.5h151a5,5,0,0,1,5,5v8a5,5,0,0,1,-5,5h-151a5,5,0,0,1,-5,-5v-8a5,5,0,0,1,5,-5z" stroke-width="3"></path><g id="node_text16" fill="black"><text id="kity_text_145" text-rendering="inherit" font-size="12" dy=".8em" y="511.5" font-family="sans-serif" x="286.5">board_init_f_alloc_reserve</text></g></g><g id="minder_node17"><g id="node_expander16" style="cursor: pointer;" display="none"><path id="kity_path_156" fill="white" stroke="gray" d="M281.5,543.5A6,6,0,1,1,269.5,543.5A6,6,0,1,1,281.5,543.5"></path><path id="kity_path_157" fill="none" stroke="gray"></path></g><path id="node_outline17" fill="#00b050" stroke="none" d="M286.5,534.5h36a5,5,0,0,1,5,5v8a5,5,0,0,1,-5,5h-36a5,5,0,0,1,-5,-5v-8a5,5,0,0,1,5,-5z" stroke-width="3"></path><g id="node_text17" fill="black"><text id="kity_text_153" text-rendering="inherit" font-size="12" dy=".8em" y="537.5" font-family="sans-serif" x="286.5">set gd</text></g></g><g id="minder_node18"><g id="node_expander17" style="cursor: pointer;" display="none"><path id="kity_path_164" fill="white" stroke="gray" d="M281.5,569.5A6,6,0,1,1,269.5,569.5A6,6,0,1,1,281.5,569.5"></path><path id="kity_path_165" fill="none" stroke="gray"></path></g><path id="node_outline18" fill="none" stroke="none" d="M286.5,560.5h138a5,5,0,0,1,5,5v8a5,5,0,0,1,-5,5h-138a5,5,0,0,1,-5,-5v-8a5,5,0,0,1,5,-5z" stroke-width="3"></path><g id="node_text18" fill="black"><text id="kity_text_161" text-rendering="inherit" font-size="12" dy=".8em" y="563.5" font-family="sans-serif" x="286.5">board_init_f_init_reserve</text></g></g><g id="minder_node19"><g id="node_expander18" style="cursor: pointer;" display="none"><path id="kity_path_172" fill="white" stroke="gray" d="M281.5,595.5A6,6,0,1,1,269.5,595.5A6,6,0,1,1,281.5,595.5"></path><path id="kity_path_173" fill="none" stroke="gray"></path></g><path id="node_outline19" fill="none" stroke="none" d="M286.5,586.5h68a5,5,0,0,1,5,5v8a5,5,0,0,1,-5,5h-68a5,5,0,0,1,-5,-5v-8a5,5,0,0,1,5,-5z" stroke-width="3"></path><g id="node_text19" fill="black"><text id="kity_text_169" text-rendering="inherit" font-size="12" dy=".8em" y="589.5" font-family="sans-serif" x="286.5">board_init_f</text></g></g><g id="minder_node20"><g id="node_expander19" style="cursor: pointer;" display="none"><path id="kity_path_180" fill="white" stroke="gray" d="M281.5,621.5A6,6,0,1,1,269.5,621.5A6,6,0,1,1,281.5,621.5"></path><path id="kity_path_181" fill="none" stroke="gray"></path></g><path id="node_outline20" fill="#00b050" stroke="none" d="M286.5,612.5h135a5,5,0,0,1,5,5v8a5,5,0,0,1,-5,5h-135a5,5,0,0,1,-5,-5v-8a5,5,0,0,1,5,-5z" stroke-width="3"></path><g id="node_text20" fill="black"><text id="kity_text_177" text-rendering="inherit" font-size="12" dy=".8em" y="615.5" font-family="sans-serif" x="286.5">code relocate prepare</text></g></g><g id="minder_node21"><g id="node_expander20" style="cursor: pointer;" display="none"><path id="kity_path_188" fill="white" stroke="gray" d="M281.5,647.5A6,6,0,1,1,269.5,647.5A6,6,0,1,1,281.5,647.5"></path><path id="kity_path_189" fill="none" stroke="gray"></path></g><path id="node_outline21" fill="#00b050" stroke="none" d="M286.5,638.5h87a5,5,0,0,1,5,5v8a5,5,0,0,1,-5,5h-87a5,5,0,0,1,-5,-5v-8a5,5,0,0,1,5,-5z" stroke-width="3"></path><g id="node_text21" fill="black"><text id="kity_text_185" text-rendering="inherit" font-size="12" dy=".8em" y="641.5" font-family="sans-serif" x="286.5">relocate_code</text></g></g><g id="minder_node22"><g id="node_expander21" style="cursor: pointer;" display="none"><path id="kity_path_196" fill="white" stroke="gray" d="M281.5,673.5A6,6,0,1,1,269.5,673.5A6,6,0,1,1,281.5,673.5"></path><path id="kity_path_197" fill="none" stroke="gray"></path></g><path id="node_outline22" fill="#ffffff" stroke="none" d="M286.5,664.5h125a5,5,0,0,1,5,5v8a5,5,0,0,1,-5,5h-125a5,5,0,0,1,-5,-5v-8a5,5,0,0,1,5,-5z" stroke-width="3"></path><g id="node_text22" fill="black"><text id="kity_text_193" text-rendering="inherit" font-size="12" dy=".8em" y="667.5" font-family="sans-serif" x="286.5">c_runtime_cpu_setup</text></g></g><g id="minder_node23"><g id="node_expander22" style="cursor: pointer;" display="none"><path id="kity_path_204" fill="white" stroke="gray" d="M281.5,699.5A6,6,0,1,1,269.5,699.5A6,6,0,1,1,281.5,699.5"></path><path id="kity_path_205" fill="none" stroke="gray"></path></g><path id="node_outline23" fill="none" stroke="none" d="M286.5,690.5h50a5,5,0,0,1,5,5v8a5,5,0,0,1,-5,5h-50a5,5,0,0,1,-5,-5v-8a5,5,0,0,1,5,-5z" stroke-width="3"></path><g id="node_text23" fill="black"><text id="kity_text_201" text-rendering="inherit" font-size="12" dy=".8em" y="693.5" font-family="sans-serif" x="286.5">clear bss</text></g></g><g id="minder_node24"><g id="node_expander23" style="cursor: pointer;" display="none"><path id="kity_path_212" fill="white" stroke="gray" d="M281.5,725.5A6,6,0,1,1,269.5,725.5A6,6,0,1,1,281.5,725.5"></path><path id="kity_path_213" fill="none" stroke="gray"></path></g><path id="node_outline24" fill="none" stroke="none" d="M286.5,716.5h68a5,5,0,0,1,5,5v8a5,5,0,0,1,-5,5h-68a5,5,0,0,1,-5,-5v-8a5,5,0,0,1,5,-5z" stroke-width="3"></path><g id="node_text24" fill="black"><text id="kity_text_209" text-rendering="inherit" font-size="12" dy=".8em" y="719.5" font-family="sans-serif" x="286.5">board_init_r</text></g></g></g></g></svg>