<svg id="kity_svg_6" xmlns="http://www.w3.org/2000/svg" xmlns:xlink="http://www.w3.org/1999/xlink" version="1.1" width="733" height="1028" style="background: rgb(251, 251, 251); visibility: visible;" viewBox="0 0 733 1028"><defs id="kity_defs_7"><linearGradient id="kity_linearGradient_17" x1="0" y1="0" x2="0" y2="1"><stop id="kity_stop_18" offset="0" stop-color="rgb(255, 255, 255)"></stop><stop id="kity_stop_19" offset="1" stop-color="rgb(204, 204, 204)"></stop></linearGradient><marker id="kity_marker_2" orient="auto" refX="6" refY="0" viewBox="-7 -7 14 14" markerWidth="7" markerHeight="7" markerUnits="userSpaceOnUse"><path id="kity_path_3" fill="rgb(115, 191, 118)" stroke="none" d="M6,0A6,6,0,1,1,-6,0A6,6,0,1,1,6,0"></path></marker></defs><g id="kity_g_8"><g id="minder1" text-rendering="optimize-speed"><g id="minder_connect_group1"><path id="kity_path_31" fill="none" stroke="rgb(115, 191, 118)" stroke-width="1" d="M80.5,397.5A76,186,0,0,1,156.5,211.5"></path><path id="kity_path_39" fill="none" stroke="rgb(115, 191, 118)" stroke-width="1" d="M80.5,397.5A76,186,0,0,0,156.5,583.5"></path><path id="kity_path_55" fill="none" stroke="rgb(115, 191, 118)" stroke-width="1" d="M268.5,211.5C276.5,211.5,276.5,29.5,284.5,29.5"></path><path id="kity_path_63" fill="none" stroke="rgb(115, 191, 118)" stroke-width="1" d="M268.5,211.5C276.5,211.5,276.5,55.5,284.5,55.5"></path><path id="kity_path_71" fill="none" stroke="rgb(115, 191, 118)" stroke-width="1" d="M268.5,211.5C276.5,211.5,276.5,81.5,284.5,81.5"></path><path id="kity_path_79" fill="none" stroke="rgb(115, 191, 118)" stroke-width="1" d="M268.5,211.5C276.5,211.5,276.5,107.5,284.5,107.5"></path><path id="kity_path_87" fill="none" stroke="rgb(115, 191, 118)" stroke-width="1" d="M268.5,211.5C276.5,211.5,276.5,211.5,284.5,211.5"></path><path id="kity_path_95" fill="none" stroke="rgb(115, 191, 118)" stroke-width="1" d="M268.5,211.5C276.5,211.5,276.5,237.5,284.5,237.5"></path><path id="kity_path_103" fill="none" stroke="rgb(115, 191, 118)" stroke-width="1" d="M268.5,211.5C276.5,211.5,276.5,263.5,284.5,263.5"></path><path id="kity_path_111" fill="none" stroke="rgb(115, 191, 118)" stroke-width="1" d="M268.5,211.5C276.5,211.5,276.5,315.5,284.5,315.5"></path><path id="kity_path_119" fill="none" stroke="rgb(115, 191, 118)" stroke-width="1" d="M340.5,315.5C348.5,315.5,348.5,289.5,356.5,289.5"></path><path id="kity_path_127" fill="none" stroke="rgb(115, 191, 118)" stroke-width="1" d="M340.5,315.5C348.5,315.5,348.5,315.5,356.5,315.5"></path><path id="kity_path_135" fill="none" stroke="rgb(115, 191, 118)" stroke-width="1" d="M340.5,315.5C348.5,315.5,348.5,341.5,356.5,341.5"></path><path id="kity_path_151" fill="none" stroke="rgb(115, 191, 118)" stroke-width="1" d="M268.5,211.5C276.5,211.5,276.5,367.5,284.5,367.5"></path><path id="kity_path_159" fill="none" stroke="rgb(115, 191, 118)" stroke-width="1" d="M268.5,211.5C276.5,211.5,276.5,393.5,284.5,393.5"></path><path id="kity_path_167" fill="none" stroke="rgb(115, 191, 118)" stroke-width="1" d="M254.5,583.5C262.5,583.5,262.5,440.5,270.5,440.5"></path><path id="kity_path_175" fill="none" stroke="rgb(115, 191, 118)" stroke-width="1" d="M254.5,583.5C262.5,583.5,262.5,726.5,270.5,726.5"></path><path id="kity_path_183" fill="none" stroke="rgb(115, 191, 118)" stroke-width="1" d="M402.5,726.5C410.5,726.5,410.5,505.5,418.5,505.5"></path><path id="kity_path_191" fill="none" stroke="rgb(115, 191, 118)" stroke-width="1" d="M402.5,726.5C410.5,726.5,410.5,583.5,418.5,583.5"></path><path id="kity_path_199" fill="none" stroke="rgb(115, 191, 118)" stroke-width="1" d="M402.5,726.5C410.5,726.5,410.5,687.5,418.5,687.5"></path><path id="kity_path_207" fill="none" stroke="rgb(115, 191, 118)" stroke-width="1" d="M402.5,726.5C410.5,726.5,410.5,817.5,418.5,817.5"></path><path id="kity_path_215" fill="none" stroke="rgb(115, 191, 118)" stroke-width="1" d="M402.5,726.5C410.5,726.5,410.5,947.5,418.5,947.5"></path><path id="kity_path_390" fill="none" stroke="rgb(115, 191, 118)" stroke-width="1" d="M520.5,505.5C528.5,505.5,528.5,479.5,536.5,479.5"></path><path id="kity_path_391" fill="none" stroke="rgb(115, 191, 118)" stroke-width="1" d="M520.5,505.5C528.5,505.5,528.5,505.5,536.5,505.5"></path><path id="kity_path_392" fill="none" stroke="rgb(115, 191, 118)" stroke-width="1" d="M520.5,505.5C528.5,505.5,528.5,531.5,536.5,531.5"></path><path id="kity_path_393" fill="none" stroke="rgb(115, 191, 118)" stroke-width="1" d="M523.5,583.5C531.5,583.5,531.5,557.5,539.5,557.5"></path><path id="kity_path_394" fill="none" stroke="rgb(115, 191, 118)" stroke-width="1" d="M523.5,583.5C531.5,583.5,531.5,583.5,539.5,583.5"></path><path id="kity_path_395" fill="none" stroke="rgb(115, 191, 118)" stroke-width="1" d="M523.5,583.5C531.5,583.5,531.5,609.5,539.5,609.5"></path><path id="kity_path_396" fill="none" stroke="rgb(115, 191, 118)" stroke-width="1" d="M507.5,687.5C515.5,687.5,515.5,635.5,523.5,635.5"></path><path id="kity_path_397" fill="none" stroke="rgb(115, 191, 118)" stroke-width="1" d="M507.5,687.5C515.5,687.5,515.5,661.5,523.5,661.5"></path><path id="kity_path_398" fill="none" stroke="rgb(115, 191, 118)" stroke-width="1" d="M507.5,687.5C515.5,687.5,515.5,687.5,523.5,687.5"></path><path id="kity_path_399" fill="none" stroke="rgb(115, 191, 118)" stroke-width="1" d="M507.5,687.5C515.5,687.5,515.5,713.5,523.5,713.5"></path><path id="kity_path_400" fill="none" stroke="rgb(115, 191, 118)" stroke-width="1" d="M507.5,687.5C515.5,687.5,515.5,739.5,523.5,739.5"></path><path id="kity_path_401" fill="none" stroke="rgb(115, 191, 118)" stroke-width="1" d="M508.5,817.5C516.5,817.5,516.5,765.5,524.5,765.5"></path><path id="kity_path_402" fill="none" stroke="rgb(115, 191, 118)" stroke-width="1" d="M508.5,817.5C516.5,817.5,516.5,791.5,524.5,791.5"></path><path id="kity_path_403" fill="none" stroke="rgb(115, 191, 118)" stroke-width="1" d="M508.5,817.5C516.5,817.5,516.5,817.5,524.5,817.5"></path><path id="kity_path_404" fill="none" stroke="rgb(115, 191, 118)" stroke-width="1" d="M508.5,817.5C516.5,817.5,516.5,843.5,524.5,843.5"></path><path id="kity_path_405" fill="none" stroke="rgb(115, 191, 118)" stroke-width="1" d="M508.5,817.5C518,817.5,518,872.5,527.5,872.5"></path><path id="kity_path_406" fill="none" stroke="rgb(115, 191, 118)" stroke-width="1" d="M519.5,947.5C527.5,947.5,527.5,895.5,535.5,895.5"></path><path id="kity_path_407" fill="none" stroke="rgb(115, 191, 118)" stroke-width="1" d="M519.5,947.5C527.5,947.5,527.5,921.5,535.5,921.5"></path><path id="kity_path_408" fill="none" stroke="rgb(115, 191, 118)" stroke-width="1" d="M519.5,947.5C527.5,947.5,527.5,947.5,535.5,947.5"></path><path id="kity_path_409" fill="none" stroke="rgb(115, 191, 118)" stroke-width="1" d="M519.5,947.5C527.5,947.5,527.5,973.5,535.5,973.5"></path><path id="kity_path_410" fill="none" stroke="rgb(115, 191, 118)" stroke-width="1" d="M519.5,947.5C527.5,947.5,527.5,999.5,535.5,999.5"></path><path id="kity_path_420" fill="none" stroke="rgb(115, 191, 118)" stroke-width="1" d="M409.5,440.5C417.5,440.5,417.5,427.5,425.5,427.5"></path><path id="kity_path_428" fill="none" stroke="rgb(115, 191, 118)" stroke-width="1" d="M409.5,440.5C417.5,440.5,417.5,453.5,425.5,453.5"></path><path id="kity_path_436" fill="none" stroke="rgb(115, 191, 118)" stroke-width="1" d="M268.5,211.5C276.5,211.5,276.5,159.5,284.5,159.5"></path><path id="kity_path_452" fill="none" stroke="rgb(115, 191, 118)" stroke-width="1" d="M317.5,159.5C325.5,159.5,325.5,133.5,333.5,133.5"></path><path id="kity_path_460" fill="none" stroke="rgb(115, 191, 118)" stroke-width="1" d="M317.5,159.5C325.5,159.5,325.5,159.5,333.5,159.5"></path><path id="kity_path_468" fill="none" stroke="rgb(115, 191, 118)" stroke-width="1" d="M317.5,159.5C325.5,159.5,325.5,185.5,333.5,185.5"></path></g><g id="minder_node1"><path id="node_outline1" fill="rgb(115, 191, 118)" stroke="rgb(115, 191, 118)" d="M25.5,383.5h110a5,5,0,0,1,5,5v18a5,5,0,0,1,-5,5h-110a5,5,0,0,1,-5,-5v-18a5,5,0,0,1,5,-5z" stroke-width="3"></path><g id="node_text1" fill="white"><text id="kity_text_22" text-rendering="inherit" font-size="16" dy=".8em" y="389.5" x="32.5">对称密钥算法</text></g></g><g id="kity_g_14" display="none"><path id="kity_path_15" fill="rgba(0, 153, 5, 0.5)" stroke="none" d="M376.5,770.5h82v4h-82z"></path><path id="kity_path_16" fill="none" stroke="rgb(0, 128, 4)" d="M376.5,770.5L458.5,770.5" stroke-width="1"></path></g><g id="minder_node2"><g id="node_expander1" style="cursor: pointer;"><path id="kity_path_36" fill="white" stroke="gray" d="M157.5,211.5A6,6,0,1,1,145.5,211.5A6,6,0,1,1,157.5,211.5"></path><path id="kity_path_37" fill="none" stroke="gray" d="M147,211.5L156,211.5"></path></g><path id="node_outline2" fill="rgb(238, 246, 238)" stroke="rgb(115, 191, 118)" d="M161.5,198.5h104a3,3,0,0,1,3,3v20a3,3,0,0,1,-3,3h-104a3,3,0,0,1,-3,-3v-20a3,3,0,0,1,3,-3z" stroke-width="1"></path><g id="node_text2" fill="black"><text id="kity_text_33" text-rendering="inherit" font-size="14" dy=".8em" y="204.5" x="178.5">常见主算法</text></g></g><g id="minder_node3"><g id="node_expander2" style="cursor: pointer;"><path id="kity_path_44" fill="white" stroke="gray" d="M157.5,583.5A6,6,0,1,1,145.5,583.5A6,6,0,1,1,157.5,583.5"></path><path id="kity_path_45" fill="none" stroke="gray" d="M147,583.5L156,583.5"></path></g><path id="node_outline3" fill="rgb(238, 246, 238)" stroke="rgb(115, 191, 118)" d="M161.5,570.5h90a3,3,0,0,1,3,3v20a3,3,0,0,1,-3,3h-90a3,3,0,0,1,-3,-3v-20a3,3,0,0,1,3,-3z" stroke-width="1"></path><g id="node_text3" fill="black"><text id="kity_text_41" text-rendering="inherit" font-size="14" dy=".8em" y="576.5" x="178.5">算法类型</text></g></g><g id="minder_node5"><g id="node_expander4" style="cursor: pointer;" display="none"><path id="kity_path_60" fill="white" stroke="gray" d="M284.5,29.5A6,6,0,1,1,272.5,29.5A6,6,0,1,1,284.5,29.5"></path><path id="kity_path_61" fill="none" stroke="gray"></path></g><path id="node_outline5" fill="none" stroke="none" d="M289.5,20.5h81a5,5,0,0,1,5,5v8a5,5,0,0,1,-5,5h-81a5,5,0,0,1,-5,-5v-8a5,5,0,0,1,5,-5z" stroke-width="3"></path><g id="node_text5" fill="black"><text id="kity_text_57" text-rendering="inherit" font-size="12" dy=".8em" y="23.5" x="289.5">DES（淘汰）块</text></g></g><g id="minder_node6"><g id="node_expander5" style="cursor: pointer;" display="none"><path id="kity_path_68" fill="white" stroke="gray" d="M284.5,55.5A6,6,0,1,1,272.5,55.5A6,6,0,1,1,284.5,55.5"></path><path id="kity_path_69" fill="none" stroke="gray"></path></g><path id="node_outline6" fill="none" stroke="none" d="M289.5,46.5h88a5,5,0,0,1,5,5v8a5,5,0,0,1,-5,5h-88a5,5,0,0,1,-5,-5v-8a5,5,0,0,1,5,-5z" stroke-width="3"></path><g id="node_text6" fill="black"><text id="kity_text_65" text-rendering="inherit" font-size="12" dy=".8em" y="49.5" x="289.5">3DES（淘汰）块</text></g></g><g id="minder_node7"><g id="node_expander6" style="cursor: pointer;" display="none"><path id="kity_path_76" fill="white" stroke="gray" d="M284.5,81.5A6,6,0,1,1,272.5,81.5A6,6,0,1,1,284.5,81.5"></path><path id="kity_path_77" fill="none" stroke="gray"></path></g><path id="node_outline7" fill="none" stroke="none" d="M289.5,72.5h42a5,5,0,0,1,5,5v8a5,5,0,0,1,-5,5h-42a5,5,0,0,1,-5,-5v-8a5,5,0,0,1,5,-5z" stroke-width="3"></path><g id="node_text7" fill="black"><text id="kity_text_73" text-rendering="inherit" font-size="12" dy=".8em" y="75.5" x="289.5">IDEA 块</text></g></g><g id="minder_node8"><g id="node_expander7" style="cursor: pointer;" display="none"><path id="kity_path_84" fill="white" stroke="gray" d="M284.5,107.5A6,6,0,1,1,272.5,107.5A6,6,0,1,1,284.5,107.5"></path><path id="kity_path_85" fill="none" stroke="gray"></path></g><path id="node_outline8" fill="none" stroke="none" d="M289.5,98.5h39a5,5,0,0,1,5,5v8a5,5,0,0,1,-5,5h-39a5,5,0,0,1,-5,-5v-8a5,5,0,0,1,5,-5z" stroke-width="3"></path><g id="node_text8" fill="black"><text id="kity_text_81" text-rendering="inherit" font-size="12" dy=".8em" y="101.5" x="289.5">RC4 流</text></g></g><g id="minder_node9"><g id="node_expander8" style="cursor: pointer;" display="none"><path id="kity_path_92" fill="white" stroke="gray" d="M284.5,211.5A6,6,0,1,1,272.5,211.5A6,6,0,1,1,284.5,211.5"></path><path id="kity_path_93" fill="none" stroke="gray"></path></g><path id="node_outline9" fill="none" stroke="none" d="M289.5,202.5h39a5,5,0,0,1,5,5v8a5,5,0,0,1,-5,5h-39a5,5,0,0,1,-5,-5v-8a5,5,0,0,1,5,-5z" stroke-width="3"></path><g id="node_text9" fill="black"><text id="kity_text_89" text-rendering="inherit" font-size="12" dy=".8em" y="205.5" x="289.5">RC5 块</text></g></g><g id="minder_node10"><g id="node_expander9" style="cursor: pointer;" display="none"><path id="kity_path_100" fill="white" stroke="gray" d="M284.5,237.5A6,6,0,1,1,272.5,237.5A6,6,0,1,1,284.5,237.5"></path><path id="kity_path_101" fill="none" stroke="gray"></path></g><path id="node_outline10" fill="none" stroke="none" d="M289.5,228.5h60a5,5,0,0,1,5,5v8a5,5,0,0,1,-5,5h-60a5,5,0,0,1,-5,-5v-8a5,5,0,0,1,5,-5z" stroke-width="3"></path><g id="node_text10" fill="black"><text id="kity_text_97" text-rendering="inherit" font-size="12" dy=".8em" y="231.5" x="289.5">Blowfish 块</text></g></g><g id="minder_node11"><g id="node_expander10" style="cursor: pointer;" display="none"><path id="kity_path_108" fill="white" stroke="gray" d="M284.5,263.5A6,6,0,1,1,272.5,263.5A6,6,0,1,1,284.5,263.5"></path><path id="kity_path_109" fill="none" stroke="gray"></path></g><path id="node_outline11" fill="none" stroke="none" d="M289.5,254.5h117a5,5,0,0,1,5,5v8a5,5,0,0,1,-5,5h-117a5,5,0,0,1,-5,-5v-8a5,5,0,0,1,5,-5z" stroke-width="3"></path><g id="node_text11" fill="black"><text id="kity_text_105" text-rendering="inherit" font-size="12" dy=".8em" y="257.5" x="289.5">AES(高级加密标准) 块</text></g></g><g id="minder_node12"><g id="node_expander11" style="cursor: pointer;"><path id="kity_path_116" fill="white" stroke="gray" d="M284.5,315.5A6,6,0,1,1,272.5,315.5A6,6,0,1,1,284.5,315.5"></path><path id="kity_path_117" fill="none" stroke="gray" d="M274,315.5L283,315.5"></path></g><path id="node_outline12" fill="none" stroke="none" d="M289.5,306.5h46a5,5,0,0,1,5,5v8a5,5,0,0,1,-5,5h-46a5,5,0,0,1,-5,-5v-8a5,5,0,0,1,5,-5z" stroke-width="3"></path><g id="node_text12" fill="black"><text id="kity_text_113" text-rendering="inherit" font-size="12" dy=".8em" y="309.5" x="289.5">3GPP 块</text></g></g><g id="minder_node13"><g id="node_expander12" style="cursor: pointer;" display="none"><path id="kity_path_124" fill="white" stroke="gray" d="M356.5,289.5A6,6,0,1,1,344.5,289.5A6,6,0,1,1,356.5,289.5"></path><path id="kity_path_125" fill="none" stroke="gray"></path></g><path id="node_outline13" fill="none" stroke="none" d="M361.5,280.5h44a5,5,0,0,1,5,5v8a5,5,0,0,1,-5,5h-44a5,5,0,0,1,-5,-5v-8a5,5,0,0,1,5,-5z" stroke-width="3"></path><g id="node_text13" fill="black"><text id="kity_text_121" text-rendering="inherit" font-size="12" dy=".8em" y="283.5" x="361.5">KASUMI</text></g></g><g id="minder_node14"><g id="node_expander13" style="cursor: pointer;" display="none"><path id="kity_path_132" fill="white" stroke="gray" d="M356.5,315.5A6,6,0,1,1,344.5,315.5A6,6,0,1,1,356.5,315.5"></path><path id="kity_path_133" fill="none" stroke="gray"></path></g><path id="node_outline14" fill="none" stroke="none" d="M361.5,306.5h23a5,5,0,0,1,5,5v8a5,5,0,0,1,-5,5h-23a5,5,0,0,1,-5,-5v-8a5,5,0,0,1,5,-5z" stroke-width="3"></path><g id="node_text14" fill="black"><text id="kity_text_129" text-rendering="inherit" font-size="12" dy=".8em" y="309.5" x="361.5">ZUC</text></g></g><g id="minder_node15"><g id="node_expander14" style="cursor: pointer;" display="none"><path id="kity_path_140" fill="white" stroke="gray" d="M356.5,341.5A6,6,0,1,1,344.5,341.5A6,6,0,1,1,356.5,341.5"></path><path id="kity_path_141" fill="none" stroke="gray" d="M346,341.5L355,341.5"></path></g><path id="node_outline15" fill="none" stroke="none" d="M361.5,332.5h60a5,5,0,0,1,5,5v8a5,5,0,0,1,-5,5h-60a5,5,0,0,1,-5,-5v-8a5,5,0,0,1,5,-5z" stroke-width="3"></path><g id="node_text15" fill="black"><text id="kity_text_137" text-rendering="inherit" font-size="12" dy=".8em" y="335.5" x="361.5">SNOW_3G </text></g></g><g id="minder_node17"><g id="node_expander16" style="cursor: pointer;" display="none"><path id="kity_path_156" fill="white" stroke="gray" d="M284.5,367.5A6,6,0,1,1,272.5,367.5A6,6,0,1,1,284.5,367.5"></path><path id="kity_path_157" fill="none" stroke="gray"></path></g><path id="node_outline17" fill="none" stroke="none" d="M289.5,358.5h82a5,5,0,0,1,5,5v8a5,5,0,0,1,-5,5h-82a5,5,0,0,1,-5,-5v-8a5,5,0,0,1,5,-5z" stroke-width="3"></path><g id="node_text17" fill="black"><text id="kity_text_153" text-rendering="inherit" font-size="12" dy=".8em" y="361.5" x="289.5">CHACHA20 流</text></g></g><g id="minder_node18"><g id="node_expander17" style="cursor: pointer;" display="none"><path id="kity_path_164" fill="white" stroke="gray" d="M284.5,393.5A6,6,0,1,1,272.5,393.5A6,6,0,1,1,284.5,393.5"></path><path id="kity_path_165" fill="none" stroke="gray"></path></g><path id="node_outline18" fill="none" stroke="none" d="M289.5,384.5h10a5,5,0,0,1,5,5v8a5,5,0,0,1,-5,5h-10a5,5,0,0,1,-5,-5v-8a5,5,0,0,1,5,-5z" stroke-width="3"></path><g id="node_text18" fill="black"><text id="kity_text_161" text-rendering="inherit" font-size="12" dy=".8em" y="387.5" x="289.5">...</text></g></g><g id="minder_node19"><g id="node_expander18" style="cursor: pointer;"><path id="kity_path_172" fill="white" stroke="gray" d="M270.5,440.5A6,6,0,1,1,258.5,440.5A6,6,0,1,1,270.5,440.5"></path><path id="kity_path_173" fill="none" stroke="gray" d="M260,440.5L269,440.5"></path></g><path id="node_outline19" fill="none" stroke="none" d="M275.5,431.5h129a5,5,0,0,1,5,5v8a5,5,0,0,1,-5,5h-129a5,5,0,0,1,-5,-5v-8a5,5,0,0,1,5,-5z" stroke-width="3"></path><g id="node_text19" fill="black"><text id="kity_text_169" text-rendering="inherit" font-size="12" dy=".8em" y="434.5" x="275.5">流加密(stream ciphers)</text></g></g><g id="minder_node20"><g id="node_expander19" style="cursor: pointer;"><path id="kity_path_180" fill="white" stroke="gray" d="M270.5,726.5A6,6,0,1,1,258.5,726.5A6,6,0,1,1,270.5,726.5"></path><path id="kity_path_181" fill="none" stroke="gray" d="M260,726.5L269,726.5"></path></g><path id="node_outline20" fill="none" stroke="none" d="M275.5,717.5h122a5,5,0,0,1,5,5v8a5,5,0,0,1,-5,5h-122a5,5,0,0,1,-5,-5v-8a5,5,0,0,1,5,-5z" stroke-width="3"></path><g id="node_text20" fill="black"><text id="kity_text_177" text-rendering="inherit" font-size="12" dy=".8em" y="720.5" x="275.5">块加密(block ciphers)</text></g></g><g id="minder_node21" opacity="1"><g id="node_expander20" style="cursor: pointer;"><path id="kity_path_188" fill="white" stroke="gray" d="M418.5,505.5A6,6,0,1,1,406.5,505.5A6,6,0,1,1,418.5,505.5"></path><path id="kity_path_189" fill="none" stroke="gray" d="M408,505.5L417,505.5"></path></g><path id="node_outline21" fill="none" stroke="none" d="M423.5,496.5h92a5,5,0,0,1,5,5v8a5,5,0,0,1,-5,5h-92a5,5,0,0,1,-5,-5v-8a5,5,0,0,1,5,-5z" stroke-width="3"></path><g id="node_text21" fill="black"><text id="kity_text_185" text-rendering="inherit" font-size="12" dy=".8em" y="499.5" x="423.5">ECB(电子编码簿)</text></g></g><g id="minder_node22" opacity="1"><g id="node_expander21" style="cursor: pointer;"><path id="kity_path_196" fill="white" stroke="gray" d="M418.5,583.5A6,6,0,1,1,406.5,583.5A6,6,0,1,1,418.5,583.5"></path><path id="kity_path_197" fill="none" stroke="gray" d="M408,583.5L417,583.5"></path></g><path id="node_outline22" fill="none" stroke="none" d="M423.5,574.5h95a5,5,0,0,1,5,5v8a5,5,0,0,1,-5,5h-95a5,5,0,0,1,-5,-5v-8a5,5,0,0,1,5,-5z" stroke-width="3"></path><g id="node_text22" fill="black"><text id="kity_text_193" text-rendering="inherit" font-size="12" dy=".8em" y="577.5" x="423.5">CBC(加密块链接)</text></g></g><g id="minder_node23" opacity="1"><g id="node_expander22" style="cursor: pointer;"><path id="kity_path_204" fill="white" stroke="gray" d="M418.5,687.5A6,6,0,1,1,406.5,687.5A6,6,0,1,1,418.5,687.5"></path><path id="kity_path_205" fill="none" stroke="gray" d="M408,687.5L417,687.5"></path></g><path id="node_outline23" fill="none" stroke="none" d="M423.5,678.5h79a5,5,0,0,1,5,5v8a5,5,0,0,1,-5,5h-79a5,5,0,0,1,-5,-5v-8a5,5,0,0,1,5,-5z" stroke-width="3"></path><g id="node_text23" fill="black"><text id="kity_text_201" text-rendering="inherit" font-size="12" dy=".8em" y="681.5" x="423.5">CFB(加密反馈)</text></g></g><g id="minder_node24" opacity="1"><g id="node_expander23" style="cursor: pointer;"><path id="kity_path_212" fill="white" stroke="gray" d="M418.5,817.5A6,6,0,1,1,406.5,817.5A6,6,0,1,1,418.5,817.5"></path><path id="kity_path_213" fill="none" stroke="gray" d="M408,817.5L417,817.5"></path></g><path id="node_outline24" fill="none" stroke="none" d="M423.5,808.5h80a5,5,0,0,1,5,5v8a5,5,0,0,1,-5,5h-80a5,5,0,0,1,-5,-5v-8a5,5,0,0,1,5,-5z" stroke-width="3"></path><g id="node_text24" fill="black"><text id="kity_text_209" text-rendering="inherit" font-size="12" dy=".8em" y="811.5" x="423.5">OFB(加密反馈)</text></g></g><g id="minder_node25" opacity="1"><g id="node_expander24" style="cursor: pointer;"><path id="kity_path_220" fill="white" stroke="gray" d="M418.5,947.5A6,6,0,1,1,406.5,947.5A6,6,0,1,1,418.5,947.5"></path><path id="kity_path_221" fill="none" stroke="gray" d="M408,947.5L417,947.5"></path></g><path id="node_outline25" fill="none" stroke="none" d="M423.5,938.5h91a5,5,0,0,1,5,5v8a5,5,0,0,1,-5,5h-91a5,5,0,0,1,-5,-5v-8a5,5,0,0,1,5,-5z" stroke-width="3"></path><g id="node_text25" fill="black"><text id="kity_text_217" text-rendering="inherit" font-size="12" dy=".8em" y="941.5" x="423.5">CTR(计数器模式)</text></g></g><g id="kity_g_12" display="none"><path id="kity_path_13" fill="none" stroke="rgb(66, 112, 68)" d="M275.5,349.5h122a5,5,0,0,1,5,5v8a5,5,0,0,1,-5,5h-122a5,5,0,0,1,-5,-5v-8a5,5,0,0,1,5,-5z" stroke-width="5"></path></g><g id="minder_node26"><g id="node_expander25" style="cursor: pointer;" display="none"><path id="kity_path_228" fill="white" stroke="gray" d="M536.5,479.5A6,6,0,1,1,524.5,479.5A6,6,0,1,1,536.5,479.5"></path><path id="kity_path_229" fill="none" stroke="gray"></path></g><path id="node_outline26" fill="none" stroke="none" d="M541.5,470.5h144a5,5,0,0,1,5,5v8a5,5,0,0,1,-5,5h-144a5,5,0,0,1,-5,-5v-8a5,5,0,0,1,5,-5z" stroke-width="3"></path><g id="node_text26" fill="black"><text id="kity_text_225" text-rendering="inherit" font-size="12" dy=".8em" y="473.5" x="541.5">不能隐藏明文，没有随机化</text></g></g><g id="minder_node27"><g id="node_expander26" style="cursor: pointer;" display="none"><path id="kity_path_236" fill="white" stroke="gray" d="M536.5,505.5A6,6,0,1,1,524.5,505.5A6,6,0,1,1,536.5,505.5"></path><path id="kity_path_237" fill="none" stroke="gray"></path></g><path id="node_outline27" fill="none" stroke="none" d="M541.5,496.5h144a5,5,0,0,1,5,5v8a5,5,0,0,1,-5,5h-144a5,5,0,0,1,-5,-5v-8a5,5,0,0,1,5,-5z" stroke-width="3"></path><g id="node_text27" fill="black"><text id="kity_text_233" text-rendering="inherit" font-size="12" dy=".8em" y="499.5" x="541.5">同一密钥可以加密多个消息</text></g></g><g id="minder_node39"><g id="node_expander38" style="cursor: pointer;" display="none"><path id="kity_path_332" fill="white" stroke="gray" d="M536.5,531.5A6,6,0,1,1,524.5,531.5A6,6,0,1,1,536.5,531.5"></path><path id="kity_path_333" fill="none" stroke="gray"></path></g><path id="node_outline39" fill="none" stroke="none" d="M541.5,522.5h167a5,5,0,0,1,5,5v8a5,5,0,0,1,-5,5h-167a5,5,0,0,1,-5,-5v-8a5,5,0,0,1,5,-5z" stroke-width="3"></path><g id="node_text39" fill="black"><text id="kity_text_329" text-rendering="inherit" font-size="12" dy=".8em" y="525.5" x="541.5">块填充-&gt;密文长度大于明文长度</text></g></g><g id="minder_node28"><g id="node_expander27" style="cursor: pointer;" display="none"><path id="kity_path_244" fill="white" stroke="gray" d="M539.5,557.5A6,6,0,1,1,527.5,557.5A6,6,0,1,1,539.5,557.5"></path><path id="kity_path_245" fill="none" stroke="gray"></path></g><path id="node_outline28" fill="none" stroke="none" d="M544.5,548.5h48a5,5,0,0,1,5,5v8a5,5,0,0,1,-5,5h-48a5,5,0,0,1,-5,-5v-8a5,5,0,0,1,5,-5z" stroke-width="3"></path><g id="node_text28" fill="black"><text id="kity_text_241" text-rendering="inherit" font-size="12" dy=".8em" y="551.5" x="544.5">隐藏明文</text></g></g><g id="minder_node29"><g id="node_expander28" style="cursor: pointer;" display="none"><path id="kity_path_252" fill="white" stroke="gray" d="M539.5,583.5A6,6,0,1,1,527.5,583.5A6,6,0,1,1,539.5,583.5"></path><path id="kity_path_253" fill="none" stroke="gray"></path></g><path id="node_outline29" fill="none" stroke="none" d="M544.5,574.5h144a5,5,0,0,1,5,5v8a5,5,0,0,1,-5,5h-144a5,5,0,0,1,-5,-5v-8a5,5,0,0,1,5,-5z" stroke-width="3"></path><g id="node_text29" fill="black"><text id="kity_text_249" text-rendering="inherit" font-size="12" dy=".8em" y="577.5" x="544.5">同一密钥可以加密多个消息</text></g></g><g id="minder_node40"><g id="node_expander39" style="cursor: pointer;" display="none"><path id="kity_path_340" fill="white" stroke="gray" d="M539.5,609.5A6,6,0,1,1,527.5,609.5A6,6,0,1,1,539.5,609.5"></path><path id="kity_path_341" fill="none" stroke="gray"></path></g><path id="node_outline40" fill="none" stroke="none" d="M544.5,600.5h108a5,5,0,0,1,5,5v8a5,5,0,0,1,-5,5h-108a5,5,0,0,1,-5,-5v-8a5,5,0,0,1,5,-5z" stroke-width="3"></path><g id="node_text40" fill="black"><text id="kity_text_337" text-rendering="inherit" font-size="12" dy=".8em" y="603.5" x="544.5">密文比明文多一个块</text></g></g><g id="minder_node30"><g id="node_expander29" style="cursor: pointer;" display="none"><path id="kity_path_260" fill="white" stroke="gray" d="M523.5,635.5A6,6,0,1,1,511.5,635.5A6,6,0,1,1,523.5,635.5"></path><path id="kity_path_261" fill="none" stroke="gray"></path></g><path id="node_outline30" fill="none" stroke="none" d="M528.5,626.5h107a5,5,0,0,1,5,5v8a5,5,0,0,1,-5,5h-107a5,5,0,0,1,-5,-5v-8a5,5,0,0,1,5,-5z" stroke-width="3"></path><g id="node_text30" fill="black"><text id="kity_text_257" text-rendering="inherit" font-size="12" dy=".8em" y="629.5" x="528.5">隐藏明文使用不同IV</text></g></g><g id="minder_node31"><g id="node_expander30" style="cursor: pointer;" display="none"><path id="kity_path_268" fill="white" stroke="gray" d="M523.5,661.5A6,6,0,1,1,511.5,661.5A6,6,0,1,1,523.5,661.5"></path><path id="kity_path_269" fill="none" stroke="gray"></path></g><path id="node_outline31" fill="none" stroke="none" d="M528.5,652.5h156a5,5,0,0,1,5,5v8a5,5,0,0,1,-5,5h-156a5,5,0,0,1,-5,-5v-8a5,5,0,0,1,5,-5z" stroke-width="3"></path><g id="node_text31" fill="black"><text id="kity_text_265" text-rendering="inherit" font-size="12" dy=".8em" y="655.5" x="528.5">可以用同一密钥加密多个消息</text></g></g><g id="minder_node32"><g id="node_expander31" style="cursor: pointer;" display="none"><path id="kity_path_276" fill="white" stroke="gray" d="M523.5,687.5A6,6,0,1,1,511.5,687.5A6,6,0,1,1,523.5,687.5"></path><path id="kity_path_277" fill="none" stroke="gray"></path></g><path id="node_outline32" fill="none" stroke="none" d="M528.5,678.5h120a5,5,0,0,1,5,5v8a5,5,0,0,1,-5,5h-120a5,5,0,0,1,-5,-5v-8a5,5,0,0,1,5,-5z" stroke-width="3"></path><g id="node_text32" fill="black"><text id="kity_text_273" text-rendering="inherit" font-size="12" dy=".8em" y="681.5" x="528.5">块加密的输入是随机的</text></g></g><g id="minder_node41"><g id="node_expander40" style="cursor: pointer;" display="none"><path id="kity_path_348" fill="white" stroke="gray" d="M523.5,713.5A6,6,0,1,1,511.5,713.5A6,6,0,1,1,523.5,713.5"></path><path id="kity_path_349" fill="none" stroke="gray"></path></g><path id="node_outline41" fill="none" stroke="none" d="M528.5,704.5h96a5,5,0,0,1,5,5v8a5,5,0,0,1,-5,5h-96a5,5,0,0,1,-5,-5v-8a5,5,0,0,1,5,-5z" stroke-width="3"></path><g id="node_text41" fill="black"><text id="kity_text_345" text-rendering="inherit" font-size="12" dy=".8em" y="707.5" x="528.5">明文密文长度相同</text></g></g><g id="minder_node42"><g id="node_expander41" style="cursor: pointer;" display="none"><path id="kity_path_356" fill="white" stroke="gray" d="M523.5,739.5A6,6,0,1,1,511.5,739.5A6,6,0,1,1,523.5,739.5"></path><path id="kity_path_357" fill="none" stroke="gray"></path></g><path id="node_outline42" fill="none" stroke="none" d="M528.5,730.5h96a5,5,0,0,1,5,5v8a5,5,0,0,1,-5,5h-96a5,5,0,0,1,-5,-5v-8a5,5,0,0,1,5,-5z" stroke-width="3"></path><g id="node_text42" fill="black"><text id="kity_text_353" text-rendering="inherit" font-size="12" dy=".8em" y="733.5" x="528.5">加密不能引入并行</text></g></g><g id="minder_node33"><g id="node_expander32" style="cursor: pointer;" display="none"><path id="kity_path_284" fill="white" stroke="gray" d="M524.5,765.5A6,6,0,1,1,512.5,765.5A6,6,0,1,1,524.5,765.5"></path><path id="kity_path_285" fill="none" stroke="gray"></path></g><path id="node_outline33" fill="none" stroke="none" d="M529.5,756.5h131a5,5,0,0,1,5,5v8a5,5,0,0,1,-5,5h-131a5,5,0,0,1,-5,-5v-8a5,5,0,0,1,5,-5z" stroke-width="3"></path><g id="node_text33" fill="black"><text id="kity_text_281" text-rendering="inherit" font-size="12" dy=".8em" y="759.5" x="529.5">可以隐藏明文通过不同IV</text></g></g><g id="minder_node34"><g id="node_expander33" style="cursor: pointer;" display="none"><path id="kity_path_292" fill="white" stroke="gray" d="M524.5,791.5A6,6,0,1,1,512.5,791.5A6,6,0,1,1,524.5,791.5"></path><path id="kity_path_293" fill="none" stroke="gray"></path></g><path id="node_outline34" fill="none" stroke="none" d="M529.5,782.5h144a5,5,0,0,1,5,5v8a5,5,0,0,1,-5,5h-144a5,5,0,0,1,-5,-5v-8a5,5,0,0,1,5,-5z" stroke-width="3"></path><g id="node_text34" fill="black"><text id="kity_text_289" text-rendering="inherit" font-size="12" dy=".8em" y="785.5" x="529.5">可以同一密钥加密多个消息</text></g></g><g id="minder_node35"><g id="node_expander34" style="cursor: pointer;" display="none"><path id="kity_path_300" fill="white" stroke="gray" d="M524.5,817.5A6,6,0,1,1,512.5,817.5A6,6,0,1,1,524.5,817.5"></path><path id="kity_path_301" fill="none" stroke="gray"></path></g><path id="node_outline35" fill="none" stroke="none" d="M529.5,808.5h60a5,5,0,0,1,5,5v8a5,5,0,0,1,-5,5h-60a5,5,0,0,1,-5,-5v-8a5,5,0,0,1,5,-5z" stroke-width="3"></path><g id="node_text35" fill="black"><text id="kity_text_297" text-rendering="inherit" font-size="12" dy=".8em" y="811.5" x="529.5">块解密随机</text></g></g><g id="minder_node43"><g id="node_expander42" style="cursor: pointer;" display="none"><path id="kity_path_364" fill="white" stroke="gray" d="M524.5,843.5A6,6,0,1,1,512.5,843.5A6,6,0,1,1,524.5,843.5"></path><path id="kity_path_365" fill="none" stroke="gray"></path></g><path id="node_outline43" fill="none" stroke="none" d="M529.5,834.5h72a5,5,0,0,1,5,5v8a5,5,0,0,1,-5,5h-72a5,5,0,0,1,-5,-5v-8a5,5,0,0,1,5,-5z" stroke-width="3"></path><g id="node_text43" fill="black"><text id="kity_text_361" text-rendering="inherit" font-size="12" dy=".8em" y="837.5" x="529.5">加密可以并行</text></g></g><g id="minder_node46" opacity="1"><g id="node_expander45" style="cursor: pointer;" display="none"><path id="kity_path_388" fill="white" stroke="gray" d="M527.5,872.5A6,6,0,1,1,515.5,872.5A6,6,0,1,1,527.5,872.5"></path><path id="kity_path_389" fill="none" stroke="gray"></path></g><path id="node_outline46" fill="none" stroke="none" d="M532.5,863.5h96a5,5,0,0,1,5,5v8a5,5,0,0,1,-5,5h-96a5,5,0,0,1,-5,-5v-8a5,5,0,0,1,5,-5z" stroke-width="3"></path><g id="node_text46" fill="black"><text id="kity_text_385" text-rendering="inherit" font-size="12" dy=".8em" y="866.5" x="532.5">明文密文长度相同</text></g></g><g id="minder_node36"><g id="node_expander37" style="cursor: pointer;" display="none"><path id="kity_path_324" fill="white" stroke="gray" d="M535.5,895.5A6,6,0,1,1,523.5,895.5A6,6,0,1,1,535.5,895.5"></path><path id="kity_path_325" fill="none" stroke="gray"></path></g><path id="node_outline38" fill="none" stroke="none" d="M540.5,886.5h131a5,5,0,0,1,5,5v8a5,5,0,0,1,-5,5h-131a5,5,0,0,1,-5,-5v-8a5,5,0,0,1,5,-5z" stroke-width="3"></path><g id="node_text38" fill="black"><text id="kity_text_321" text-rendering="inherit" font-size="12" dy=".8em" y="889.5" x="540.5">可以隐藏明文通过不同IV</text></g></g><g id="minder_node37"><g id="node_expander36" style="cursor: pointer;" display="none"><path id="kity_path_318" fill="white" stroke="gray" d="M535.5,921.5A6,6,0,1,1,523.5,921.5A6,6,0,1,1,535.5,921.5"></path><path id="kity_path_319" fill="none" stroke="gray"></path></g><path id="node_outline37" fill="none" stroke="none" d="M540.5,912.5h144a5,5,0,0,1,5,5v8a5,5,0,0,1,-5,5h-144a5,5,0,0,1,-5,-5v-8a5,5,0,0,1,5,-5z" stroke-width="3"></path><g id="node_text37" fill="black"><text id="kity_text_315" text-rendering="inherit" font-size="12" dy=".8em" y="915.5" x="540.5">可以同一密钥加密多个消息</text></g></g><g id="minder_node38"><g id="node_expander35" style="cursor: pointer;" display="none"><path id="kity_path_312" fill="white" stroke="gray" d="M535.5,947.5A6,6,0,1,1,523.5,947.5A6,6,0,1,1,535.5,947.5"></path><path id="kity_path_313" fill="none" stroke="gray"></path></g><path id="node_outline36" fill="none" stroke="none" d="M540.5,938.5h60a5,5,0,0,1,5,5v8a5,5,0,0,1,-5,5h-60a5,5,0,0,1,-5,-5v-8a5,5,0,0,1,5,-5z" stroke-width="3"></path><g id="node_text36" fill="black"><text id="kity_text_309" text-rendering="inherit" font-size="12" dy=".8em" y="941.5" x="540.5">块解密随机</text></g></g><g id="minder_node44"><g id="node_expander43" style="cursor: pointer;" display="none"><path id="kity_path_372" fill="white" stroke="gray" d="M535.5,973.5A6,6,0,1,1,523.5,973.5A6,6,0,1,1,535.5,973.5"></path><path id="kity_path_373" fill="none" stroke="gray"></path></g><path id="node_outline44" fill="none" stroke="none" d="M540.5,964.5h99a5,5,0,0,1,5,5v8a5,5,0,0,1,-5,5h-99a5,5,0,0,1,-5,-5v-8a5,5,0,0,1,5,-5z" stroke-width="3"></path><g id="node_text44" fill="black"><text id="kity_text_369" text-rendering="inherit" font-size="12" dy=".8em" y="967.5" x="540.5">加密不能 引入并行</text></g></g><g id="minder_node45"><g id="node_expander44" style="cursor: pointer;" display="none"><path id="kity_path_380" fill="white" stroke="gray" d="M535.5,999.5A6,6,0,1,1,523.5,999.5A6,6,0,1,1,535.5,999.5"></path><path id="kity_path_381" fill="none" stroke="gray"></path></g><path id="node_outline45" fill="none" stroke="none" d="M540.5,990.5h96a5,5,0,0,1,5,5v8a5,5,0,0,1,-5,5h-96a5,5,0,0,1,-5,-5v-8a5,5,0,0,1,5,-5z" stroke-width="3"></path><g id="node_text45" fill="black"><text id="kity_text_377" text-rendering="inherit" font-size="12" dy=".8em" y="993.5" x="540.5">明文密文长度相同</text></g></g><g id="minder_node48"><g id="node_expander47" style="cursor: pointer;" display="none"><path id="kity_path_425" fill="white" stroke="gray" d="M425.5,427.5A6,6,0,1,1,413.5,427.5A6,6,0,1,1,425.5,427.5"></path><path id="kity_path_426" fill="none" stroke="gray"></path></g><path id="node_outline48" fill="none" stroke="none" d="M430.5,418.5h161a5,5,0,0,1,5,5v8a5,5,0,0,1,-5,5h-161a5,5,0,0,1,-5,-5v-8a5,5,0,0,1,5,-5z" stroke-width="3"></path><g id="node_text48" fill="black"><text id="kity_text_422" text-rendering="inherit" font-size="12" dy=".8em" y="421.5" x="430.5">one-time pad(一次性密码本)</text></g></g><g id="minder_node49"><g id="node_expander48" style="cursor: pointer;" display="none"><path id="kity_path_433" fill="white" stroke="gray" d="M425.5,453.5A6,6,0,1,1,413.5,453.5A6,6,0,1,1,425.5,453.5"></path><path id="kity_path_434" fill="none" stroke="gray"></path></g><path id="node_outline49" fill="none" stroke="none" d="M430.5,444.5h84a5,5,0,0,1,5,5v8a5,5,0,0,1,-5,5h-84a5,5,0,0,1,-5,-5v-8a5,5,0,0,1,5,-5z" stroke-width="3"></path><g id="node_text49" fill="black"><text id="kity_text_430" text-rendering="inherit" font-size="12" dy=".8em" y="447.5" x="430.5">线性同余生成器</text></g></g><g id="minder_node50"><g id="node_expander49" style="cursor: pointer;"><path id="kity_path_441" fill="white" stroke="gray" d="M284.5,159.5A6,6,0,1,1,272.5,159.5A6,6,0,1,1,284.5,159.5"></path><path id="kity_path_442" fill="none" stroke="gray" d="M274,159.5L283,159.5"></path></g><path id="node_outline50" fill="none" stroke="none" d="M289.5,150.5h23a5,5,0,0,1,5,5v8a5,5,0,0,1,-5,5h-23a5,5,0,0,1,-5,-5v-8a5,5,0,0,1,5,-5z" stroke-width="3"></path><g id="node_text50" fill="black"><text id="kity_text_438" text-rendering="inherit" font-size="12" dy=".8em" y="153.5" x="289.5">WIFI</text></g></g><g id="minder_node52"><g id="node_expander51" style="cursor: pointer;" display="none"><path id="kity_path_457" fill="white" stroke="gray" d="M333.5,133.5A6,6,0,1,1,321.5,133.5A6,6,0,1,1,333.5,133.5"></path><path id="kity_path_458" fill="none" stroke="gray"></path></g><path id="node_outline52" fill="none" stroke="none" d="M338.5,124.5h40a5,5,0,0,1,5,5v8a5,5,0,0,1,-5,5h-40a5,5,0,0,1,-5,-5v-8a5,5,0,0,1,5,-5z" stroke-width="3"></path><g id="node_text52" fill="black"><text id="kity_text_454" text-rendering="inherit" font-size="12" dy=".8em" y="127.5" x="338.5">WEP 流</text></g></g><g id="minder_node53"><g id="node_expander52" style="cursor: pointer;" display="none"><path id="kity_path_465" fill="white" stroke="gray" d="M333.5,159.5A6,6,0,1,1,321.5,159.5A6,6,0,1,1,333.5,159.5"></path><path id="kity_path_466" fill="none" stroke="gray"></path></g><path id="node_outline53" fill="none" stroke="none" d="M338.5,150.5h43a5,5,0,0,1,5,5v8a5,5,0,0,1,-5,5h-43a5,5,0,0,1,-5,-5v-8a5,5,0,0,1,5,-5z" stroke-width="3"></path><g id="node_text53" fill="black"><text id="kity_text_462" text-rendering="inherit" font-size="12" dy=".8em" y="153.5" x="338.5">WPA 流</text></g></g><g id="minder_node54"><g id="node_expander53" style="cursor: pointer;" display="none"><path id="kity_path_473" fill="white" stroke="gray" d="M333.5,185.5A6,6,0,1,1,321.5,185.5A6,6,0,1,1,333.5,185.5"></path><path id="kity_path_474" fill="none" stroke="gray"></path></g><path id="node_outline54" fill="none" stroke="none" d="M338.5,176.5h49a5,5,0,0,1,5,5v8a5,5,0,0,1,-5,5h-49a5,5,0,0,1,-5,-5v-8a5,5,0,0,1,5,-5z" stroke-width="3"></path><g id="node_text54" fill="black"><text id="kity_text_470" text-rendering="inherit" font-size="12" dy=".8em" y="179.5" x="338.5">WPA2 块</text></g></g></g></g></svg>