<svg xmlns="http://www.w3.org/2000/svg" version="1.1" width="1810" height="2120" >
    <line x1="50" y1="50" x2="50" y2="290"
    style="stroke:rgb(0,0,0);stroke-width:0.5"/>
    <line x1="180" y1="50" x2="180" y2="290"
    style="stroke:rgb(0,0,0);stroke-width:0.5"/>
    <line x1="310" y1="50" x2="310" y2="290"
    style="stroke:rgb(0,0,0);stroke-width:0.5"/>
    <line x1="440" y1="50" x2="440" y2="290"
    style="stroke:rgb(0,0,0);stroke-width:0.5"/>
    <line x1="570" y1="50" x2="570" y2="290"
    style="stroke:rgb(0,0,0);stroke-width:0.5"/>
    <line x1="700" y1="50" x2="700" y2="290"
    style="stroke:rgb(0,0,0);stroke-width:0.5"/>
    <line x1="50" y1="50" x2="700" y2="50"
    style="stroke:rgb(0,0,0);stroke-width:0.5"/>
    <line x1="50" y1="90" x2="700" y2="90"
    style="stroke:rgb(0,0,0);stroke-width:0.5"/>
    <line x1="50" y1="130" x2="700" y2="130"
    style="stroke:rgb(0,0,0);stroke-width:0.5"/>
    <line x1="50" y1="170" x2="700" y2="170"
    style="stroke:rgb(0,0,0);stroke-width:0.5"/>
    <line x1="50" y1="210" x2="700" y2="210"
    style="stroke:rgb(0,0,0);stroke-width:0.5"/>
    <line x1="50" y1="250" x2="700" y2="250"
    style="stroke:rgb(0,0,0);stroke-width:0.5"/>
    <line x1="50" y1="290" x2="700" y2="290"
    style="stroke:rgb(0,0,0);stroke-width:0.5"/>
	<text x="50" y="40" fill="black" font-size="20">PSNR Average BD-rate(h264enc)</text>
    <text x="60" y="80" fill="black" font-size="20">Category</text>
    <text x="190" y="80" fill="black" font-size="20">Y_BD-rate</text>
    <text x="320" y="80" fill="black" font-size="20">U_BD-rate</text>
    <text x="450" y="80" fill="black" font-size="20">V_BD-rate</text>
    <text x="580" y="80" fill="black" font-size="20">YUV_BD-rate</text>
    <text x="60" y="120" fill="black" font-size="20">M</text>
    <text x="190" y="120" fill="green" font-size="20">-1.34 %</text>
    <text x="320" y="120" fill="green" font-size="20">-0.23 %</text>
    <text x="450" y="120" fill="green" font-size="20">-2.24 %</text>
    <text x="580" y="120" fill="green" font-size="20">-1.3 %</text>
    <text x="60" y="160" fill="black" font-size="20">H</text>
    <text x="190" y="160" fill="green" font-size="20">-1.1 %</text>
    <text x="320" y="160" fill="green" font-size="20">-1.47 %</text>
    <text x="450" y="160" fill="green" font-size="20">-1.87 %</text>
    <text x="580" y="160" fill="green" font-size="20">-1.22 %</text>
    <text x="60" y="200" fill="black" font-size="20">B</text>
    <text x="190" y="200" fill="green" font-size="20">-4.71 %</text>
    <text x="320" y="200" fill="green" font-size="20">-7.64 %</text>
    <text x="450" y="200" fill="green" font-size="20">-6.94 %</text>
    <text x="580" y="200" fill="green" font-size="20">-5.17 %</text>
    <text x="60" y="240" fill="black" font-size="20">D</text>
    <text x="190" y="240" fill="green" font-size="20">-0.78 %</text>
    <text x="320" y="240" fill="green" font-size="20">-1.01 %</text>
    <text x="450" y="240" fill="green" font-size="20">-1.29 %</text>
    <text x="580" y="240" fill="green" font-size="20">-0.84 %</text>
    <text x="60" y="280" fill="black" font-size="20">C</text>
	<text x="190" y="280" fill="green" font-size="20">-1.47 %</text>
    <text x="320" y="280" fill="green" font-size="20">-1.66 %</text>
    <text x="450" y="280" fill="green" font-size="20">-2.15 %</text>
    <text x="580" y="280" fill="green" font-size="20">-1.56 %</text>
    <line x1="750" y1="50" x2="750" y2="290"
    style="stroke:rgb(0,0,0);stroke-width:0.5"/>
    <line x1="880" y1="50" x2="880" y2="290"
    style="stroke:rgb(0,0,0);stroke-width:0.5"/>
    <line x1="1010" y1="50" x2="1010" y2="290"
    style="stroke:rgb(0,0,0);stroke-width:0.5"/>
    <line x1="1140" y1="50" x2="1140" y2="290"
    style="stroke:rgb(0,0,0);stroke-width:0.5"/>
    <line x1="1270" y1="50" x2="1270" y2="290"
    style="stroke:rgb(0,0,0);stroke-width:0.5"/>
    <line x1="1400" y1="50" x2="1400" y2="290"
    style="stroke:rgb(0,0,0);stroke-width:0.5"/>
    <line x1="750" y1="50" x2="1400" y2="50"
    style="stroke:rgb(0,0,0);stroke-width:0.5"/>
    <line x1="750" y1="90" x2="1400" y2="90"
    style="stroke:rgb(0,0,0);stroke-width:0.5"/>
    <line x1="750" y1="130" x2="1400" y2="130"
    style="stroke:rgb(0,0,0);stroke-width:0.5"/>
    <line x1="750" y1="170" x2="1400" y2="170"
    style="stroke:rgb(0,0,0);stroke-width:0.5"/>
    <line x1="750" y1="210" x2="1400" y2="210"
    style="stroke:rgb(0,0,0);stroke-width:0.5"/>
    <line x1="750" y1="250" x2="1400" y2="250"
    style="stroke:rgb(0,0,0);stroke-width:0.5"/>
    <line x1="750" y1="290" x2="1400" y2="290"
    style="stroke:rgb(0,0,0);stroke-width:0.5"/>
	<text x="750" y="40" fill="black" font-size="20">SSIM Average BD-rate(h264enc)</text>
    <text x="760" y="80" fill="black" font-size="20">Category</text>
    <text x="890" y="80" fill="black" font-size="20">Y_BD-rate</text>
    <text x="1020" y="80" fill="black" font-size="20">U_BD-rate</text>
    <text x="1150" y="80" fill="black" font-size="20">V_BD-rate</text>
    <text x="1280" y="80" fill="black" font-size="20">YUV_BD-rate</text>
    <text x="760" y="120" fill="black" font-size="20">M</text>
    <text x="890" y="120" fill="green" font-size="20">-0.62 %</text>
    <text x="1020" y="120" fill="green" font-size="20">-0.91 %</text>
    <text x="1150" y="120" fill="green" font-size="20">-1.51 %</text>
    <text x="1280" y="120" fill="green" font-size="20">-0.69 %</text>
    <text x="760" y="160" fill="black" font-size="20">H</text>
    <text x="890" y="160" fill="green" font-size="20">-1.83 %</text>
    <text x="1020" y="160" fill="green" font-size="20">-1.73 %</text>
    <text x="1150" y="160" fill="green" font-size="20">-1.9 %</text>
    <text x="1280" y="160" fill="green" font-size="20">-1.83 %</text>
    <text x="760" y="200" fill="black" font-size="20">B</text>
    <text x="890" y="200" fill="green" font-size="20">-6.55 %</text>
    <text x="1020" y="200" fill="green" font-size="20">-9.72 %</text>
    <text x="1150" y="200" fill="green" font-size="20">-8.45 %</text>
    <text x="1280" y="200" fill="green" font-size="20">-6.93 %</text>
    <text x="760" y="240" fill="black" font-size="20">D</text>
	<text x="890" y="240" fill="green" font-size="20">-0.82 %</text>
    <text x="1020" y="240" fill="green" font-size="20">-0.92 %</text>
    <text x="1150" y="240" fill="green" font-size="20">-0.85 %</text>
    <text x="1280" y="240" fill="green" font-size="20">-0.83 %</text>
    <text x="760" y="280" fill="black" font-size="20">C</text>
    <text x="890" y="280" fill="green" font-size="20">-2.27 %</text>
    <text x="1020" y="280" fill="green" font-size="20">-0.91 %</text>
    <text x="1150" y="280" fill="green" font-size="20">-1.56 %</text>
    <text x="1280" y="280" fill="green" font-size="20">-2.26 %</text>
    <line x1="1450" y1="50" x2="1450" y2="290"
    style="stroke:rgb(0,0,0);stroke-width:0.5"/>
    <line x1="1580" y1="50" x2="1580" y2="290"
    style="stroke:rgb(0,0,0);stroke-width:0.5"/>
    <line x1="1730" y1="50" x2="1730" y2="290"
    style="stroke:rgb(0,0,0);stroke-width:0.5"/>
    <line x1="1450" y1="50" x2="1730" y2="50"
    style="stroke:rgb(0,0,0);stroke-width:0.5"/>
    <line x1="1450" y1="90" x2="1730" y2="90"
    style="stroke:rgb(0,0,0);stroke-width:0.5"/>
    <line x1="1450" y1="130" x2="1730" y2="130"
    style="stroke:rgb(0,0,0);stroke-width:0.5"/>
    <line x1="1450" y1="170" x2="1730" y2="170"
    style="stroke:rgb(0,0,0);stroke-width:0.5"/>
    <line x1="1450" y1="210" x2="1730" y2="210"
    style="stroke:rgb(0,0,0);stroke-width:0.5"/>
    <line x1="1450" y1="250" x2="1730" y2="250"
    style="stroke:rgb(0,0,0);stroke-width:0.5"/>
    <line x1="1450" y1="290" x2="1730" y2="290"
    style="stroke:rgb(0,0,0);stroke-width:0.5"/>
	<text x="1450" y="40" fill="black" font-size="20">VMAF Average BD-rate(h264enc)</text>
    <text x="1460" y="80" fill="black" font-size="20">Category</text>
    <text x="1590" y="80" fill="black" font-size="20">VMAF_BD-rate</text>
    <text x="1460" y="120" fill="black" font-size="20">M</text>
    <text x="1590" y="120" fill="green" font-size="20">-0.66 %</text>
    <text x="1460" y="160" fill="black" font-size="20">H</text>
    <text x="1590" y="160" fill="green" font-size="20">-1.79 %</text>
    <text x="1460" y="200" fill="black" font-size="20">B</text>
    <text x="1590" y="200" fill="green" font-size="20">-5.17 %</text>
    <text x="1460" y="240" fill="black" font-size="20">D</text>
    <text x="1590" y="240" fill="green" font-size="20">-1.2 %</text>
    <text x="1460" y="280" fill="black" font-size="20">C</text>
    <text x="1590" y="280" fill="green" font-size="20">-2.08 %</text>
    <line x1="50" y1="370" x2="50" y2="2050"
    style="stroke:rgb(0,0,0);stroke-width:0.5"/>
    <line x1="500" y1="370" x2="500" y2="2050"
    style="stroke:rgb(0,0,0);stroke-width:0.5"/>
    <line x1="600" y1="370" x2="600" y2="2050"
    style="stroke:rgb(0,0,0);stroke-width:0.5"/>
    <line x1="730" y1="370" x2="730" y2="2050"
    style="stroke:rgb(0,0,0);stroke-width:0.5"/>
    <line x1="860" y1="370" x2="860" y2="2050"
    style="stroke:rgb(0,0,0);stroke-width:0.5"/>
    <line x1="990" y1="370" x2="990" y2="2050"
    style="stroke:rgb(0,0,0);stroke-width:0.5"/>
    <line x1="1120" y1="370" x2="1120" y2="2050"
    style="stroke:rgb(0,0,0);stroke-width:0.5"/>
    <line x1="1140" y1="370" x2="1140" y2="2050"
    style="stroke:rgb(0,0,0);stroke-width:0.5"/>
	<line x1="1270" y1="370" x2="1270" y2="2050"
    style="stroke:rgb(0,0,0);stroke-width:0.5"/>
    <line x1="1400" y1="370" x2="1400" y2="2050"
    style="stroke:rgb(0,0,0);stroke-width:0.5"/>
    <line x1="1530" y1="370" x2="1530" y2="2050"
    style="stroke:rgb(0,0,0);stroke-width:0.5"/>
    <line x1="1660" y1="370" x2="1660" y2="2050"
    style="stroke:rgb(0,0,0);stroke-width:0.5"/>
    <line x1="1680" y1="370" x2="1680" y2="2050"
    style="stroke:rgb(0,0,0);stroke-width:0.5"/>
    <line x1="1810" y1="370" x2="1810" y2="2050"
    style="stroke:rgb(0,0,0);stroke-width:0.5"/>
    <line x1="1940" y1="370" x2="1940" y2="2050"
    style="stroke:rgb(0,0,0);stroke-width:0.5"/>
    <line x1="2070" y1="370" x2="2070" y2="2050"
    style="stroke:rgb(0,0,0);stroke-width:0.5"/>
    <line x1="50" y1="370" x2="1810" y2="370"
    style="stroke:rgb(0,0,0);stroke-width:0.5"/>
    <line x1="50" y1="410" x2="1810" y2="410"
    style="stroke:rgb(0,0,0);stroke-width:0.5"/>
    <line x1="50" y1="450" x2="1810" y2="450"
    style="stroke:rgb(0,0,0);stroke-width:0.5"/>
    <line x1="50" y1="490" x2="1810" y2="490"
    style="stroke:rgb(0,0,0);stroke-width:0.5"/>
    <line x1="50" y1="530" x2="1810" y2="530"
    style="stroke:rgb(0,0,0);stroke-width:0.5"/>
    <line x1="50" y1="570" x2="1810" y2="570"
    style="stroke:rgb(0,0,0);stroke-width:0.5"/>
    <line x1="50" y1="610" x2="1810" y2="610"
    style="stroke:rgb(0,0,0);stroke-width:0.5"/>
    <line x1="50" y1="650" x2="1810" y2="650"
    style="stroke:rgb(0,0,0);stroke-width:0.5"/>
    <line x1="50" y1="690" x2="1810" y2="690"
    style="stroke:rgb(0,0,0);stroke-width:0.5"/>
    <line x1="50" y1="730" x2="1810" y2="730"
    style="stroke:rgb(0,0,0);stroke-width:0.5"/>
    <line x1="50" y1="770" x2="1810" y2="770"
    style="stroke:rgb(0,0,0);stroke-width:0.5"/>
    <line x1="50" y1="810" x2="1810" y2="810"
    style="stroke:rgb(0,0,0);stroke-width:0.5"/>
	<line x1="50" y1="850" x2="1810" y2="850"
    style="stroke:rgb(0,0,0);stroke-width:0.5"/>
    <line x1="50" y1="890" x2="1810" y2="890"
    style="stroke:rgb(0,0,0);stroke-width:0.5"/>
    <line x1="50" y1="930" x2="1810" y2="930"
    style="stroke:rgb(0,0,0);stroke-width:0.5"/>
    <line x1="50" y1="970" x2="1810" y2="970"
    style="stroke:rgb(0,0,0);stroke-width:0.5"/>
    <line x1="50" y1="1010" x2="1810" y2="1010"
    style="stroke:rgb(0,0,0);stroke-width:0.5"/>
    <line x1="50" y1="1050" x2="1810" y2="1050"
    style="stroke:rgb(0,0,0);stroke-width:0.5"/>
    <line x1="50" y1="1090" x2="1810" y2="1090"
    style="stroke:rgb(0,0,0);stroke-width:0.5"/>
    <line x1="50" y1="1130" x2="1810" y2="1130"
    style="stroke:rgb(0,0,0);stroke-width:0.5"/>
    <line x1="50" y1="1170" x2="1810" y2="1170"
    style="stroke:rgb(0,0,0);stroke-width:0.5"/>
    <line x1="50" y1="1210" x2="1810" y2="1210"
    style="stroke:rgb(0,0,0);stroke-width:0.5"/>
    <line x1="50" y1="1250" x2="1810" y2="1250"
    style="stroke:rgb(0,0,0);stroke-width:0.5"/>
    <line x1="50" y1="1290" x2="1810" y2="1290"
    style="stroke:rgb(0,0,0);stroke-width:0.5"/>
    <line x1="50" y1="1330" x2="1810" y2="1330"
    style="stroke:rgb(0,0,0);stroke-width:0.5"/>
    <line x1="50" y1="1370" x2="1810" y2="1370"
    style="stroke:rgb(0,0,0);stroke-width:0.5"/>
    <line x1="50" y1="1410" x2="1810" y2="1410"
    style="stroke:rgb(0,0,0);stroke-width:0.5"/>
	<line x1="50" y1="1450" x2="1810" y2="1450"
    style="stroke:rgb(0,0,0);stroke-width:0.5"/>
    <line x1="50" y1="1490" x2="1810" y2="1490"
    style="stroke:rgb(0,0,0);stroke-width:0.5"/>
    <line x1="50" y1="1530" x2="1810" y2="1530"
    style="stroke:rgb(0,0,0);stroke-width:0.5"/>
    <line x1="50" y1="1570" x2="1810" y2="1570"
    style="stroke:rgb(0,0,0);stroke-width:0.5"/>
    <line x1="50" y1="1610" x2="1810" y2="1610"
    style="stroke:rgb(0,0,0);stroke-width:0.5"/>
    <line x1="50" y1="1650" x2="1810" y2="1650"
    style="stroke:rgb(0,0,0);stroke-width:0.5"/>
    <line x1="50" y1="1690" x2="1810" y2="1690"
    style="stroke:rgb(0,0,0);stroke-width:0.5"/>
    <line x1="50" y1="1730" x2="1810" y2="1730"
    style="stroke:rgb(0,0,0);stroke-width:0.5"/>
    <line x1="50" y1="1770" x2="1810" y2="1770"
    style="stroke:rgb(0,0,0);stroke-width:0.5"/>
    <line x1="50" y1="1810" x2="1810" y2="1810"
    style="stroke:rgb(0,0,0);stroke-width:0.5"/>
    <line x1="50" y1="1850" x2="1810" y2="1850"
    style="stroke:rgb(0,0,0);stroke-width:0.5"/>
    <line x1="50" y1="1890" x2="1810" y2="1890"
    style="stroke:rgb(0,0,0);stroke-width:0.5"/>
    <line x1="50" y1="1930" x2="1810" y2="1930"
    style="stroke:rgb(0,0,0);stroke-width:0.5"/>
    <line x1="50" y1="1970" x2="1810" y2="1970"
    style="stroke:rgb(0,0,0);stroke-width:0.5"/>
    <line x1="50" y1="2010" x2="1810" y2="2010"
    style="stroke:rgb(0,0,0);stroke-width:0.5"/>
    <line x1="50" y1="2050" x2="1810" y2="2050"
    style="stroke:rgb(0,0,0);stroke-width:0.5"/>
	<text x="50" y="360" fill="black" font-size="20"> Details of Each Sequence BD-rate Info (h264enc)</text>
    <text x="610" y="360" fill="black" font-size="20">PSNR</text>
    <text x="1150" y="360" fill="black" font-size="20">SSIM</text>
    <text x="1690" y="360" fill="black" font-size="20">VMAF</text>
    <text x="60" y="400" fill="black" font-size="20">Sequence Name</text>
    <text x="510" y="400" fill="black" font-size="20">Category</text>
    <text x="610" y="400" fill="black" font-size="20">Y_BD-rate</text>
    <text x="740" y="400" fill="black" font-size="20">U_BD-rate</text>
    <text x="870" y="400" fill="black" font-size="20">V_BD-rate</text>
    <text x="1000" y="400" fill="black" font-size="20">YUV_BD-rate</text>
    <text x="1130" y="400" fill="black" font-size="20"></text>
    <text x="1150" y="400" fill="black" font-size="20">Y_BD-rate</text>
    <text x="1280" y="400" fill="black" font-size="20">U_BD-rate</text>
    <text x="1410" y="400" fill="black" font-size="20">V_BD-rate</text>
    <text x="1540" y="400" fill="black" font-size="20">YUV_BD-rate</text>
    <text x="1670" y="400" fill="black" font-size="20"></text>
    <text x="1690" y="400" fill="black" font-size="20">BD-rate</text>
    <text x="60" y="440" fill="black" font-size="20">./420/720p/tears_of_steel_720p.yuv</text>
    <text x="510" y="440" fill="black" font-size="20">M</text>
    <text x="610" y="440" fill="green" font-size="20">-0.53 %</text>
    <text x="740" y="440" fill="green" font-size="20">-1.8 %</text>
    <text x="870" y="440" fill="green" font-size="20">-1.53 %</text>
    <text x="1000" y="440" fill="green" font-size="20">-0.64 %</text>
    <text x="1150" y="440" fill="green" font-size="20">-0.74 %</text>
    <text x="1280" y="440" fill="green" font-size="20">-3.5 %</text>
    <text x="1410" y="440" fill="green" font-size="20">-2.5 %</text>
    <text x="1540" y="440" fill="green" font-size="20">-0.99 %</text>
    <text x="1690" y="440" fill="green" font-size="20">-0.84 %</text>
	<text x="60" y="480" fill="black" font-size="20">./720p/alan_sintel_trailer_2k_720p30.yuv</text>
    <text x="510" y="480" fill="black" font-size="20">M</text>
    <text x="610" y="480" fill="green" font-size="20">-1.87 %</text>
    <text x="740" y="480" fill="red" font-size="20">3.99 %</text>
    <text x="870" y="480" fill="green" font-size="20">-4.89 %</text>
    <text x="1000" y="480" fill="green" font-size="20">-1.59 %</text>
    <text x="1150" y="480" fill="red" font-size="20">0.13 %</text>
    <text x="1280" y="480" fill="red" font-size="20">2.13 %</text>
    <text x="1410" y="480" fill="green" font-size="20">-0.46 %</text>
    <text x="1540" y="480" fill="red" font-size="20">0.13 %</text>
    <text x="1690" y="480" fill="green" font-size="20">-0.05 %</text>
    <text x="60" y="520" fill="black" font-size="20">./720p/alan_sintel_trailer_2k_720p30_2.yuv</text>
    <text x="510" y="520" fill="black" font-size="20">M</text>
    <text x="610" y="520" fill="green" font-size="20">-3.41 %</text>
    <text x="740" y="520" fill="green" font-size="20">-1.81 %</text>
    <text x="870" y="520" fill="green" font-size="20">-3.29 %</text>
    <text x="1000" y="520" fill="green" font-size="20">-3.25 %</text>
    <text x="1150" y="520" fill="green" font-size="20">-0.72 %</text>
    <text x="1280" y="520" fill="red" font-size="20">0.21 %</text>
    <text x="1410" y="520" fill="green" font-size="20">-1.62 %</text>
    <text x="1540" y="520" fill="green" font-size="20">-0.74 %</text>
    <text x="1690" y="520" fill="green" font-size="20">-0.87 %</text>
	<text x="60" y="560" fill="black" font-size="20">./1080p/alan_dinner_1080p30.yuv</text>
    <text x="510" y="560" fill="black" font-size="20">M</text>
    <text x="610" y="560" fill="green" font-size="20">-0.6 %</text>
    <text x="740" y="560" fill="green" font-size="20">-1.16 %</text>
    <text x="870" y="560" fill="green" font-size="20">-1.02 %</text>
    <text x="1000" y="560" fill="green" font-size="20">-0.75 %</text>
    <text x="1150" y="560" fill="green" font-size="20">-1.01 %</text>
    <text x="1280" y="560" fill="green" font-size="20">-2.44 %</text>
    <text x="1410" y="560" fill="green" font-size="20">-2.16 %</text>
    <text x="1540" y="560" fill="green" font-size="20">-1.12 %</text>
    <text x="1690" y="560" fill="green" font-size="20">-0.88 %</text>
    <text x="60" y="600" fill="black" font-size="20">./420/1080p/Kimono_1920x1080.yuv</text>
    <text x="510" y="600" fill="black" font-size="20">M</text>
    <text x="610" y="600" fill="green" font-size="20">-0.27 %</text>
    <text x="740" y="600" fill="green" font-size="20">-0.38 %</text>
    <text x="870" y="600" fill="green" font-size="20">-0.45 %</text>
    <text x="1000" y="600" fill="green" font-size="20">-0.25 %</text>
    <text x="1150" y="600" fill="green" font-size="20">-0.75 %</text>
    <text x="1280" y="600" fill="green" font-size="20">-0.97 %</text>
    <text x="1410" y="600" fill="green" font-size="20">-0.82 %</text>
    <text x="1540" y="600" fill="green" font-size="20">-0.75 %</text>
    <text x="1690" y="600" fill="green" font-size="20">-0.66 %</text>
	<text x="60" y="640" fill="black" font-size="20">./720p/alan_close_door_1280x720.yuv</text>
    <text x="510" y="640" fill="black" font-size="20">H</text>
    <text x="610" y="640" fill="red" font-size="20">0.02 %</text>
    <text x="740" y="640" fill="green" font-size="20">-0.01 %</text>
    <text x="870" y="640" fill="red" font-size="20">0.02 %</text>
    <text x="1000" y="640" fill="red" font-size="20">0.02 %</text>
    <text x="1150" y="640" fill="red" font-size="20">0.01 %</text>
    <text x="1280" y="640" fill="red" font-size="20">0.02 %</text>
    <text x="1410" y="640" fill="green" font-size="20">-0.17 %</text>
    <text x="1540" y="640" fill="black" font-size="20">0.0 %</text>
    <text x="1690" y="640" fill="red" font-size="20">0.01 %</text>
    <text x="60" y="680" fill="black" font-size="20">./720p/alan_my_colleague_1280x720.yuv</text>
    <text x="510" y="680" fill="black" font-size="20">H</text>
    <text x="610" y="680" fill="black" font-size="20">0.0 %</text>
    <text x="740" y="680" fill="black" font-size="20">0.0 %</text>
    <text x="870" y="680" fill="black" font-size="20">0.0 %</text>
    <text x="1000" y="680" fill="black" font-size="20">0.0 %</text>
    <text x="1150" y="680" fill="black" font-size="20">0.0 %</text>
    <text x="1280" y="680" fill="black" font-size="20">0.0 %</text>
    <text x="1410" y="680" fill="black" font-size="20">0.0 %</text>
    <text x="1540" y="680" fill="black" font-size="20">0.0 %</text>
    <text x="1690" y="680" fill="black" font-size="20">0.0 %</text>
	<text x="60" y="720" fill="black" font-size="20">./720p/alan_training_room_1280x720.yuv</text>
    <text x="510" y="720" fill="black" font-size="20">H</text>
    <text x="610" y="720" fill="red" font-size="20">0.02 %</text>
    <text x="740" y="720" fill="green" font-size="20">-0.49 %</text>
    <text x="870" y="720" fill="green" font-size="20">-0.21 %</text>
    <text x="1000" y="720" fill="green" font-size="20">-0.09 %</text>
    <text x="1150" y="720" fill="green" font-size="20">-0.16 %</text>
    <text x="1280" y="720" fill="green" font-size="20">-1.15 %</text>
    <text x="1410" y="720" fill="red" font-size="20">0.26 %</text>
    <text x="1540" y="720" fill="green" font-size="20">-0.16 %</text>
    <text x="1690" y="720" fill="green" font-size="20">-0.22 %</text>
    <text x="60" y="760" fill="black" font-size="20">./720p/alan_fireman_scd_hard.yuv</text>
    <text x="510" y="760" fill="black" font-size="20">H</text>
    <text x="610" y="760" fill="green" font-size="20">-3.44 %</text>
    <text x="740" y="760" fill="green" font-size="20">-4.84 %</text>
    <text x="870" y="760" fill="green" font-size="20">-4.64 %</text>
    <text x="1000" y="760" fill="green" font-size="20">-3.64 %</text>
    <text x="1150" y="760" fill="green" font-size="20">-6.64 %</text>
    <text x="1280" y="760" fill="green" font-size="20">-6.49 %</text>
    <text x="1410" y="760" fill="green" font-size="20">-6.74 %</text>
    <text x="1540" y="760" fill="green" font-size="20">-6.63 %</text>
    <text x="1690" y="760" fill="green" font-size="20">-5.88 %</text>
	<text x="60" y="800" fill="black" font-size="20">./720p/alan_vpu_office_1280x720.yuv</text>
    <text x="510" y="800" fill="black" font-size="20">H</text>
    <text x="610" y="800" fill="green" font-size="20">-0.37 %</text>
    <text x="740" y="800" fill="green" font-size="20">-0.48 %</text>
    <text x="870" y="800" fill="green" font-size="20">-1.02 %</text>
    <text x="1000" y="800" fill="green" font-size="20">-0.47 %</text>
    <text x="1150" y="800" fill="green" font-size="20">-0.56 %</text>
    <text x="1280" y="800" fill="green" font-size="20">-1.22 %</text>
    <text x="1410" y="800" fill="green" font-size="20">-1.48 %</text>
    <text x="1540" y="800" fill="green" font-size="20">-0.6 %</text>
    <text x="1690" y="800" fill="green" font-size="20">-0.5 %</text>
    <text x="60" y="840" fill="black" font-size="20">./720p/alan_road_1280x720.yuv</text>
    <text x="510" y="840" fill="black" font-size="20">H</text>
    <text x="610" y="840" fill="green" font-size="20">-0.85 %</text>
    <text x="740" y="840" fill="green" font-size="20">-1.17 %</text>
    <text x="870" y="840" fill="green" font-size="20">-1.48 %</text>
    <text x="1000" y="840" fill="green" font-size="20">-0.93 %</text>
    <text x="1150" y="840" fill="green" font-size="20">-1.88 %</text>
    <text x="1280" y="840" fill="green" font-size="20">-1.2 %</text>
    <text x="1410" y="840" fill="red" font-size="20">0.1 %</text>
    <text x="1540" y="840" fill="green" font-size="20">-1.86 %</text>
    <text x="1690" y="840" fill="green" font-size="20">-1.08 %</text>
	<text x="60" y="880" fill="black" font-size="20">./720p/alan_badminton_1280x720.yuv</text>
    <text x="510" y="880" fill="black" font-size="20">H</text>
    <text x="610" y="880" fill="green" font-size="20">-0.29 %</text>
    <text x="740" y="880" fill="green" font-size="20">-0.51 %</text>
    <text x="870" y="880" fill="green" font-size="20">-0.67 %</text>
    <text x="1000" y="880" fill="green" font-size="20">-0.36 %</text>
    <text x="1150" y="880" fill="green" font-size="20">-0.54 %</text>
    <text x="1280" y="880" fill="green" font-size="20">-0.51 %</text>
    <text x="1410" y="880" fill="green" font-size="20">-0.67 %</text>
    <text x="1540" y="880" fill="green" font-size="20">-0.54 %</text>
    <text x="1690" y="880" fill="green" font-size="20">-0.37 %</text>
    <text x="60" y="920" fill="black" font-size="20">./720p/alan_badminton_road_1280x720.yuv</text>
    <text x="510" y="920" fill="black" font-size="20">H</text>
    <text x="610" y="920" fill="green" font-size="20">-0.51 %</text>
    <text x="740" y="920" fill="green" font-size="20">-1.62 %</text>
    <text x="870" y="920" fill="green" font-size="20">-1.44 %</text>
    <text x="1000" y="920" fill="green" font-size="20">-0.67 %</text>
    <text x="1150" y="920" fill="green" font-size="20">-0.69 %</text>
    <text x="1280" y="920" fill="green" font-size="20">-3.16 %</text>
    <text x="1410" y="920" fill="green" font-size="20">-3.11 %</text>
    <text x="1540" y="920" fill="green" font-size="20">-0.76 %</text>
    <text x="1690" y="920" fill="green" font-size="20">-0.86 %</text>
	<text x="60" y="960" fill="black" font-size="20">./720p/alan_mix_2_1280x720.yuv</text>
    <text x="510" y="960" fill="black" font-size="20">H</text>
    <text x="610" y="960" fill="green" font-size="20">-0.89 %</text>
    <text x="740" y="960" fill="green" font-size="20">-1.65 %</text>
    <text x="870" y="960" fill="green" font-size="20">-1.97 %</text>
    <text x="1000" y="960" fill="green" font-size="20">-1.17 %</text>
    <text x="1150" y="960" fill="green" font-size="20">-1.96 %</text>
    <text x="1280" y="960" fill="green" font-size="20">-2.27 %</text>
    <text x="1410" y="960" fill="green" font-size="20">-1.94 %</text>
    <text x="1540" y="960" fill="green" font-size="20">-1.97 %</text>
    <text x="1690" y="960" fill="green" font-size="20">-1.31 %</text>
    <text x="60" y="1000" fill="black" font-size="20">./720p/alan_mix_3_1280x720.yuv</text>
    <text x="510" y="1000" fill="black" font-size="20">H</text>
    <text x="610" y="1000" fill="green" font-size="20">-0.64 %</text>
    <text x="740" y="1000" fill="green" font-size="20">-1.03 %</text>
    <text x="870" y="1000" fill="green" font-size="20">-0.92 %</text>
    <text x="1000" y="1000" fill="green" font-size="20">-0.7 %</text>
    <text x="1150" y="1000" fill="green" font-size="20">-1.15 %</text>
    <text x="1280" y="1000" fill="green" font-size="20">-2.04 %</text>
    <text x="1410" y="1000" fill="green" font-size="20">-0.89 %</text>
    <text x="1540" y="1000" fill="green" font-size="20">-1.17 %</text>
    <text x="1690" y="1000" fill="green" font-size="20">-1.09 %</text>
	<text x="60" y="1040" fill="black" font-size="20">./720p/alan_mix_4_1280x720.yuv</text>
    <text x="510" y="1040" fill="black" font-size="20">H</text>
    <text x="610" y="1040" fill="green" font-size="20">-0.38 %</text>
    <text x="740" y="1040" fill="green" font-size="20">-0.12 %</text>
    <text x="870" y="1040" fill="green" font-size="20">-0.56 %</text>
    <text x="1000" y="1040" fill="green" font-size="20">-0.38 %</text>
    <text x="1150" y="1040" fill="green" font-size="20">-1.34 %</text>
    <text x="1280" y="1040" fill="green" font-size="20">-0.15 %</text>
    <text x="1410" y="1040" fill="green" font-size="20">-0.35 %</text>
    <text x="1540" y="1040" fill="green" font-size="20">-1.31 %</text>
    <text x="1690" y="1040" fill="green" font-size="20">-0.49 %</text>
    <text x="60" y="1080" fill="black" font-size="20">./720p/alan_mix_5_1280x720.yuv</text>
    <text x="510" y="1080" fill="black" font-size="20">H</text>
    <text x="610" y="1080" fill="green" font-size="20">-5.89 %</text>
    <text x="740" y="1080" fill="green" font-size="20">-5.76 %</text>
    <text x="870" y="1080" fill="green" font-size="20">-9.55 %</text>
    <text x="1000" y="1080" fill="green" font-size="20">-6.24 %</text>
    <text x="1150" y="1080" fill="green" font-size="20">-7.09 %</text>
    <text x="1280" y="1080" fill="green" font-size="20">-2.55 %</text>
    <text x="1410" y="1080" fill="green" font-size="20">-7.8 %</text>
    <text x="1540" y="1080" fill="green" font-size="20">-6.98 %</text>
    <text x="1690" y="1080" fill="green" font-size="20">-9.74 %</text>
	<text x="60" y="1120" fill="black" font-size="20">./CIF/alan_BigBuckBunny_CIF_24fps_1.yuv</text>
    <text x="510" y="1120" fill="black" font-size="20">B</text>
    <text x="610" y="1120" fill="green" font-size="20">-2.79 %</text>
    <text x="740" y="1120" fill="green" font-size="20">-6.73 %</text>
    <text x="870" y="1120" fill="green" font-size="20">-6.92 %</text>
    <text x="1000" y="1120" fill="green" font-size="20">-3.39 %</text>
    <text x="1150" y="1120" fill="green" font-size="20">-2.7 %</text>
    <text x="1280" y="1120" fill="green" font-size="20">-7.83 %</text>
    <text x="1410" y="1120" fill="green" font-size="20">-6.39 %</text>
    <text x="1540" y="1120" fill="green" font-size="20">-3.34 %</text>
    <text x="1690" y="1120" fill="green" font-size="20">-2.94 %</text>
    <text x="60" y="1160" fill="black" font-size="20">./CIF/alan_BigBuckBunny_CIF_24fps_2.yuv</text>
    <text x="510" y="1160" fill="black" font-size="20">B</text>
    <text x="610" y="1160" fill="green" font-size="20">-6.67 %</text>
    <text x="740" y="1160" fill="green" font-size="20">-9.28 %</text>
    <text x="870" y="1160" fill="green" font-size="20">-8.35 %</text>
    <text x="1000" y="1160" fill="green" font-size="20">-7.06 %</text>
    <text x="1150" y="1160" fill="green" font-size="20">-7.51 %</text>
    <text x="1280" y="1160" fill="green" font-size="20">-11.42 %</text>
    <text x="1410" y="1160" fill="green" font-size="20">-10.75 %</text>
    <text x="1540" y="1160" fill="green" font-size="20">-7.96 %</text>
    <text x="1690" y="1160" fill="green" font-size="20">-6.94 %</text>
	<text x="60" y="1200" fill="black" font-size="20">./CIF/alan_BigBuckBunny_CIF_24fps_3.yuv</text>
    <text x="510" y="1200" fill="black" font-size="20">B</text>
    <text x="610" y="1200" fill="green" font-size="20">-6.67 %</text>
    <text x="740" y="1200" fill="green" font-size="20">-9.69 %</text>
    <text x="870" y="1200" fill="green" font-size="20">-7.91 %</text>
    <text x="1000" y="1200" fill="green" font-size="20">-7.1 %</text>
    <text x="1150" y="1200" fill="green" font-size="20">-11.15 %</text>
    <text x="1280" y="1200" fill="green" font-size="20">-13.44 %</text>
    <text x="1410" y="1200" fill="green" font-size="20">-9.58 %</text>
    <text x="1540" y="1200" fill="green" font-size="20">-11.25 %</text>
    <text x="1690" y="1200" fill="green" font-size="20">-6.71 %</text>
    <text x="60" y="1240" fill="black" font-size="20">./CIF/alan_BigBuckBunny_CIF_24fps_4.yuv</text>
    <text x="510" y="1240" fill="black" font-size="20">B</text>
    <text x="610" y="1240" fill="green" font-size="20">-3.64 %</text>
    <text x="740" y="1240" fill="green" font-size="20">-6.08 %</text>
    <text x="870" y="1240" fill="green" font-size="20">-5.27 %</text>
    <text x="1000" y="1240" fill="green" font-size="20">-4.01 %</text>
    <text x="1150" y="1240" fill="green" font-size="20">-6.54 %</text>
    <text x="1280" y="1240" fill="green" font-size="20">-8.6 %</text>
    <text x="1410" y="1240" fill="green" font-size="20">-7.54 %</text>
    <text x="1540" y="1240" fill="green" font-size="20">-6.79 %</text>
    <text x="1690" y="1240" fill="green" font-size="20">-4.44 %</text>
	<text x="60" y="1280" fill="black" font-size="20">./CIF/alan_BigBuckBunny_CIF_24fps_5.yuv</text>
    <text x="510" y="1280" fill="black" font-size="20">B</text>
    <text x="610" y="1280" fill="green" font-size="20">-3.8 %</text>
    <text x="740" y="1280" fill="green" font-size="20">-6.4 %</text>
    <text x="870" y="1280" fill="green" font-size="20">-6.27 %</text>
    <text x="1000" y="1280" fill="green" font-size="20">-4.27 %</text>
    <text x="1150" y="1280" fill="green" font-size="20">-4.85 %</text>
    <text x="1280" y="1280" fill="green" font-size="20">-7.32 %</text>
    <text x="1410" y="1280" fill="green" font-size="20">-7.97 %</text>
    <text x="1540" y="1280" fill="green" font-size="20">-5.31 %</text>
    <text x="1690" y="1280" fill="green" font-size="20">-4.8 %</text>
    <text x="60" y="1320" fill="black" font-size="20">./720p/alan_Aerial_China_720p.yuv</text>
    <text x="510" y="1320" fill="black" font-size="20">D</text>
    <text x="610" y="1320" fill="green" font-size="20">-1.02 %</text>
    <text x="740" y="1320" fill="green" font-size="20">-1.51 %</text>
    <text x="870" y="1320" fill="green" font-size="20">-2.62 %</text>
    <text x="1000" y="1320" fill="green" font-size="20">-1.2 %</text>
    <text x="1150" y="1320" fill="green" font-size="20">-0.96 %</text>
    <text x="1280" y="1320" fill="green" font-size="20">-0.62 %</text>
    <text x="1410" y="1320" fill="green" font-size="20">-1.08 %</text>
    <text x="1540" y="1320" fill="green" font-size="20">-0.96 %</text>
    <text x="1690" y="1320" fill="green" font-size="20">-1.79 %</text>
	<text x="60" y="1360" fill="black" font-size="20">./720p/alan_Lesser_Khingan_Mountains_720p.yuv</text>
    <text x="510" y="1360" fill="black" font-size="20">D</text>
    <text x="610" y="1360" fill="green" font-size="20">-0.62 %</text>
    <text x="740" y="1360" fill="green" font-size="20">-1.06 %</text>
    <text x="870" y="1360" fill="green" font-size="20">-1.03 %</text>
    <text x="1000" y="1360" fill="green" font-size="20">-0.72 %</text>
    <text x="1150" y="1360" fill="green" font-size="20">-1.06 %</text>
    <text x="1280" y="1360" fill="green" font-size="20">-1.98 %</text>
    <text x="1410" y="1360" fill="red" font-size="20">0.29 %</text>
    <text x="1540" y="1360" fill="green" font-size="20">-1.08 %</text>
    <text x="1690" y="1360" fill="green" font-size="20">-1.28 %</text>
    <text x="60" y="1400" fill="black" font-size="20">./720p/alan_A_Bite_of_China_720p.yuv</text>
    <text x="510" y="1400" fill="black" font-size="20">D</text>
    <text x="610" y="1400" fill="green" font-size="20">-1.48 %</text>
    <text x="740" y="1400" fill="green" font-size="20">-1.4 %</text>
    <text x="870" y="1400" fill="green" font-size="20">-1.71 %</text>
    <text x="1000" y="1400" fill="green" font-size="20">-1.49 %</text>
    <text x="1150" y="1400" fill="green" font-size="20">-1.45 %</text>
    <text x="1280" y="1400" fill="green" font-size="20">-1.5 %</text>
    <text x="1410" y="1400" fill="green" font-size="20">-1.74 %</text>
    <text x="1540" y="1400" fill="green" font-size="20">-1.46 %</text>
    <text x="1690" y="1400" fill="green" font-size="20">-2.09 %</text>
	<text x="60" y="1440" fill="black" font-size="20">./720p/alan_BattleField_720p.yuv</text>
    <text x="510" y="1440" fill="black" font-size="20">D</text>
    <text x="610" y="1440" fill="green" font-size="20">-0.12 %</text>
    <text x="740" y="1440" fill="green" font-size="20">-0.51 %</text>
    <text x="870" y="1440" fill="green" font-size="20">-0.21 %</text>
    <text x="1000" y="1440" fill="green" font-size="20">-0.15 %</text>
    <text x="1150" y="1440" fill="green" font-size="20">-0.14 %</text>
    <text x="1280" y="1440" fill="green" font-size="20">-1.61 %</text>
    <text x="1410" y="1440" fill="green" font-size="20">-1.07 %</text>
    <text x="1540" y="1440" fill="green" font-size="20">-0.18 %</text>
    <text x="1690" y="1440" fill="green" font-size="20">-0.19 %</text>
    <text x="60" y="1480" fill="black" font-size="20">./1080p/alan_A_Bite_of_China_1080p.yuv</text>
    <text x="510" y="1480" fill="black" font-size="20">D</text>
    <text x="610" y="1480" fill="green" font-size="20">-1.19 %</text>
    <text x="740" y="1480" fill="green" font-size="20">-1.24 %</text>
    <text x="870" y="1480" fill="green" font-size="20">-1.87 %</text>
    <text x="1000" y="1480" fill="green" font-size="20">-1.28 %</text>
    <text x="1150" y="1480" fill="green" font-size="20">-1.42 %</text>
    <text x="1280" y="1480" fill="red" font-size="20">0.35 %</text>
    <text x="1410" y="1480" fill="green" font-size="20">-1.39 %</text>
    <text x="1540" y="1480" fill="green" font-size="20">-1.39 %</text>
    <text x="1690" y="1480" fill="green" font-size="20">-1.93 %</text>
	<text x="60" y="1520" fill="black" font-size="20">./720p/alan_A_Bite_of_China_720p_crop_0_200.yuv</text>
    <text x="510" y="1520" fill="black" font-size="20">C</text>
    <text x="610" y="1520" fill="green" font-size="20">-1.0 %</text>
    <text x="740" y="1520" fill="green" font-size="20">-1.81 %</text>
    <text x="870" y="1520" fill="green" font-size="20">-1.6 %</text>
    <text x="1000" y="1520" fill="green" font-size="20">-1.14 %</text>
    <text x="1150" y="1520" fill="green" font-size="20">-1.24 %</text>
    <text x="1280" y="1520" fill="red" font-size="20">0.57 %</text>
    <text x="1410" y="1520" fill="green" font-size="20">-0.27 %</text>
    <text x="1540" y="1520" fill="green" font-size="20">-1.21 %</text>
    <text x="1690" y="1520" fill="green" font-size="20">-1.35 %</text>
    <text x="60" y="1560" fill="black" font-size="20">./720p/alan_A_Bite_of_China_720p_crop_200_400.yuv</text>
    <text x="510" y="1560" fill="black" font-size="20">C</text>
    <text x="610" y="1560" fill="green" font-size="20">-0.18 %</text>
    <text x="740" y="1560" fill="green" font-size="20">-0.37 %</text>
    <text x="870" y="1560" fill="green" font-size="20">-0.18 %</text>
    <text x="1000" y="1560" fill="green" font-size="20">-0.13 %</text>
    <text x="1150" y="1560" fill="green" font-size="20">-0.1 %</text>
    <text x="1280" y="1560" fill="green" font-size="20">-0.77 %</text>
    <text x="1410" y="1560" fill="green" font-size="20">-0.84 %</text>
    <text x="1540" y="1560" fill="green" font-size="20">-0.15 %</text>
    <text x="1690" y="1560" fill="red" font-size="20">0.17 %</text>
	<text x="60" y="1600" fill="black" font-size="20">./720p/alan_A_Bite_of_China_720p_crop_400_600.yuv</text>
    <text x="510" y="1600" fill="black" font-size="20">C</text>
    <text x="610" y="1600" fill="green" font-size="20">-1.71 %</text>
    <text x="740" y="1600" fill="green" font-size="20">-1.4 %</text>
    <text x="870" y="1600" fill="green" font-size="20">-1.46 %</text>
    <text x="1000" y="1600" fill="green" font-size="20">-1.68 %</text>
    <text x="1150" y="1600" fill="green" font-size="20">-2.93 %</text>
    <text x="1280" y="1600" fill="green" font-size="20">-0.9 %</text>
    <text x="1410" y="1600" fill="green" font-size="20">-0.54 %</text>
    <text x="1540" y="1600" fill="green" font-size="20">-2.86 %</text>
    <text x="1690" y="1600" fill="green" font-size="20">-2.31 %</text>
    <text x="60" y="1640" fill="black" font-size="20">./720p/alan_A_Bite_of_China_720p_crop_600_800.yuv</text>
    <text x="510" y="1640" fill="black" font-size="20">C</text>
    <text x="610" y="1640" fill="green" font-size="20">-2.13 %</text>
    <text x="740" y="1640" fill="green" font-size="20">-1.61 %</text>
    <text x="870" y="1640" fill="green" font-size="20">-3.04 %</text>
    <text x="1000" y="1640" fill="green" font-size="20">-2.16 %</text>
    <text x="1150" y="1640" fill="green" font-size="20">-1.65 %</text>
    <text x="1280" y="1640" fill="green" font-size="20">-2.26 %</text>
    <text x="1410" y="1640" fill="green" font-size="20">-4.96 %</text>
    <text x="1540" y="1640" fill="green" font-size="20">-1.8 %</text>
    <text x="1690" y="1640" fill="green" font-size="20">-2.21 %</text>
	<text x="60" y="1680" fill="black" font-size="20">./720p/alan_A_Bite_of_China_720p_crop_800_1141.yuv</text>
    <text x="510" y="1680" fill="black" font-size="20">C</text>
    <text x="610" y="1680" fill="green" font-size="20">-1.52 %</text>
    <text x="740" y="1680" fill="green" font-size="20">-1.15 %</text>
    <text x="870" y="1680" fill="green" font-size="20">-1.63 %</text>
    <text x="1000" y="1680" fill="green" font-size="20">-1.53 %</text>
    <text x="1150" y="1680" fill="green" font-size="20">-2.02 %</text>
    <text x="1280" y="1680" fill="green" font-size="20">-0.45 %</text>
    <text x="1410" y="1680" fill="red" font-size="20">0.06 %</text>
    <text x="1540" y="1680" fill="green" font-size="20">-1.93 %</text>
    <text x="1690" y="1680" fill="green" font-size="20">-2.67 %</text>
    <text x="60" y="1720" fill="black" font-size="20">./720p/alan_Aerial_China_720p_0_200.yuv</text>
    <text x="510" y="1720" fill="black" font-size="20">C</text>
    <text x="610" y="1720" fill="green" font-size="20">-0.99 %</text>
    <text x="740" y="1720" fill="green" font-size="20">-2.69 %</text>
    <text x="870" y="1720" fill="green" font-size="20">-5.63 %</text>
    <text x="1000" y="1720" fill="green" font-size="20">-1.69 %</text>
    <text x="1150" y="1720" fill="green" font-size="20">-1.5 %</text>
    <text x="1280" y="1720" fill="green" font-size="20">-1.18 %</text>
    <text x="1410" y="1720" fill="green" font-size="20">-3.93 %</text>
    <text x="1540" y="1720" fill="green" font-size="20">-1.63 %</text>
    <text x="1690" y="1720" fill="green" font-size="20">-0.68 %</text>
	<text x="60" y="1760" fill="black" font-size="20">./720p/alan_Aerial_China_720p_200_400.yuv</text>
    <text x="510" y="1760" fill="black" font-size="20">C</text>
    <text x="610" y="1760" fill="green" font-size="20">-5.28 %</text>
    <text x="740" y="1760" fill="green" font-size="20">-4.85 %</text>
    <text x="870" y="1760" fill="green" font-size="20">-4.93 %</text>
    <text x="1000" y="1760" fill="green" font-size="20">-5.22 %</text>
    <text x="1150" y="1760" fill="green" font-size="20">-10.63 %</text>
    <text x="1280" y="1760" fill="green" font-size="20">-3.1 %</text>
    <text x="1410" y="1760" fill="green" font-size="20">-2.67 %</text>
    <text x="1540" y="1760" fill="green" font-size="20">-10.36 %</text>
    <text x="1690" y="1760" fill="green" font-size="20">-8.57 %</text>
    <text x="60" y="1800" fill="black" font-size="20">./720p/alan_Aerial_China_720p_600_800.yuv</text>
    <text x="510" y="1800" fill="black" font-size="20">C</text>
    <text x="610" y="1800" fill="red" font-size="20">0.11 %</text>
    <text x="740" y="1800" fill="green" font-size="20">-0.93 %</text>
    <text x="870" y="1800" fill="green" font-size="20">-1.13 %</text>
    <text x="1000" y="1800" fill="green" font-size="20">-0.12 %</text>
    <text x="1150" y="1800" fill="red" font-size="20">0.07 %</text>
    <text x="1280" y="1800" fill="green" font-size="20">-2.1 %</text>
    <text x="1410" y="1800" fill="green" font-size="20">-2.29 %</text>
    <text x="1540" y="1800" fill="green" font-size="20">-0.01 %</text>
    <text x="1690" y="1800" fill="black" font-size="20">0.0 %</text>
	<text x="60" y="1840" fill="black" font-size="20">./720p/alan_Aerial_China_720p_800_1000.yuv</text>
    <text x="510" y="1840" fill="black" font-size="20">C</text>
    <text x="610" y="1840" fill="black" font-size="20">0.0 %</text>
    <text x="740" y="1840" fill="black" font-size="20">0.0 %</text>
    <text x="870" y="1840" fill="black" font-size="20">0.0 %</text>
    <text x="1000" y="1840" fill="black" font-size="20">0.0 %</text>
    <text x="1150" y="1840" fill="black" font-size="20">0.0 %</text>
    <text x="1280" y="1840" fill="black" font-size="20">0.0 %</text>
    <text x="1410" y="1840" fill="black" font-size="20">0.0 %</text>
    <text x="1540" y="1840" fill="black" font-size="20">0.0 %</text>
    <text x="1690" y="1840" fill="black" font-size="20">0.0 %</text>
    <text x="60" y="1880" fill="black" font-size="20">./720p/alan_Aerial_China_720p_1000_1200.yuv</text>
    <text x="510" y="1880" fill="black" font-size="20">C</text>
    <text x="610" y="1880" fill="green" font-size="20">-0.61 %</text>
    <text x="740" y="1880" fill="green" font-size="20">-0.73 %</text>
    <text x="870" y="1880" fill="green" font-size="20">-1.27 %</text>
    <text x="1000" y="1880" fill="green" font-size="20">-0.73 %</text>
    <text x="1150" y="1880" fill="green" font-size="20">-0.51 %</text>
    <text x="1280" y="1880" fill="green" font-size="20">-0.97 %</text>
    <text x="1410" y="1880" fill="green" font-size="20">-1.09 %</text>
    <text x="1540" y="1880" fill="green" font-size="20">-0.53 %</text>
    <text x="1690" y="1880" fill="green" font-size="20">-1.4 %</text>
	<text x="60" y="1920" fill="black" font-size="20">./720p/alan_Aerial_China_720p_1200_1518.yuv</text>
    <text x="510" y="1920" fill="black" font-size="20">C</text>
    <text x="610" y="1920" fill="green" font-size="20">-3.12 %</text>
    <text x="740" y="1920" fill="green" font-size="20">-3.33 %</text>
    <text x="870" y="1920" fill="green" font-size="20">-3.52 %</text>
    <text x="1000" y="1920" fill="green" font-size="20">-3.14 %</text>
    <text x="1150" y="1920" fill="green" font-size="20">-5.51 %</text>
    <text x="1280" y="1920" fill="green" font-size="20">-1.19 %</text>
    <text x="1410" y="1920" fill="green" font-size="20">-1.86 %</text>
    <text x="1540" y="1920" fill="green" font-size="20">-5.4 %</text>
    <text x="1690" y="1920" fill="green" font-size="20">-4.2 %</text>
    <text x="60" y="1960" fill="black" font-size="20">./1080p/alan_A_Bite_of_China_1080p_200_400.yuv</text>
    <text x="510" y="1960" fill="black" font-size="20">D</text>
    <text x="610" y="1960" fill="green" font-size="20">-0.23 %</text>
    <text x="740" y="1960" fill="green" font-size="20">-0.35 %</text>
    <text x="870" y="1960" fill="green" font-size="20">-0.27 %</text>
    <text x="1000" y="1960" fill="green" font-size="20">-0.21 %</text>
    <text x="1150" y="1960" fill="red" font-size="20">0.09 %</text>
    <text x="1280" y="1960" fill="green" font-size="20">-0.14 %</text>
    <text x="1410" y="1960" fill="green" font-size="20">-0.13 %</text>
    <text x="1540" y="1960" fill="red" font-size="20">0.07 %</text>
    <text x="1690" y="1960" fill="red" font-size="20">0.09 %</text>
	<text x="60" y="2000" fill="black" font-size="20">./1080p/alan_A_Bite_of_China_1080p_400_600.yuv</text>
    <text x="510" y="2000" fill="black" font-size="20">C</text>
    <text x="610" y="2000" fill="green" font-size="20">-1.38 %</text>
    <text x="740" y="2000" fill="green" font-size="20">-1.37 %</text>
    <text x="870" y="2000" fill="green" font-size="20">-1.82 %</text>
    <text x="1000" y="2000" fill="green" font-size="20">-1.39 %</text>
    <text x="1150" y="2000" fill="green" font-size="20">-2.23 %</text>
    <text x="1280" y="2000" fill="red" font-size="20">0.87 %</text>
    <text x="1410" y="2000" fill="red" font-size="20">0.68 %</text>
    <text x="1540" y="2000" fill="green" font-size="20">-2.14 %</text>
    <text x="1690" y="2000" fill="green" font-size="20">-1.7 %</text>
    <text x="60" y="2040" fill="black" font-size="20">./1080p/alan_A_Bite_of_China_1080p_600_800.yuv</text>
    <text x="510" y="2040" fill="black" font-size="20">C</text>
    <text x="610" y="2040" fill="green" font-size="20">-1.24 %</text>
    <text x="740" y="2040" fill="green" font-size="20">-1.28 %</text>
    <text x="870" y="2040" fill="green" font-size="20">-1.72 %</text>
    <text x="1000" y="2040" fill="green" font-size="20">-1.34 %</text>
    <text x="1150" y="2040" fill="green" font-size="20">-1.27 %</text>
    <text x="1280" y="2040" fill="green" font-size="20">-0.3 %</text>
    <text x="1410" y="2040" fill="green" font-size="20">-2.52 %</text>
    <text x="1540" y="2040" fill="green" font-size="20">-1.3 %</text>
    <text x="1690" y="2040" fill="green" font-size="20">-2.17 %</text>
</svg>