<svg id="kity_svg_6" xmlns="http://www.w3.org/2000/svg" xmlns:xlink="http://www.w3.org/1999/xlink" version="1.1" width="870" height="558" style="background: rgb(251, 251, 251); visibility: visible;" viewBox="0 0 870 558"><defs id="kity_defs_7"><linearGradient id="kity_linearGradient_17" x1="0" y1="0" x2="0" y2="1"><stop id="kity_stop_18" offset="0" stop-color="rgb(255, 255, 255)"></stop><stop id="kity_stop_19" offset="1" stop-color="rgb(204, 204, 204)"></stop></linearGradient><marker id="kity_marker_2" orient="auto" refX="6" refY="0" viewBox="-7 -7 14 14" markerWidth="7" markerHeight="7" markerUnits="userSpaceOnUse"><path id="kity_path_3" fill="rgb(123, 115, 191)" stroke="none" d="M6,0A6,6,0,1,1,-6,0A6,6,0,1,1,6,0"></path></marker></defs><g id="kity_g_8"><g id="minder1" text-rendering="optimize-speed"><g id="minder_connect_group1"><path id="kity_path_31" fill="none" stroke="rgb(123, 115, 191)" stroke-width="1" d="M435.5,48.5v10h-320.5V66.5"></path><path id="kity_path_39" fill="none" stroke="rgb(123, 115, 191)" stroke-width="1" d="M435.5,48.5v10h-159.5V66.5"></path><path id="kity_path_47" fill="none" stroke="rgb(123, 115, 191)" stroke-width="1" d="M435.5,48.5v10h92.5V66.5"></path><path id="kity_path_55" fill="none" stroke="rgb(123, 115, 191)" stroke-width="1" d="M435.5,48.5v10h371V66.5"></path><path id="kity_path_63" fill="none" stroke="rgb(123, 115, 191)" stroke-width="1" d="M40.5,92.5V113.5L48.5,113.5"></path><path id="kity_path_71" fill="none" stroke="rgb(123, 115, 191)" stroke-width="1" d="M40.5,92.5V139.5L48.5,139.5"></path><path id="kity_path_79" fill="none" stroke="rgb(123, 115, 191)" stroke-width="1" d="M40.5,92.5V165.5L48.5,165.5"></path><path id="kity_path_87" fill="none" stroke="rgb(123, 115, 191)" stroke-width="1" d="M40.5,92.5V191.5L48.5,191.5"></path><path id="kity_path_95" fill="none" stroke="rgb(123, 115, 191)" stroke-width="1" d="M40.5,92.5V217.5L48.5,217.5"></path><path id="kity_path_103" fill="none" stroke="rgb(123, 115, 191)" stroke-width="1" d="M40.5,92.5V243.5L48.5,243.5"></path><path id="kity_path_111" fill="none" stroke="rgb(123, 115, 191)" stroke-width="1" d="M40.5,92.5V269.5L48.5,269.5"></path><path id="kity_path_119" fill="none" stroke="rgb(123, 115, 191)" stroke-width="1" d="M40.5,92.5V295.5L48.5,295.5"></path><path id="kity_path_127" fill="none" stroke="rgb(123, 115, 191)" stroke-width="1" d="M40.5,92.5V321.5L48.5,321.5"></path><path id="kity_path_135" fill="none" stroke="rgb(123, 115, 191)" stroke-width="1" d="M40.5,92.5V347.5L48.5,347.5"></path><path id="kity_path_151" fill="none" stroke="rgb(123, 115, 191)" stroke-width="1" d="M245.5,92.5V113.5L253.5,113.5"></path><path id="kity_path_159" fill="none" stroke="rgb(123, 115, 191)" stroke-width="1" d="M245.5,92.5V191.5L253.5,191.5"></path><path id="kity_path_175" fill="none" stroke="rgb(123, 115, 191)" stroke-width="1" d="M499.5,92.5V113.5L507.5,113.5"></path><path id="kity_path_183" fill="none" stroke="rgb(123, 115, 191)" stroke-width="1" d="M499.5,92.5V139.5L507.5,139.5"></path><path id="kity_path_191" fill="none" stroke="rgb(123, 115, 191)" stroke-width="1" d="M499.5,92.5V165.5L507.5,165.5"></path><path id="kity_path_199" fill="none" stroke="rgb(123, 115, 191)" stroke-width="1" d="M499.5,92.5V191.5L507.5,191.5"></path><path id="kity_path_207" fill="none" stroke="rgb(123, 115, 191)" stroke-width="1" d="M499.5,92.5V217.5L507.5,217.5"></path><path id="kity_path_215" fill="none" stroke="rgb(123, 115, 191)" stroke-width="1" d="M499.5,92.5V347.5L507.5,347.5"></path><path id="kity_path_223" fill="none" stroke="rgb(123, 115, 191)" stroke-width="1" d="M499.5,92.5V529.5L507.5,529.5"></path><path id="kity_path_231" fill="none" stroke="rgb(123, 115, 191)" stroke-width="1" d="M273.5,122.5V139.5L281.5,139.5"></path><path id="kity_path_239" fill="none" stroke="rgb(123, 115, 191)" stroke-width="1" d="M273.5,122.5V165.5L281.5,165.5"></path><path id="kity_path_247" fill="none" stroke="rgb(123, 115, 191)" stroke-width="1" d="M273.5,200.5V217.5L281.5,217.5"></path><path id="kity_path_255" fill="none" stroke="rgb(123, 115, 191)" stroke-width="1" d="M527.5,226.5V243.5L535.5,243.5"></path><path id="kity_path_263" fill="none" stroke="rgb(123, 115, 191)" stroke-width="1" d="M527.5,226.5V269.5L535.5,269.5"></path><path id="kity_path_271" fill="none" stroke="rgb(123, 115, 191)" stroke-width="1" d="M527.5,226.5V295.5L535.5,295.5"></path><path id="kity_path_279" fill="none" stroke="rgb(123, 115, 191)" stroke-width="1" d="M527.5,226.5V321.5L535.5,321.5"></path><path id="kity_path_295" fill="none" stroke="rgb(123, 115, 191)" stroke-width="1" d="M527.5,356.5V373.5L535.5,373.5"></path><path id="kity_path_303" fill="none" stroke="rgb(123, 115, 191)" stroke-width="1" d="M527.5,356.5V399.5L535.5,399.5"></path><path id="kity_path_311" fill="none" stroke="rgb(123, 115, 191)" stroke-width="1" d="M527.5,356.5V425.5L535.5,425.5"></path><path id="kity_path_319" fill="none" stroke="rgb(123, 115, 191)" stroke-width="1" d="M527.5,356.5V451.5L535.5,451.5"></path><path id="kity_path_327" fill="none" stroke="rgb(123, 115, 191)" stroke-width="1" d="M527.5,356.5V477.5L535.5,477.5"></path><path id="kity_path_335" fill="none" stroke="rgb(123, 115, 191)" stroke-width="1" d="M527.5,356.5V503.5L535.5,503.5"></path></g><g id="minder_node1"><path id="kity_path_346" fill="rgba(0, 0, 0, .25)" stroke="none" d="M388.5,22.5h147a5,5,0,0,1,5,5v24a5,5,0,0,1,-5,5h-147a5,5,0,0,1,-5,-5v-24a5,5,0,0,1,5,-5z" display="none"></path><path id="node_outline1" fill="rgb(123, 115, 191)" stroke="rgb(123, 115, 191)" d="M382.5,20.5h106a5,5,0,0,1,5,5v18a5,5,0,0,1,-5,5h-106a5,5,0,0,1,-5,-5v-18a5,5,0,0,1,5,-5z" stroke-width="3"></path><g id="node_text1" fill="white"><text id="kity_text_22" text-rendering="inherit" font-size="16" dy=".8em" y="26.5" font-family="sans-serif" x="389.5">bl_entrypoint</text></g></g><g id="kity_g_12"><path id="kity_path_13" fill="none" stroke="none" d="M389.5,34.5h0v0h0z"></path></g><g id="kity_g_14"><path id="kity_path_15" fill="none" stroke="none" d="M389.5,34.5h0v0h0z"></path><path id="kity_path_16" fill="none" stroke="none"></path></g><g id="minder_node2"><path id="kity_path_342" fill="rgba(0, 0, 0, .25)" stroke="none" d="M39.5,72.5h181a5,5,0,0,1,5,5v14a5,5,0,0,1,-5,5h-181a5,5,0,0,1,-5,-5v-14a5,5,0,0,1,5,-5z" display="none"></path><g id="node_expander1" style="cursor: pointer;"><path id="kity_path_36" fill="white" stroke="gray" d="M121,59.5A6,6,0,1,1,109,59.5A6,6,0,1,1,121,59.5"></path><path id="kity_path_37" fill="none" stroke="gray" d="M110.5,59.5L119.5,59.5"></path></g><path id="node_outline2" fill="rgb(239, 238, 246)" stroke="rgb(123, 115, 191)" d="M23.5,66.5h183a3,3,0,0,1,3,3v20a3,3,0,0,1,-3,3h-183a3,3,0,0,1,-3,-3v-20a3,3,0,0,1,3,-3z" stroke-width="1"></path><g id="node_text2" fill="black"><text id="kity_text_33" text-rendering="inherit" font-size="14" dy=".8em" y="72.5" font-family="sans-serif" x="40.5">el3_entrypoint_common</text></g></g><g id="minder_node3"><path id="kity_path_343" fill="rgba(0, 0, 0, .25)" stroke="none" d="M244.5,72.5h79a5,5,0,0,1,5,5v14a5,5,0,0,1,-5,5h-79a5,5,0,0,1,-5,-5v-14a5,5,0,0,1,5,-5z" display="none"></path><g id="node_expander2" style="cursor: pointer;"><path id="kity_path_44" fill="white" stroke="gray" d="M282,59.5A6,6,0,1,1,270,59.5A6,6,0,1,1,282,59.5"></path><path id="kity_path_45" fill="none" stroke="gray" d="M271.5,59.5L280.5,59.5"></path></g><path id="node_outline3" fill="rgb(239, 238, 246)" stroke="rgb(123, 115, 191)" d="M228.5,66.5h95a3,3,0,0,1,3,3v20a3,3,0,0,1,-3,3h-95a3,3,0,0,1,-3,-3v-20a3,3,0,0,1,3,-3z" stroke-width="1"></path><g id="node_text3" fill="black"><text id="kity_text_41" text-rendering="inherit" font-size="14" dy=".8em" y="72.5" font-family="sans-serif" x="245.5">bl1_setup</text></g></g><g id="minder_node4"><path id="kity_path_344" fill="rgba(0, 0, 0, .25)" stroke="none" d="M498.5,72.5h75a5,5,0,0,1,5,5v14a5,5,0,0,1,-5,5h-75a5,5,0,0,1,-5,-5v-14a5,5,0,0,1,5,-5z" display="none"></path><g id="node_expander3" style="cursor: pointer;"><path id="kity_path_52" fill="white" stroke="gray" d="M534,59.5A6,6,0,1,1,522,59.5A6,6,0,1,1,534,59.5"></path><path id="kity_path_53" fill="none" stroke="gray" d="M523.5,59.5L532.5,59.5"></path></g><path id="node_outline4" fill="rgb(239, 238, 246)" stroke="rgb(123, 115, 191)" d="M482.5,66.5h91a3,3,0,0,1,3,3v20a3,3,0,0,1,-3,3h-91a3,3,0,0,1,-3,-3v-20a3,3,0,0,1,3,-3z" stroke-width="1"></path><g id="node_text4" fill="black"><text id="kity_text_49" text-rendering="inherit" font-size="14" dy=".8em" y="72.5" font-family="sans-serif" x="499.5">bl1_main</text></g></g><g id="minder_node5"><path id="kity_path_345" fill="rgba(0, 0, 0, .25)" stroke="none" d="M781.5,72.5h65a5,5,0,0,1,5,5v14a5,5,0,0,1,-5,5h-65a5,5,0,0,1,-5,-5v-14a5,5,0,0,1,5,-5z" display="none"></path><g id="node_expander4" style="cursor: pointer;" display="none"><path id="kity_path_60" fill="white" stroke="gray" d="M812.5,59.5A6,6,0,1,1,800.5,59.5A6,6,0,1,1,812.5,59.5"></path><path id="kity_path_61" fill="none" stroke="gray"></path></g><path id="node_outline5" fill="rgb(239, 238, 246)" stroke="rgb(123, 115, 191)" d="M765.5,66.5h82a3,3,0,0,1,3,3v20a3,3,0,0,1,-3,3h-82a3,3,0,0,1,-3,-3v-20a3,3,0,0,1,3,-3z" stroke-width="1"></path><g id="node_text5" fill="black"><text id="kity_text_57" text-rendering="inherit" font-size="14" dy=".8em" y="72.5" font-family="sans-serif" x="782.5">el3_exit</text></g></g><g id="minder_node6"><g id="node_expander5" style="cursor: pointer;" display="none"><path id="kity_path_68" fill="white" stroke="gray" d="M48.5,113.5A6,6,0,1,1,36.5,113.5A6,6,0,1,1,48.5,113.5"></path><path id="kity_path_69" fill="none" stroke="gray"></path></g><path id="node_outline6" fill="none" stroke="none" d="M53.5,104.5h51a5,5,0,0,1,5,5v8a5,5,0,0,1,-5,5h-51a5,5,0,0,1,-5,-5v-8a5,5,0,0,1,5,-5z" stroke-width="3"></path><g id="node_text6" fill="black"><text id="kity_text_65" text-rendering="inherit" font-size="12" dy=".8em" y="107.5" font-family="sans-serif" x="53.5">_init_sctlr</text></g></g><g id="minder_node7"><g id="node_expander6" style="cursor: pointer;" display="none"><path id="kity_path_76" fill="white" stroke="gray" d="M48.5,139.5A6,6,0,1,1,36.5,139.5A6,6,0,1,1,48.5,139.5"></path><path id="kity_path_77" fill="none" stroke="gray"></path></g><path id="node_outline7" fill="none" stroke="none" d="M53.5,130.5h125a5,5,0,0,1,5,5v8a5,5,0,0,1,-5,5h-125a5,5,0,0,1,-5,-5v-8a5,5,0,0,1,5,-5z" stroke-width="3"></path><g id="node_text7" fill="black"><text id="kity_text_73" text-rendering="inherit" font-size="12" dy=".8em" y="133.5" font-family="sans-serif" x="53.5">_warm_boot_mailbox</text></g></g><g id="minder_node8"><g id="node_expander7" style="cursor: pointer;" display="none"><path id="kity_path_84" fill="white" stroke="gray" d="M48.5,165.5A6,6,0,1,1,36.5,165.5A6,6,0,1,1,48.5,165.5"></path><path id="kity_path_85" fill="none" stroke="gray"></path></g><path id="node_outline8" fill="none" stroke="none" d="M53.5,156.5h52a5,5,0,0,1,5,5v8a5,5,0,0,1,-5,5h-52a5,5,0,0,1,-5,-5v-8a5,5,0,0,1,5,-5z" stroke-width="3"></path><g id="node_text8" fill="black"><text id="kity_text_81" text-rendering="inherit" font-size="12" dy=".8em" y="159.5" font-family="sans-serif" x="53.5">pie_fixup</text></g></g><g id="minder_node9"><g id="node_expander8" style="cursor: pointer;" display="none"><path id="kity_path_92" fill="white" stroke="gray" d="M48.5,191.5A6,6,0,1,1,36.5,191.5A6,6,0,1,1,48.5,191.5"></path><path id="kity_path_93" fill="none" stroke="gray"></path></g><path id="node_outline9" fill="none" stroke="none" d="M53.5,182.5h93a5,5,0,0,1,5,5v8a5,5,0,0,1,-5,5h-93a5,5,0,0,1,-5,-5v-8a5,5,0,0,1,5,-5z" stroke-width="3"></path><g id="node_text9" fill="black"><text id="kity_text_89" text-rendering="inherit" font-size="12" dy=".8em" y="185.5" font-family="sans-serif" x="53.5">vbar_el3_config</text></g></g><g id="minder_node10"><g id="node_expander9" style="cursor: pointer;" display="none"><path id="kity_path_100" fill="white" stroke="gray" d="M48.5,217.5A6,6,0,1,1,36.5,217.5A6,6,0,1,1,48.5,217.5"></path><path id="kity_path_101" fill="none" stroke="gray"></path></g><path id="node_outline10" fill="none" stroke="none" d="M53.5,208.5h79a5,5,0,0,1,5,5v8a5,5,0,0,1,-5,5h-79a5,5,0,0,1,-5,-5v-8a5,5,0,0,1,5,-5z" stroke-width="3"></path><g id="node_text10" fill="black"><text id="kity_text_97" text-rendering="inherit" font-size="12" dy=".8em" y="211.5" font-family="sans-serif" x="53.5">reset_handler</text></g></g><g id="minder_node11"><g id="node_expander10" style="cursor: pointer;" display="none"><path id="kity_path_108" fill="white" stroke="gray" d="M48.5,243.5A6,6,0,1,1,36.5,243.5A6,6,0,1,1,48.5,243.5"></path><path id="kity_path_109" fill="none" stroke="gray"></path></g><path id="node_outline11" fill="none" stroke="none" d="M53.5,234.5h131a5,5,0,0,1,5,5v8a5,5,0,0,1,-5,5h-131a5,5,0,0,1,-5,-5v-8a5,5,0,0,1,5,-5z" stroke-width="3"></path><g id="node_text11" fill="black"><text id="kity_text_105" text-rendering="inherit" font-size="12" dy=".8em" y="237.5" font-family="sans-serif" x="53.5">el3_arch_init_common</text></g></g><g id="minder_node12"><g id="node_expander11" style="cursor: pointer;" display="none"><path id="kity_path_116" fill="white" stroke="gray" d="M48.5,269.5A6,6,0,1,1,36.5,269.5A6,6,0,1,1,48.5,269.5"></path><path id="kity_path_117" fill="none" stroke="gray"></path></g><path id="node_outline12" fill="none" stroke="none" d="M53.5,260.5h134a5,5,0,0,1,5,5v8a5,5,0,0,1,-5,5h-134a5,5,0,0,1,-5,-5v-8a5,5,0,0,1,5,-5z" stroke-width="3"></path><g id="node_text12" fill="black"><text id="kity_text_113" text-rendering="inherit" font-size="12" dy=".8em" y="263.5" font-family="sans-serif" x="53.5">_secondary_cold_boot</text></g></g><g id="minder_node13"><g id="node_expander12" style="cursor: pointer;" display="none"><path id="kity_path_124" fill="white" stroke="gray" d="M48.5,295.5A6,6,0,1,1,36.5,295.5A6,6,0,1,1,48.5,295.5"></path><path id="kity_path_125" fill="none" stroke="gray"></path></g><path id="node_outline13" fill="none" stroke="none" d="M53.5,286.5h76a5,5,0,0,1,5,5v8a5,5,0,0,1,-5,5h-76a5,5,0,0,1,-5,-5v-8a5,5,0,0,1,5,-5z" stroke-width="3"></path><g id="node_text13" fill="black"><text id="kity_text_121" text-rendering="inherit" font-size="12" dy=".8em" y="289.5" font-family="sans-serif" x="53.5">_init_memory</text></g></g><g id="minder_node14"><g id="node_expander13" style="cursor: pointer;" display="none"><path id="kity_path_132" fill="white" stroke="gray" d="M48.5,321.5A6,6,0,1,1,36.5,321.5A6,6,0,1,1,48.5,321.5"></path><path id="kity_path_133" fill="none" stroke="gray"></path></g><path id="node_outline14" fill="none" stroke="none" d="M53.5,312.5h86a5,5,0,0,1,5,5v8a5,5,0,0,1,-5,5h-86a5,5,0,0,1,-5,-5v-8a5,5,0,0,1,5,-5z" stroke-width="3"></path><g id="node_text14" fill="black"><text id="kity_text_129" text-rendering="inherit" font-size="12" dy=".8em" y="315.5" font-family="sans-serif" x="53.5">_init_c_runtime</text></g></g><g id="minder_node15"><g id="node_expander14" style="cursor: pointer;" display="none"><path id="kity_path_140" fill="white" stroke="gray" d="M48.5,347.5A6,6,0,1,1,36.5,347.5A6,6,0,1,1,48.5,347.5"></path><path id="kity_path_141" fill="none" stroke="gray"></path></g><path id="node_outline15" fill="none" stroke="none" d="M53.5,338.5h106a5,5,0,0,1,5,5v8a5,5,0,0,1,-5,5h-106a5,5,0,0,1,-5,-5v-8a5,5,0,0,1,5,-5z" stroke-width="3"></path><g id="node_text15" fill="black"><text id="kity_text_137" text-rendering="inherit" font-size="12" dy=".8em" y="341.5" font-family="sans-serif" x="53.5">plat_set_my_stack</text></g></g><g id="minder_node17"><g id="node_expander16" style="cursor: pointer;"><path id="kity_path_156" fill="white" stroke="gray" d="M253.5,113.5A6,6,0,1,1,241.5,113.5A6,6,0,1,1,253.5,113.5"></path><path id="kity_path_157" fill="none" stroke="gray" d="M243,113.5L252,113.5"></path></g><path id="node_outline17" fill="none" stroke="none" d="M258.5,104.5h145a5,5,0,0,1,5,5v8a5,5,0,0,1,-5,5h-145a5,5,0,0,1,-5,-5v-8a5,5,0,0,1,5,-5z" stroke-width="3"></path><g id="node_text17" fill="black"><text id="kity_text_153" text-rendering="inherit" font-size="12" dy=".8em" y="107.5" font-family="sans-serif" x="258.5">bl1_early_platform_setup</text></g></g><g id="minder_node18"><g id="node_expander17" style="cursor: pointer;"><path id="kity_path_164" fill="white" stroke="gray" d="M253.5,191.5A6,6,0,1,1,241.5,191.5A6,6,0,1,1,253.5,191.5"></path><path id="kity_path_165" fill="none" stroke="gray" d="M243,191.5L252,191.5"></path></g><path id="node_outline18" fill="none" stroke="none" d="M258.5,182.5h117a5,5,0,0,1,5,5v8a5,5,0,0,1,-5,5h-117a5,5,0,0,1,-5,-5v-8a5,5,0,0,1,5,-5z" stroke-width="3"></path><g id="node_text18" fill="black"><text id="kity_text_161" text-rendering="inherit" font-size="12" dy=".8em" y="185.5" font-family="sans-serif" x="258.5">bl1_plat_arch_setup</text></g></g><g id="minder_node20"><g id="node_expander19" style="cursor: pointer;" display="none"><path id="kity_path_180" fill="white" stroke="gray" d="M507.5,113.5A6,6,0,1,1,495.5,113.5A6,6,0,1,1,507.5,113.5"></path><path id="kity_path_181" fill="none" stroke="gray"></path></g><path id="node_outline20" fill="none" stroke="none" d="M512.5,104.5h88a5,5,0,0,1,5,5v8a5,5,0,0,1,-5,5h-88a5,5,0,0,1,-5,-5v-8a5,5,0,0,1,5,-5z" stroke-width="3"></path><g id="node_text20" fill="black"><text id="kity_text_177" text-rendering="inherit" font-size="12" dy=".8em" y="107.5" font-family="sans-serif" x="512.5">bl1_arch_setup</text></g></g><g id="minder_node21"><g id="node_expander20" style="cursor: pointer;" display="none"><path id="kity_path_188" fill="white" stroke="gray" d="M507.5,139.5A6,6,0,1,1,495.5,139.5A6,6,0,1,1,507.5,139.5"></path><path id="kity_path_189" fill="none" stroke="gray"></path></g><path id="node_outline21" fill="none" stroke="none" d="M512.5,130.5h82a5,5,0,0,1,5,5v8a5,5,0,0,1,-5,5h-82a5,5,0,0,1,-5,-5v-8a5,5,0,0,1,5,-5z" stroke-width="3"></path><g id="node_text21" fill="black"><text id="kity_text_185" text-rendering="inherit" font-size="12" dy=".8em" y="133.5" font-family="sans-serif" x="512.5">auth_mod_init</text></g></g><g id="minder_node22"><g id="node_expander21" style="cursor: pointer;" display="none"><path id="kity_path_196" fill="white" stroke="gray" d="M507.5,165.5A6,6,0,1,1,495.5,165.5A6,6,0,1,1,507.5,165.5"></path><path id="kity_path_197" fill="none" stroke="gray"></path></g><path id="node_outline22" fill="none" stroke="none" d="M512.5,156.5h111a5,5,0,0,1,5,5v8a5,5,0,0,1,-5,5h-111a5,5,0,0,1,-5,-5v-8a5,5,0,0,1,5,-5z" stroke-width="3"></path><g id="node_text22" fill="black"><text id="kity_text_193" text-rendering="inherit" font-size="12" dy=".8em" y="159.5" font-family="sans-serif" x="512.5">bl1_platform_setup</text></g></g><g id="minder_node23"><g id="node_expander22" style="cursor: pointer;" display="none"><path id="kity_path_204" fill="white" stroke="gray" d="M507.5,191.5A6,6,0,1,1,495.5,191.5A6,6,0,1,1,507.5,191.5"></path><path id="kity_path_205" fill="none" stroke="gray"></path></g><path id="node_outline23" fill="none" stroke="none" d="M512.5,182.5h163a5,5,0,0,1,5,5v8a5,5,0,0,1,-5,5h-163a5,5,0,0,1,-5,-5v-8a5,5,0,0,1,5,-5z" stroke-width="3"></path><g id="node_text23" fill="black"><text id="kity_text_201" text-rendering="inherit" font-size="12" dy=".8em" y="185.5" font-family="sans-serif" x="512.5">bl1_plat_get_next_image_id</text></g></g><g id="minder_node24"><g id="node_expander23" style="cursor: pointer;"><path id="kity_path_212" fill="white" stroke="gray" d="M507.5,217.5A6,6,0,1,1,495.5,217.5A6,6,0,1,1,507.5,217.5"></path><path id="kity_path_213" fill="none" stroke="gray" d="M497,217.5L506,217.5"></path></g><path id="node_outline24" fill="none" stroke="none" d="M512.5,208.5h73a5,5,0,0,1,5,5v8a5,5,0,0,1,-5,5h-73a5,5,0,0,1,-5,-5v-8a5,5,0,0,1,5,-5z" stroke-width="3"></path><g id="node_text24" fill="black"><text id="kity_text_209" text-rendering="inherit" font-size="12" dy=".8em" y="211.5" font-family="sans-serif" x="512.5">bl1_load_bl2</text></g></g><g id="minder_node25"><g id="node_expander24" style="cursor: pointer;"><path id="kity_path_220" fill="white" stroke="gray" d="M507.5,347.5A6,6,0,1,1,495.5,347.5A6,6,0,1,1,507.5,347.5"></path><path id="kity_path_221" fill="none" stroke="gray" d="M497,347.5L506,347.5"></path></g><path id="node_outline25" fill="none" stroke="none" d="M512.5,338.5h145a5,5,0,0,1,5,5v8a5,5,0,0,1,-5,5h-145a5,5,0,0,1,-5,-5v-8a5,5,0,0,1,5,-5z" stroke-width="3"></path><g id="node_text25" fill="black"><text id="kity_text_217" text-rendering="inherit" font-size="12" dy=".8em" y="341.5" font-family="sans-serif" x="512.5">bl1_prepare_next_image</text></g></g><g id="minder_node26"><g id="node_expander25" style="cursor: pointer;" display="none"><path id="kity_path_228" fill="white" stroke="gray" d="M507.5,529.5A6,6,0,1,1,495.5,529.5A6,6,0,1,1,507.5,529.5"></path><path id="kity_path_229" fill="none" stroke="gray"></path></g><path id="node_outline26" fill="none" stroke="none" d="M512.5,520.5h77a5,5,0,0,1,5,5v8a5,5,0,0,1,-5,5h-77a5,5,0,0,1,-5,-5v-8a5,5,0,0,1,5,-5z" stroke-width="3"></path><g id="node_text26" fill="black"><text id="kity_text_225" text-rendering="inherit" font-size="12" dy=".8em" y="523.5" font-family="sans-serif" x="512.5">console_flush</text></g></g><g id="minder_node27"><g id="node_expander26" style="cursor: pointer;" display="none"><path id="kity_path_236" fill="white" stroke="gray" d="M281.5,139.5A6,6,0,1,1,269.5,139.5A6,6,0,1,1,281.5,139.5"></path><path id="kity_path_237" fill="none" stroke="gray"></path></g><path id="node_outline27" fill="none" stroke="none" d="M286.5,130.5h108a5,5,0,0,1,5,5v8a5,5,0,0,1,-5,5h-108a5,5,0,0,1,-5,-5v-8a5,5,0,0,1,5,-5z" stroke-width="3"></path><g id="node_text27" fill="black"><text id="kity_text_233" text-rendering="inherit" font-size="12" dy=".8em" y="133.5" font-family="sans-serif" x="286.5">qemu_console_init</text></g></g><g id="minder_node28"><g id="node_expander27" style="cursor: pointer;" display="none"><path id="kity_path_244" fill="white" stroke="gray" d="M281.5,165.5A6,6,0,1,1,269.5,165.5A6,6,0,1,1,281.5,165.5"></path><path id="kity_path_245" fill="none" stroke="gray"></path></g><path id="node_outline28" fill="none" stroke="none" d="M286.5,156.5h120a5,5,0,0,1,5,5v8a5,5,0,0,1,-5,5h-120a5,5,0,0,1,-5,-5v-8a5,5,0,0,1,5,-5z" stroke-width="3"></path><g id="node_text28" fill="black"><text id="kity_text_241" text-rendering="inherit" font-size="12" dy=".8em" y="159.5" font-family="sans-serif" x="286.5">bl1_tzram_layout_set</text></g></g><g id="minder_node29"><g id="node_expander28" style="cursor: pointer;" display="none"><path id="kity_path_252" fill="white" stroke="gray" d="M281.5,217.5A6,6,0,1,1,269.5,217.5A6,6,0,1,1,281.5,217.5"></path><path id="kity_path_253" fill="none" stroke="gray"></path></g><path id="node_outline29" fill="none" stroke="none" d="M286.5,208.5h172a5,5,0,0,1,5,5v8a5,5,0,0,1,-5,5h-172a5,5,0,0,1,-5,-5v-8a5,5,0,0,1,5,-5z" stroke-width="3"></path><g id="node_text29" fill="black"><text id="kity_text_249" text-rendering="inherit" font-size="12" dy=".8em" y="211.5" font-family="sans-serif" x="286.5">QEMU_CONFIGURE_BL1_MMU</text></g></g><g id="minder_node30"><g id="node_expander29" style="cursor: pointer;" display="none"><path id="kity_path_260" fill="white" stroke="gray" d="M535.5,243.5A6,6,0,1,1,523.5,243.5A6,6,0,1,1,535.5,243.5"></path><path id="kity_path_261" fill="none" stroke="gray"></path></g><path id="node_outline30" fill="none" stroke="none" d="M540.5,234.5h150a5,5,0,0,1,5,5v8a5,5,0,0,1,-5,5h-150a5,5,0,0,1,-5,-5v-8a5,5,0,0,1,5,-5z" stroke-width="3"></path><g id="node_text30" fill="black"><text id="kity_text_257" text-rendering="inherit" font-size="12" dy=".8em" y="237.5" font-family="sans-serif" x="540.5">bl1_plat_get_image_desc</text></g></g><g id="minder_node31"><g id="node_expander30" style="cursor: pointer;" display="none"><path id="kity_path_268" fill="white" stroke="gray" d="M535.5,269.5A6,6,0,1,1,523.5,269.5A6,6,0,1,1,535.5,269.5"></path><path id="kity_path_269" fill="none" stroke="gray"></path></g><path id="node_outline31" fill="none" stroke="none" d="M540.5,260.5h195a5,5,0,0,1,5,5v8a5,5,0,0,1,-5,5h-195a5,5,0,0,1,-5,-5v-8a5,5,0,0,1,5,-5z" stroke-width="3"></path><g id="node_text31" fill="black"><text id="kity_text_265" text-rendering="inherit" font-size="12" dy=".8em" y="263.5" font-family="sans-serif" x="540.5">bl1_plat_handle_pre_image_load</text></g></g><g id="minder_node32"><g id="node_expander31" style="cursor: pointer;" display="none"><path id="kity_path_276" fill="white" stroke="gray" d="M535.5,295.5A6,6,0,1,1,523.5,295.5A6,6,0,1,1,535.5,295.5"></path><path id="kity_path_277" fill="none" stroke="gray"></path></g><path id="node_outline32" fill="none" stroke="none" d="M540.5,286.5h103a5,5,0,0,1,5,5v8a5,5,0,0,1,-5,5h-103a5,5,0,0,1,-5,-5v-8a5,5,0,0,1,5,-5z" stroke-width="3"></path><g id="node_text32" fill="black"><text id="kity_text_273" text-rendering="inherit" font-size="12" dy=".8em" y="289.5" font-family="sans-serif" x="540.5">load_auth_image</text></g></g><g id="minder_node33"><g id="node_expander32" style="cursor: pointer;" display="none"><path id="kity_path_284" fill="white" stroke="gray" d="M535.5,321.5A6,6,0,1,1,523.5,321.5A6,6,0,1,1,535.5,321.5"></path><path id="kity_path_285" fill="none" stroke="gray"></path></g><path id="node_outline33" fill="none" stroke="none" d="M540.5,312.5h201a5,5,0,0,1,5,5v8a5,5,0,0,1,-5,5h-201a5,5,0,0,1,-5,-5v-8a5,5,0,0,1,5,-5z" stroke-width="3"></path><g id="node_text33" fill="black"><text id="kity_text_281" text-rendering="inherit" font-size="12" dy=".8em" y="315.5" font-family="sans-serif" x="540.5">bl1_plat_handle_post_image_load</text></g></g><g id="minder_node35"><g id="node_expander34" style="cursor: pointer;" display="none"><path id="kity_path_300" fill="white" stroke="gray" d="M535.5,373.5A6,6,0,1,1,523.5,373.5A6,6,0,1,1,535.5,373.5"></path><path id="kity_path_301" fill="none" stroke="gray"></path></g><path id="node_outline35" fill="none" stroke="none" d="M540.5,364.5h150a5,5,0,0,1,5,5v8a5,5,0,0,1,-5,5h-150a5,5,0,0,1,-5,-5v-8a5,5,0,0,1,5,-5z" stroke-width="3"></path><g id="node_text35" fill="black"><text id="kity_text_297" text-rendering="inherit" font-size="12" dy=".8em" y="367.5" font-family="sans-serif" x="540.5">bl1_plat_get_image_desc</text></g></g><g id="minder_node36"><g id="node_expander35" style="cursor: pointer;" display="none"><path id="kity_path_308" fill="white" stroke="gray" d="M535.5,399.5A6,6,0,1,1,523.5,399.5A6,6,0,1,1,535.5,399.5"></path><path id="kity_path_309" fill="none" stroke="gray"></path></g><path id="node_outline36" fill="none" stroke="none" d="M540.5,390.5h92a5,5,0,0,1,5,5v8a5,5,0,0,1,-5,5h-92a5,5,0,0,1,-5,-5v-8a5,5,0,0,1,5,-5z" stroke-width="3"></path><g id="node_text36" fill="black"><text id="kity_text_305" text-rendering="inherit" font-size="12" dy=".8em" y="393.5" font-family="sans-serif" x="540.5">cm_set_context</text></g></g><g id="minder_node37"><g id="node_expander36" style="cursor: pointer;" display="none"><path id="kity_path_316" fill="white" stroke="gray" d="M535.5,425.5A6,6,0,1,1,523.5,425.5A6,6,0,1,1,535.5,425.5"></path><path id="kity_path_317" fill="none" stroke="gray"></path></g><path id="node_outline37" fill="none" stroke="none" d="M540.5,416.5h118a5,5,0,0,1,5,5v8a5,5,0,0,1,-5,5h-118a5,5,0,0,1,-5,-5v-8a5,5,0,0,1,5,-5z" stroke-width="3"></path><g id="node_text37" fill="black"><text id="kity_text_313" text-rendering="inherit" font-size="12" dy=".8em" y="419.5" font-family="sans-serif" x="540.5">bl1_plat_set_ep_info</text></g></g><g id="minder_node38"><g id="node_expander37" style="cursor: pointer;" display="none"><path id="kity_path_324" fill="white" stroke="gray" d="M535.5,451.5A6,6,0,1,1,523.5,451.5A6,6,0,1,1,535.5,451.5"></path><path id="kity_path_325" fill="none" stroke="gray"></path></g><path id="node_outline38" fill="none" stroke="none" d="M540.5,442.5h116a5,5,0,0,1,5,5v8a5,5,0,0,1,-5,5h-116a5,5,0,0,1,-5,-5v-8a5,5,0,0,1,5,-5z" stroke-width="3"></path><g id="node_text38" fill="black"><text id="kity_text_321" text-rendering="inherit" font-size="12" dy=".8em" y="445.5" font-family="sans-serif" x="540.5">cm_init_my_context</text></g></g><g id="minder_node39"><g id="node_expander38" style="cursor: pointer;" display="none"><path id="kity_path_332" fill="white" stroke="gray" d="M535.5,477.5A6,6,0,1,1,523.5,477.5A6,6,0,1,1,535.5,477.5"></path><path id="kity_path_333" fill="none" stroke="gray"></path></g><path id="node_outline39" fill="none" stroke="none" d="M540.5,468.5h121a5,5,0,0,1,5,5v8a5,5,0,0,1,-5,5h-121a5,5,0,0,1,-5,-5v-8a5,5,0,0,1,5,-5z" stroke-width="3"></path><g id="node_text39" fill="black"><text id="kity_text_329" text-rendering="inherit" font-size="12" dy=".8em" y="471.5" font-family="sans-serif" x="540.5">cm_prepare_el3_exit</text></g></g><g id="minder_node40"><g id="node_expander39" style="cursor: pointer;" display="none"><path id="kity_path_340" fill="white" stroke="gray" d="M535.5,503.5A6,6,0,1,1,523.5,503.5A6,6,0,1,1,535.5,503.5"></path><path id="kity_path_341" fill="none" stroke="gray"></path></g><path id="node_outline40" fill="none" stroke="none" d="M540.5,494.5h124a5,5,0,0,1,5,5v8a5,5,0,0,1,-5,5h-124a5,5,0,0,1,-5,-5v-8a5,5,0,0,1,5,-5z" stroke-width="3"></path><g id="node_text40" fill="black"><text id="kity_text_337" text-rendering="inherit" font-size="12" dy=".8em" y="497.5" font-family="sans-serif" x="540.5">print_entry_point_info</text></g></g></g></g></svg>