<svg id="kity_svg_6" xmlns="http://www.w3.org/2000/svg" xmlns:xlink="http://www.w3.org/1999/xlink" version="1.1" width="644" height="562" style="background: rgb(251, 251, 251); visibility: visible;" viewBox="0 0 644 562"><defs id="kity_defs_7"><linearGradient id="kity_linearGradient_17" x1="0" y1="0" x2="0" y2="1"><stop id="kity_stop_18" offset="0" stop-color="rgb(255, 255, 255)"></stop><stop id="kity_stop_19" offset="1" stop-color="rgb(204, 204, 204)"></stop></linearGradient><marker id="kity_marker_2" orient="auto" refX="6" refY="0" viewBox="-7 -7 14 14" markerWidth="7" markerHeight="7" markerUnits="userSpaceOnUse"><path id="kity_path_3" fill="rgb(115, 161, 191)" stroke="none" d="M6,0A6,6,0,1,1,-6,0A6,6,0,1,1,6,0"></path></marker></defs><g id="kity_g_8"><g id="minder1" text-rendering="optimize-speed"><g id="minder_connect_group1"><path id="kity_path_31" fill="none" stroke="rgb(115, 161, 191)" stroke-width="1" d="M92,281.5A87.5,248,0,0,1,179.5,33.5"></path><path id="kity_path_39" fill="none" stroke="rgb(115, 161, 191)" stroke-width="1" d="M92,281.5A87.5,206,0,0,1,179.5,75.5"></path><path id="kity_path_47" fill="none" stroke="rgb(115, 161, 191)" stroke-width="1" d="M92,281.5A87.5,164,0,0,1,179.5,117.5"></path><path id="kity_path_55" fill="none" stroke="rgb(115, 161, 191)" stroke-width="1" d="M92,281.5A87.5,93,0,0,1,179.5,188.5"></path><path id="kity_path_63" fill="none" stroke="rgb(115, 161, 191)" stroke-width="1" d="M92,281.5A87.5,71,0,0,0,179.5,352.5"></path><path id="kity_path_79" fill="none" stroke="rgb(115, 161, 191)" stroke-width="1" d="M92,281.5A87.5,206,0,0,0,179.5,487.5"></path><path id="kity_path_87" fill="none" stroke="rgb(115, 161, 191)" stroke-width="1" d="M92,281.5A87.5,248,0,0,0,179.5,529.5"></path><path id="kity_path_95" fill="none" stroke="rgb(115, 161, 191)" stroke-width="1" d="M293.5,188.5C301.5,188.5,301.5,169.5,309.5,169.5"></path><path id="kity_path_103" fill="none" stroke="rgb(115, 161, 191)" stroke-width="1" d="M293.5,188.5C301.5,188.5,301.5,208.5,309.5,208.5"></path><path id="kity_path_111" fill="none" stroke="rgb(115, 161, 191)" stroke-width="1" d="M290.5,352.5C298.5,352.5,298.5,255.5,306.5,255.5"></path><path id="kity_path_119" fill="none" stroke="rgb(115, 161, 191)" stroke-width="1" d="M290.5,352.5C298.5,352.5,298.5,294.5,306.5,294.5"></path><path id="kity_path_127" fill="none" stroke="rgb(115, 161, 191)" stroke-width="1" d="M290.5,352.5C298.5,352.5,298.5,320.5,306.5,320.5"></path><path id="kity_path_135" fill="none" stroke="rgb(115, 161, 191)" stroke-width="1" d="M290.5,352.5C298.5,352.5,298.5,346.5,306.5,346.5"></path><path id="kity_path_143" fill="none" stroke="rgb(115, 161, 191)" stroke-width="1" d="M290.5,352.5C298.5,352.5,298.5,372.5,306.5,372.5"></path><path id="kity_path_151" fill="none" stroke="rgb(115, 161, 191)" stroke-width="1" d="M290.5,352.5C298.5,352.5,298.5,398.5,306.5,398.5"></path><path id="kity_path_159" fill="none" stroke="rgb(115, 161, 191)" stroke-width="1" d="M290.5,352.5C298.5,352.5,298.5,424.5,306.5,424.5"></path><path id="kity_path_167" fill="none" stroke="rgb(115, 161, 191)" stroke-width="1" d="M290.5,352.5C298.5,352.5,298.5,450.5,306.5,450.5"></path><path id="kity_path_175" fill="none" stroke="rgb(115, 161, 191)" stroke-width="1" d="M456.5,450.5C464.5,450.5,464.5,450.5,472.5,450.5"></path><path id="kity_path_183" fill="none" stroke="rgb(115, 161, 191)" stroke-width="1" d="M381.5,294.5C389.5,294.5,389.5,294.5,397.5,294.5"></path><path id="kity_path_191" fill="none" stroke="rgb(115, 161, 191)" stroke-width="1" d="M433.5,255.5C441.5,255.5,441.5,242.5,449.5,242.5"></path><path id="kity_path_199" fill="none" stroke="rgb(115, 161, 191)" stroke-width="1" d="M433.5,255.5C441.5,255.5,441.5,268.5,449.5,268.5"></path><path id="kity_path_207" fill="none" stroke="rgb(115, 161, 191)" stroke-width="1" d="M443.5,208.5C451.5,208.5,451.5,208.5,459.5,208.5"></path><path id="kity_path_215" fill="none" stroke="rgb(115, 161, 191)" stroke-width="1" d="M477.5,169.5C485.5,169.5,485.5,156.5,493.5,156.5"></path><path id="kity_path_223" fill="none" stroke="rgb(115, 161, 191)" stroke-width="1" d="M477.5,169.5C485.5,169.5,485.5,182.5,493.5,182.5"></path></g><g id="minder_node1"><path id="node_outline1" fill="rgb(115, 161, 191)" stroke="rgb(115, 161, 191)" d="M25.5,267.5h133a5,5,0,0,1,5,5v18a5,5,0,0,1,-5,5h-133a5,5,0,0,1,-5,-5v-18a5,5,0,0,1,5,-5z" stroke-width="3"></path><g id="node_text1" fill="white"><text id="kity_text_22" text-rendering="inherit" font-size="16" dy=".8em" y="273.5" x="32.5">bl31_entrypoint</text></g></g><g id="kity_g_12"><path id="kity_path_13" fill="none" stroke="none" d="M32.5,281.5h0v0h0z"></path></g><g id="kity_g_14"><path id="kity_path_15" fill="none" stroke="none" d="M32.5,281.5h0v0h0z"></path><path id="kity_path_16" fill="none" stroke="none"></path></g><g id="minder_node2"><g id="node_expander1" style="cursor: pointer;" display="none"><path id="kity_path_36" fill="white" stroke="gray" d="M180.5,33.5A6,6,0,1,1,168.5,33.5A6,6,0,1,1,180.5,33.5"></path><path id="kity_path_37" fill="none" stroke="gray"></path></g><path id="node_outline2" fill="rgb(238, 243, 246)" stroke="rgb(115, 161, 191)" d="M184.5,20.5h142a3,3,0,0,1,3,3v20a3,3,0,0,1,-3,3h-142a3,3,0,0,1,-3,-3v-20a3,3,0,0,1,3,-3z" stroke-width="1"></path><g id="node_text2" fill="black"><text id="kity_text_33" text-rendering="inherit" font-size="14" dy=".8em" y="26.5" x="201.5">save_paramters</text></g></g><g id="minder_node3"><g id="node_expander2" style="cursor: pointer;" display="none"><path id="kity_path_44" fill="white" stroke="gray" d="M180.5,75.5A6,6,0,1,1,168.5,75.5A6,6,0,1,1,180.5,75.5"></path><path id="kity_path_45" fill="none" stroke="gray"></path></g><path id="node_outline3" fill="rgb(238, 243, 246)" stroke="rgb(115, 161, 191)" d="M184.5,62.5h199a3,3,0,0,1,3,3v20a3,3,0,0,1,-3,3h-199a3,3,0,0,1,-3,-3v-20a3,3,0,0,1,3,-3z" stroke-width="1"></path><g id="node_text3" fill="black"><text id="kity_text_41" text-rendering="inherit" font-size="14" dy=".8em" y="68.5" x="201.5">el3_entrypoint_common</text></g></g><g id="minder_node4"><g id="node_expander3" style="cursor: pointer;" display="none"><path id="kity_path_52" fill="white" stroke="gray" d="M180.5,117.5A6,6,0,1,1,168.5,117.5A6,6,0,1,1,180.5,117.5"></path><path id="kity_path_53" fill="none" stroke="gray"></path></g><path id="node_outline4" fill="rgb(238, 243, 246)" stroke="rgb(115, 161, 191)" d="M184.5,104.5h122a3,3,0,0,1,3,3v20a3,3,0,0,1,-3,3h-122a3,3,0,0,1,-3,-3v-20a3,3,0,0,1,3,-3z" stroke-width="1"></path><g id="node_text4" fill="black"><text id="kity_text_49" text-rendering="inherit" font-size="14" dy=".8em" y="110.5" x="201.5">clear_param</text></g></g><g id="minder_node5"><g id="node_expander4" style="cursor: pointer;"><path id="kity_path_60" fill="white" stroke="gray" d="M180.5,188.5A6,6,0,1,1,168.5,188.5A6,6,0,1,1,180.5,188.5"></path><path id="kity_path_61" fill="none" stroke="gray" d="M170,188.5L179,188.5"></path></g><path id="node_outline5" fill="rgb(238, 243, 246)" stroke="rgb(115, 161, 191)" d="M184.5,175.5h106a3,3,0,0,1,3,3v20a3,3,0,0,1,-3,3h-106a3,3,0,0,1,-3,-3v-20a3,3,0,0,1,3,-3z" stroke-width="1"></path><g id="node_text5" fill="black"><text id="kity_text_57" text-rendering="inherit" font-size="14" dy=".8em" y="181.5" x="201.5">bl31_setup</text></g></g><g id="minder_node6"><g id="node_expander5" style="cursor: pointer;"><path id="kity_path_68" fill="white" stroke="gray" d="M180.5,352.5A6,6,0,1,1,168.5,352.5A6,6,0,1,1,180.5,352.5"></path><path id="kity_path_69" fill="none" stroke="gray" d="M170,352.5L179,352.5"></path></g><path id="node_outline6" fill="rgb(238, 243, 246)" stroke="rgb(115, 161, 191)" d="M184.5,339.5h103a3,3,0,0,1,3,3v20a3,3,0,0,1,-3,3h-103a3,3,0,0,1,-3,-3v-20a3,3,0,0,1,3,-3z" stroke-width="1"></path><g id="node_text6" fill="black"><text id="kity_text_65" text-rendering="inherit" font-size="14" dy=".8em" y="345.5" x="201.5">bl31_main</text></g></g><g id="minder_node8"><g id="node_expander7" style="cursor: pointer;" display="none"><path id="kity_path_84" fill="white" stroke="gray" d="M180.5,487.5A6,6,0,1,1,168.5,487.5A6,6,0,1,1,180.5,487.5"></path><path id="kity_path_85" fill="none" stroke="gray"></path></g><path id="node_outline8" fill="rgb(238, 243, 246)" stroke="rgb(115, 161, 191)" d="M184.5,474.5h183a3,3,0,0,1,3,3v20a3,3,0,0,1,-3,3h-183a3,3,0,0,1,-3,-3v-20a3,3,0,0,1,3,-3z" stroke-width="1"></path><g id="node_text8" fill="black"><text id="kity_text_81" text-rendering="inherit" font-size="14" dy=".8em" y="480.5" x="201.5">clean_dcache_range</text></g></g><g id="minder_node9"><g id="node_expander8" style="cursor: pointer;" display="none"><path id="kity_path_92" fill="white" stroke="gray" d="M180.5,529.5A6,6,0,1,1,168.5,529.5A6,6,0,1,1,180.5,529.5"></path><path id="kity_path_93" fill="none" stroke="gray"></path></g><path id="node_outline9" fill="rgb(238, 243, 246)" stroke="rgb(115, 161, 191)" d="M184.5,516.5h84a3,3,0,0,1,3,3v20a3,3,0,0,1,-3,3h-84a3,3,0,0,1,-3,-3v-20a3,3,0,0,1,3,-3z" stroke-width="1"></path><g id="node_text9" fill="black"><text id="kity_text_89" text-rendering="inherit" font-size="14" dy=".8em" y="522.5" x="201.5">el3_exit</text></g></g><g id="minder_node10"><g id="node_expander9" style="cursor: pointer;"><path id="kity_path_100" fill="white" stroke="gray" d="M309.5,169.5A6,6,0,1,1,297.5,169.5A6,6,0,1,1,309.5,169.5"></path><path id="kity_path_101" fill="none" stroke="gray" d="M299,169.5L308,169.5"></path></g><path id="node_outline10" fill="#ff0000" stroke="none" d="M314.5,160.5h158a5,5,0,0,1,5,5v8a5,5,0,0,1,-5,5h-158a5,5,0,0,1,-5,-5v-8a5,5,0,0,1,5,-5z" stroke-width="3"></path><g id="node_text10" fill="black"><text id="kity_text_97" text-rendering="inherit" font-size="12" dy=".8em" y="163.5" x="314.5">bl31_early_platform_setup2</text></g></g><g id="minder_node11"><g id="node_expander10" style="cursor: pointer;"><path id="kity_path_108" fill="white" stroke="gray" d="M309.5,208.5A6,6,0,1,1,297.5,208.5A6,6,0,1,1,309.5,208.5"></path><path id="kity_path_109" fill="none" stroke="gray" d="M299,208.5L308,208.5"></path></g><path id="node_outline11" fill="none" stroke="none" d="M314.5,199.5h124a5,5,0,0,1,5,5v8a5,5,0,0,1,-5,5h-124a5,5,0,0,1,-5,-5v-8a5,5,0,0,1,5,-5z" stroke-width="3"></path><g id="node_text11" fill="black"><text id="kity_text_105" text-rendering="inherit" font-size="12" dy=".8em" y="202.5" x="314.5">bl31_plat_arch_setup</text></g></g><g id="minder_node12"><g id="node_expander11" style="cursor: pointer;"><path id="kity_path_116" fill="white" stroke="gray" d="M306.5,255.5A6,6,0,1,1,294.5,255.5A6,6,0,1,1,306.5,255.5"></path><path id="kity_path_117" fill="none" stroke="gray" d="M296,255.5L305,255.5"></path></g><path id="node_outline12" fill="#ff0000" stroke="none" d="M311.5,246.5h117a5,5,0,0,1,5,5v8a5,5,0,0,1,-5,5h-117a5,5,0,0,1,-5,-5v-8a5,5,0,0,1,5,-5z" stroke-width="3"></path><g id="node_text12" fill="black"><text id="kity_text_113" text-rendering="inherit" font-size="12" dy=".8em" y="249.5" x="311.5">bl31_platform_setup</text></g></g><g id="minder_node13"><g id="node_expander12" style="cursor: pointer;"><path id="kity_path_124" fill="white" stroke="gray" d="M306.5,294.5A6,6,0,1,1,294.5,294.5A6,6,0,1,1,306.5,294.5"></path><path id="kity_path_125" fill="none" stroke="gray" d="M296,294.5L305,294.5"></path></g><path id="node_outline13" fill="none" stroke="none" d="M311.5,285.5h65a5,5,0,0,1,5,5v8a5,5,0,0,1,-5,5h-65a5,5,0,0,1,-5,-5v-8a5,5,0,0,1,5,-5z" stroke-width="3"></path><g id="node_text13" fill="black"><text id="kity_text_121" text-rendering="inherit" font-size="12" dy=".8em" y="288.5" x="311.5">bl31_lib_init</text></g></g><g id="minder_node14"><g id="node_expander13" style="cursor: pointer;" display="none"><path id="kity_path_132" fill="white" stroke="gray" d="M306.5,320.5A6,6,0,1,1,294.5,320.5A6,6,0,1,1,306.5,320.5"></path><path id="kity_path_133" fill="none" stroke="gray"></path></g><path id="node_outline14" fill="none" stroke="none" d="M311.5,311.5h41a5,5,0,0,1,5,5v8a5,5,0,0,1,-5,5h-41a5,5,0,0,1,-5,-5v-8a5,5,0,0,1,5,-5z" stroke-width="3"></path><g id="node_text14" fill="black"><text id="kity_text_129" text-rendering="inherit" font-size="12" dy=".8em" y="314.5" x="311.5">ehf_init</text></g></g><g id="minder_node15"><g id="node_expander14" style="cursor: pointer;" display="none"><path id="kity_path_140" fill="white" stroke="gray" d="M306.5,346.5A6,6,0,1,1,294.5,346.5A6,6,0,1,1,306.5,346.5"></path><path id="kity_path_141" fill="none" stroke="gray"></path></g><path id="node_outline15" fill="none" stroke="none" d="M311.5,337.5h91a5,5,0,0,1,5,5v8a5,5,0,0,1,-5,5h-91a5,5,0,0,1,-5,-5v-8a5,5,0,0,1,5,-5z" stroke-width="3"></path><g id="node_text15" fill="black"><text id="kity_text_137" text-rendering="inherit" font-size="12" dy=".8em" y="340.5" x="311.5">runtime_svc_init</text></g></g><g id="minder_node16"><g id="node_expander15" style="cursor: pointer;" display="none"><path id="kity_path_148" fill="white" stroke="gray" d="M306.5,372.5A6,6,0,1,1,294.5,372.5A6,6,0,1,1,306.5,372.5"></path><path id="kity_path_149" fill="none" stroke="gray"></path></g><path id="node_outline16" fill="none" stroke="none" d="M311.5,363.5h46a5,5,0,0,1,5,5v8a5,5,0,0,1,-5,5h-46a5,5,0,0,1,-5,-5v-8a5,5,0,0,1,5,-5z" stroke-width="3"></path><g id="node_text16" fill="black"><text id="kity_text_145" text-rendering="inherit" font-size="12" dy=".8em" y="366.5" x="311.5">bl32_init</text></g></g><g id="minder_node17"><g id="node_expander16" style="cursor: pointer;" display="none"><path id="kity_path_156" fill="white" stroke="gray" d="M306.5,398.5A6,6,0,1,1,294.5,398.5A6,6,0,1,1,306.5,398.5"></path><path id="kity_path_157" fill="none" stroke="gray"></path></g><path id="node_outline17" fill="none" stroke="none" d="M311.5,389.5h187a5,5,0,0,1,5,5v8a5,5,0,0,1,-5,5h-187a5,5,0,0,1,-5,-5v-8a5,5,0,0,1,5,-5z" stroke-width="3"></path><g id="node_text17" fill="black"><text id="kity_text_153" text-rendering="inherit" font-size="12" dy=".8em" y="392.5" x="311.5">bl31_prepare_next_image_entry</text></g></g><g id="minder_node18"><g id="node_expander17" style="cursor: pointer;" display="none"><path id="kity_path_164" fill="white" stroke="gray" d="M306.5,424.5A6,6,0,1,1,294.5,424.5A6,6,0,1,1,306.5,424.5"></path><path id="kity_path_165" fill="none" stroke="gray"></path></g><path id="node_outline18" fill="none" stroke="none" d="M311.5,415.5h77a5,5,0,0,1,5,5v8a5,5,0,0,1,-5,5h-77a5,5,0,0,1,-5,-5v-8a5,5,0,0,1,5,-5z" stroke-width="3"></path><g id="node_text18" fill="black"><text id="kity_text_161" text-rendering="inherit" font-size="12" dy=".8em" y="418.5" x="311.5">console_flush</text></g></g><g id="minder_node19"><g id="node_expander18" style="cursor: pointer;"><path id="kity_path_172" fill="white" stroke="gray" d="M306.5,450.5A6,6,0,1,1,294.5,450.5A6,6,0,1,1,306.5,450.5"></path><path id="kity_path_173" fill="none" stroke="gray" d="M296,450.5L305,450.5"></path></g><path id="node_outline19" fill="#ff0000" stroke="none" d="M311.5,441.5h140a5,5,0,0,1,5,5v8a5,5,0,0,1,-5,5h-140a5,5,0,0,1,-5,-5v-8a5,5,0,0,1,5,-5z" stroke-width="3"></path><g id="node_text19" fill="black"><text id="kity_text_169" text-rendering="inherit" font-size="12" dy=".8em" y="444.5" x="311.5">bl32_plat_runtime_setup</text></g></g><g id="minder_node20"><g id="node_expander19" style="cursor: pointer;" display="none"><path id="kity_path_180" fill="white" stroke="gray" d="M472.5,450.5A6,6,0,1,1,460.5,450.5A6,6,0,1,1,472.5,450.5"></path><path id="kity_path_181" fill="none" stroke="gray"></path></g><path id="node_outline20" fill="none" stroke="none" d="M477.5,441.5h123a5,5,0,0,1,5,5v8a5,5,0,0,1,-5,5h-123a5,5,0,0,1,-5,-5v-8a5,5,0,0,1,5,-5z" stroke-width="3"></path><g id="node_text20" fill="black"><text id="kity_text_177" text-rendering="inherit" font-size="12" dy=".8em" y="444.5" x="477.5">console_switch_state</text></g></g><g id="minder_node21"><g id="node_expander20" style="cursor: pointer;" display="none"><path id="kity_path_188" fill="white" stroke="gray" d="M397.5,294.5A6,6,0,1,1,385.5,294.5A6,6,0,1,1,397.5,294.5"></path><path id="kity_path_189" fill="none" stroke="gray"></path></g><path id="node_outline21" fill="none" stroke="none" d="M402.5,285.5h41a5,5,0,0,1,5,5v8a5,5,0,0,1,-5,5h-41a5,5,0,0,1,-5,-5v-8a5,5,0,0,1,5,-5z" stroke-width="3"></path><g id="node_text21" fill="black"><text id="kity_text_185" text-rendering="inherit" font-size="12" dy=".8em" y="288.5" x="402.5">cm_init</text></g></g><g id="minder_node22"><g id="node_expander21" style="cursor: pointer;" display="none"><path id="kity_path_196" fill="white" stroke="gray" d="M449.5,242.5A6,6,0,1,1,437.5,242.5A6,6,0,1,1,449.5,242.5"></path><path id="kity_path_197" fill="none" stroke="gray"></path></g><path id="node_outline22" fill="none" stroke="none" d="M454.5,233.5h110a5,5,0,0,1,5,5v8a5,5,0,0,1,-5,5h-110a5,5,0,0,1,-5,-5v-8a5,5,0,0,1,5,-5z" stroke-width="3"></path><g id="node_text22" fill="black"><text id="kity_text_193" text-rendering="inherit" font-size="12" dy=".8em" y="236.5" x="454.5">plat_qemu_gic_init</text></g></g><g id="minder_node23"><g id="node_expander22" style="cursor: pointer;" display="none"><path id="kity_path_204" fill="white" stroke="gray" d="M449.5,268.5A6,6,0,1,1,437.5,268.5A6,6,0,1,1,449.5,268.5"></path><path id="kity_path_205" fill="none" stroke="gray"></path></g><path id="node_outline23" fill="none" stroke="none" d="M454.5,259.5h89a5,5,0,0,1,5,5v8a5,5,0,0,1,-5,5h-89a5,5,0,0,1,-5,-5v-8a5,5,0,0,1,5,-5z" stroke-width="3"></path><g id="node_text23" fill="black"><text id="kity_text_201" text-rendering="inherit" font-size="12" dy=".8em" y="262.5" x="454.5">qemu_gpio_init</text></g></g><g id="minder_node24"><g id="node_expander23" style="cursor: pointer;" display="none"><path id="kity_path_212" fill="white" stroke="gray" d="M459.5,208.5A6,6,0,1,1,447.5,208.5A6,6,0,1,1,459.5,208.5"></path><path id="kity_path_213" fill="none" stroke="gray"></path></g><path id="node_outline24" fill="none" stroke="none" d="M464.5,199.5h155a5,5,0,0,1,5,5v8a5,5,0,0,1,-5,5h-155a5,5,0,0,1,-5,-5v-8a5,5,0,0,1,5,-5z" stroke-width="3"></path><g id="node_text24" fill="black"><text id="kity_text_209" text-rendering="inherit" font-size="12" dy=".8em" y="202.5" x="464.5">qemu_configure_mmu_el3</text></g></g><g id="minder_node25"><g id="node_expander24" style="cursor: pointer;" display="none"><path id="kity_path_220" fill="white" stroke="gray" d="M493.5,156.5A6,6,0,1,1,481.5,156.5A6,6,0,1,1,493.5,156.5"></path><path id="kity_path_221" fill="none" stroke="gray"></path></g><path id="node_outline25" fill="none" stroke="none" d="M498.5,147.5h108a5,5,0,0,1,5,5v8a5,5,0,0,1,-5,5h-108a5,5,0,0,1,-5,-5v-8a5,5,0,0,1,5,-5z" stroke-width="3"></path><g id="node_text25" fill="black"><text id="kity_text_217" text-rendering="inherit" font-size="12" dy=".8em" y="150.5" x="498.5">qemu_console_init</text></g></g><g id="minder_node26"><g id="node_expander25" style="cursor: pointer;" display="none"><path id="kity_path_228" fill="white" stroke="gray" d="M493.5,182.5A6,6,0,1,1,481.5,182.5A6,6,0,1,1,493.5,182.5"></path><path id="kity_path_229" fill="none" stroke="gray"></path></g><path id="node_outline26" fill="none" stroke="none" d="M498.5,173.5h96a5,5,0,0,1,5,5v8a5,5,0,0,1,-5,5h-96a5,5,0,0,1,-5,-5v-8a5,5,0,0,1,5,-5z" stroke-width="3"></path><g id="node_text26" fill="black"><text id="kity_text_225" text-rendering="inherit" font-size="12" dy=".8em" y="176.5" x="498.5">parse_argument</text></g></g></g></g></svg>