<svg id="kity_svg_6" xmlns="http://www.w3.org/2000/svg" xmlns:xlink="http://www.w3.org/1999/xlink" version="1.1" width="1167" height="1124" style="background-color: rgb(251, 251, 251); visibility: visible;" viewBox="0 0 1167 1124"><defs id="kity_defs_7"><linearGradient id="kity_linearGradient_17" x1="0" y1="0" x2="0" y2="1"><stop id="kity_stop_18" offset="0" stop-color="rgb(255, 255, 255)"></stop><stop id="kity_stop_19" offset="1" stop-color="rgb(204, 204, 204)"></stop></linearGradient><marker id="kity_marker_2" orient="auto" refX="6" refY="0" viewBox="-7 -7 14 14" markerWidth="7" markerHeight="7" markerUnits="userSpaceOnUse"><path id="kity_path_3" fill="rgb(115, 191, 118)" stroke="none" d="M6,0A6,6,0,1,1,-6,0A6,6,0,1,1,6,0"></path></marker></defs><g id="kity_g_8"><g id="minder1" text-rendering="optimize-speed"><g id="minder_connect_group1"><path id="kity_path_31" fill="none" stroke="rgb(115, 191, 118)" stroke-width="1" d="M148,486.5A143.5,450,0,0,1,291.5,36.5"></path><path id="kity_path_33" fill="none" stroke="rgb(115, 191, 118)" stroke-width="1" d="M444.5,36.5C452.5,36.5,452.5,36.5,460.5,36.5"></path><path id="kity_path_35" fill="none" stroke="rgb(115, 191, 118)" stroke-width="1" d="M148,486.5A143.5,370,0,0,1,291.5,116.5"></path><path id="kity_path_37" fill="none" stroke="rgb(115, 191, 118)" stroke-width="1" d="M458.5,116.5C466.5,116.5,466.5,77.5,474.5,77.5"></path><path id="kity_path_39" fill="none" stroke="rgb(115, 191, 118)" stroke-width="1" d="M458.5,116.5C466.5,116.5,466.5,103.5,474.5,103.5"></path><path id="kity_path_41" fill="none" stroke="rgb(115, 191, 118)" stroke-width="1" d="M458.5,116.5C466.5,116.5,466.5,129.5,474.5,129.5"></path><path id="kity_path_43" fill="none" stroke="rgb(115, 191, 118)" stroke-width="1" d="M458.5,116.5C466.5,116.5,466.5,155.5,474.5,155.5"></path><path id="kity_path_45" fill="none" stroke="rgb(115, 191, 118)" stroke-width="1" d="M148,486.5A143.5,271,0,0,1,291.5,215.5"></path><path id="kity_path_47" fill="none" stroke="rgb(115, 191, 118)" stroke-width="1" d="M479.5,215.5C487.5,215.5,487.5,215.5,495.5,215.5"></path><path id="kity_path_49" fill="none" stroke="rgb(115, 191, 118)" stroke-width="1" d="M620.5,215.5C628.5,215.5,628.5,189.5,636.5,189.5"></path><path id="kity_path_51" fill="none" stroke="rgb(115, 191, 118)" stroke-width="1" d="M620.5,215.5C628.5,215.5,628.5,215.5,636.5,215.5"></path><path id="kity_path_53" fill="none" stroke="rgb(115, 191, 118)" stroke-width="1" d="M620.5,215.5C628.5,215.5,628.5,241.5,636.5,241.5"></path><path id="kity_path_55" fill="none" stroke="rgb(115, 191, 118)" stroke-width="1" d="M148,486.5A143.5,204,0,0,1,291.5,282.5"></path><path id="kity_path_57" fill="none" stroke="rgb(115, 191, 118)" stroke-width="1" d="M148,486.5A143.5,137,0,0,1,291.5,349.5"></path><path id="kity_path_59" fill="none" stroke="rgb(115, 191, 118)" stroke-width="1" d="M464.5,349.5C472.5,349.5,472.5,323.5,480.5,323.5"></path><path id="kity_path_61" fill="none" stroke="rgb(115, 191, 118)" stroke-width="1" d="M464.5,349.5C472.5,349.5,472.5,349.5,480.5,349.5"></path><path id="kity_path_63" fill="none" stroke="rgb(115, 191, 118)" stroke-width="1" d="M464.5,349.5C472.5,349.5,472.5,375.5,480.5,375.5"></path><path id="kity_path_65" fill="none" stroke="rgb(115, 191, 118)" stroke-width="1" d="M148,486.5A143.5,70,0,0,1,291.5,416.5"></path><path id="kity_path_67" fill="none" stroke="rgb(115, 191, 118)" stroke-width="1" d="M148,486.5A143.5,22,0,0,1,291.5,464.5"></path><path id="kity_path_69" fill="none" stroke="rgb(115, 191, 118)" stroke-width="1" d="M148,486.5A143.5,26,0,0,0,291.5,512.5"></path><path id="kity_path_71" fill="none" stroke="rgb(115, 191, 118)" stroke-width="1" d="M148,486.5A143.5,74,0,0,0,291.5,560.5"></path><path id="kity_path_73" fill="none" stroke="rgb(115, 191, 118)" stroke-width="1" d="M557.5,560.5C565.5,560.5,565.5,560.5,573.5,560.5"></path><path id="kity_path_75" fill="none" stroke="rgb(115, 191, 118)" stroke-width="1" d="M148,486.5A143.5,453,0,0,0,291.5,939.5"></path><path id="kity_path_77" fill="none" stroke="rgb(115, 191, 118)" stroke-width="1" d="M453.5,939.5C461.5,939.5,461.5,939.5,469.5,939.5"></path><path id="kity_path_79" fill="none" stroke="rgb(115, 191, 118)" stroke-width="1" d="M596.5,939.5C604.5,939.5,604.5,835.5,612.5,835.5"></path><path id="kity_path_81" fill="none" stroke="rgb(115, 191, 118)" stroke-width="1" d="M715.5,835.5C723.5,835.5,723.5,705.5,731.5,705.5"></path><path id="kity_path_83" fill="none" stroke="rgb(115, 191, 118)" stroke-width="1" d="M715.5,835.5C723.5,835.5,723.5,965.5,731.5,965.5"></path><path id="kity_path_87" fill="none" stroke="rgb(115, 191, 118)" stroke-width="1" d="M596.5,939.5C604.5,939.5,604.5,1043.5,612.5,1043.5"></path><path id="kity_path_263" fill="none" stroke="rgb(115, 191, 118)" stroke-width="1" d="M848.5,705.5C856.5,705.5,856.5,601.5,864.5,601.5"></path><path id="kity_path_271" fill="none" stroke="rgb(115, 191, 118)" stroke-width="1" d="M848.5,705.5C856.5,705.5,856.5,627.5,864.5,627.5"></path><path id="kity_path_279" fill="none" stroke="rgb(115, 191, 118)" stroke-width="1" d="M848.5,705.5C856.5,705.5,856.5,653.5,864.5,653.5"></path><path id="kity_path_287" fill="none" stroke="rgb(115, 191, 118)" stroke-width="1" d="M848.5,705.5C856.5,705.5,856.5,809.5,864.5,809.5"></path><path id="kity_path_295" fill="none" stroke="rgb(115, 191, 118)" stroke-width="1" d="M716.5,1043.5C724.5,1043.5,724.5,991.5,732.5,991.5"></path><path id="kity_path_303" fill="none" stroke="rgb(115, 191, 118)" stroke-width="1" d="M716.5,1043.5C724.5,1043.5,724.5,1030.5,732.5,1030.5"></path><path id="kity_path_311" fill="none" stroke="rgb(115, 191, 118)" stroke-width="1" d="M716.5,1043.5C724.5,1043.5,724.5,1069.5,732.5,1069.5"></path><path id="kity_path_319" fill="none" stroke="rgb(115, 191, 118)" stroke-width="1" d="M716.5,1043.5C724.5,1043.5,724.5,1095.5,732.5,1095.5"></path><path id="kity_path_327" fill="none" stroke="rgb(115, 191, 118)" stroke-width="1" d="M872.5,1030.5C880.5,1030.5,880.5,1017.5,888.5,1017.5"></path><path id="kity_path_335" fill="none" stroke="rgb(115, 191, 118)" stroke-width="1" d="M872.5,1030.5C880.5,1030.5,880.5,1043.5,888.5,1043.5"></path><path id="kity_path_343" fill="none" stroke="rgb(115, 191, 118)" stroke-width="1" d="M985.5,809.5C993.5,809.5,993.5,679.5,1001.5,679.5"></path><path id="kity_path_351" fill="none" stroke="rgb(115, 191, 118)" stroke-width="1" d="M985.5,809.5C993.5,809.5,993.5,705.5,1001.5,705.5"></path><path id="kity_path_359" fill="none" stroke="rgb(115, 191, 118)" stroke-width="1" d="M985.5,809.5C993.5,809.5,993.5,731.5,1001.5,731.5"></path><path id="kity_path_367" fill="none" stroke="rgb(115, 191, 118)" stroke-width="1" d="M985.5,809.5C993.5,809.5,993.5,757.5,1001.5,757.5"></path><path id="kity_path_375" fill="none" stroke="rgb(115, 191, 118)" stroke-width="1" d="M985.5,809.5C993.5,809.5,993.5,783.5,1001.5,783.5"></path><path id="kity_path_383" fill="none" stroke="rgb(115, 191, 118)" stroke-width="1" d="M985.5,809.5C993.5,809.5,993.5,809.5,1001.5,809.5"></path><path id="kity_path_391" fill="none" stroke="rgb(115, 191, 118)" stroke-width="1" d="M985.5,809.5C993.5,809.5,993.5,835.5,1001.5,835.5"></path><path id="kity_path_399" fill="none" stroke="rgb(115, 191, 118)" stroke-width="1" d="M985.5,809.5C993.5,809.5,993.5,861.5,1001.5,861.5"></path><path id="kity_path_407" fill="none" stroke="rgb(115, 191, 118)" stroke-width="1" d="M985.5,809.5C993.5,809.5,993.5,887.5,1001.5,887.5"></path><path id="kity_path_415" fill="none" stroke="rgb(115, 191, 118)" stroke-width="1" d="M985.5,809.5C993.5,809.5,993.5,913.5,1001.5,913.5"></path><path id="kity_path_423" fill="none" stroke="rgb(115, 191, 118)" stroke-width="1" d="M985.5,809.5C993.5,809.5,993.5,939.5,1001.5,939.5"></path></g><g id="minder_node1"><path id="node_outline1" fill="rgb(115, 191, 118)" stroke="rgb(115, 191, 118)" d="M25.5,472.5h245a5,5,0,0,1,5,5v18a5,5,0,0,1,-5,5h-245a5,5,0,0,1,-5,-5v-18a5,5,0,0,1,5,-5z" stroke-width="3"></path><g id="node_text1" fill="white"><text id="kity_text_22" text-rendering="inherit" font-size="16" dy=".8em" y="478.5" font-family="sans-serif" x="32.5">do_bootm-&gt;do_bootm_states</text></g></g><g id="kity_g_12"><path id="kity_path_13" fill="none" stroke="none" d="M32.5,486.5h0v0h0z"></path></g><g id="kity_g_14"><path id="kity_path_15" fill="none" stroke="none" d="M32.5,486.5h0v0h0z"></path><path id="kity_path_16" fill="none" stroke="none"></path></g><g id="minder_node2"><g id="node_expander2" style="cursor: pointer;"><path id="kity_path_179" fill="white" stroke="gray" d="M292.5,36.5A6,6,0,1,1,280.5,36.5A6,6,0,1,1,292.5,36.5"></path><path id="kity_path_180" fill="none" stroke="gray" d="M282,36.5L291,36.5"></path></g><path id="node_outline3" fill="rgb(238, 246, 238)" stroke="rgb(115, 191, 118)" d="M296.5,20.5h145a3,3,0,0,1,3,3v26a3,3,0,0,1,-3,3h-145a3,3,0,0,1,-3,-3v-26a3,3,0,0,1,3,-3z" stroke-width="1"></path><g id="node_text3" fill="black"><text id="kity_text_91" text-rendering="inherit" font-size="14" dy=".8em" y="29.5" font-family="sans-serif" x="338.5">bootrm_start</text></g><g id="node_priority1"><path id="kity_path_432" fill="#840023" stroke="none" d="M314,40c0,3.866,3.134,7,7,7h6c3.866,0,7,-3.134,7,-7V34H314V40z"></path><path id="kity_path_433" fill="#FF1200" stroke="none" d="M334,37c0,3.866,-3.134,7,-7,7H321c-3.866,0,-7,-3.134,-7,-7V34c0,-3.866,3.134,-7,7,-7h6c3.866,0,7,3.134,7,7V37z" opacity="0.8"></path><text id="kity_text_434" text-rendering="geometricPrecision" x="323" y="36.5" text-anchor="middle" font-style="italic" font-size="12" fill="white" dy="4.3203125">1</text></g></g><g id="minder_node3"><g id="node_expander1" display="none" style="cursor: pointer;"><path id="kity_path_176" fill="white" stroke="gray" d="M460.5,36.5A6,6,0,1,1,448.5,36.5A6,6,0,1,1,460.5,36.5"></path><path id="kity_path_177" fill="none" stroke="gray"></path></g><path id="node_outline2" fill="none" stroke="none" d="M465.5,27.5h91a5,5,0,0,1,5,5v8a5,5,0,0,1,-5,5h-91a5,5,0,0,1,-5,-5v-8a5,5,0,0,1,5,-5z" stroke-width="3"></path><g id="node_text2" fill="black"><text id="kity_text_89" text-rendering="inherit" font-size="12" dy=".8em" y="30.5" font-family="sans-serif" x="465.5">boot_start_1mb</text></g></g><g id="minder_node4"><g id="node_expander7" style="cursor: pointer;"><path id="kity_path_194" fill="white" stroke="gray" d="M292.5,116.5A6,6,0,1,1,280.5,116.5A6,6,0,1,1,292.5,116.5"></path><path id="kity_path_195" fill="none" stroke="gray" d="M282,116.5L291,116.5"></path></g><path id="node_outline8" fill="rgb(238, 246, 238)" stroke="rgb(115, 191, 118)" d="M296.5,100.5h159a3,3,0,0,1,3,3v26a3,3,0,0,1,-3,3h-159a3,3,0,0,1,-3,-3v-26a3,3,0,0,1,3,-3z" stroke-width="1"></path><g id="node_text8" fill="black"><text id="kity_text_101" text-rendering="inherit" font-size="14" dy=".8em" y="109.5" font-family="sans-serif" x="338.5">bootm_find_os</text></g><g id="node_priority2"><path id="kity_path_437" fill="#01467F" stroke="none" d="M314,120c0,3.866,3.134,7,7,7h6c3.866,0,7,-3.134,7,-7V114H314V120z"></path><path id="kity_path_438" fill="#0074FF" stroke="none" d="M334,117c0,3.866,-3.134,7,-7,7H321c-3.866,0,-7,-3.134,-7,-7V114c0,-3.866,3.134,-7,7,-7h6c3.866,0,7,3.134,7,7V117z" opacity="0.8"></path><text id="kity_text_439" text-rendering="geometricPrecision" x="323" y="116.5" text-anchor="middle" font-style="italic" font-size="12" fill="white" dy="4.3203125">2</text></g></g><g id="minder_node5"><g id="node_expander3" display="none" style="cursor: pointer;"><path id="kity_path_182" fill="white" stroke="gray" d="M474.5,77.5A6,6,0,1,1,462.5,77.5A6,6,0,1,1,474.5,77.5"></path><path id="kity_path_183" fill="none" stroke="gray"></path></g><path id="node_outline4" fill="none" stroke="none" d="M479.5,68.5h95a5,5,0,0,1,5,5v8a5,5,0,0,1,-5,5h-95a5,5,0,0,1,-5,-5v-8a5,5,0,0,1,5,-5z" stroke-width="3"></path><g id="node_text4" fill="black"><text id="kity_text_93" text-rendering="inherit" font-size="12" dy=".8em" y="71.5" font-family="sans-serif" x="479.5">boot_get_kernel</text></g></g><g id="minder_node6"><g id="node_expander4" display="none" style="cursor: pointer;"><path id="kity_path_185" fill="white" stroke="gray" d="M474.5,103.5A6,6,0,1,1,462.5,103.5A6,6,0,1,1,474.5,103.5"></path><path id="kity_path_186" fill="none" stroke="gray"></path></g><path id="node_outline5" fill="none" stroke="none" d="M479.5,94.5h108a5,5,0,0,1,5,5v8a5,5,0,0,1,-5,5h-108a5,5,0,0,1,-5,-5v-8a5,5,0,0,1,5,-5z" stroke-width="3"></path><g id="node_text5" fill="black"><text id="kity_text_95" text-rendering="inherit" font-size="12" dy=".8em" y="97.5" font-family="sans-serif" x="479.5">legacy_image_hdl</text></g></g><g id="minder_node7"><g id="node_expander5" display="none" style="cursor: pointer;"><path id="kity_path_188" fill="white" stroke="gray" d="M474.5,129.5A6,6,0,1,1,462.5,129.5A6,6,0,1,1,474.5,129.5"></path><path id="kity_path_189" fill="none" stroke="gray"></path></g><path id="node_outline6" fill="none" stroke="none" d="M479.5,120.5h78a5,5,0,0,1,5,5v8a5,5,0,0,1,-5,5h-78a5,5,0,0,1,-5,-5v-8a5,5,0,0,1,5,-5z" stroke-width="3"></path><g id="node_text6" fill="black"><text id="kity_text_97" text-rendering="inherit" font-size="12" dy=".8em" y="123.5" font-family="sans-serif" x="479.5">fit_image_hdl</text></g></g><g id="minder_node8"><g id="node_expander6" display="none" style="cursor: pointer;"><path id="kity_path_191" fill="white" stroke="gray" d="M474.5,155.5A6,6,0,1,1,462.5,155.5A6,6,0,1,1,474.5,155.5"></path><path id="kity_path_192" fill="none" stroke="gray"></path></g><path id="node_outline7" fill="none" stroke="none" d="M479.5,146.5h96a5,5,0,0,1,5,5v8a5,5,0,0,1,-5,5h-96a5,5,0,0,1,-5,-5v-8a5,5,0,0,1,5,-5z" stroke-width="3"></path><g id="node_text7" fill="black"><text id="kity_text_99" text-rendering="inherit" font-size="12" dy=".8em" y="149.5" font-family="sans-serif" x="479.5">boot_image_hdl</text></g></g><g id="minder_node9"><g id="node_expander12" style="cursor: pointer;"><path id="kity_path_209" fill="white" stroke="gray" d="M292.5,215.5A6,6,0,1,1,280.5,215.5A6,6,0,1,1,292.5,215.5"></path><path id="kity_path_210" fill="none" stroke="gray" d="M282,215.5L291,215.5"></path></g><path id="node_outline13" fill="rgb(238, 246, 238)" stroke="rgb(115, 191, 118)" d="M296.5,199.5h180a3,3,0,0,1,3,3v26a3,3,0,0,1,-3,3h-180a3,3,0,0,1,-3,-3v-26a3,3,0,0,1,3,-3z" stroke-width="1"></path><g id="node_text13" fill="black"><text id="kity_text_111" text-rendering="inherit" font-size="14" dy=".8em" y="208.5" font-family="sans-serif" x="338.5">bootm_find_other</text></g><g id="node_priority3"><path id="kity_path_442" fill="#006300" stroke="none" d="M314,219c0,3.866,3.134,7,7,7h6c3.866,0,7,-3.134,7,-7V213H314V219z"></path><path id="kity_path_443" fill="#00AF00" stroke="none" d="M334,216c0,3.866,-3.134,7,-7,7H321c-3.866,0,-7,-3.134,-7,-7V213c0,-3.866,3.134,-7,7,-7h6c3.866,0,7,3.134,7,7V216z" opacity="0.8"></path><text id="kity_text_444" text-rendering="geometricPrecision" x="323" y="215.5" text-anchor="middle" font-style="italic" font-size="12" fill="white" dy="4.3203125">3</text></g></g><g id="minder_node10"><g id="node_expander11" style="cursor: pointer;"><path id="kity_path_206" fill="white" stroke="gray" d="M495.5,215.5A6,6,0,1,1,483.5,215.5A6,6,0,1,1,495.5,215.5"></path><path id="kity_path_207" fill="none" stroke="gray" d="M485,215.5L494,215.5"></path></g><path id="node_outline12" fill="none" stroke="none" d="M500.5,206.5h115a5,5,0,0,1,5,5v8a5,5,0,0,1,-5,5h-115a5,5,0,0,1,-5,-5v-8a5,5,0,0,1,5,-5z" stroke-width="3"></path><g id="node_text12" fill="black"><text id="kity_text_109" text-rendering="inherit" font-size="12" dy=".8em" y="209.5" font-family="sans-serif" x="500.5">bootm_find_images</text></g></g><g id="minder_node11"><g id="node_expander8" display="none" style="cursor: pointer;"><path id="kity_path_197" fill="white" stroke="gray" d="M636.5,189.5A6,6,0,1,1,624.5,189.5A6,6,0,1,1,636.5,189.5"></path><path id="kity_path_198" fill="none" stroke="gray"></path></g><path id="node_outline9" fill="none" stroke="none" d="M641.5,180.5h104a5,5,0,0,1,5,5v8a5,5,0,0,1,-5,5h-104a5,5,0,0,1,-5,-5v-8a5,5,0,0,1,5,-5z" stroke-width="3"></path><g id="node_text9" fill="black"><text id="kity_text_103" text-rendering="inherit" font-size="12" dy=".8em" y="183.5" font-family="sans-serif" x="641.5">boot_get_ramdisk</text></g></g><g id="minder_node12"><g id="node_expander9" display="none" style="cursor: pointer;"><path id="kity_path_200" fill="white" stroke="gray" d="M636.5,215.5A6,6,0,1,1,624.5,215.5A6,6,0,1,1,636.5,215.5"></path><path id="kity_path_201" fill="none" stroke="gray"></path></g><path id="node_outline10" fill="none" stroke="none" d="M641.5,206.5h76a5,5,0,0,1,5,5v8a5,5,0,0,1,-5,5h-76a5,5,0,0,1,-5,-5v-8a5,5,0,0,1,5,-5z" stroke-width="3"></path><g id="node_text10" fill="black"><text id="kity_text_105" text-rendering="inherit" font-size="12" dy=".8em" y="209.5" font-family="sans-serif" x="641.5">boot_get_fdt</text></g></g><g id="minder_node13"><g id="node_expander10" display="none" style="cursor: pointer;"><path id="kity_path_203" fill="white" stroke="gray" d="M636.5,241.5A6,6,0,1,1,624.5,241.5A6,6,0,1,1,636.5,241.5"></path><path id="kity_path_204" fill="none" stroke="gray"></path></g><path id="node_outline11" fill="none" stroke="none" d="M641.5,232.5h113a5,5,0,0,1,5,5v8a5,5,0,0,1,-5,5h-113a5,5,0,0,1,-5,-5v-8a5,5,0,0,1,5,-5z" stroke-width="3"></path><g id="node_text11" fill="black"><text id="kity_text_107" text-rendering="inherit" font-size="12" dy=".8em" y="235.5" font-family="sans-serif" x="641.5">boot_get_laodable</text></g></g><g id="minder_node14"><g id="node_expander13" display="none" style="cursor: pointer;"><path id="kity_path_212" fill="white" stroke="gray" d="M292.5,282.5A6,6,0,1,1,280.5,282.5A6,6,0,1,1,292.5,282.5"></path><path id="kity_path_213" fill="none" stroke="gray"></path></g><path id="node_outline14" fill="rgb(238, 246, 238)" stroke="rgb(115, 191, 118)" d="M296.5,266.5h224a3,3,0,0,1,3,3v26a3,3,0,0,1,-3,3h-224a3,3,0,0,1,-3,-3v-26a3,3,0,0,1,3,-3z" stroke-width="1"></path><g id="node_text14" fill="black"><text id="kity_text_113" text-rendering="inherit" font-size="14" dy=".8em" y="275.5" font-family="sans-serif" x="338.5">bootm_disable_interrupt</text></g><g id="node_priority4"><path id="kity_path_447" fill="#B25000" stroke="none" d="M314,286c0,3.866,3.134,7,7,7h6c3.866,0,7,-3.134,7,-7V280H314V286z"></path><path id="kity_path_448" fill="#FF962E" stroke="none" d="M334,283c0,3.866,-3.134,7,-7,7H321c-3.866,0,-7,-3.134,-7,-7V280c0,-3.866,3.134,-7,7,-7h6c3.866,0,7,3.134,7,7V283z" opacity="0.8"></path><text id="kity_text_449" text-rendering="geometricPrecision" x="323" y="282.5" text-anchor="middle" font-style="italic" font-size="12" fill="white" dy="4.3203125">4</text></g></g><g id="minder_node15"><g id="node_expander17" style="cursor: pointer;"><path id="kity_path_224" fill="white" stroke="gray" d="M292.5,349.5A6,6,0,1,1,280.5,349.5A6,6,0,1,1,292.5,349.5"></path><path id="kity_path_225" fill="none" stroke="gray" d="M282,349.5L291,349.5"></path></g><path id="node_outline18" fill="rgb(238, 246, 238)" stroke="rgb(115, 191, 118)" d="M296.5,333.5h165a3,3,0,0,1,3,3v26a3,3,0,0,1,-3,3h-165a3,3,0,0,1,-3,-3v-26a3,3,0,0,1,3,-3z" stroke-width="1"></path><g id="node_text18" fill="black"><text id="kity_text_121" text-rendering="inherit" font-size="14" dy=".8em" y="342.5" font-family="sans-serif" x="338.5">bootm_load_os</text></g><g id="node_priority5"><path id="kity_path_452" fill="#4720C4" stroke="none" d="M314,353c0,3.866,3.134,7,7,7h6c3.866,0,7,-3.134,7,-7V347H314V353z"></path><path id="kity_path_453" fill="#A464FF" stroke="none" d="M334,350c0,3.866,-3.134,7,-7,7H321c-3.866,0,-7,-3.134,-7,-7V347c0,-3.866,3.134,-7,7,-7h6c3.866,0,7,3.134,7,7V350z" opacity="0.8"></path><text id="kity_text_454" text-rendering="geometricPrecision" x="323" y="349.5" text-anchor="middle" font-style="italic" font-size="12" fill="white" dy="4.3203125">5</text></g></g><g id="minder_node16"><g id="node_expander14" display="none" style="cursor: pointer;"><path id="kity_path_215" fill="white" stroke="gray" d="M480.5,323.5A6,6,0,1,1,468.5,323.5A6,6,0,1,1,480.5,323.5"></path><path id="kity_path_216" fill="none" stroke="gray"></path></g><path id="node_outline15" fill="none" stroke="none" d="M485.5,314.5h95a5,5,0,0,1,5,5v8a5,5,0,0,1,-5,5h-95a5,5,0,0,1,-5,-5v-8a5,5,0,0,1,5,-5z" stroke-width="3"></path><g id="node_text15" fill="black"><text id="kity_text_115" text-rendering="inherit" font-size="12" dy=".8em" y="317.5" font-family="sans-serif" x="485.5">image_decomp</text></g></g><g id="minder_node17"><g id="node_expander15" display="none" style="cursor: pointer;"><path id="kity_path_218" fill="white" stroke="gray" d="M480.5,349.5A6,6,0,1,1,468.5,349.5A6,6,0,1,1,480.5,349.5"></path><path id="kity_path_219" fill="none" stroke="gray"></path></g><path id="node_outline16" fill="none" stroke="none" d="M485.5,340.5h70a5,5,0,0,1,5,5v8a5,5,0,0,1,-5,5h-70a5,5,0,0,1,-5,-5v-8a5,5,0,0,1,5,-5z" stroke-width="3"></path><g id="node_text16" fill="black"><text id="kity_text_117" text-rendering="inherit" font-size="12" dy=".8em" y="343.5" font-family="sans-serif" x="485.5">flush_cache</text></g></g><g id="minder_node18"><g id="node_expander16" display="none" style="cursor: pointer;"><path id="kity_path_221" fill="white" stroke="gray" d="M480.5,375.5A6,6,0,1,1,468.5,375.5A6,6,0,1,1,480.5,375.5"></path><path id="kity_path_222" fill="none" stroke="gray"></path></g><path id="node_outline17" fill="none" stroke="none" d="M485.5,366.5h74a5,5,0,0,1,5,5v8a5,5,0,0,1,-5,5h-74a5,5,0,0,1,-5,-5v-8a5,5,0,0,1,5,-5z" stroke-width="3"></path><g id="node_text17" fill="black"><text id="kity_text_119" text-rendering="inherit" font-size="12" dy=".8em" y="369.5" font-family="sans-serif" x="485.5">1mb_reserve</text></g></g><g id="minder_node19"><g id="node_expander18" display="none" style="cursor: pointer;"><path id="kity_path_227" fill="white" stroke="gray" d="M292.5,416.5A6,6,0,1,1,280.5,416.5A6,6,0,1,1,292.5,416.5"></path><path id="kity_path_228" fill="none" stroke="gray"></path></g><path id="node_outline19" fill="rgb(238, 246, 238)" stroke="rgb(115, 191, 118)" d="M296.5,400.5h187a3,3,0,0,1,3,3v26a3,3,0,0,1,-3,3h-187a3,3,0,0,1,-3,-3v-26a3,3,0,0,1,3,-3z" stroke-width="1"></path><g id="node_text19" fill="black"><text id="kity_text_123" text-rendering="inherit" font-size="14" dy=".8em" y="409.5" font-family="sans-serif" x="338.5">boot_ramdisk_high</text></g><g id="node_priority6"><path id="kity_path_457" fill="#515151" stroke="none" d="M314,420c0,3.866,3.134,7,7,7h6c3.866,0,7,-3.134,7,-7V414H314V420z"></path><path id="kity_path_458" fill="#A3A3A3" stroke="none" d="M334,417c0,3.866,-3.134,7,-7,7H321c-3.866,0,-7,-3.134,-7,-7V414c0,-3.866,3.134,-7,7,-7h6c3.866,0,7,3.134,7,7V417z" opacity="0.8"></path><text id="kity_text_459" text-rendering="geometricPrecision" x="323" y="416.5" text-anchor="middle" font-style="italic" font-size="12" fill="white" dy="4.3203125">6</text></g></g><g id="minder_node20"><g id="node_expander19" display="none" style="cursor: pointer;"><path id="kity_path_230" fill="white" stroke="gray" d="M292.5,464.5A6,6,0,1,1,280.5,464.5A6,6,0,1,1,292.5,464.5"></path><path id="kity_path_231" fill="none" stroke="gray"></path></g><path id="node_outline20" fill="rgb(238, 246, 238)" stroke="rgb(115, 191, 118)" d="M296.5,448.5h182a3,3,0,0,1,3,3v26a3,3,0,0,1,-3,3h-182a3,3,0,0,1,-3,-3v-26a3,3,0,0,1,3,-3z" stroke-width="1"></path><g id="node_text20" fill="black"><text id="kity_text_125" text-rendering="inherit" font-size="14" dy=".8em" y="457.5" font-family="sans-serif" x="338.5">boot_relocate_fdt</text></g><g id="node_priority7"><path id="kity_path_462" fill="#515151" stroke="none" d="M314,468c0,3.866,3.134,7,7,7h6c3.866,0,7,-3.134,7,-7V462H314V468z"></path><path id="kity_path_463" fill="#A3A3A3" stroke="none" d="M334,465c0,3.866,-3.134,7,-7,7H321c-3.866,0,-7,-3.134,-7,-7V462c0,-3.866,3.134,-7,7,-7h6c3.866,0,7,3.134,7,7V465z" opacity="0.8"></path><text id="kity_text_464" text-rendering="geometricPrecision" x="323" y="464.5" text-anchor="middle" font-style="italic" font-size="12" fill="white" dy="4.3203125">7</text></g></g><g id="minder_node21"><g id="node_expander20" display="none" style="cursor: pointer;"><path id="kity_path_233" fill="white" stroke="gray" d="M292.5,512.5A6,6,0,1,1,280.5,512.5A6,6,0,1,1,292.5,512.5"></path><path id="kity_path_234" fill="none" stroke="gray"></path></g><path id="node_outline21" fill="rgb(238, 246, 238)" stroke="rgb(115, 191, 118)" d="M296.5,496.5h234a3,3,0,0,1,3,3v26a3,3,0,0,1,-3,3h-234a3,3,0,0,1,-3,-3v-26a3,3,0,0,1,3,-3z" stroke-width="1"></path><g id="node_text21" fill="black"><text id="kity_text_127" text-rendering="inherit" font-size="14" dy=".8em" y="505.5" font-family="sans-serif" x="338.5">bootm_os_get_boot_func</text></g><g id="node_priority8"><path id="kity_path_467" fill="#515151" stroke="none" d="M314,516c0,3.866,3.134,7,7,7h6c3.866,0,7,-3.134,7,-7V510H314V516z"></path><path id="kity_path_468" fill="#A3A3A3" stroke="none" d="M334,513c0,3.866,-3.134,7,-7,7H321c-3.866,0,-7,-3.134,-7,-7V510c0,-3.866,3.134,-7,7,-7h6c3.866,0,7,3.134,7,7V513z" opacity="0.8"></path><text id="kity_text_469" text-rendering="geometricPrecision" x="323" y="512.5" text-anchor="middle" font-style="italic" font-size="12" fill="white" dy="4.3203125">8</text></g></g><g id="minder_node22"><g id="node_expander22" style="cursor: pointer;"><path id="kity_path_239" fill="white" stroke="gray" d="M292.5,560.5A6,6,0,1,1,280.5,560.5A6,6,0,1,1,292.5,560.5"></path><path id="kity_path_240" fill="none" stroke="gray" d="M282,560.5L291,560.5"></path></g><path id="node_outline23" fill="rgb(238, 246, 238)" stroke="rgb(115, 191, 118)" d="M296.5,544.5h258a3,3,0,0,1,3,3v26a3,3,0,0,1,-3,3h-258a3,3,0,0,1,-3,-3v-26a3,3,0,0,1,3,-3z" stroke-width="1"></path><g id="node_text23" fill="black"><text id="kity_text_131" text-rendering="inherit" font-size="14" dy=".8em" y="553.5" font-family="sans-serif" x="338.5">bootm_precess_cmdline_env</text></g><g id="node_priority9"><path id="kity_path_472" fill="#515151" stroke="none" d="M314,564c0,3.866,3.134,7,7,7h6c3.866,0,7,-3.134,7,-7V558H314V564z"></path><path id="kity_path_473" fill="#A3A3A3" stroke="none" d="M334,561c0,3.866,-3.134,7,-7,7H321c-3.866,0,-7,-3.134,-7,-7V558c0,-3.866,3.134,-7,7,-7h6c3.866,0,7,3.134,7,7V561z" opacity="0.8"></path><text id="kity_text_474" text-rendering="geometricPrecision" x="323" y="560.5" text-anchor="middle" font-style="italic" font-size="12" fill="white" dy="4.3203125">9</text></g></g><g id="minder_node23"><g id="node_expander21" display="none" style="cursor: pointer;"><path id="kity_path_236" fill="white" stroke="gray" d="M573.5,560.5A6,6,0,1,1,561.5,560.5A6,6,0,1,1,573.5,560.5"></path><path id="kity_path_237" fill="none" stroke="gray"></path></g><path id="node_outline22" fill="none" stroke="none" d="M578.5,551.5h143a5,5,0,0,1,5,5v8a5,5,0,0,1,-5,5h-143a5,5,0,0,1,-5,-5v-8a5,5,0,0,1,5,-5z" stroke-width="3"></path><g id="node_text22" fill="black"><text id="kity_text_129" text-rendering="inherit" font-size="12" dy=".8em" y="554.5" font-family="sans-serif" x="578.5">bootm_precess_cmdline</text></g></g><g id="minder_node24"><g id="node_expander29" style="cursor: pointer;"><path id="kity_path_260" fill="white" stroke="gray" d="M292.5,939.5A6,6,0,1,1,280.5,939.5A6,6,0,1,1,292.5,939.5"></path><path id="kity_path_261" fill="none" stroke="gray" d="M282,939.5L291,939.5"></path></g><path id="node_outline30" fill="rgb(238, 246, 238)" stroke="rgb(115, 191, 118)" d="M296.5,926.5h154a3,3,0,0,1,3,3v20a3,3,0,0,1,-3,3h-154a3,3,0,0,1,-3,-3v-20a3,3,0,0,1,3,-3z" stroke-width="1"></path><g id="node_text30" fill="black"><text id="kity_text_145" text-rendering="inherit" font-size="14" dy=".8em" y="932.5" font-family="sans-serif" x="313.5">boot_selected_os</text></g></g><g id="minder_node25"><g id="node_expander28" style="cursor: pointer;"><path id="kity_path_257" fill="white" stroke="gray" d="M469.5,939.5A6,6,0,1,1,457.5,939.5A6,6,0,1,1,469.5,939.5"></path><path id="kity_path_258" fill="none" stroke="gray" d="M459,939.5L468,939.5"></path></g><path id="node_outline29" fill="#c00000" stroke="none" d="M474.5,926.5h117a5,5,0,0,1,5,5v16a5,5,0,0,1,-5,5h-117a5,5,0,0,1,-5,-5v-16a5,5,0,0,1,5,-5z" stroke-width="3"></path><g id="node_text29" fill="black"><text id="kity_text_143" text-rendering="inherit" font-size="12" dy=".8em" y="933.5" font-family="sans-serif" x="499.5">do_bootm_linux</text></g><g id="node_progress1"><path id="kity_path_476" fill="#FFED83" stroke="none" d="M494,940A9,9,0,1,1,476,940A9,9,0,1,1,494,940"></path><path id="kity_path_477" fill="#43BC00" stroke="none" d="M485,940L494,940A9,9,0,0,1,476,940A9,9,0,0,1,494,940L485,940z"></path><path id="kity_path_478" fill="#8E8E8E" stroke="none" d="M485,933c4.418,0,8,3.582,8,8h1c0,-5.523,-3.477,-10,-9,-10S476,935.477,476,941h1C477,936.582,480.582,933,485,933z"></path><path id="kity_path_480" fill="#EEE" stroke="none" d="M490.812,937.896l-6.75,6.75l-4.5,-4.5L481.25,938.459l2.812,2.803l5.062,-5.053L490.812,937.896z"></path><path id="kity_path_479" fill="url(#kity_linearGradient_17)" stroke="none" d="M485,930C479.477,930,475,934.477,475,940c0,5.523,4.477,10,10,10s10,-4.477,10,-10C495,934.477,490.523,930,485,930zM485,948c-4.418,0,-8,-3.582,-8,-8s3.582,-8,8,-8s8,3.582,8,8S489.418,948,485,948z"></path></g></g><g id="minder_node26"><g id="node_expander26" style="cursor: pointer;"><path id="kity_path_251" fill="white" stroke="gray" d="M612.5,835.5A6,6,0,1,1,600.5,835.5A6,6,0,1,1,612.5,835.5"></path><path id="kity_path_252" fill="none" stroke="gray" d="M602,835.5L611,835.5"></path></g><path id="node_outline27" fill="none" stroke="none" d="M617.5,826.5h93a5,5,0,0,1,5,5v8a5,5,0,0,1,-5,5h-93a5,5,0,0,1,-5,-5v-8a5,5,0,0,1,5,-5z" stroke-width="3"></path><g id="node_text27" fill="black"><text id="kity_text_139" text-rendering="inherit" font-size="12" dy=".8em" y="829.5" font-family="sans-serif" x="617.5">boot_prep_linux</text></g></g><g id="minder_node27"><g id="node_expander23" style="cursor: pointer;"><path id="kity_path_242" fill="white" stroke="gray" d="M731.5,705.5A6,6,0,1,1,719.5,705.5A6,6,0,1,1,731.5,705.5"></path><path id="kity_path_243" fill="none" stroke="gray" d="M721,705.5L730,705.5"></path></g><path id="node_outline24" fill="none" stroke="none" d="M736.5,696.5h107a5,5,0,0,1,5,5v8a5,5,0,0,1,-5,5h-107a5,5,0,0,1,-5,-5v-8a5,5,0,0,1,5,-5z" stroke-width="3"></path><g id="node_text24" fill="black"><text id="kity_text_133" text-rendering="inherit" font-size="12" dy=".8em" y="699.5" font-family="sans-serif" x="736.5">image_setup_linux</text></g></g><g id="minder_node28"><g id="node_expander25" display="none" style="cursor: pointer;"><path id="kity_path_248" fill="white" stroke="gray" d="M731.5,965.5A6,6,0,1,1,719.5,965.5A6,6,0,1,1,731.5,965.5"></path><path id="kity_path_249" fill="none" stroke="gray" d="M721,965.5L730,965.5"></path></g><path id="node_outline26" fill="none" stroke="none" d="M736.5,956.5h101a5,5,0,0,1,5,5v8a5,5,0,0,1,-5,5h-101a5,5,0,0,1,-5,-5v-8a5,5,0,0,1,5,-5z" stroke-width="3"></path><g id="node_text26" fill="black"><text id="kity_text_137" text-rendering="inherit" font-size="12" dy=".8em" y="959.5" font-family="sans-serif" x="736.5">board_prep_linux</text></g></g><g id="minder_node30"><g id="node_expander27" style="cursor: pointer;"><path id="kity_path_254" fill="white" stroke="gray" d="M612.5,1043.5A6,6,0,1,1,600.5,1043.5A6,6,0,1,1,612.5,1043.5"></path><path id="kity_path_255" fill="none" stroke="gray" d="M602,1043.5L611,1043.5"></path></g><path id="node_outline28" fill="none" stroke="none" d="M617.5,1034.5h94a5,5,0,0,1,5,5v8a5,5,0,0,1,-5,5h-94a5,5,0,0,1,-5,-5v-8a5,5,0,0,1,5,-5z" stroke-width="3"></path><g id="node_text28" fill="black"><text id="kity_text_141" text-rendering="inherit" font-size="12" dy=".8em" y="1037.5" font-family="sans-serif" x="617.5">boot_jump_linux</text></g></g><g id="minder_node31"><g id="node_expander30" display="none" style="cursor: pointer;"><path id="kity_path_268" fill="white" stroke="gray" d="M864.5,601.5A6,6,0,1,1,852.5,601.5A6,6,0,1,1,864.5,601.5"></path><path id="kity_path_269" fill="none" stroke="gray"></path></g><path id="node_outline31" fill="none" stroke="none" d="M869.5,592.5h186a5,5,0,0,1,5,5v8a5,5,0,0,1,-5,5h-186a5,5,0,0,1,-5,-5v-8a5,5,0,0,1,5,-5z" stroke-width="3"></path><g id="node_text31" fill="black"><text id="kity_text_265" text-rendering="inherit" font-size="12" dy=".8em" y="595.5" font-family="sans-serif" x="869.5">boot_fdt_add_mem_rsv_regions</text></g></g><g id="minder_node32"><g id="node_expander31" display="none" style="cursor: pointer;"><path id="kity_path_276" fill="white" stroke="gray" d="M864.5,627.5A6,6,0,1,1,852.5,627.5A6,6,0,1,1,864.5,627.5"></path><path id="kity_path_277" fill="none" stroke="gray"></path></g><path id="node_outline32" fill="none" stroke="none" d="M869.5,618.5h107a5,5,0,0,1,5,5v8a5,5,0,0,1,-5,5h-107a5,5,0,0,1,-5,-5v-8a5,5,0,0,1,5,-5z" stroke-width="3"></path><g id="node_text32" fill="black"><text id="kity_text_273" text-rendering="inherit" font-size="12" dy=".8em" y="621.5" font-family="sans-serif" x="869.5">boot_get_cmdline</text></g></g><g id="minder_node33"><g id="node_expander32" display="none" style="cursor: pointer;"><path id="kity_path_284" fill="white" stroke="gray" d="M864.5,653.5A6,6,0,1,1,852.5,653.5A6,6,0,1,1,864.5,653.5"></path><path id="kity_path_285" fill="none" stroke="gray"></path></g><path id="node_outline33" fill="none" stroke="none" d="M869.5,644.5h106a5,5,0,0,1,5,5v8a5,5,0,0,1,-5,5h-106a5,5,0,0,1,-5,-5v-8a5,5,0,0,1,5,-5z" stroke-width="3"></path><g id="node_text33" fill="black"><text id="kity_text_281" text-rendering="inherit" font-size="12" dy=".8em" y="647.5" font-family="sans-serif" x="869.5">boot_relocate_fdt</text></g></g><g id="minder_node34"><g id="node_expander33" style="cursor: pointer;"><path id="kity_path_292" fill="white" stroke="gray" d="M864.5,809.5A6,6,0,1,1,852.5,809.5A6,6,0,1,1,864.5,809.5"></path><path id="kity_path_293" fill="none" stroke="gray" d="M854,809.5L863,809.5"></path></g><path id="node_outline34" fill="none" stroke="none" d="M869.5,800.5h111a5,5,0,0,1,5,5v8a5,5,0,0,1,-5,5h-111a5,5,0,0,1,-5,-5v-8a5,5,0,0,1,5,-5z" stroke-width="3"></path><g id="node_text34" fill="black"><text id="kity_text_289" text-rendering="inherit" font-size="12" dy=".8em" y="803.5" font-family="sans-serif" x="869.5">image_setup_libfdt</text></g></g><g id="minder_node35"><g id="node_expander34" display="none" style="cursor: pointer;"><path id="kity_path_300" fill="white" stroke="gray" d="M732.5,991.5A6,6,0,1,1,720.5,991.5A6,6,0,1,1,732.5,991.5"></path><path id="kity_path_301" fill="none" stroke="gray"></path></g><path id="node_outline35" fill="none" stroke="none" d="M737.5,982.5h103a5,5,0,0,1,5,5v8a5,5,0,0,1,-5,5h-103a5,5,0,0,1,-5,-5v-8a5,5,0,0,1,5,-5z" stroke-width="3"></path><g id="node_text35" fill="black"><text id="kity_text_297" text-rendering="inherit" font-size="12" dy=".8em" y="985.5" font-family="sans-serif" x="737.5">armv8_setup_psci</text></g></g><g id="minder_node36"><g id="node_expander35" style="cursor: pointer;"><path id="kity_path_308" fill="white" stroke="gray" d="M732.5,1030.5A6,6,0,1,1,720.5,1030.5A6,6,0,1,1,732.5,1030.5"></path><path id="kity_path_309" fill="none" stroke="gray" d="M722,1030.5L731,1030.5"></path></g><path id="node_outline36" fill="none" stroke="none" d="M737.5,1021.5h130a5,5,0,0,1,5,5v8a5,5,0,0,1,-5,5h-130a5,5,0,0,1,-5,-5v-8a5,5,0,0,1,5,-5z" stroke-width="3"></path><g id="node_text36" fill="black"><text id="kity_text_305" text-rendering="inherit" font-size="12" dy=".8em" y="1024.5" font-family="sans-serif" x="737.5">do_nonsec_virt_switch</text></g></g><g id="minder_node37"><g id="node_expander36" display="none" style="cursor: pointer;"><path id="kity_path_316" fill="white" stroke="gray" d="M732.5,1069.5A6,6,0,1,1,720.5,1069.5A6,6,0,1,1,732.5,1069.5"></path><path id="kity_path_317" fill="none" stroke="gray"></path></g><path id="node_outline37" fill="none" stroke="none" d="M737.5,1060.5h201a5,5,0,0,1,5,5v8a5,5,0,0,1,-5,5h-201a5,5,0,0,1,-5,-5v-8a5,5,0,0,1,5,-5z" stroke-width="3"></path><g id="node_text37" fill="black"><text id="kity_text_313" text-rendering="inherit" font-size="12" dy=".8em" y="1063.5" font-family="sans-serif" x="737.5">update_os_arch_secondary_cores</text></g></g><g id="minder_node38"><g id="node_expander37" display="none" style="cursor: pointer;"><path id="kity_path_324" fill="white" stroke="gray" d="M732.5,1095.5A6,6,0,1,1,720.5,1095.5A6,6,0,1,1,732.5,1095.5"></path><path id="kity_path_325" fill="none" stroke="gray"></path></g><path id="node_outline38" fill="none" stroke="none" d="M737.5,1086.5h119a5,5,0,0,1,5,5v8a5,5,0,0,1,-5,5h-119a5,5,0,0,1,-5,-5v-8a5,5,0,0,1,5,-5z" stroke-width="3"></path><g id="node_text38" fill="black"><text id="kity_text_321" text-rendering="inherit" font-size="12" dy=".8em" y="1089.5" font-family="sans-serif" x="737.5">armv8_switch_to_el2</text></g></g><g id="minder_node39"><g id="node_expander38" display="none" style="cursor: pointer;"><path id="kity_path_332" fill="white" stroke="gray" d="M888.5,1017.5A6,6,0,1,1,876.5,1017.5A6,6,0,1,1,888.5,1017.5"></path><path id="kity_path_333" fill="none" stroke="gray"></path></g><path id="node_outline39" fill="none" stroke="none" d="M893.5,1008.5h105a5,5,0,0,1,5,5v8a5,5,0,0,1,-5,5h-105a5,5,0,0,1,-5,-5v-8a5,5,0,0,1,5,-5z" stroke-width="3"></path><g id="node_text39" fill="black"><text id="kity_text_329" text-rendering="inherit" font-size="12" dy=".8em" y="1011.5" font-family="sans-serif" x="893.5">smp_kick_all_cpus</text></g></g><g id="minder_node40"><g id="node_expander39" display="none" style="cursor: pointer;"><path id="kity_path_340" fill="white" stroke="gray" d="M888.5,1043.5A6,6,0,1,1,876.5,1043.5A6,6,0,1,1,888.5,1043.5"></path><path id="kity_path_341" fill="none" stroke="gray"></path></g><path id="node_outline40" fill="none" stroke="none" d="M893.5,1034.5h95a5,5,0,0,1,5,5v8a5,5,0,0,1,-5,5h-95a5,5,0,0,1,-5,-5v-8a5,5,0,0,1,5,-5z" stroke-width="3"></path><g id="node_text40" fill="black"><text id="kity_text_337" text-rendering="inherit" font-size="12" dy=".8em" y="1037.5" font-family="sans-serif" x="893.5">dcache_disable</text></g></g><g id="minder_node41"><g id="node_expander40" display="none" style="cursor: pointer;"><path id="kity_path_348" fill="white" stroke="gray" d="M1001.5,679.5A6,6,0,1,1,989.5,679.5A6,6,0,1,1,1001.5,679.5"></path><path id="kity_path_349" fill="none" stroke="gray"></path></g><path id="node_outline41" fill="none" stroke="none" d="M1006.5,670.5h45a5,5,0,0,1,5,5v8a5,5,0,0,1,-5,5h-45a5,5,0,0,1,-5,-5v-8a5,5,0,0,1,5,-5z" stroke-width="3"></path><g id="node_text41" fill="black"><text id="kity_text_345" text-rendering="inherit" font-size="12" dy=".8em" y="673.5" font-family="sans-serif" x="1006.5">fdt_root</text></g></g><g id="minder_node42"><g id="node_expander41" display="none" style="cursor: pointer;"><path id="kity_path_356" fill="white" stroke="gray" d="M1001.5,705.5A6,6,0,1,1,989.5,705.5A6,6,0,1,1,1001.5,705.5"></path><path id="kity_path_357" fill="none" stroke="gray"></path></g><path id="node_outline42" fill="none" stroke="none" d="M1006.5,696.5h65a5,5,0,0,1,5,5v8a5,5,0,0,1,-5,5h-65a5,5,0,0,1,-5,-5v-8a5,5,0,0,1,5,-5z" stroke-width="3"></path><g id="node_text42" fill="black"><text id="kity_text_353" text-rendering="inherit" font-size="12" dy=".8em" y="699.5" font-family="sans-serif" x="1006.5">fdt_chosen</text></g></g><g id="minder_node43"><g id="node_expander42" display="none" style="cursor: pointer;"><path id="kity_path_364" fill="white" stroke="gray" d="M1001.5,731.5A6,6,0,1,1,989.5,731.5A6,6,0,1,1,1001.5,731.5"></path><path id="kity_path_365" fill="none" stroke="gray"></path></g><path id="node_outline43" fill="none" stroke="none" d="M1006.5,722.5h82a5,5,0,0,1,5,5v8a5,5,0,0,1,-5,5h-82a5,5,0,0,1,-5,-5v-8a5,5,0,0,1,5,-5z" stroke-width="3"></path><g id="node_text43" fill="black"><text id="kity_text_361" text-rendering="inherit" font-size="12" dy=".8em" y="725.5" font-family="sans-serif" x="1006.5">arch_fixup_fdt</text></g></g><g id="minder_node44"><g id="node_expander43" display="none" style="cursor: pointer;"><path id="kity_path_372" fill="white" stroke="gray" d="M1001.5,757.5A6,6,0,1,1,989.5,757.5A6,6,0,1,1,1001.5,757.5"></path><path id="kity_path_373" fill="none" stroke="gray"></path></g><path id="node_outline44" fill="none" stroke="none" d="M1006.5,748.5h136a5,5,0,0,1,5,5v8a5,5,0,0,1,-5,5h-136a5,5,0,0,1,-5,-5v-8a5,5,0,0,1,5,-5z" stroke-width="3"></path><g id="node_text44" fill="black"><text id="kity_text_369" text-rendering="inherit" font-size="12" dy=".8em" y="751.5" font-family="sans-serif" x="1006.5">optee_copy_fdt_nodes</text></g></g><g id="minder_node45"><g id="node_expander44" display="none" style="cursor: pointer;"><path id="kity_path_380" fill="white" stroke="gray" d="M1001.5,783.5A6,6,0,1,1,989.5,783.5A6,6,0,1,1,1001.5,783.5"></path><path id="kity_path_381" fill="none" stroke="gray"></path></g><path id="node_outline45" fill="none" stroke="none" d="M1006.5,774.5h105a5,5,0,0,1,5,5v8a5,5,0,0,1,-5,5h-105a5,5,0,0,1,-5,-5v-8a5,5,0,0,1,5,-5z" stroke-width="3"></path><g id="node_text45" fill="black"><text id="kity_text_377" text-rendering="inherit" font-size="12" dy=".8em" y="777.5" font-family="sans-serif" x="1006.5">fdt_fixup_ethernet</text></g></g><g id="minder_node46"><g id="node_expander45" display="none" style="cursor: pointer;"><path id="kity_path_388" fill="white" stroke="gray" d="M1001.5,809.5A6,6,0,1,1,989.5,809.5A6,6,0,1,1,1001.5,809.5"></path><path id="kity_path_389" fill="none" stroke="gray"></path></g><path id="node_outline46" fill="none" stroke="none" d="M1006.5,800.5h92a5,5,0,0,1,5,5v8a5,5,0,0,1,-5,5h-92a5,5,0,0,1,-5,-5v-8a5,5,0,0,1,5,-5z" stroke-width="3"></path><g id="node_text46" fill="black"><text id="kity_text_385" text-rendering="inherit" font-size="12" dy=".8em" y="803.5" font-family="sans-serif" x="1006.5">fdt_fixup_pstore</text></g></g><g id="minder_node47"><g id="node_expander46" display="none" style="cursor: pointer;"><path id="kity_path_396" fill="white" stroke="gray" d="M1001.5,835.5A6,6,0,1,1,989.5,835.5A6,6,0,1,1,1001.5,835.5"></path><path id="kity_path_397" fill="none" stroke="gray"></path></g><path id="node_outline47" fill="none" stroke="none" d="M1006.5,826.5h88a5,5,0,0,1,5,5v8a5,5,0,0,1,-5,5h-88a5,5,0,0,1,-5,-5v-8a5,5,0,0,1,5,-5z" stroke-width="3"></path><g id="node_text47" fill="black"><text id="kity_text_393" text-rendering="inherit" font-size="12" dy=".8em" y="829.5" font-family="sans-serif" x="1006.5">ft_board_setup</text></g></g><g id="minder_node48"><g id="node_expander47" display="none" style="cursor: pointer;"><path id="kity_path_404" fill="white" stroke="gray" d="M1001.5,861.5A6,6,0,1,1,989.5,861.5A6,6,0,1,1,1001.5,861.5"></path><path id="kity_path_405" fill="none" stroke="gray"></path></g><path id="node_outline48" fill="none" stroke="none" d="M1006.5,852.5h91a5,5,0,0,1,5,5v8a5,5,0,0,1,-5,5h-91a5,5,0,0,1,-5,-5v-8a5,5,0,0,1,5,-5z" stroke-width="3"></path><g id="node_text48" fill="black"><text id="kity_text_401" text-rendering="inherit" font-size="12" dy=".8em" y="855.5" font-family="sans-serif" x="1006.5">ft_system_setup</text></g></g><g id="minder_node49"><g id="node_expander48" display="none" style="cursor: pointer;"><path id="kity_path_412" fill="white" stroke="gray" d="M1001.5,887.5A6,6,0,1,1,989.5,887.5A6,6,0,1,1,1001.5,887.5"></path><path id="kity_path_413" fill="none" stroke="gray"></path></g><path id="node_outline49" fill="none" stroke="none" d="M1006.5,878.5h131a5,5,0,0,1,5,5v8a5,5,0,0,1,-5,5h-131a5,5,0,0,1,-5,-5v-8a5,5,0,0,1,5,-5z" stroke-width="3"></path><g id="node_text49" fill="black"><text id="kity_text_409" text-rendering="inherit" font-size="12" dy=".8em" y="881.5" font-family="sans-serif" x="1006.5">fdt_shrink_to_minimum</text></g></g><g id="minder_node50"><g id="node_expander49" display="none" style="cursor: pointer;"><path id="kity_path_420" fill="white" stroke="gray" d="M1001.5,913.5A6,6,0,1,1,989.5,913.5A6,6,0,1,1,1001.5,913.5"></path><path id="kity_path_421" fill="none" stroke="gray"></path></g><path id="node_outline50" fill="none" stroke="none" d="M1006.5,904.5h74a5,5,0,0,1,5,5v8a5,5,0,0,1,-5,5h-74a5,5,0,0,1,-5,-5v-8a5,5,0,0,1,5,-5z" stroke-width="3"></path><g id="node_text50" fill="black"><text id="kity_text_417" text-rendering="inherit" font-size="12" dy=".8em" y="907.5" font-family="sans-serif" x="1006.5">1mb_reserve</text></g></g><g id="minder_node51"><g id="node_expander50" display="none" style="cursor: pointer;"><path id="kity_path_428" fill="white" stroke="gray" d="M1001.5,939.5A6,6,0,1,1,989.5,939.5A6,6,0,1,1,1001.5,939.5"></path><path id="kity_path_429" fill="none" stroke="gray"></path></g><path id="node_outline51" fill="none" stroke="none" d="M1006.5,930.5h46a5,5,0,0,1,5,5v8a5,5,0,0,1,-5,5h-46a5,5,0,0,1,-5,-5v-8a5,5,0,0,1,5,-5z" stroke-width="3"></path><g id="node_text51" fill="black"><text id="kity_text_425" text-rendering="inherit" font-size="12" dy=".8em" y="933.5" font-family="sans-serif" x="1006.5">fdt_inird</text></g></g></g></g></svg>