<svg id="kity_svg_6" xmlns="http://www.w3.org/2000/svg" xmlns:xlink="http://www.w3.org/1999/xlink" version="1.1" width="639" height="317" style="background: rgb(251, 251, 251); visibility: visible;" viewBox="0 0 639 317"><defs id="kity_defs_7"><linearGradient id="kity_linearGradient_17" x1="0" y1="0" x2="0" y2="1"><stop id="kity_stop_18" offset="0" stop-color="rgb(255, 255, 255)"></stop><stop id="kity_stop_19" offset="1" stop-color="rgb(204, 204, 204)"></stop></linearGradient></defs><g id="kity_g_8"><g id="minder1" text-rendering="optimize-speed"><g id="minder_connect_group1"><path id="kity_path_31" fill="none" stroke="rgb(123, 115, 191)" stroke-width="1" d="M320.5,60.5v30h-258.5V110.5"></path><path id="kity_path_39" fill="none" stroke="rgb(123, 115, 191)" stroke-width="1" d="M40.5,136.5V182.5L60.5,182.5"></path><path id="kity_path_47" fill="none" stroke="rgb(123, 115, 191)" stroke-width="1" d="M40.5,136.5V234.5L60.5,234.5"></path><path id="kity_path_55" fill="none" stroke="rgb(123, 115, 191)" stroke-width="1" d="M40.5,136.5V286.5L60.5,286.5"></path><path id="kity_path_63" fill="none" stroke="rgb(123, 115, 191)" stroke-width="1" d="M320.5,60.5v30h-128.5V110.5"></path><path id="kity_path_71" fill="none" stroke="rgb(123, 115, 191)" stroke-width="1" d="M320.5,60.5v30h-12V110.5"></path><path id="kity_path_79" fill="none" stroke="rgb(123, 115, 191)" stroke-width="1" d="M320.5,60.5v30h126V110.5"></path><path id="kity_path_87" fill="none" stroke="rgb(123, 115, 191)" stroke-width="1" d="M320.5,60.5v30h270.5V110.5"></path><path id="kity_path_95" fill="none" stroke="rgb(123, 115, 191)" stroke-width="1" d="M180.5,136.5V182.5L200.5,182.5"></path><path id="kity_path_103" fill="none" stroke="rgb(123, 115, 191)" stroke-width="1" d="M296.5,136.5V182.5L316.5,182.5"></path><path id="kity_path_111" fill="none" stroke="rgb(123, 115, 191)" stroke-width="1" d="M296.5,136.5V234.5L316.5,234.5"></path><path id="kity_path_119" fill="none" stroke="rgb(123, 115, 191)" stroke-width="1" d="M425.5,136.5V182.5L445.5,182.5"></path><path id="kity_path_142" fill="none" stroke="rgb(123, 115, 191)" stroke-width="1" d="M465.5,193.5V234.5L485.5,234.5"></path><path id="kity_path_144" fill="none" stroke="rgb(123, 115, 191)" stroke-width="1" d="M296.5,136.5V286.5L316.5,286.5"></path></g><g id="minder_node1"><path id="kity_path_165" fill="rgba(0, 0, 0, .25)" stroke="none" d="M309.5,18.5h39a27,27,0,0,1,27,27v0a27,27,0,0,1,-27,27h-39a27,27,0,0,1,-27,-27v0a27,27,0,0,1,27,-27z" display="none"></path><path id="node_outline1" fill="rgb(123, 115, 191)" stroke="rgb(123, 115, 191)" d="M284.5,20.5h71a5,5,0,0,1,5,5v30a5,5,0,0,1,-5,5h-71a5,5,0,0,1,-5,-5v-30a5,5,0,0,1,5,-5z" stroke-width="3"></path><g id="node_text1" fill="white"><text id="kity_text_22" text-rendering="inherit" font-size="16" dy=".8em" y="27.699999809265137" font-family="comic sans ms" font-weight="bold" x="303.5">/sys</text></g></g><g id="kity_g_14" display="none"><path id="kity_path_15" fill="rgba(0, 153, 5, 0.5)" stroke="none" d="M421.5,72.5h8v26h-8z"></path><path id="kity_path_16" fill="none" stroke="rgb(0, 128, 4)" d="M421.5,72.5L421.5,98.5" stroke-width="1"></path></g><g id="minder_node2"><path id="kity_path_154" fill="rgba(0, 0, 0, .25)" stroke="none" d="M34.5,114.5h66a10,10,0,0,1,10,10v8a10,10,0,0,1,-10,10h-66a10,10,0,0,1,-10,-10v-8a10,10,0,0,1,10,-10z" display="none"></path><g id="node_expander1" style="cursor: pointer;"><path id="kity_path_36" fill="white" stroke="gray" d="M67.5,103.5A6,6,0,1,1,55.5,103.5A6,6,0,1,1,67.5,103.5"></path><path id="kity_path_37" fill="none" stroke="gray" d="M57,103.5L66,103.5"></path></g><path id="node_outline2" fill="#ffc000" stroke="rgb(123, 115, 191)" d="M23.5,110.5h76a3,3,0,0,1,3,3v20a3,3,0,0,1,-3,3h-76a3,3,0,0,1,-3,-3v-20a3,3,0,0,1,3,-3z" stroke-width="1"></path><g id="node_text2" fill="black"><text id="kity_text_33" text-rendering="inherit" font-size="14" dy=".8em" y="112.30000019073486" font-family="comic sans ms" font-weight="bold" x="40.5">device</text></g></g><g id="minder_node3"><path id="kity_path_151" fill="rgba(0, 0, 0, .25)" stroke="none" d="M95,160h0a28,28,0,0,1,28,28v0a28,28,0,0,1,-28,28h0a28,28,0,0,1,-28,-28v0a28,28,0,0,1,28,-28z" display="none"></path><g id="node_expander2" style="cursor: pointer;" display="none"><path id="kity_path_44" fill="white" stroke="gray" d="M60.5,182.5A6,6,0,1,1,48.5,182.5A6,6,0,1,1,60.5,182.5"></path><path id="kity_path_45" fill="none" stroke="gray"></path></g><path id="node_outline3" fill="#ffc000" stroke="none" d="M65.5,171.5h50a5,5,0,0,1,5,5v12a5,5,0,0,1,-5,5h-50a5,5,0,0,1,-5,-5v-12a5,5,0,0,1,5,-5z" stroke-width="3"></path><g id="node_text3" fill="black"><text id="kity_text_41" text-rendering="inherit" font-size="12" dy=".8em" y="172.90000009536743" font-family="comic sans ms" font-weight="bold" x="70.5">system</text></g></g><g id="minder_node4"><path id="kity_path_152" fill="rgba(0, 0, 0, .25)" stroke="none" d="M92,215h0a25,25,0,0,1,25,25v0a25,25,0,0,1,-25,25h0a25,25,0,0,1,-25,-25v0a25,25,0,0,1,25,-25z" display="none"></path><g id="node_expander3" style="cursor: pointer;" display="none"><path id="kity_path_52" fill="white" stroke="gray" d="M60.5,234.5A6,6,0,1,1,48.5,234.5A6,6,0,1,1,60.5,234.5"></path><path id="kity_path_53" fill="none" stroke="gray"></path></g><path id="node_outline4" fill="#00b0f0" stroke="none" d="M65.5,223.5h47a5,5,0,0,1,5,5v12a5,5,0,0,1,-5,5h-47a5,5,0,0,1,-5,-5v-12a5,5,0,0,1,5,-5z" stroke-width="3"></path><g id="node_text4" fill="black"><text id="kity_text_49" text-rendering="inherit" font-size="12" dy=".8em" y="224.90000009536743" font-family="comic sans ms" font-weight="bold" x="70.5">virtual</text></g></g><g id="minder_node5"><path id="kity_path_153" fill="rgba(0, 0, 0, .25)" stroke="none" d="M80,276h0a16,16,0,0,1,16,16v0a16,16,0,0,1,-16,16h0a16,16,0,0,1,-16,-16v0a16,16,0,0,1,16,-16z" display="none"></path><g id="node_expander4" style="cursor: pointer;" display="none"><path id="kity_path_60" fill="white" stroke="gray" d="M60.5,286.5A6,6,0,1,1,48.5,286.5A6,6,0,1,1,60.5,286.5"></path><path id="kity_path_61" fill="none" stroke="gray"></path></g><path id="node_outline5" fill="none" stroke="none" d="M65.5,275.5h26a5,5,0,0,1,5,5v12a5,5,0,0,1,-5,5h-26a5,5,0,0,1,-5,-5v-12a5,5,0,0,1,5,-5z" stroke-width="3"></path><g id="node_text5" fill="black"><text id="kity_text_57" text-rendering="inherit" font-size="12" dy=".8em" y="276.90000009536743" font-family="comic sans ms" font-weight="bold" x="70.5">...</text></g></g><g id="minder_node6"><path id="kity_path_156" fill="rgba(0, 0, 0, .25)" stroke="none" d="M174.5,114.5h46a10,10,0,0,1,10,10v8a10,10,0,0,1,-10,10h-46a10,10,0,0,1,-10,-10v-8a10,10,0,0,1,10,-10z" display="none"></path><g id="node_expander5" style="cursor: pointer;"><path id="kity_path_68" fill="white" stroke="gray" d="M197.5,103.5A6,6,0,1,1,185.5,103.5A6,6,0,1,1,197.5,103.5"></path><path id="kity_path_69" fill="none" stroke="gray" d="M187,103.5L196,103.5"></path></g><path id="node_outline6" fill="#ffc000" stroke="rgb(123, 115, 191)" d="M163.5,110.5h56a3,3,0,0,1,3,3v20a3,3,0,0,1,-3,3h-56a3,3,0,0,1,-3,-3v-20a3,3,0,0,1,3,-3z" stroke-width="1"></path><g id="node_text6" fill="black"><text id="kity_text_65" text-rendering="inherit" font-size="14" dy=".8em" y="112.30000019073486" font-family="comic sans ms" font-weight="bold" x="180.5">bus</text></g></g><g id="minder_node7"><path id="kity_path_160" fill="rgba(0, 0, 0, .25)" stroke="none" d="M290.5,114.5h46a10,10,0,0,1,10,10v8a10,10,0,0,1,-10,10h-46a10,10,0,0,1,-10,-10v-8a10,10,0,0,1,10,-10z" display="none"></path><g id="node_expander6" style="cursor: pointer;"><path id="kity_path_76" fill="white" stroke="gray" d="M314,103.5A6,6,0,1,1,302,103.5A6,6,0,1,1,314,103.5"></path><path id="kity_path_77" fill="none" stroke="gray" d="M303.5,103.5L312.5,103.5"></path></g><path id="node_outline7" fill="#00b0f0" stroke="rgb(123, 115, 191)" d="M279.5,110.5h57a3,3,0,0,1,3,3v20a3,3,0,0,1,-3,3h-57a3,3,0,0,1,-3,-3v-20a3,3,0,0,1,3,-3z" stroke-width="1"></path><g id="node_text7" fill="black"><text id="kity_text_73" text-rendering="inherit" font-size="14" dy=".8em" y="112.30000019073486" font-family="comic sans ms" font-weight="bold" x="296.5">dev</text></g></g><g id="minder_node8"><path id="kity_path_163" fill="rgba(0, 0, 0, .25)" stroke="none" d="M419.5,114.5h64a10,10,0,0,1,10,10v8a10,10,0,0,1,-10,10h-64a10,10,0,0,1,-10,-10v-8a10,10,0,0,1,10,-10z" display="none"></path><g id="node_expander7" style="cursor: pointer;"><path id="kity_path_84" fill="white" stroke="gray" d="M452,103.5A6,6,0,1,1,440,103.5A6,6,0,1,1,452,103.5"></path><path id="kity_path_85" fill="none" stroke="gray" d="M441.5,103.5L450.5,103.5"></path></g><path id="node_outline8" fill="#00b0f0" stroke="rgb(123, 115, 191)" d="M408.5,110.5h75a3,3,0,0,1,3,3v20a3,3,0,0,1,-3,3h-75a3,3,0,0,1,-3,-3v-20a3,3,0,0,1,3,-3z" stroke-width="1"></path><g id="node_text8" fill="black"><text id="kity_text_81" text-rendering="inherit" font-size="14" dy=".8em" y="112.30000019073486" font-family="comic sans ms" font-weight="bold" x="425.5">kernel</text></g></g><g id="minder_node9"><path id="kity_path_164" fill="rgba(0, 0, 0, .25)" stroke="none" d="M575.5,114.5h33a10,10,0,0,1,10,10v8a10,10,0,0,1,-10,10h-33a10,10,0,0,1,-10,-10v-8a10,10,0,0,1,10,-10z" display="none"></path><g id="node_expander8" style="cursor: pointer;" display="none"><path id="kity_path_92" fill="white" stroke="gray" d="M596.5,103.5A6,6,0,1,1,584.5,103.5A6,6,0,1,1,596.5,103.5"></path><path id="kity_path_93" fill="none" stroke="gray"></path></g><path id="node_outline9" fill="#ffffff" stroke="rgb(123, 115, 191)" d="M564.5,110.5h52a3,3,0,0,1,3,3v20a3,3,0,0,1,-3,3h-52a3,3,0,0,1,-3,-3v-20a3,3,0,0,1,3,-3z" stroke-width="1"></path><g id="node_text9" fill="black"><text id="kity_text_89" text-rendering="inherit" font-size="14" dy=".8em" y="112.30000019073486" font-family="comic sans ms" font-weight="bold" x="581.5">...</text></g></g><g id="minder_node10"><path id="kity_path_155" fill="rgba(0, 0, 0, .25)" stroke="none" d="M220,172h0a16,16,0,0,1,16,16v0a16,16,0,0,1,-16,16h0a16,16,0,0,1,-16,-16v0a16,16,0,0,1,16,-16z" display="none"></path><g id="node_expander9" style="cursor: pointer;" display="none"><path id="kity_path_100" fill="white" stroke="gray" d="M200.5,182.5A6,6,0,1,1,188.5,182.5A6,6,0,1,1,200.5,182.5"></path><path id="kity_path_101" fill="none" stroke="gray"></path></g><path id="node_outline10" fill="none" stroke="none" d="M205.5,171.5h26a5,5,0,0,1,5,5v12a5,5,0,0,1,-5,5h-26a5,5,0,0,1,-5,-5v-12a5,5,0,0,1,5,-5z" stroke-width="3"></path><g id="node_text10" fill="black"><text id="kity_text_97" text-rendering="inherit" font-size="12" dy=".8em" y="172.90000009536743" font-family="comic sans ms" font-weight="bold" x="210.5">...</text></g></g><g id="minder_node11"><path id="kity_path_157" fill="rgba(0, 0, 0, .25)" stroke="none" d="M345.5,165h0a23,23,0,0,1,23,23v0a23,23,0,0,1,-23,23h0a23,23,0,0,1,-23,-23v0a23,23,0,0,1,23,-23z" display="none"></path><g id="node_expander10" style="cursor: pointer;" display="none"><path id="kity_path_108" fill="white" stroke="gray" d="M316.5,182.5A6,6,0,1,1,304.5,182.5A6,6,0,1,1,316.5,182.5"></path><path id="kity_path_109" fill="none" stroke="gray"></path></g><path id="node_outline11" fill="#00b0f0" stroke="none" d="M321.5,171.5h39a5,5,0,0,1,5,5v12a5,5,0,0,1,-5,5h-39a5,5,0,0,1,-5,-5v-12a5,5,0,0,1,5,-5z" stroke-width="3"></path><g id="node_text11" fill="black"><text id="kity_text_105" text-rendering="inherit" font-size="12" dy=".8em" y="172.90000009536743" font-family="comic sans ms" font-weight="bold" x="326.5">block</text></g></g><g id="minder_node12"><path id="kity_path_158" fill="rgba(0, 0, 0, .25)" stroke="none" d="M343,219h0a21,21,0,0,1,21,21v0a21,21,0,0,1,-21,21h0a21,21,0,0,1,-21,-21v0a21,21,0,0,1,21,-21z" display="none"></path><g id="node_expander11" style="cursor: pointer;" display="none"><path id="kity_path_116" fill="white" stroke="gray" d="M316.5,234.5A6,6,0,1,1,304.5,234.5A6,6,0,1,1,316.5,234.5"></path><path id="kity_path_117" fill="none" stroke="gray"></path></g><path id="node_outline12" fill="#00b0f0" stroke="none" d="M321.5,223.5h36a5,5,0,0,1,5,5v12a5,5,0,0,1,-5,5h-36a5,5,0,0,1,-5,-5v-12a5,5,0,0,1,5,-5z" stroke-width="3"></path><g id="node_text12" fill="black"><text id="kity_text_113" text-rendering="inherit" font-size="12" dy=".8em" y="224.90000009536743" font-family="comic sans ms" font-weight="bold" x="326.5">char</text></g></g><g id="minder_node13" opacity="1"><path id="kity_path_162" fill="rgba(0, 0, 0, .25)" stroke="none" d="M471.5,167h0a21,21,0,0,1,21,21v0a21,21,0,0,1,-21,21h0a21,21,0,0,1,-21,-21v0a21,21,0,0,1,21,-21z" display="none"></path><g id="node_expander12" style="cursor: pointer;"><path id="kity_path_124" fill="white" stroke="gray" d="M445.5,182.5A6,6,0,1,1,433.5,182.5A6,6,0,1,1,445.5,182.5"></path><path id="kity_path_125" fill="none" stroke="gray" d="M435,182.5L444,182.5"></path></g><path id="node_outline13" fill="#ffc000" stroke="none" d="M450.5,171.5h33a5,5,0,0,1,5,5v12a5,5,0,0,1,-5,5h-33a5,5,0,0,1,-5,-5v-12a5,5,0,0,1,5,-5z" stroke-width="3"></path><g id="node_text13" fill="black"><text id="kity_text_121" text-rendering="inherit" font-size="12" dy=".8em" y="172.90000009536743" font-family="comic sans ms" font-weight="bold" x="455.5">slab</text></g></g><g id="kity_g_12" display="none"><path id="kity_path_13" fill="none" stroke="rgb(66, 112, 68)" d="M338.5,72.5h75a3,3,0,0,1,3,3v20a3,3,0,0,1,-3,3h-75a3,3,0,0,1,-3,-3v-20a3,3,0,0,1,3,-3z" stroke-width="5"></path></g><g id="minder_node15"><path id="kity_path_161" fill="rgba(0, 0, 0, .25)" stroke="none" d="M505,224h0a16,16,0,0,1,16,16v0a16,16,0,0,1,-16,16h0a16,16,0,0,1,-16,-16v0a16,16,0,0,1,16,-16z" display="none"></path><g id="node_expander14" style="cursor: pointer;" display="none"><path id="kity_path_140" fill="white" stroke="gray" d="M485.5,234.5A6,6,0,1,1,473.5,234.5A6,6,0,1,1,485.5,234.5"></path><path id="kity_path_141" fill="none" stroke="gray"></path></g><path id="node_outline15" fill="none" stroke="none" d="M490.5,223.5h26a5,5,0,0,1,5,5v12a5,5,0,0,1,-5,5h-26a5,5,0,0,1,-5,-5v-12a5,5,0,0,1,5,-5z" stroke-width="3"></path><g id="node_text15" fill="black"><text id="kity_text_137" text-rendering="inherit" font-size="12" dy=".8em" y="224.90000009536743" font-family="comic sans ms" font-weight="bold" x="495.5">...</text></g></g><g id="minder_node16"><path id="kity_path_159" fill="rgba(0, 0, 0, .25)" stroke="none" d="M336,276h0a16,16,0,0,1,16,16v0a16,16,0,0,1,-16,16h0a16,16,0,0,1,-16,-16v0a16,16,0,0,1,16,-16z" display="none"></path><g id="node_expander15" style="cursor: pointer;" display="none"><path id="kity_path_149" fill="white" stroke="gray" d="M316.5,286.5A6,6,0,1,1,304.5,286.5A6,6,0,1,1,316.5,286.5"></path><path id="kity_path_150" fill="none" stroke="gray"></path></g><path id="node_outline16" fill="none" stroke="none" d="M321.5,275.5h26a5,5,0,0,1,5,5v12a5,5,0,0,1,-5,5h-26a5,5,0,0,1,-5,-5v-12a5,5,0,0,1,5,-5z" stroke-width="3"></path><g id="node_text16" fill="black"><text id="kity_text_146" text-rendering="inherit" font-size="12" dy=".8em" y="276.90000009536743" font-family="comic sans ms" font-weight="bold" x="326.5">...</text></g></g></g></g></svg>