<svg id="kity_svg_6" xmlns="http://www.w3.org/2000/svg" xmlns:xlink="http://www.w3.org/1999/xlink" version="1.1" width="793" height="590" style="background: rgb(251, 251, 251); visibility: visible;" viewBox="0 0 793 590"><defs id="kity_defs_7"><linearGradient id="kity_linearGradient_17" x1="0" y1="0" x2="0" y2="1"><stop id="kity_stop_18" offset="0" stop-color="rgb(255, 255, 255)"></stop><stop id="kity_stop_19" offset="1" stop-color="rgb(204, 204, 204)"></stop></linearGradient><marker id="kity_marker_2" orient="auto" refX="6" refY="0" viewBox="-7 -7 14 14" markerWidth="7" markerHeight="7" markerUnits="userSpaceOnUse"><path id="kity_path_3" fill="rgb(115, 161, 191)" stroke="none" d="M6,0A6,6,0,1,1,-6,0A6,6,0,1,1,6,0"></path></marker></defs><g id="kity_g_8"><g id="minder1" text-rendering="optimize-speed"><g id="minder_connect_group1"><path id="kity_path_31" fill="none" stroke="rgb(115, 161, 191)" stroke-width="1" d="M71,271.5A66.5,238,0,0,1,137.5,33.5"></path><path id="kity_path_33" fill="none" stroke="rgb(115, 161, 191)" stroke-width="1" d="M71,271.5A66.5,196,0,0,1,137.5,75.5"></path><path id="kity_path_35" fill="none" stroke="rgb(115, 161, 191)" stroke-width="1" d="M71,271.5A66.5,154,0,0,1,137.5,117.5"></path><path id="kity_path_37" fill="none" stroke="rgb(115, 161, 191)" stroke-width="1" d="M71,271.5A66.5,90,0,0,1,137.5,181.5"></path><path id="kity_path_39" fill="none" stroke="rgb(115, 161, 191)" stroke-width="1" d="M273.5,181.5C281.5,181.5,281.5,155.5,289.5,155.5"></path><path id="kity_path_41" fill="none" stroke="rgb(115, 161, 191)" stroke-width="1" d="M273.5,181.5C281.5,181.5,281.5,181.5,289.5,181.5"></path><path id="kity_path_43" fill="none" stroke="rgb(115, 161, 191)" stroke-width="1" d="M273.5,181.5C281.5,181.5,281.5,207.5,289.5,207.5"></path><path id="kity_path_45" fill="none" stroke="rgb(115, 161, 191)" stroke-width="1" d="M71,271.5A66.5,61,0,0,0,137.5,332.5"></path><path id="kity_path_49" fill="none" stroke="rgb(115, 161, 191)" stroke-width="1" d="M260.5,332.5C268.5,332.5,268.5,280.5,276.5,280.5"></path><path id="kity_path_53" fill="none" stroke="rgb(115, 161, 191)" stroke-width="1" d="M71,271.5A66.5,238,0,0,0,137.5,509.5"></path><path id="kity_path_127" fill="none" stroke="rgb(115, 161, 191)" stroke-width="1" d="M260.5,332.5C268.5,332.5,268.5,384.5,276.5,384.5"></path><path id="kity_path_135" fill="none" stroke="rgb(115, 161, 191)" stroke-width="1" d="M531.5,280.5C539.5,280.5,539.5,241.5,547.5,241.5"></path><path id="kity_path_143" fill="none" stroke="rgb(115, 161, 191)" stroke-width="1" d="M531.5,280.5C539.5,280.5,539.5,267.5,547.5,267.5"></path><path id="kity_path_151" fill="none" stroke="rgb(115, 161, 191)" stroke-width="1" d="M531.5,280.5C539.5,280.5,539.5,293.5,547.5,293.5"></path><path id="kity_path_159" fill="none" stroke="rgb(115, 161, 191)" stroke-width="1" d="M531.5,280.5C539.5,280.5,539.5,319.5,547.5,319.5"></path><path id="kity_path_167" fill="none" stroke="rgb(115, 161, 191)" stroke-width="1" d="M486.5,384.5C494.5,384.5,494.5,345.5,502.5,345.5"></path><path id="kity_path_169" fill="none" stroke="rgb(115, 161, 191)" stroke-width="1" d="M486.5,384.5C494.5,384.5,494.5,371.5,502.5,371.5"></path><path id="kity_path_171" fill="none" stroke="rgb(115, 161, 191)" stroke-width="1" d="M486.5,384.5C494.5,384.5,494.5,397.5,502.5,397.5"></path><path id="kity_path_173" fill="none" stroke="rgb(115, 161, 191)" stroke-width="1" d="M486.5,384.5C494.5,384.5,494.5,423.5,502.5,423.5"></path><path id="kity_path_207" fill="none" stroke="rgb(115, 161, 191)" stroke-width="1" d="M220.5,509.5C228.5,509.5,228.5,457.5,236.5,457.5"></path><path id="kity_path_223" fill="none" stroke="rgb(115, 161, 191)" stroke-width="1" d="M220.5,509.5C228.5,509.5,228.5,483.5,236.5,483.5"></path><path id="kity_path_239" fill="none" stroke="rgb(115, 161, 191)" stroke-width="1" d="M397.5,483.5C405.5,483.5,405.5,483.5,413.5,483.5"></path><path id="kity_path_247" fill="none" stroke="rgb(115, 161, 191)" stroke-width="1" d="M220.5,509.5C228.5,509.5,228.5,522.5,236.5,522.5"></path><path id="kity_path_255" fill="none" stroke="rgb(115, 161, 191)" stroke-width="1" d="M220.5,509.5C228.5,509.5,228.5,561.5,236.5,561.5"></path><path id="kity_path_263" fill="none" stroke="rgb(115, 161, 191)" stroke-width="1" d="M388.5,522.5C396.5,522.5,396.5,509.5,404.5,509.5"></path><path id="kity_path_271" fill="none" stroke="rgb(115, 161, 191)" stroke-width="1" d="M281.5,457.5C289.5,457.5,289.5,457.5,297.5,457.5"></path><path id="kity_path_286" fill="none" stroke="rgb(115, 161, 191)" stroke-width="1" d="M511.5,509.5C519.5,509.5,519.5,509.5,527.5,509.5"></path><path id="kity_path_288" fill="none" stroke="rgb(115, 161, 191)" stroke-width="1" d="M388.5,522.5C396.5,522.5,396.5,535.5,404.5,535.5"></path></g><g id="minder_node1"><path id="node_outline1" fill="rgb(115, 161, 191)" stroke="rgb(115, 161, 191)" d="M25.5,257.5h91a5,5,0,0,1,5,5v18a5,5,0,0,1,-5,5h-91a5,5,0,0,1,-5,-5v-18a5,5,0,0,1,5,-5z" stroke-width="3"></path><g id="node_text1" fill="white"><text id="kity_text_22" text-rendering="inherit" font-size="16" dy=".8em" y="263.5" x="32.5">armv7_spl</text></g></g><g id="kity_g_14" display="none"><path id="kity_path_15" fill="rgba(0, 92, 153, 0.5)" stroke="none" d="M236.5,439.5h161v4h-161z"></path><path id="kity_path_16" fill="none" stroke="rgb(0, 76, 128)" d="M236.5,443.5L397.5,443.5" stroke-width="1"></path></g><g id="minder_node2"><g id="node_expander1" style="cursor: pointer;" display="none"><path id="kity_path_91" fill="white" stroke="gray" d="M138.5,33.5A6,6,0,1,1,126.5,33.5A6,6,0,1,1,138.5,33.5"></path><path id="kity_path_92" fill="none" stroke="gray"></path></g><path id="node_outline2" fill="rgb(238, 243, 246)" stroke="rgb(115, 161, 191)" d="M142.5,20.5h70a3,3,0,0,1,3,3v20a3,3,0,0,1,-3,3h-70a3,3,0,0,1,-3,-3v-20a3,3,0,0,1,3,-3z" stroke-width="1"></path><g id="node_text2" fill="black"><text id="kity_text_55" text-rendering="inherit" font-size="14" dy=".8em" y="26.5" x="159.5">_start</text></g></g><g id="minder_node3"><g id="node_expander2" style="cursor: pointer;" display="none"><path id="kity_path_94" fill="white" stroke="gray" d="M138.5,75.5A6,6,0,1,1,126.5,75.5A6,6,0,1,1,138.5,75.5"></path><path id="kity_path_95" fill="none" stroke="gray"></path></g><path id="node_outline3" fill="rgb(238, 243, 246)" stroke="rgb(115, 161, 191)" d="M142.5,62.5h67a3,3,0,0,1,3,3v20a3,3,0,0,1,-3,3h-67a3,3,0,0,1,-3,-3v-20a3,3,0,0,1,3,-3z" stroke-width="1"></path><g id="node_text3" fill="black"><text id="kity_text_57" text-rendering="inherit" font-size="14" dy=".8em" y="68.5" x="159.5">reset</text></g></g><g id="minder_node4"><g id="node_expander3" style="cursor: pointer;" display="none"><path id="kity_path_97" fill="white" stroke="gray" d="M138.5,117.5A6,6,0,1,1,126.5,117.5A6,6,0,1,1,138.5,117.5"></path><path id="kity_path_98" fill="none" stroke="gray"></path></g><path id="node_outline4" fill="rgb(238, 243, 246)" stroke="rgb(115, 161, 191)" d="M142.5,104.5h129a3,3,0,0,1,3,3v20a3,3,0,0,1,-3,3h-129a3,3,0,0,1,-3,-3v-20a3,3,0,0,1,3,-3z" stroke-width="1"></path><g id="node_text4" fill="black"><text id="kity_text_59" text-rendering="inherit" font-size="14" dy=".8em" y="110.5" x="159.5">mask interrupt</text></g></g><g id="minder_node5"><g id="node_expander7" style="cursor: pointer;"><path id="kity_path_109" fill="white" stroke="gray" d="M138.5,181.5A6,6,0,1,1,126.5,181.5A6,6,0,1,1,138.5,181.5"></path><path id="kity_path_110" fill="none" stroke="gray" d="M128,181.5L137,181.5"></path></g><path id="node_outline8" fill="rgb(238, 243, 246)" stroke="rgb(115, 161, 191)" d="M142.5,168.5h128a3,3,0,0,1,3,3v20a3,3,0,0,1,-3,3h-128a3,3,0,0,1,-3,-3v-20a3,3,0,0,1,3,-3z" stroke-width="1"></path><g id="node_text8" fill="black"><text id="kity_text_67" text-rendering="inherit" font-size="14" dy=".8em" y="174.5" x="159.5">cpu_init_cp15</text></g></g><g id="minder_node6"><g id="node_expander4" style="cursor: pointer;" display="none"><path id="kity_path_100" fill="white" stroke="gray" d="M289.5,155.5A6,6,0,1,1,277.5,155.5A6,6,0,1,1,289.5,155.5"></path><path id="kity_path_101" fill="none" stroke="gray"></path></g><path id="node_outline5" fill="none" stroke="none" d="M294.5,146.5h75a5,5,0,0,1,5,5v8a5,5,0,0,1,-5,5h-75a5,5,0,0,1,-5,-5v-8a5,5,0,0,1,5,-5z" stroke-width="3"></path><g id="node_text5" fill="black"><text id="kity_text_61" text-rendering="inherit" font-size="12" dy=".8em" y="149.5" x="294.5">disable MMU</text></g></g><g id="minder_node7"><g id="node_expander5" style="cursor: pointer;" display="none"><path id="kity_path_103" fill="white" stroke="gray" d="M289.5,181.5A6,6,0,1,1,277.5,181.5A6,6,0,1,1,289.5,181.5"></path><path id="kity_path_104" fill="none" stroke="gray"></path></g><path id="node_outline6" fill="none" stroke="none" d="M294.5,172.5h86a5,5,0,0,1,5,5v8a5,5,0,0,1,-5,5h-86a5,5,0,0,1,-5,-5v-8a5,5,0,0,1,5,-5z" stroke-width="3"></path><g id="node_text6" fill="black"><text id="kity_text_63" text-rendering="inherit" font-size="12" dy=".8em" y="175.5" x="294.5">disable Cache</text></g></g><g id="minder_node8"><g id="node_expander6" style="cursor: pointer;" display="none"><path id="kity_path_106" fill="white" stroke="gray" d="M289.5,207.5A6,6,0,1,1,277.5,207.5A6,6,0,1,1,289.5,207.5"></path><path id="kity_path_107" fill="none" stroke="gray"></path></g><path id="node_outline7" fill="none" stroke="none" d="M294.5,198.5h62a5,5,0,0,1,5,5v8a5,5,0,0,1,-5,5h-62a5,5,0,0,1,-5,-5v-8a5,5,0,0,1,5,-5z" stroke-width="3"></path><g id="node_text7" fill="black"><text id="kity_text_65" text-rendering="inherit" font-size="12" dy=".8em" y="201.5" x="294.5">disable TLB</text></g></g><g id="minder_node9"><g id="node_expander11" style="cursor: pointer;"><path id="kity_path_121" fill="white" stroke="gray" d="M138.5,332.5A6,6,0,1,1,126.5,332.5A6,6,0,1,1,138.5,332.5"></path><path id="kity_path_122" fill="none" stroke="gray" d="M128,332.5L137,332.5"></path></g><path id="node_outline12" fill="rgb(238, 243, 246)" stroke="rgb(115, 161, 191)" d="M142.5,319.5h115a3,3,0,0,1,3,3v20a3,3,0,0,1,-3,3h-115a3,3,0,0,1,-3,-3v-20a3,3,0,0,1,3,-3z" stroke-width="1"></path><g id="node_text12" fill="black"><text id="kity_text_75" text-rendering="inherit" font-size="14" dy=".8em" y="325.5" x="159.5">cpu_init_cirt</text></g></g><g id="minder_node11" opacity="1"><g id="node_expander8" style="cursor: pointer;"><path id="kity_path_112" fill="white" stroke="gray" d="M276.5,280.5A6,6,0,1,1,264.5,280.5A6,6,0,1,1,276.5,280.5"></path><path id="kity_path_113" fill="none" stroke="gray" d="M266,280.5L275,280.5"></path></g><path id="node_outline9" fill="none" stroke="none" d="M281.5,271.5h245a5,5,0,0,1,5,5v8a5,5,0,0,1,-5,5h-245a5,5,0,0,1,-5,-5v-8a5,5,0,0,1,5,-5z" stroke-width="3"></path><g id="node_text9" fill="black"><text id="kity_text_69" text-rendering="inherit" font-size="12" dy=".8em" y="274.5" x="281.5">such as board/samsung/xxx/lowlevel_init.S</text></g></g><g id="minder_node13"><g id="node_expander12" style="cursor: pointer;"><path id="kity_path_124" fill="white" stroke="gray" d="M138.5,509.5A6,6,0,1,1,126.5,509.5A6,6,0,1,1,138.5,509.5"></path><path id="kity_path_125" fill="none" stroke="gray" d="M128,509.5L137,509.5"></path></g><path id="node_outline13" fill="rgb(238, 243, 246)" stroke="rgb(115, 161, 191)" d="M142.5,496.5h75a3,3,0,0,1,3,3v20a3,3,0,0,1,-3,3h-75a3,3,0,0,1,-3,-3v-20a3,3,0,0,1,3,-3z" stroke-width="1"></path><g id="node_text13" fill="black"><text id="kity_text_77" text-rendering="inherit" font-size="14" dy=".8em" y="502.5" x="159.5">_main</text></g></g><g id="minder_node14" opacity="1"><g id="node_expander13" style="cursor: pointer;"><path id="kity_path_132" fill="white" stroke="gray" d="M276.5,384.5A6,6,0,1,1,264.5,384.5A6,6,0,1,1,276.5,384.5"></path><path id="kity_path_133" fill="none" stroke="gray" d="M266,384.5L275,384.5"></path></g><path id="node_outline14" fill="#ff0000" stroke="none" d="M281.5,375.5h200a5,5,0,0,1,5,5v8a5,5,0,0,1,-5,5h-200a5,5,0,0,1,-5,-5v-8a5,5,0,0,1,5,-5z" stroke-width="3"></path><g id="node_text14" fill="black"><text id="kity_text_129" text-rendering="inherit" font-size="12" dy=".8em" y="378.5" x="281.5">such as board/ti/xxx/lowlevel_init.S</text></g></g><g id="minder_node15"><g id="node_expander14" style="cursor: pointer;" display="none"><path id="kity_path_140" fill="white" stroke="gray" d="M547.5,241.5A6,6,0,1,1,535.5,241.5A6,6,0,1,1,547.5,241.5"></path><path id="kity_path_141" fill="none" stroke="gray"></path></g><path id="node_outline15" fill="none" stroke="none" d="M552.5,232.5h61a5,5,0,0,1,5,5v8a5,5,0,0,1,-5,5h-61a5,5,0,0,1,-5,-5v-8a5,5,0,0,1,5,-5z" stroke-width="3"></path><g id="node_text15" fill="black"><text id="kity_text_137" text-rendering="inherit" font-size="12" dy=".8em" y="235.5" x="552.5">watchdog</text></g></g><g id="minder_node16"><g id="node_expander15" style="cursor: pointer;" display="none"><path id="kity_path_148" fill="white" stroke="gray" d="M547.5,267.5A6,6,0,1,1,535.5,267.5A6,6,0,1,1,547.5,267.5"></path><path id="kity_path_149" fill="none" stroke="gray"></path></g><path id="node_outline16" fill="none" stroke="none" d="M552.5,258.5h32a5,5,0,0,1,5,5v8a5,5,0,0,1,-5,5h-32a5,5,0,0,1,-5,-5v-8a5,5,0,0,1,5,-5z" stroke-width="3"></path><g id="node_text16" fill="black"><text id="kity_text_145" text-rendering="inherit" font-size="12" dy=".8em" y="261.5" x="552.5">sysclk</text></g></g><g id="minder_node17"><g id="node_expander16" style="cursor: pointer;" display="none"><path id="kity_path_156" fill="white" stroke="gray" d="M547.5,293.5A6,6,0,1,1,535.5,293.5A6,6,0,1,1,547.5,293.5"></path><path id="kity_path_157" fill="none" stroke="gray"></path></g><path id="node_outline17" fill="none" stroke="none" d="M552.5,284.5h74a5,5,0,0,1,5,5v8a5,5,0,0,1,-5,5h-74a5,5,0,0,1,-5,-5v-8a5,5,0,0,1,5,-5z" stroke-width="3"></path><g id="node_text17" fill="black"><text id="kity_text_153" text-rendering="inherit" font-size="12" dy=".8em" y="287.5" x="552.5">memory/ddr</text></g></g><g id="minder_node18"><g id="node_expander17" style="cursor: pointer;" display="none"><path id="kity_path_164" fill="white" stroke="gray" d="M547.5,319.5A6,6,0,1,1,535.5,319.5A6,6,0,1,1,547.5,319.5"></path><path id="kity_path_165" fill="none" stroke="gray"></path></g><path id="node_outline18" fill="none" stroke="none" d="M552.5,310.5h77a5,5,0,0,1,5,5v8a5,5,0,0,1,-5,5h-77a5,5,0,0,1,-5,-5v-8a5,5,0,0,1,5,-5z" stroke-width="3"></path><g id="node_text18" fill="black"><text id="kity_text_161" text-rendering="inherit" font-size="12" dy=".8em" y="313.5" x="552.5">uart/flash etc</text></g></g><g id="minder_node19"><g id="node_expander21" style="cursor: pointer;" display="none"><path id="kity_path_196" fill="white" stroke="gray" d="M502.5,345.5A6,6,0,1,1,490.5,345.5A6,6,0,1,1,502.5,345.5"></path><path id="kity_path_197" fill="none" stroke="gray"></path></g><path id="node_outline22" fill="none" stroke="none" d="M507.5,336.5h61a5,5,0,0,1,5,5v8a5,5,0,0,1,-5,5h-61a5,5,0,0,1,-5,-5v-8a5,5,0,0,1,5,-5z" stroke-width="3"></path><g id="node_text22" fill="black"><text id="kity_text_193" text-rendering="inherit" font-size="12" dy=".8em" y="339.5" x="507.5">watchdog</text></g></g><g id="minder_node20"><g id="node_expander20" style="cursor: pointer;" display="none"><path id="kity_path_190" fill="white" stroke="gray" d="M502.5,371.5A6,6,0,1,1,490.5,371.5A6,6,0,1,1,502.5,371.5"></path><path id="kity_path_191" fill="none" stroke="gray"></path></g><path id="node_outline21" fill="none" stroke="none" d="M507.5,362.5h32a5,5,0,0,1,5,5v8a5,5,0,0,1,-5,5h-32a5,5,0,0,1,-5,-5v-8a5,5,0,0,1,5,-5z" stroke-width="3"></path><g id="node_text21" fill="black"><text id="kity_text_187" text-rendering="inherit" font-size="12" dy=".8em" y="365.5" x="507.5">sysclk</text></g></g><g id="minder_node21"><g id="node_expander19" style="cursor: pointer;" display="none"><path id="kity_path_184" fill="white" stroke="gray" d="M502.5,397.5A6,6,0,1,1,490.5,397.5A6,6,0,1,1,502.5,397.5"></path><path id="kity_path_185" fill="none" stroke="gray"></path></g><path id="node_outline20" fill="none" stroke="none" d="M507.5,388.5h74a5,5,0,0,1,5,5v8a5,5,0,0,1,-5,5h-74a5,5,0,0,1,-5,-5v-8a5,5,0,0,1,5,-5z" stroke-width="3"></path><g id="node_text20" fill="black"><text id="kity_text_181" text-rendering="inherit" font-size="12" dy=".8em" y="391.5" x="507.5">memory/ddr</text></g></g><g id="minder_node22"><g id="node_expander18" style="cursor: pointer;" display="none"><path id="kity_path_178" fill="white" stroke="gray" d="M502.5,423.5A6,6,0,1,1,490.5,423.5A6,6,0,1,1,502.5,423.5"></path><path id="kity_path_179" fill="none" stroke="gray"></path></g><path id="node_outline19" fill="none" stroke="none" d="M507.5,414.5h77a5,5,0,0,1,5,5v8a5,5,0,0,1,-5,5h-77a5,5,0,0,1,-5,-5v-8a5,5,0,0,1,5,-5z" stroke-width="3"></path><g id="node_text19" fill="black"><text id="kity_text_175" text-rendering="inherit" font-size="12" dy=".8em" y="417.5" x="507.5">uart/flash etc</text></g></g><g id="minder_node24" opacity="1"><g id="node_expander23" style="cursor: pointer;"><path id="kity_path_212" fill="white" stroke="gray" d="M236.5,457.5A6,6,0,1,1,224.5,457.5A6,6,0,1,1,236.5,457.5"></path><path id="kity_path_213" fill="none" stroke="gray" d="M226,457.5L235,457.5"></path></g><path id="node_outline24" fill="none" stroke="none" d="M241.5,448.5h35a5,5,0,0,1,5,5v8a5,5,0,0,1,-5,5h-35a5,5,0,0,1,-5,-5v-8a5,5,0,0,1,5,-5z" stroke-width="3"></path><g id="node_text24" fill="black"><text id="kity_text_209" text-rendering="inherit" font-size="12" dy=".8em" y="451.5" x="241.5">C env</text></g></g><g id="minder_node26"><g id="node_expander25" style="cursor: pointer;"><path id="kity_path_228" fill="white" stroke="gray" d="M236.5,483.5A6,6,0,1,1,224.5,483.5A6,6,0,1,1,236.5,483.5"></path><path id="kity_path_229" fill="none" stroke="gray" d="M226,483.5L235,483.5"></path></g><path id="node_outline26" fill="none" stroke="none" d="M241.5,474.5h151a5,5,0,0,1,5,5v8a5,5,0,0,1,-5,5h-151a5,5,0,0,1,-5,-5v-8a5,5,0,0,1,5,-5z" stroke-width="3"></path><g id="node_text26" fill="black"><text id="kity_text_225" text-rendering="inherit" font-size="12" dy=".8em" y="477.5" x="241.5">board_init_f_alloc_reserve</text></g></g><g id="minder_node28"><g id="node_expander27" style="cursor: pointer;" display="none"><path id="kity_path_244" fill="white" stroke="gray" d="M413.5,483.5A6,6,0,1,1,401.5,483.5A6,6,0,1,1,413.5,483.5"></path><path id="kity_path_245" fill="none" stroke="gray"></path></g><path id="node_outline28" fill="#ff0000" stroke="none" d="M418.5,474.5h135a5,5,0,0,1,5,5v8a5,5,0,0,1,-5,5h-135a5,5,0,0,1,-5,-5v-8a5,5,0,0,1,5,-5z" stroke-width="3"></path><g id="node_text28" fill="black"><text id="kity_text_241" text-rendering="inherit" font-size="12" dy=".8em" y="477.5" x="418.5">struct global_data(GD)</text></g></g><g id="minder_node29"><g id="node_expander28" style="cursor: pointer;"><path id="kity_path_252" fill="white" stroke="gray" d="M236.5,522.5A6,6,0,1,1,224.5,522.5A6,6,0,1,1,236.5,522.5"></path><path id="kity_path_253" fill="none" stroke="gray" d="M226,522.5L235,522.5"></path></g><path id="node_outline29" fill="none" stroke="none" d="M241.5,513.5h142a5,5,0,0,1,5,5v8a5,5,0,0,1,-5,5h-142a5,5,0,0,1,-5,-5v-8a5,5,0,0,1,5,-5z" stroke-width="3"></path><g id="node_text29" fill="black"><text id="kity_text_249" text-rendering="inherit" font-size="12" dy=".8em" y="516.5" x="241.5">load uboot(board_init_f)</text></g></g><g id="minder_node30"><g id="node_expander29" style="cursor: pointer;" display="none"><path id="kity_path_260" fill="white" stroke="gray" d="M236.5,561.5A6,6,0,1,1,224.5,561.5A6,6,0,1,1,236.5,561.5"></path><path id="kity_path_261" fill="none" stroke="gray"></path></g><path id="node_outline30" fill="none" stroke="none" d="M241.5,552.5h67a5,5,0,0,1,5,5v8a5,5,0,0,1,-5,5h-67a5,5,0,0,1,-5,-5v-8a5,5,0,0,1,5,-5z" stroke-width="3"></path><g id="node_text30" fill="black"><text id="kity_text_257" text-rendering="inherit" font-size="12" dy=".8em" y="555.5" x="241.5">jump uboot</text></g></g><g id="minder_node31" opacity="1"><g id="node_expander30" style="cursor: pointer;"><path id="kity_path_268" fill="white" stroke="gray" d="M404.5,509.5A6,6,0,1,1,392.5,509.5A6,6,0,1,1,404.5,509.5"></path><path id="kity_path_269" fill="none" stroke="gray" d="M394,509.5L403,509.5"></path></g><path id="node_outline31" fill="none" stroke="none" d="M409.5,500.5h97a5,5,0,0,1,5,5v8a5,5,0,0,1,-5,5h-97a5,5,0,0,1,-5,-5v-8a5,5,0,0,1,5,-5z" stroke-width="3"></path><g id="node_text31" fill="black"><text id="kity_text_265" text-rendering="inherit" font-size="12" dy=".8em" y="503.5" x="409.5">xxx_early_debug</text></g></g><g id="minder_node32"><g id="node_expander31" style="cursor: pointer;" display="none"><path id="kity_path_276" fill="white" stroke="gray" d="M297.5,457.5A6,6,0,1,1,285.5,457.5A6,6,0,1,1,297.5,457.5"></path><path id="kity_path_277" fill="none" stroke="gray"></path></g><path id="node_outline32" fill="none" stroke="none" d="M302.5,448.5h31a5,5,0,0,1,5,5v8a5,5,0,0,1,-5,5h-31a5,5,0,0,1,-5,-5v-8a5,5,0,0,1,5,-5z" stroke-width="3"></path><g id="node_text32" fill="black"><text id="kity_text_273" text-rendering="inherit" font-size="12" dy=".8em" y="451.5" x="302.5">stack</text></g></g><g id="kity_g_12" display="none"><path id="kity_path_13" fill="none" stroke="rgb(66, 94, 112)" d="M241.5,507.5h65a5,5,0,0,1,5,5v8a5,5,0,0,1,-5,5h-65a5,5,0,0,1,-5,-5v-8a5,5,0,0,1,5,-5z" stroke-width="5"></path></g><g id="minder_node33"><g id="node_expander32" style="cursor: pointer;" display="none"><path id="kity_path_284" fill="white" stroke="gray" d="M527.5,509.5A6,6,0,1,1,515.5,509.5A6,6,0,1,1,527.5,509.5"></path><path id="kity_path_285" fill="none" stroke="gray"></path></g><path id="node_outline33" fill="#ff0000" stroke="none" d="M532.5,500.5h236a5,5,0,0,1,5,5v8a5,5,0,0,1,-5,5h-236a5,5,0,0,1,-5,-5v-8a5,5,0,0,1,5,-5z" stroke-width="3"></path><g id="node_text33" fill="black"><text id="kity_text_281" text-rendering="inherit" font-size="12" dy=".8em" y="503.5" x="532.5">such as&#xa0;board/samsung/tiny210/board.c</text></g></g><g id="minder_node34"><g id="node_expander33" style="cursor: pointer;" display="none"><path id="kity_path_293" fill="white" stroke="gray" d="M404.5,535.5A6,6,0,1,1,392.5,535.5A6,6,0,1,1,404.5,535.5"></path><path id="kity_path_294" fill="none" stroke="gray"></path></g><path id="node_outline34" fill="#ff0000" stroke="none" d="M409.5,526.5h88a5,5,0,0,1,5,5v8a5,5,0,0,1,-5,5h-88a5,5,0,0,1,-5,-5v-8a5,5,0,0,1,5,-5z" stroke-width="3"></path><g id="node_text34" fill="black"><text id="kity_text_290" text-rendering="inherit" font-size="12" dy=".8em" y="529.5" x="409.5">copy_bl2_ddr()</text></g></g></g></g></svg>