<svg id="kity_svg_6" xmlns="http://www.w3.org/2000/svg" xmlns:xlink="http://www.w3.org/1999/xlink" version="1.1" width="566" height="616" style="background: rgb(251, 251, 251); visibility: visible;" viewBox="0 0 566 616"><defs id="kity_defs_7"><linearGradient id="kity_linearGradient_17" x1="0" y1="0" x2="0" y2="1"><stop id="kity_stop_18" offset="0" stop-color="rgb(255, 255, 255)"></stop><stop id="kity_stop_19" offset="1" stop-color="rgb(204, 204, 204)"></stop></linearGradient><marker id="kity_marker_2" orient="auto" refX="6" refY="0" viewBox="-7 -7 14 14" markerWidth="7" markerHeight="7" markerUnits="userSpaceOnUse"><path id="kity_path_3" fill="rgb(191, 115, 148)" stroke="none" d="M6,0A6,6,0,1,1,-6,0A6,6,0,1,1,6,0"></path></marker></defs><g id="kity_g_8"><g id="minder1" text-rendering="optimize-speed"><g id="minder_connect_group1"><path id="kity_path_304" fill="none" stroke="rgb(191, 115, 148)" stroke-width="1" d="M56.5,277.5A52,244,0,0,1,108.5,33.5"></path><path id="kity_path_312" fill="none" stroke="rgb(191, 115, 148)" stroke-width="1" d="M56.5,277.5A52,193,0,0,1,108.5,84.5"></path><path id="kity_path_328" fill="none" stroke="rgb(191, 115, 148)" stroke-width="1" d="M56.5,277.5A52,142,0,0,1,108.5,135.5"></path><path id="kity_path_336" fill="none" stroke="rgb(191, 115, 148)" stroke-width="1" d="M249.5,84.5C257.5,84.5,257.5,71.5,265.5,71.5"></path><path id="kity_path_344" fill="none" stroke="rgb(191, 115, 148)" stroke-width="1" d="M249.5,84.5C257.5,84.5,257.5,97.5,265.5,97.5"></path><path id="kity_path_352" fill="none" stroke="rgb(191, 115, 148)" stroke-width="1" d="M56.5,277.5A52,65,0,0,1,108.5,212.5"></path><path id="kity_path_360" fill="none" stroke="rgb(191, 115, 148)" stroke-width="1" d="M268.5,212.5C276.5,212.5,276.5,251.5,284.5,251.5"></path><path id="kity_path_376" fill="none" stroke="rgb(191, 115, 148)" stroke-width="1" d="M268.5,212.5C276.5,212.5,276.5,173.5,284.5,173.5"></path><path id="kity_path_384" fill="none" stroke="rgb(191, 115, 148)" stroke-width="1" d="M268.5,212.5C276.5,212.5,276.5,199.5,284.5,199.5"></path><path id="kity_path_400" fill="none" stroke="rgb(191, 115, 148)" stroke-width="1" d="M268.5,212.5C276.5,212.5,276.5,225.5,284.5,225.5"></path><path id="kity_path_408" fill="none" stroke="rgb(191, 115, 148)" stroke-width="1" d="M56.5,277.5A52,21,0,0,0,108.5,298.5"></path><path id="kity_path_416" fill="none" stroke="rgb(191, 115, 148)" stroke-width="1" d="M289.5,298.5C297.5,298.5,297.5,285.5,305.5,285.5"></path><path id="kity_path_424" fill="none" stroke="rgb(191, 115, 148)" stroke-width="1" d="M289.5,298.5C297.5,298.5,297.5,311.5,305.5,311.5"></path><path id="kity_path_432" fill="none" stroke="rgb(191, 115, 148)" stroke-width="1" d="M56.5,277.5A52,100,0,0,0,108.5,377.5"></path><path id="kity_path_440" fill="none" stroke="rgb(191, 115, 148)" stroke-width="1" d="M399.5,358.5C407.5,358.5,407.5,345.5,415.5,345.5"></path><path id="kity_path_448" fill="none" stroke="rgb(191, 115, 148)" stroke-width="1" d="M235.5,377.5C243.5,377.5,243.5,358.5,251.5,358.5"></path><path id="kity_path_456" fill="none" stroke="rgb(191, 115, 148)" stroke-width="1" d="M235.5,377.5C243.5,377.5,243.5,397.5,251.5,397.5"></path><path id="kity_path_472" fill="none" stroke="rgb(191, 115, 148)" stroke-width="1" d="M399.5,358.5C407.5,358.5,407.5,371.5,415.5,371.5"></path><path id="kity_path_480" fill="none" stroke="rgb(191, 115, 148)" stroke-width="1" d="M399.5,397.5C407.5,397.5,407.5,397.5,415.5,397.5"></path><path id="kity_path_488" fill="none" stroke="rgb(191, 115, 148)" stroke-width="1" d="M56.5,277.5A52,245,0,0,0,108.5,522.5"></path><path id="kity_path_496" fill="none" stroke="rgb(191, 115, 148)" stroke-width="1" d="M368.5,457.5C376.5,457.5,376.5,457.5,384.5,457.5"></path><path id="kity_path_504" fill="none" stroke="rgb(191, 115, 148)" stroke-width="1" d="M191.5,522.5C199.5,522.5,199.5,457.5,207.5,457.5"></path><path id="kity_path_512" fill="none" stroke="rgb(191, 115, 148)" stroke-width="1" d="M368.5,457.5C376.5,457.5,376.5,483.5,384.5,483.5"></path><path id="kity_path_520" fill="none" stroke="rgb(191, 115, 148)" stroke-width="1" d="M191.5,522.5C199.5,522.5,199.5,509.5,207.5,509.5"></path><path id="kity_path_528" fill="none" stroke="rgb(191, 115, 148)" stroke-width="1" d="M191.5,522.5C199.5,522.5,199.5,535.5,207.5,535.5"></path><path id="kity_path_536" fill="none" stroke="rgb(191, 115, 148)" stroke-width="1" d="M191.5,522.5C199.5,522.5,199.5,561.5,207.5,561.5"></path><path id="kity_path_544" fill="none" stroke="rgb(191, 115, 148)" stroke-width="1" d="M191.5,522.5C199.5,522.5,199.5,587.5,207.5,587.5"></path><path id="kity_path_552" fill="none" stroke="rgb(191, 115, 148)" stroke-width="1" d="M298.5,587.5C306.5,587.5,306.5,587.5,314.5,587.5"></path><path id="kity_path_560" fill="none" stroke="rgb(191, 115, 148)" stroke-width="1" d="M368.5,457.5C376.5,457.5,376.5,431.5,384.5,431.5"></path></g><g id="minder_node1"><path id="node_outline1" fill="rgb(191, 115, 148)" stroke="rgb(191, 115, 148)" d="M25.5,263.5h62a5,5,0,0,1,5,5v18a5,5,0,0,1,-5,5h-62a5,5,0,0,1,-5,-5v-18a5,5,0,0,1,5,-5z" stroke-width="3"></path><g id="node_text1" fill="white"><text id="kity_text_22" text-rendering="inherit" font-size="16" dy=".8em" y="269.5" x="32.5">armv8</text></g></g><g id="kity_g_14" display="none"><path id="kity_path_15" fill="rgba(153, 0, 66, 0.5)" stroke="none" d="M384.5,413.5h125v4h-125z"></path><path id="kity_path_16" fill="none" stroke="rgb(128, 0, 55)" d="M384.5,417.5L509.5,417.5" stroke-width="1"></path></g><g id="minder_node36"><g id="node_expander35" style="cursor: pointer;" display="none"><path id="kity_path_309" fill="white" stroke="gray" d="M109.5,33.5A6,6,0,1,1,97.5,33.5A6,6,0,1,1,109.5,33.5"></path><path id="kity_path_310" fill="none" stroke="gray"></path></g><path id="node_outline36" fill="rgb(246, 238, 242)" stroke="rgb(191, 115, 148)" d="M113.5,20.5h63a3,3,0,0,1,3,3v20a3,3,0,0,1,-3,3h-63a3,3,0,0,1,-3,-3v-20a3,3,0,0,1,3,-3z" stroke-width="1"></path><g id="node_text36" fill="black"><text id="kity_text_306" text-rendering="inherit" font-size="14" dy=".8em" y="26.5" x="130.5">start</text></g></g><g id="minder_node37"><g id="node_expander36" style="cursor: pointer;"><path id="kity_path_317" fill="white" stroke="gray" d="M109.5,84.5A6,6,0,1,1,97.5,84.5A6,6,0,1,1,109.5,84.5"></path><path id="kity_path_318" fill="none" stroke="gray" d="M99,84.5L108,84.5"></path></g><path id="node_outline37" fill="rgb(246, 238, 242)" stroke="rgb(191, 115, 148)" d="M113.5,71.5h133a3,3,0,0,1,3,3v20a3,3,0,0,1,-3,3h-133a3,3,0,0,1,-3,-3v-20a3,3,0,0,1,3,-3z" stroke-width="1"></path><g id="node_text37" fill="black"><text id="kity_text_314" text-rendering="inherit" font-size="14" dy=".8em" y="77.5" x="130.5">reset(optional)</text></g></g><g id="minder_node39"><g id="node_expander38" style="cursor: pointer;" display="none"><path id="kity_path_333" fill="white" stroke="gray" d="M109.5,135.5A6,6,0,1,1,97.5,135.5A6,6,0,1,1,109.5,135.5"></path><path id="kity_path_334" fill="none" stroke="gray"></path></g><path id="node_outline39" fill="rgb(246, 238, 242)" stroke="rgb(191, 115, 148)" d="M113.5,122.5h95a3,3,0,0,1,3,3v20a3,3,0,0,1,-3,3h-95a3,3,0,0,1,-3,-3v-20a3,3,0,0,1,3,-3z" stroke-width="1"></path><g id="node_text39" fill="black"><text id="kity_text_330" text-rendering="inherit" font-size="14" dy=".8em" y="128.5" x="130.5">switch_el</text></g></g><g id="minder_node40"><g id="node_expander39" style="cursor: pointer;" display="none"><path id="kity_path_341" fill="white" stroke="gray" d="M265.5,71.5A6,6,0,1,1,253.5,71.5A6,6,0,1,1,265.5,71.5"></path><path id="kity_path_342" fill="none" stroke="gray"></path></g><path id="node_outline40" fill="none" stroke="none" d="M270.5,62.5h64a5,5,0,0,1,5,5v8a5,5,0,0,1,-5,5h-64a5,5,0,0,1,-5,-5v-8a5,5,0,0,1,5,-5z" stroke-width="3"></path><g id="node_text40" fill="black"><text id="kity_text_338" text-rendering="inherit" font-size="12" dy=".8em" y="65.5" x="270.5">one is reset</text></g></g><g id="minder_node41"><g id="node_expander40" style="cursor: pointer;" display="none"><path id="kity_path_349" fill="white" stroke="gray" d="M265.5,97.5A6,6,0,1,1,253.5,97.5A6,6,0,1,1,265.5,97.5"></path><path id="kity_path_350" fill="none" stroke="gray"></path></g><path id="node_outline41" fill="none" stroke="none" d="M270.5,88.5h125a5,5,0,0,1,5,5v8a5,5,0,0,1,-5,5h-125a5,5,0,0,1,-5,-5v-8a5,5,0,0,1,5,-5z" stroke-width="3"></path><g id="node_text41" fill="black"><text id="kity_text_346" text-rendering="inherit" font-size="12" dy=".8em" y="91.5" x="270.5">one is user implement</text></g></g><g id="minder_node42"><g id="node_expander41" style="cursor: pointer;"><path id="kity_path_357" fill="white" stroke="gray" d="M109.5,212.5A6,6,0,1,1,97.5,212.5A6,6,0,1,1,109.5,212.5"></path><path id="kity_path_358" fill="none" stroke="gray" d="M99,212.5L108,212.5"></path></g><path id="node_outline42" fill="rgb(246, 238, 242)" stroke="rgb(191, 115, 148)" d="M113.5,199.5h152a3,3,0,0,1,3,3v20a3,3,0,0,1,-3,3h-152a3,3,0,0,1,-3,-3v-20a3,3,0,0,1,3,-3z" stroke-width="1"></path><g id="node_text42" fill="black"><text id="kity_text_354" text-rendering="inherit" font-size="14" dy=".8em" y="205.5" x="130.5">reset_sctrl register</text></g></g><g id="minder_node43"><g id="node_expander42" style="cursor: pointer;" display="none"><path id="kity_path_365" fill="white" stroke="gray" d="M284.5,251.5A6,6,0,1,1,272.5,251.5A6,6,0,1,1,284.5,251.5"></path><path id="kity_path_366" fill="none" stroke="gray"></path></g><path id="node_outline43" fill="none" stroke="none" d="M289.5,242.5h147a5,5,0,0,1,5,5v8a5,5,0,0,1,-5,5h-147a5,5,0,0,1,-5,-5v-8a5,5,0,0,1,5,-5z" stroke-width="3"></path><g id="node_text43" fill="black"><text id="kity_text_362" text-rendering="inherit" font-size="12" dy=".8em" y="245.5" x="289.5">tlbi: invalidate instructions</text></g></g><g id="minder_node45" opacity="1"><g id="node_expander44" style="cursor: pointer;" display="none"><path id="kity_path_381" fill="white" stroke="gray" d="M284.5,173.5A6,6,0,1,1,272.5,173.5A6,6,0,1,1,284.5,173.5"></path><path id="kity_path_382" fill="none" stroke="gray"></path></g><path id="node_outline45" fill="none" stroke="none" d="M289.5,164.5h70a5,5,0,0,1,5,5v8a5,5,0,0,1,-5,5h-70a5,5,0,0,1,-5,-5v-8a5,5,0,0,1,5,-5z" stroke-width="3"></path><g id="node_text45" fill="black"><text id="kity_text_378" text-rendering="inherit" font-size="12" dy=".8em" y="167.5" x="289.5">diable MMU</text></g></g><g id="minder_node46"><g id="node_expander45" style="cursor: pointer;" display="none"><path id="kity_path_389" fill="white" stroke="gray" d="M284.5,199.5A6,6,0,1,1,272.5,199.5A6,6,0,1,1,284.5,199.5"></path><path id="kity_path_390" fill="none" stroke="gray"></path></g><path id="node_outline46" fill="none" stroke="none" d="M289.5,190.5h86a5,5,0,0,1,5,5v8a5,5,0,0,1,-5,5h-86a5,5,0,0,1,-5,-5v-8a5,5,0,0,1,5,-5z" stroke-width="3"></path><g id="node_text46" fill="black"><text id="kity_text_386" text-rendering="inherit" font-size="12" dy=".8em" y="193.5" x="289.5">disable Cache</text></g></g><g id="minder_node48"><g id="node_expander47" style="cursor: pointer;" display="none"><path id="kity_path_405" fill="white" stroke="gray" d="M284.5,225.5A6,6,0,1,1,272.5,225.5A6,6,0,1,1,284.5,225.5"></path><path id="kity_path_406" fill="none" stroke="gray"></path></g><path id="node_outline48" fill="none" stroke="none" d="M289.5,216.5h87a5,5,0,0,1,5,5v8a5,5,0,0,1,-5,5h-87a5,5,0,0,1,-5,-5v-8a5,5,0,0,1,5,-5z" stroke-width="3"></path><g id="node_text48" fill="black"><text id="kity_text_402" text-rendering="inherit" font-size="12" dy=".8em" y="219.5" x="289.5">set little endian</text></g></g><g id="minder_node49"><g id="node_expander48" style="cursor: pointer;"><path id="kity_path_413" fill="white" stroke="gray" d="M109.5,298.5A6,6,0,1,1,97.5,298.5A6,6,0,1,1,109.5,298.5"></path><path id="kity_path_414" fill="none" stroke="gray" d="M99,298.5L108,298.5"></path></g><path id="node_outline49" fill="rgb(246, 238, 242)" stroke="rgb(191, 115, 148)" d="M113.5,285.5h173a3,3,0,0,1,3,3v20a3,3,0,0,1,-3,3h-173a3,3,0,0,1,-3,-3v-20a3,3,0,0,1,3,-3z" stroke-width="1"></path><g id="node_text49" fill="black"><text id="kity_text_410" text-rendering="inherit" font-size="14" dy=".8em" y="291.5" x="130.5">set exception vector</text></g></g><g id="minder_node50"><g id="node_expander49" style="cursor: pointer;" display="none"><path id="kity_path_421" fill="white" stroke="gray" d="M305.5,285.5A6,6,0,1,1,293.5,285.5A6,6,0,1,1,305.5,285.5"></path><path id="kity_path_422" fill="none" stroke="gray"></path></g><path id="node_outline50" fill="none" stroke="none" d="M310.5,276.5h85a5,5,0,0,1,5,5v8a5,5,0,0,1,-5,5h-85a5,5,0,0,1,-5,-5v-8a5,5,0,0,1,5,-5z" stroke-width="3"></path><g id="node_text50" fill="black"><text id="kity_text_418" text-rendering="inherit" font-size="12" dy=".8em" y="279.5" x="310.5">disable FP trap</text></g></g><g id="minder_node51"><g id="node_expander50" style="cursor: pointer;" display="none"><path id="kity_path_429" fill="white" stroke="gray" d="M305.5,311.5A6,6,0,1,1,293.5,311.5A6,6,0,1,1,305.5,311.5"></path><path id="kity_path_430" fill="none" stroke="gray"></path></g><path id="node_outline51" fill="none" stroke="none" d="M310.5,302.5h101a5,5,0,0,1,5,5v8a5,5,0,0,1,-5,5h-101a5,5,0,0,1,-5,-5v-8a5,5,0,0,1,5,-5z" stroke-width="3"></path><g id="node_text51" fill="black"><text id="kity_text_426" text-rendering="inherit" font-size="12" dy=".8em" y="305.5" x="310.5">disable SIMD trap</text></g></g><g id="minder_node52"><g id="node_expander51" style="cursor: pointer;"><path id="kity_path_437" fill="white" stroke="gray" d="M109.5,377.5A6,6,0,1,1,97.5,377.5A6,6,0,1,1,109.5,377.5"></path><path id="kity_path_438" fill="none" stroke="gray" d="M99,377.5L108,377.5"></path></g><path id="node_outline52" fill="rgb(246, 238, 242)" stroke="rgb(191, 115, 148)" d="M113.5,364.5h119a3,3,0,0,1,3,3v20a3,3,0,0,1,-3,3h-119a3,3,0,0,1,-3,-3v-20a3,3,0,0,1,3,-3z" stroke-width="1"></path><g id="node_text52" fill="black"><text id="kity_text_434" text-rendering="inherit" font-size="14" dy=".8em" y="370.5" x="130.5">low_level init</text></g></g><g id="minder_node53" opacity="1"><g id="node_expander52" style="cursor: pointer;" display="none"><path id="kity_path_445" fill="white" stroke="gray" d="M415.5,345.5A6,6,0,1,1,403.5,345.5A6,6,0,1,1,415.5,345.5"></path><path id="kity_path_446" fill="none" stroke="gray"></path></g><path id="node_outline53" fill="none" stroke="none" d="M420.5,336.5h42a5,5,0,0,1,5,5v8a5,5,0,0,1,-5,5h-42a5,5,0,0,1,-5,-5v-8a5,5,0,0,1,5,-5z" stroke-width="3"></path><g id="node_text53" fill="black"><text id="kity_text_442" text-rendering="inherit" font-size="12" dy=".8em" y="339.5" x="420.5">GIC init</text></g></g><g id="minder_node54"><g id="node_expander53" style="cursor: pointer;"><path id="kity_path_453" fill="white" stroke="gray" d="M251.5,358.5A6,6,0,1,1,239.5,358.5A6,6,0,1,1,251.5,358.5"></path><path id="kity_path_454" fill="none" stroke="gray" d="M241,358.5L250,358.5"></path></g><path id="node_outline54" fill="none" stroke="none" d="M256.5,349.5h138a5,5,0,0,1,5,5v8a5,5,0,0,1,-5,5h-138a5,5,0,0,1,-5,-5v-8a5,5,0,0,1,5,-5z" stroke-width="3"></path><g id="node_text54" fill="black"><text id="kity_text_450" text-rendering="inherit" font-size="12" dy=".8em" y="352.5" x="256.5">one is armv8 implement</text></g></g><g id="minder_node55"><g id="node_expander54" style="cursor: pointer;"><path id="kity_path_461" fill="white" stroke="gray" d="M251.5,397.5A6,6,0,1,1,239.5,397.5A6,6,0,1,1,251.5,397.5"></path><path id="kity_path_462" fill="none" stroke="gray" d="M241,397.5L250,397.5"></path></g><path id="node_outline55" fill="none" stroke="none" d="M256.5,388.5h138a5,5,0,0,1,5,5v8a5,5,0,0,1,-5,5h-138a5,5,0,0,1,-5,-5v-8a5,5,0,0,1,5,-5z" stroke-width="3"></path><g id="node_text55" fill="black"><text id="kity_text_458" text-rendering="inherit" font-size="12" dy=".8em" y="391.5" x="256.5">one is board implement</text></g></g><g id="minder_node57"><g id="node_expander56" style="cursor: pointer;" display="none"><path id="kity_path_477" fill="white" stroke="gray" d="M415.5,371.5A6,6,0,1,1,403.5,371.5A6,6,0,1,1,415.5,371.5"></path><path id="kity_path_478" fill="none" stroke="gray"></path></g><path id="node_outline57" fill="none" stroke="none" d="M420.5,362.5h121a5,5,0,0,1,5,5v8a5,5,0,0,1,-5,5h-121a5,5,0,0,1,-5,-5v-8a5,5,0,0,1,5,-5z" stroke-width="3"></path><g id="node_text57" fill="black"><text id="kity_text_474" text-rendering="inherit" font-size="12" dy=".8em" y="365.5" x="420.5">WFE secondary CPUs</text></g></g><g id="minder_node58"><g id="node_expander57" style="cursor: pointer;" display="none"><path id="kity_path_485" fill="white" stroke="gray" d="M415.5,397.5A6,6,0,1,1,403.5,397.5A6,6,0,1,1,415.5,397.5"></path><path id="kity_path_486" fill="none" stroke="gray"></path></g><path id="node_outline58" fill="#ff0000" stroke="none" d="M420.5,388.5h120a5,5,0,0,1,5,5v8a5,5,0,0,1,-5,5h-120a5,5,0,0,1,-5,-5v-8a5,5,0,0,1,5,-5z" stroke-width="3"></path><g id="node_text58" fill="black"><text id="kity_text_482" text-rendering="inherit" font-size="12" dy=".8em" y="391.5" x="420.5">on board implement</text></g></g><g id="minder_node59"><g id="node_expander58" style="cursor: pointer;"><path id="kity_path_493" fill="white" stroke="gray" d="M109.5,522.5A6,6,0,1,1,97.5,522.5A6,6,0,1,1,109.5,522.5"></path><path id="kity_path_494" fill="none" stroke="gray" d="M99,522.5L108,522.5"></path></g><path id="node_outline59" fill="rgb(246, 238, 242)" stroke="rgb(191, 115, 148)" d="M113.5,509.5h75a3,3,0,0,1,3,3v20a3,3,0,0,1,-3,3h-75a3,3,0,0,1,-3,-3v-20a3,3,0,0,1,3,-3z" stroke-width="1"></path><g id="node_text59" fill="black"><text id="kity_text_490" text-rendering="inherit" font-size="14" dy=".8em" y="515.5" x="130.5">_main</text></g></g><g id="minder_node60" opacity="1"><g id="node_expander59" style="cursor: pointer;" display="none"><path id="kity_path_501" fill="white" stroke="gray" d="M384.5,457.5A6,6,0,1,1,372.5,457.5A6,6,0,1,1,384.5,457.5"></path><path id="kity_path_502" fill="none" stroke="gray"></path></g><path id="node_outline60" fill="none" stroke="none" d="M389.5,448.5h115a5,5,0,0,1,5,5v8a5,5,0,0,1,-5,5h-115a5,5,0,0,1,-5,-5v-8a5,5,0,0,1,5,-5z" stroke-width="3"></path><g id="node_text60" fill="black"><text id="kity_text_498" text-rendering="inherit" font-size="12" dy=".8em" y="451.5" x="389.5">CONFIG_SPL_STACK</text></g></g><g id="minder_node61" opacity="1"><g id="node_expander60" style="cursor: pointer;"><path id="kity_path_509" fill="white" stroke="gray" d="M207.5,457.5A6,6,0,1,1,195.5,457.5A6,6,0,1,1,207.5,457.5"></path><path id="kity_path_510" fill="none" stroke="gray" d="M197,457.5L206,457.5"></path></g><path id="node_outline61" fill="none" stroke="none" d="M212.5,448.5h151a5,5,0,0,1,5,5v8a5,5,0,0,1,-5,5h-151a5,5,0,0,1,-5,-5v-8a5,5,0,0,1,5,-5z" stroke-width="3"></path><g id="node_text61" fill="black"><text id="kity_text_506" text-rendering="inherit" font-size="12" dy=".8em" y="451.5" x="212.5">board_init_f_alloc_reserve</text></g></g><g id="minder_node62"><g id="node_expander61" style="cursor: pointer;" display="none"><path id="kity_path_517" fill="white" stroke="gray" d="M384.5,483.5A6,6,0,1,1,372.5,483.5A6,6,0,1,1,384.5,483.5"></path><path id="kity_path_518" fill="none" stroke="gray"></path></g><path id="node_outline62" fill="none" stroke="none" d="M389.5,474.5h37a5,5,0,0,1,5,5v8a5,5,0,0,1,-5,5h-37a5,5,0,0,1,-5,-5v-8a5,5,0,0,1,5,-5z" stroke-width="3"></path><g id="node_text62" fill="black"><text id="kity_text_514" text-rendering="inherit" font-size="12" dy=".8em" y="477.5" x="389.5">GP init</text></g></g><g id="minder_node63"><g id="node_expander62" style="cursor: pointer;" display="none"><path id="kity_path_525" fill="white" stroke="gray" d="M207.5,509.5A6,6,0,1,1,195.5,509.5A6,6,0,1,1,207.5,509.5"></path><path id="kity_path_526" fill="none" stroke="gray"></path></g><path id="node_outline63" fill="none" stroke="none" d="M212.5,500.5h48a5,5,0,0,1,5,5v8a5,5,0,0,1,-5,5h-48a5,5,0,0,1,-5,-5v-8a5,5,0,0,1,5,-5z" stroke-width="3"></path><g id="node_text63" fill="black"><text id="kity_text_522" text-rendering="inherit" font-size="12" dy=".8em" y="503.5" x="212.5">timer init</text></g></g><g id="minder_node64"><g id="node_expander63" style="cursor: pointer;" display="none"><path id="kity_path_533" fill="white" stroke="gray" d="M207.5,535.5A6,6,0,1,1,195.5,535.5A6,6,0,1,1,207.5,535.5"></path><path id="kity_path_534" fill="none" stroke="gray"></path></g><path id="node_outline64" fill="none" stroke="none" d="M212.5,526.5h42a5,5,0,0,1,5,5v8a5,5,0,0,1,-5,5h-42a5,5,0,0,1,-5,-5v-8a5,5,0,0,1,5,-5z" stroke-width="3"></path><g id="node_text64" fill="black"><text id="kity_text_530" text-rendering="inherit" font-size="12" dy=".8em" y="529.5" x="212.5">uart init</text></g></g><g id="minder_node65"><g id="node_expander64" style="cursor: pointer;" display="none"><path id="kity_path_541" fill="white" stroke="gray" d="M207.5,561.5A6,6,0,1,1,195.5,561.5A6,6,0,1,1,207.5,561.5"></path><path id="kity_path_542" fill="none" stroke="gray"></path></g><path id="node_outline65" fill="none" stroke="none" d="M212.5,552.5h132a5,5,0,0,1,5,5v8a5,5,0,0,1,-5,5h-132a5,5,0,0,1,-5,-5v-8a5,5,0,0,1,5,-5z" stroke-width="3"></path><g id="node_text65" fill="black"><text id="kity_text_538" text-rendering="inherit" font-size="12" dy=".8em" y="555.5" x="212.5">preloader_console_init</text></g></g><g id="minder_node66"><g id="node_expander65" style="cursor: pointer;"><path id="kity_path_549" fill="white" stroke="gray" d="M207.5,587.5A6,6,0,1,1,195.5,587.5A6,6,0,1,1,207.5,587.5"></path><path id="kity_path_550" fill="none" stroke="gray" d="M197,587.5L206,587.5"></path></g><path id="node_outline66" fill="none" stroke="none" d="M212.5,578.5h81a5,5,0,0,1,5,5v8a5,5,0,0,1,-5,5h-81a5,5,0,0,1,-5,-5v-8a5,5,0,0,1,5,-5z" stroke-width="3"></path><g id="node_text66" fill="black"><text id="kity_text_546" text-rendering="inherit" font-size="12" dy=".8em" y="581.5" x="212.5">load/jump bl2</text></g></g><g id="minder_node67"><g id="node_expander66" style="cursor: pointer;" display="none"><path id="kity_path_557" fill="white" stroke="gray" d="M314.5,587.5A6,6,0,1,1,302.5,587.5A6,6,0,1,1,314.5,587.5"></path><path id="kity_path_558" fill="none" stroke="gray"></path></g><path id="node_outline67" fill="#ff0000" stroke="none" d="M319.5,578.5h68a5,5,0,0,1,5,5v8a5,5,0,0,1,-5,5h-68a5,5,0,0,1,-5,-5v-8a5,5,0,0,1,5,-5z" stroke-width="3"></path><g id="node_text67" fill="black"><text id="kity_text_554" text-rendering="inherit" font-size="12" dy=".8em" y="581.5" x="319.5">board_init_r</text></g></g><g id="minder_node68" opacity="1"><g id="node_expander67" style="cursor: pointer;" display="none"><path id="kity_path_565" fill="white" stroke="gray" d="M384.5,431.5A6,6,0,1,1,372.5,431.5A6,6,0,1,1,384.5,431.5"></path><path id="kity_path_566" fill="none" stroke="gray"></path></g><path id="node_outline68" fill="none" stroke="none" d="M389.5,422.5h36a5,5,0,0,1,5,5v8a5,5,0,0,1,-5,5h-36a5,5,0,0,1,-5,-5v-8a5,5,0,0,1,5,-5z" stroke-width="3"></path><g id="node_text68" fill="black"><text id="kity_text_562" text-rendering="inherit" font-size="12" dy=".8em" y="425.5" x="389.5">C ENV</text></g></g><g id="kity_g_12" display="none"><path id="kity_path_13" fill="none" stroke="rgb(112, 66, 86)" d="M389.5,422.5h115a5,5,0,0,1,5,5v8a5,5,0,0,1,-5,5h-115a5,5,0,0,1,-5,-5v-8a5,5,0,0,1,5,-5z" stroke-width="5"></path></g></g></g></svg>