<svg id="kity_svg_6" xmlns="http://www.w3.org/2000/svg" xmlns:xlink="http://www.w3.org/1999/xlink" version="1.1" width="638" height="906" style="background: rgb(251, 251, 251); visibility: visible;" viewBox="0 0 638 906"><defs id="kity_defs_7"><linearGradient id="kity_linearGradient_17" x1="0" y1="0" x2="0" y2="1"><stop id="kity_stop_18" offset="0" stop-color="rgb(255, 255, 255)"></stop><stop id="kity_stop_19" offset="1" stop-color="rgb(204, 204, 204)"></stop></linearGradient><marker id="kity_marker_2" orient="auto" refX="6" refY="0" viewBox="-7 -7 14 14" markerWidth="7" markerHeight="7" markerUnits="userSpaceOnUse"><path id="kity_path_3" fill="rgb(115, 161, 191)" stroke="none" d="M6,0A6,6,0,1,1,-6,0A6,6,0,1,1,6,0"></path></marker></defs><g id="kity_g_8"><g id="minder1" text-rendering="optimize-speed"><g id="minder_connect_group1"><path id="kity_path_31" fill="none" stroke="rgb(115, 161, 191)" stroke-width="1" d="M51.5,433.5A47,294,0,0,1,98.5,139.5"></path><path id="kity_path_39" fill="none" stroke="rgb(115, 161, 191)" stroke-width="1" d="M168.5,139.5C176.5,139.5,176.5,42.5,184.5,42.5"></path><path id="kity_path_47" fill="none" stroke="rgb(115, 161, 191)" stroke-width="1" d="M168.5,139.5C176.5,139.5,176.5,81.5,184.5,81.5"></path><path id="kity_path_55" fill="none" stroke="rgb(115, 161, 191)" stroke-width="1" d="M230.5,42.5C238.5,42.5,238.5,29.5,246.5,29.5"></path><path id="kity_path_63" fill="none" stroke="rgb(115, 161, 191)" stroke-width="1" d="M230.5,42.5C238.5,42.5,238.5,55.5,246.5,55.5"></path><path id="kity_path_79" fill="none" stroke="rgb(115, 161, 191)" stroke-width="1" d="M168.5,139.5C176.5,139.5,176.5,107.5,184.5,107.5"></path><path id="kity_path_87" fill="none" stroke="rgb(115, 161, 191)" stroke-width="1" d="M168.5,139.5C176.5,139.5,176.5,133.5,184.5,133.5"></path><path id="kity_path_95" fill="none" stroke="rgb(115, 161, 191)" stroke-width="1" d="M168.5,139.5C176.5,139.5,176.5,159.5,184.5,159.5"></path><path id="kity_path_103" fill="none" stroke="rgb(115, 161, 191)" stroke-width="1" d="M168.5,139.5C176.5,139.5,176.5,185.5,184.5,185.5"></path><path id="kity_path_111" fill="none" stroke="rgb(115, 161, 191)" stroke-width="1" d="M168.5,139.5C176.5,139.5,176.5,211.5,184.5,211.5"></path><path id="kity_path_119" fill="none" stroke="rgb(115, 161, 191)" stroke-width="1" d="M168.5,139.5C176.5,139.5,176.5,237.5,184.5,237.5"></path><path id="kity_path_127" fill="none" stroke="rgb(115, 161, 191)" stroke-width="1" d="M51.5,433.5A47,32,0,0,1,98.5,401.5"></path><path id="kity_path_135" fill="none" stroke="rgb(115, 161, 191)" stroke-width="1" d="M196.5,401.5C204.5,401.5,204.5,271.5,212.5,271.5"></path><path id="kity_path_143" fill="none" stroke="rgb(115, 161, 191)" stroke-width="1" d="M196.5,401.5C204.5,401.5,204.5,297.5,212.5,297.5"></path><path id="kity_path_151" fill="none" stroke="rgb(115, 161, 191)" stroke-width="1" d="M196.5,401.5C204.5,401.5,204.5,323.5,212.5,323.5"></path><path id="kity_path_159" fill="none" stroke="rgb(115, 161, 191)" stroke-width="1" d="M196.5,401.5C204.5,401.5,204.5,349.5,212.5,349.5"></path><path id="kity_path_167" fill="none" stroke="rgb(115, 161, 191)" stroke-width="1" d="M196.5,401.5C204.5,401.5,204.5,375.5,212.5,375.5"></path><path id="kity_path_175" fill="none" stroke="rgb(115, 161, 191)" stroke-width="1" d="M196.5,401.5C204.5,401.5,204.5,401.5,212.5,401.5"></path><path id="kity_path_183" fill="none" stroke="rgb(115, 161, 191)" stroke-width="1" d="M196.5,401.5C204.5,401.5,204.5,427.5,212.5,427.5"></path><path id="kity_path_191" fill="none" stroke="rgb(115, 161, 191)" stroke-width="1" d="M196.5,401.5C204.5,401.5,204.5,453.5,212.5,453.5"></path><path id="kity_path_199" fill="none" stroke="rgb(115, 161, 191)" stroke-width="1" d="M196.5,401.5C204.5,401.5,204.5,479.5,212.5,479.5"></path><path id="kity_path_207" fill="none" stroke="rgb(115, 161, 191)" stroke-width="1" d="M196.5,401.5C204.5,401.5,204.5,505.5,212.5,505.5"></path><path id="kity_path_215" fill="none" stroke="rgb(115, 161, 191)" stroke-width="1" d="M196.5,401.5C204.5,401.5,204.5,531.5,212.5,531.5"></path><path id="kity_path_223" fill="none" stroke="rgb(115, 161, 191)" stroke-width="1" d="M51.5,433.5A47,294,0,0,0,98.5,727.5"></path><path id="kity_path_231" fill="none" stroke="rgb(115, 161, 191)" stroke-width="1" d="M224.5,727.5C232.5,727.5,232.5,578.5,240.5,578.5"></path><path id="kity_path_239" fill="none" stroke="rgb(115, 161, 191)" stroke-width="1" d="M296.5,578.5C304.5,578.5,304.5,565.5,312.5,565.5"></path><path id="kity_path_247" fill="none" stroke="rgb(115, 161, 191)" stroke-width="1" d="M296.5,578.5C304.5,578.5,304.5,591.5,312.5,591.5"></path><path id="kity_path_255" fill="none" stroke="rgb(115, 161, 191)" stroke-width="1" d="M224.5,727.5C232.5,727.5,232.5,643.5,240.5,643.5"></path><path id="kity_path_263" fill="none" stroke="rgb(115, 161, 191)" stroke-width="1" d="M277.5,643.5C285.5,643.5,285.5,617.5,293.5,617.5"></path><path id="kity_path_271" fill="none" stroke="rgb(115, 161, 191)" stroke-width="1" d="M277.5,643.5C285.5,643.5,285.5,643.5,293.5,643.5"></path><path id="kity_path_279" fill="none" stroke="rgb(115, 161, 191)" stroke-width="1" d="M277.5,643.5C285.5,643.5,285.5,669.5,293.5,669.5"></path><path id="kity_path_287" fill="none" stroke="rgb(115, 161, 191)" stroke-width="1" d="M224.5,727.5C232.5,727.5,232.5,708.5,240.5,708.5"></path><path id="kity_path_295" fill="none" stroke="rgb(115, 161, 191)" stroke-width="1" d="M289.5,708.5C297.5,708.5,297.5,695.5,305.5,695.5"></path><path id="kity_path_303" fill="none" stroke="rgb(115, 161, 191)" stroke-width="1" d="M289.5,708.5C297.5,708.5,297.5,721.5,305.5,721.5"></path><path id="kity_path_311" fill="none" stroke="rgb(115, 161, 191)" stroke-width="1" d="M224.5,727.5C232.5,727.5,232.5,786.5,240.5,786.5"></path><path id="kity_path_319" fill="none" stroke="rgb(115, 161, 191)" stroke-width="1" d="M347.5,786.5C355.5,786.5,355.5,747.5,363.5,747.5"></path><path id="kity_path_327" fill="none" stroke="rgb(115, 161, 191)" stroke-width="1" d="M347.5,786.5C355.5,786.5,355.5,773.5,363.5,773.5"></path><path id="kity_path_335" fill="none" stroke="rgb(115, 161, 191)" stroke-width="1" d="M347.5,786.5C355.5,786.5,355.5,799.5,363.5,799.5"></path><path id="kity_path_343" fill="none" stroke="rgb(115, 161, 191)" stroke-width="1" d="M347.5,786.5C355.5,786.5,355.5,825.5,363.5,825.5"></path><path id="kity_path_351" fill="none" stroke="rgb(115, 161, 191)" stroke-width="1" d="M224.5,727.5C232.5,727.5,232.5,851.5,240.5,851.5"></path><path id="kity_path_359" fill="none" stroke="rgb(115, 161, 191)" stroke-width="1" d="M224.5,727.5C232.5,727.5,232.5,877.5,240.5,877.5"></path></g><g id="minder_node1"><path id="node_outline1" fill="rgb(115, 161, 191)" stroke="rgb(115, 161, 191)" d="M25.5,419.5h52a5,5,0,0,1,5,5v18a5,5,0,0,1,-5,5h-52a5,5,0,0,1,-5,-5v-18a5,5,0,0,1,5,-5z" stroke-width="3"></path><g id="node_text1" fill="white"><text id="kity_text_22" text-rendering="inherit" font-size="16" dy=".8em" y="425.5" x="32.5">RTOS</text></g></g><g id="kity_g_12"><path id="kity_path_13" fill="none" stroke="none" d="M32.5,433.5h0v0h0z"></path></g><g id="kity_g_14"><path id="kity_path_15" fill="none" stroke="none" d="M32.5,433.5h0v0h0z"></path><path id="kity_path_16" fill="none" stroke="none"></path></g><g id="minder_node2"><g id="node_expander1" style="cursor: pointer;"><path id="kity_path_36" fill="white" stroke="gray" d="M99.5,139.5A6,6,0,1,1,87.5,139.5A6,6,0,1,1,99.5,139.5"></path><path id="kity_path_37" fill="none" stroke="gray" d="M89,139.5L98,139.5"></path></g><path id="node_outline2" fill="rgb(238, 243, 246)" stroke="rgb(115, 161, 191)" d="M103.5,126.5h62a3,3,0,0,1,3,3v20a3,3,0,0,1,-3,3h-62a3,3,0,0,1,-3,-3v-20a3,3,0,0,1,3,-3z" stroke-width="1"></path><g id="node_text2" fill="black"><text id="kity_text_33" text-rendering="inherit" font-size="14" dy=".8em" y="132.5" x="120.5">特点</text></g></g><g id="minder_node3"><g id="node_expander2" style="cursor: pointer;"><path id="kity_path_44" fill="white" stroke="gray" d="M184.5,42.5A6,6,0,1,1,172.5,42.5A6,6,0,1,1,184.5,42.5"></path><path id="kity_path_45" fill="none" stroke="gray" d="M174,42.5L183,42.5"></path></g><path id="node_outline3" fill="#ff0000" stroke="none" d="M189.5,33.5h36a5,5,0,0,1,5,5v8a5,5,0,0,1,-5,5h-36a5,5,0,0,1,-5,-5v-8a5,5,0,0,1,5,-5z" stroke-width="3"></path><g id="node_text3" fill="black"><text id="kity_text_41" text-rendering="inherit" font-size="12" dy=".8em" y="36.5" x="189.5">实时性</text></g></g><g id="minder_node4"><g id="node_expander3" style="cursor: pointer;" display="none"><path id="kity_path_52" fill="white" stroke="gray" d="M184.5,81.5A6,6,0,1,1,172.5,81.5A6,6,0,1,1,184.5,81.5"></path><path id="kity_path_53" fill="none" stroke="gray" d="M174,81.5L183,81.5"></path></g><path id="node_outline4" fill="#ff0000" stroke="none" d="M189.5,72.5h48a5,5,0,0,1,5,5v8a5,5,0,0,1,-5,5h-48a5,5,0,0,1,-5,-5v-8a5,5,0,0,1,5,-5z" stroke-width="3"></path><g id="node_text4" fill="black"><text id="kity_text_49" text-rendering="inherit" font-size="12" dy=".8em" y="75.5" x="189.5">可确定性</text></g></g><g id="minder_node5"><g id="node_expander4" style="cursor: pointer;" display="none"><path id="kity_path_60" fill="white" stroke="gray" d="M246.5,29.5A6,6,0,1,1,234.5,29.5A6,6,0,1,1,246.5,29.5"></path><path id="kity_path_61" fill="none" stroke="gray"></path></g><path id="node_outline5" fill="none" stroke="none" d="M251.5,20.5h36a5,5,0,0,1,5,5v8a5,5,0,0,1,-5,5h-36a5,5,0,0,1,-5,-5v-8a5,5,0,0,1,5,-5z" stroke-width="3"></path><g id="node_text5" fill="black"><text id="kity_text_57" text-rendering="inherit" font-size="12" dy=".8em" y="23.5" x="251.5">硬实时</text></g></g><g id="minder_node6"><g id="node_expander5" style="cursor: pointer;" display="none"><path id="kity_path_68" fill="white" stroke="gray" d="M246.5,55.5A6,6,0,1,1,234.5,55.5A6,6,0,1,1,246.5,55.5"></path><path id="kity_path_69" fill="none" stroke="gray"></path></g><path id="node_outline6" fill="none" stroke="none" d="M251.5,46.5h36a5,5,0,0,1,5,5v8a5,5,0,0,1,-5,5h-36a5,5,0,0,1,-5,-5v-8a5,5,0,0,1,5,-5z" stroke-width="3"></path><g id="node_text6" fill="black"><text id="kity_text_65" text-rendering="inherit" font-size="12" dy=".8em" y="49.5" x="251.5">软实时</text></g></g><g id="minder_node8"><g id="node_expander7" style="cursor: pointer;" display="none"><path id="kity_path_84" fill="white" stroke="gray" d="M184.5,107.5A6,6,0,1,1,172.5,107.5A6,6,0,1,1,184.5,107.5"></path><path id="kity_path_85" fill="none" stroke="gray"></path></g><path id="node_outline8" fill="#ff0000" stroke="none" d="M189.5,98.5h36a5,5,0,0,1,5,5v8a5,5,0,0,1,-5,5h-36a5,5,0,0,1,-5,-5v-8a5,5,0,0,1,5,-5z" stroke-width="3"></path><g id="node_text8" fill="black"><text id="kity_text_81" text-rendering="inherit" font-size="12" dy=".8em" y="101.5" x="189.5">并发性</text></g></g><g id="minder_node9"><g id="node_expander8" style="cursor: pointer;" display="none"><path id="kity_path_92" fill="white" stroke="gray" d="M184.5,133.5A6,6,0,1,1,172.5,133.5A6,6,0,1,1,184.5,133.5"></path><path id="kity_path_93" fill="none" stroke="gray"></path></g><path id="node_outline9" fill="none" stroke="none" d="M189.5,124.5h48a5,5,0,0,1,5,5v8a5,5,0,0,1,-5,5h-48a5,5,0,0,1,-5,-5v-8a5,5,0,0,1,5,-5z" stroke-width="3"></path><g id="node_text9" fill="black"><text id="kity_text_89" text-rendering="inherit" font-size="12" dy=".8em" y="127.5" x="189.5">高可信性</text></g></g><g id="minder_node10"><g id="node_expander9" style="cursor: pointer;" display="none"><path id="kity_path_100" fill="white" stroke="gray" d="M184.5,159.5A6,6,0,1,1,172.5,159.5A6,6,0,1,1,184.5,159.5"></path><path id="kity_path_101" fill="none" stroke="gray"></path></g><path id="node_outline10" fill="none" stroke="none" d="M189.5,150.5h36a5,5,0,0,1,5,5v8a5,5,0,0,1,-5,5h-36a5,5,0,0,1,-5,-5v-8a5,5,0,0,1,5,-5z" stroke-width="3"></path><g id="node_text10" fill="black"><text id="kity_text_97" text-rendering="inherit" font-size="12" dy=".8em" y="153.5" x="189.5">安全性</text></g></g><g id="minder_node11"><g id="node_expander10" style="cursor: pointer;" display="none"><path id="kity_path_108" fill="white" stroke="gray" d="M184.5,185.5A6,6,0,1,1,172.5,185.5A6,6,0,1,1,184.5,185.5"></path><path id="kity_path_109" fill="none" stroke="gray"></path></g><path id="node_outline11" fill="none" stroke="none" d="M189.5,176.5h48a5,5,0,0,1,5,5v8a5,5,0,0,1,-5,5h-48a5,5,0,0,1,-5,-5v-8a5,5,0,0,1,5,-5z" stroke-width="3"></path><g id="node_text11" fill="black"><text id="kity_text_105" text-rendering="inherit" font-size="12" dy=".8em" y="179.5" x="189.5">可嵌入性</text></g></g><g id="minder_node12"><g id="node_expander11" style="cursor: pointer;" display="none"><path id="kity_path_116" fill="white" stroke="gray" d="M184.5,211.5A6,6,0,1,1,172.5,211.5A6,6,0,1,1,184.5,211.5"></path><path id="kity_path_117" fill="none" stroke="gray"></path></g><path id="node_outline12" fill="none" stroke="none" d="M189.5,202.5h48a5,5,0,0,1,5,5v8a5,5,0,0,1,-5,5h-48a5,5,0,0,1,-5,-5v-8a5,5,0,0,1,5,-5z" stroke-width="3"></path><g id="node_text12" fill="black"><text id="kity_text_113" text-rendering="inherit" font-size="12" dy=".8em" y="205.5" x="189.5">可剪裁性</text></g></g><g id="minder_node13"><g id="node_expander12" style="cursor: pointer;" display="none"><path id="kity_path_124" fill="white" stroke="gray" d="M184.5,237.5A6,6,0,1,1,172.5,237.5A6,6,0,1,1,184.5,237.5"></path><path id="kity_path_125" fill="none" stroke="gray"></path></g><path id="node_outline13" fill="none" stroke="none" d="M189.5,228.5h48a5,5,0,0,1,5,5v8a5,5,0,0,1,-5,5h-48a5,5,0,0,1,-5,-5v-8a5,5,0,0,1,5,-5z" stroke-width="3"></path><g id="node_text13" fill="black"><text id="kity_text_121" text-rendering="inherit" font-size="12" dy=".8em" y="231.5" x="189.5">可扩展性</text></g></g><g id="minder_node14"><g id="node_expander13" style="cursor: pointer;"><path id="kity_path_132" fill="white" stroke="gray" d="M99.5,401.5A6,6,0,1,1,87.5,401.5A6,6,0,1,1,99.5,401.5"></path><path id="kity_path_133" fill="none" stroke="gray" d="M89,401.5L98,401.5"></path></g><path id="node_outline14" fill="rgb(238, 243, 246)" stroke="rgb(115, 161, 191)" d="M103.5,388.5h90a3,3,0,0,1,3,3v20a3,3,0,0,1,-3,3h-90a3,3,0,0,1,-3,-3v-20a3,3,0,0,1,3,-3z" stroke-width="1"></path><g id="node_text14" fill="black"><text id="kity_text_129" text-rendering="inherit" font-size="14" dy=".8em" y="394.5" x="120.5">主要功能</text></g></g><g id="minder_node15"><g id="node_expander14" style="cursor: pointer;" display="none"><path id="kity_path_140" fill="white" stroke="gray" d="M212.5,271.5A6,6,0,1,1,200.5,271.5A6,6,0,1,1,212.5,271.5"></path><path id="kity_path_141" fill="none" stroke="gray"></path></g><path id="node_outline15" fill="#c00000" stroke="none" d="M217.5,262.5h48a5,5,0,0,1,5,5v8a5,5,0,0,1,-5,5h-48a5,5,0,0,1,-5,-5v-8a5,5,0,0,1,5,-5z" stroke-width="3"></path><g id="node_text15" fill="black"><text id="kity_text_137" text-rendering="inherit" font-size="12" dy=".8em" y="265.5" x="217.5">任务管理</text></g></g><g id="minder_node16"><g id="node_expander15" style="cursor: pointer;" display="none"><path id="kity_path_148" fill="white" stroke="gray" d="M212.5,297.5A6,6,0,1,1,200.5,297.5A6,6,0,1,1,212.5,297.5"></path><path id="kity_path_149" fill="none" stroke="gray"></path></g><path id="node_outline16" fill="#c00000" stroke="none" d="M217.5,288.5h48a5,5,0,0,1,5,5v8a5,5,0,0,1,-5,5h-48a5,5,0,0,1,-5,-5v-8a5,5,0,0,1,5,-5z" stroke-width="3"></path><g id="node_text16" fill="black"><text id="kity_text_145" text-rendering="inherit" font-size="12" dy=".8em" y="291.5" x="217.5">中断管理</text></g></g><g id="minder_node17"><g id="node_expander16" style="cursor: pointer;" display="none"><path id="kity_path_156" fill="white" stroke="gray" d="M212.5,323.5A6,6,0,1,1,200.5,323.5A6,6,0,1,1,212.5,323.5"></path><path id="kity_path_157" fill="none" stroke="gray"></path></g><path id="node_outline17" fill="#c00000" stroke="none" d="M217.5,314.5h48a5,5,0,0,1,5,5v8a5,5,0,0,1,-5,5h-48a5,5,0,0,1,-5,-5v-8a5,5,0,0,1,5,-5z" stroke-width="3"></path><g id="node_text17" fill="black"><text id="kity_text_153" text-rendering="inherit" font-size="12" dy=".8em" y="317.5" x="217.5">时钟管理</text></g></g><g id="minder_node18"><g id="node_expander17" style="cursor: pointer;" display="none"><path id="kity_path_164" fill="white" stroke="gray" d="M212.5,349.5A6,6,0,1,1,200.5,349.5A6,6,0,1,1,212.5,349.5"></path><path id="kity_path_165" fill="none" stroke="gray"></path></g><path id="node_outline18" fill="#c00000" stroke="none" d="M217.5,340.5h48a5,5,0,0,1,5,5v8a5,5,0,0,1,-5,5h-48a5,5,0,0,1,-5,-5v-8a5,5,0,0,1,5,-5z" stroke-width="3"></path><g id="node_text18" fill="black"><text id="kity_text_161" text-rendering="inherit" font-size="12" dy=".8em" y="343.5" x="217.5">任务协调</text></g></g><g id="minder_node19"><g id="node_expander18" style="cursor: pointer;" display="none"><path id="kity_path_172" fill="white" stroke="gray" d="M212.5,375.5A6,6,0,1,1,200.5,375.5A6,6,0,1,1,212.5,375.5"></path><path id="kity_path_173" fill="none" stroke="gray"></path></g><path id="node_outline19" fill="#c00000" stroke="none" d="M217.5,366.5h48a5,5,0,0,1,5,5v8a5,5,0,0,1,-5,5h-48a5,5,0,0,1,-5,-5v-8a5,5,0,0,1,5,-5z" stroke-width="3"></path><g id="node_text19" fill="black"><text id="kity_text_169" text-rendering="inherit" font-size="12" dy=".8em" y="369.5" x="217.5">内存管理</text></g></g><g id="minder_node20"><g id="node_expander19" style="cursor: pointer;" display="none"><path id="kity_path_180" fill="white" stroke="gray" d="M212.5,401.5A6,6,0,1,1,200.5,401.5A6,6,0,1,1,212.5,401.5"></path><path id="kity_path_181" fill="none" stroke="gray"></path></g><path id="node_outline20" fill="#ffc000" stroke="none" d="M217.5,392.5h48a5,5,0,0,1,5,5v8a5,5,0,0,1,-5,5h-48a5,5,0,0,1,-5,-5v-8a5,5,0,0,1,5,-5z" stroke-width="3"></path><g id="node_text20" fill="black"><text id="kity_text_177" text-rendering="inherit" font-size="12" dy=".8em" y="395.5" x="217.5">嵌入网络</text></g></g><g id="minder_node21"><g id="node_expander20" style="cursor: pointer;" display="none"><path id="kity_path_188" fill="white" stroke="gray" d="M212.5,427.5A6,6,0,1,1,200.5,427.5A6,6,0,1,1,212.5,427.5"></path><path id="kity_path_189" fill="none" stroke="gray"></path></g><path id="node_outline21" fill="#ffc000" stroke="none" d="M217.5,418.5h48a5,5,0,0,1,5,5v8a5,5,0,0,1,-5,5h-48a5,5,0,0,1,-5,-5v-8a5,5,0,0,1,5,-5z" stroke-width="3"></path><g id="node_text21" fill="black"><text id="kity_text_185" text-rendering="inherit" font-size="12" dy=".8em" y="421.5" x="217.5">文件系统</text></g></g><g id="minder_node22"><g id="node_expander21" style="cursor: pointer;" display="none"><path id="kity_path_196" fill="white" stroke="gray" d="M212.5,453.5A6,6,0,1,1,200.5,453.5A6,6,0,1,1,212.5,453.5"></path><path id="kity_path_197" fill="none" stroke="gray"></path></g><path id="node_outline22" fill="#ffc000" stroke="none" d="M217.5,444.5h36a5,5,0,0,1,5,5v8a5,5,0,0,1,-5,5h-36a5,5,0,0,1,-5,-5v-8a5,5,0,0,1,5,-5z" stroke-width="3"></path><g id="node_text22" fill="black"><text id="kity_text_193" text-rendering="inherit" font-size="12" dy=".8em" y="447.5" x="217.5">数据库</text></g></g><g id="minder_node23"><g id="node_expander22" style="cursor: pointer;" display="none"><path id="kity_path_204" fill="white" stroke="gray" d="M212.5,479.5A6,6,0,1,1,200.5,479.5A6,6,0,1,1,212.5,479.5"></path><path id="kity_path_205" fill="none" stroke="gray"></path></g><path id="node_outline23" fill="#ffc000" stroke="none" d="M217.5,470.5h60a5,5,0,0,1,5,5v8a5,5,0,0,1,-5,5h-60a5,5,0,0,1,-5,-5v-8a5,5,0,0,1,5,-5z" stroke-width="3"></path><g id="node_text23" fill="black"><text id="kity_text_201" text-rendering="inherit" font-size="12" dy=".8em" y="473.5" x="217.5">流媒体支持</text></g></g><g id="minder_node24"><g id="node_expander23" style="cursor: pointer;" display="none"><path id="kity_path_212" fill="white" stroke="gray" d="M212.5,505.5A6,6,0,1,1,200.5,505.5A6,6,0,1,1,212.5,505.5"></path><path id="kity_path_213" fill="none" stroke="gray"></path></g><path id="node_outline24" fill="#ff0000" stroke="none" d="M217.5,496.5h48a5,5,0,0,1,5,5v8a5,5,0,0,1,-5,5h-48a5,5,0,0,1,-5,-5v-8a5,5,0,0,1,5,-5z" stroke-width="3"></path><g id="node_text24" fill="black"><text id="kity_text_209" text-rendering="inherit" font-size="12" dy=".8em" y="499.5" x="217.5">用户接口</text></g></g><g id="minder_node25"><g id="node_expander24" style="cursor: pointer;" display="none"><path id="kity_path_220" fill="white" stroke="gray" d="M212.5,531.5A6,6,0,1,1,200.5,531.5A6,6,0,1,1,212.5,531.5"></path><path id="kity_path_221" fill="none" stroke="gray"></path></g><path id="node_outline25" fill="#00b050" stroke="none" d="M217.5,522.5h57a5,5,0,0,1,5,5v8a5,5,0,0,1,-5,5h-57a5,5,0,0,1,-5,-5v-8a5,5,0,0,1,5,-5z" stroke-width="3"></path><g id="node_text25" fill="black"><text id="kity_text_217" text-rendering="inherit" font-size="12" dy=".8em" y="525.5" x="217.5">嵌入式GUI</text></g></g><g id="minder_node26"><g id="node_expander25" style="cursor: pointer;"><path id="kity_path_228" fill="white" stroke="gray" d="M99.5,727.5A6,6,0,1,1,87.5,727.5A6,6,0,1,1,99.5,727.5"></path><path id="kity_path_229" fill="none" stroke="gray" d="M89,727.5L98,727.5"></path></g><path id="node_outline26" fill="rgb(238, 243, 246)" stroke="rgb(115, 161, 191)" d="M103.5,714.5h118a3,3,0,0,1,3,3v20a3,3,0,0,1,-3,3h-118a3,3,0,0,1,-3,-3v-20a3,3,0,0,1,3,-3z" stroke-width="1"></path><g id="node_text26" fill="black"><text id="kity_text_225" text-rendering="inherit" font-size="14" dy=".8em" y="720.5" x="120.5">典型操作系统</text></g></g><g id="minder_node27"><g id="node_expander26" style="cursor: pointer;"><path id="kity_path_236" fill="white" stroke="gray" d="M240.5,578.5A6,6,0,1,1,228.5,578.5A6,6,0,1,1,240.5,578.5"></path><path id="kity_path_237" fill="none" stroke="gray" d="M230,578.5L239,578.5"></path></g><path id="node_outline27" fill="none" stroke="none" d="M245.5,569.5h46a5,5,0,0,1,5,5v8a5,5,0,0,1,-5,5h-46a5,5,0,0,1,-5,-5v-8a5,5,0,0,1,5,-5z" stroke-width="3"></path><g id="node_text27" fill="black"><text id="kity_text_233" text-rendering="inherit" font-size="12" dy=".8em" y="572.5" x="245.5">Vxworks</text></g></g><g id="minder_node28"><g id="node_expander27" style="cursor: pointer;" display="none"><path id="kity_path_244" fill="white" stroke="gray" d="M312.5,565.5A6,6,0,1,1,300.5,565.5A6,6,0,1,1,312.5,565.5"></path><path id="kity_path_245" fill="none" stroke="gray"></path></g><path id="node_outline28" fill="none" stroke="none" d="M317.5,556.5h108a5,5,0,0,1,5,5v8a5,5,0,0,1,-5,5h-108a5,5,0,0,1,-5,-5v-8a5,5,0,0,1,5,-5z" stroke-width="3"></path><g id="node_text28" fill="black"><text id="kity_text_241" text-rendering="inherit" font-size="12" dy=".8em" y="559.5" x="317.5">高性能、发展能力强</text></g></g><g id="minder_node29"><g id="node_expander28" style="cursor: pointer;" display="none"><path id="kity_path_252" fill="white" stroke="gray" d="M312.5,591.5A6,6,0,1,1,300.5,591.5A6,6,0,1,1,312.5,591.5"></path><path id="kity_path_253" fill="none" stroke="gray"></path></g><path id="node_outline29" fill="none" stroke="none" d="M317.5,582.5h84a5,5,0,0,1,5,5v8a5,5,0,0,1,-5,5h-84a5,5,0,0,1,-5,-5v-8a5,5,0,0,1,5,-5z" stroke-width="3"></path><g id="node_text29" fill="black"><text id="kity_text_249" text-rendering="inherit" font-size="12" dy=".8em" y="585.5" x="317.5">军事、航天领域</text></g></g><g id="minder_node30"><g id="node_expander29" style="cursor: pointer;"><path id="kity_path_260" fill="white" stroke="gray" d="M240.5,643.5A6,6,0,1,1,228.5,643.5A6,6,0,1,1,240.5,643.5"></path><path id="kity_path_261" fill="none" stroke="gray" d="M230,643.5L239,643.5"></path></g><path id="node_outline30" fill="none" stroke="none" d="M245.5,634.5h27a5,5,0,0,1,5,5v8a5,5,0,0,1,-5,5h-27a5,5,0,0,1,-5,-5v-8a5,5,0,0,1,5,-5z" stroke-width="3"></path><g id="node_text30" fill="black"><text id="kity_text_257" text-rendering="inherit" font-size="12" dy=".8em" y="637.5" x="245.5">QNX</text></g></g><g id="minder_node31"><g id="node_expander30" style="cursor: pointer;" display="none"><path id="kity_path_268" fill="white" stroke="gray" d="M293.5,617.5A6,6,0,1,1,281.5,617.5A6,6,0,1,1,293.5,617.5"></path><path id="kity_path_269" fill="none" stroke="gray"></path></g><path id="node_outline31" fill="none" stroke="none" d="M298.5,608.5h180a5,5,0,0,1,5,5v8a5,5,0,0,1,-5,5h-180a5,5,0,0,1,-5,-5v-8a5,5,0,0,1,5,-5z" stroke-width="3"></path><g id="node_text31" fill="black"><text id="kity_text_265" text-rendering="inherit" font-size="12" dy=".8em" y="611.5" x="298.5">分布式、嵌入式、可扩展操作系统</text></g></g><g id="minder_node32"><g id="node_expander31" style="cursor: pointer;" display="none"><path id="kity_path_276" fill="white" stroke="gray" d="M293.5,643.5A6,6,0,1,1,281.5,643.5A6,6,0,1,1,293.5,643.5"></path><path id="kity_path_277" fill="none" stroke="gray"></path></g><path id="node_outline32" fill="none" stroke="none" d="M298.5,634.5h315a5,5,0,0,1,5,5v8a5,5,0,0,1,-5,5h-315a5,5,0,0,1,-5,-5v-8a5,5,0,0,1,5,-5z" stroke-width="3"></path><g id="node_text32" fill="black"><text id="kity_text_273" text-rendering="inherit" font-size="12" dy=".8em" y="637.5" x="298.5">轻量：只包含进程调度、进程通信、网络、中断，只有12KB</text></g></g><g id="minder_node33"><g id="node_expander32" style="cursor: pointer;" display="none"><path id="kity_path_284" fill="white" stroke="gray" d="M293.5,669.5A6,6,0,1,1,281.5,669.5A6,6,0,1,1,293.5,669.5"></path><path id="kity_path_285" fill="none" stroke="gray"></path></g><path id="node_outline33" fill="none" stroke="none" d="M298.5,660.5h48a5,5,0,0,1,5,5v8a5,5,0,0,1,-5,5h-48a5,5,0,0,1,-5,-5v-8a5,5,0,0,1,5,-5z" stroke-width="3"></path><g id="node_text33" fill="black"><text id="kity_text_281" text-rendering="inherit" font-size="12" dy=".8em" y="663.5" x="298.5">速度极快</text></g></g><g id="minder_node34"><g id="node_expander33" style="cursor: pointer;"><path id="kity_path_292" fill="white" stroke="gray" d="M240.5,708.5A6,6,0,1,1,228.5,708.5A6,6,0,1,1,240.5,708.5"></path><path id="kity_path_293" fill="none" stroke="gray" d="M230,708.5L239,708.5"></path></g><path id="node_outline34" fill="none" stroke="none" d="M245.5,699.5h39a5,5,0,0,1,5,5v8a5,5,0,0,1,-5,5h-39a5,5,0,0,1,-5,-5v-8a5,5,0,0,1,5,-5z" stroke-width="3"></path><g id="node_text34" fill="black"><text id="kity_text_289" text-rendering="inherit" font-size="12" dy=".8em" y="702.5" x="245.5">WINCE</text></g></g><g id="minder_node35"><g id="node_expander34" style="cursor: pointer;" display="none"><path id="kity_path_300" fill="white" stroke="gray" d="M305.5,695.5A6,6,0,1,1,293.5,695.5A6,6,0,1,1,305.5,695.5"></path><path id="kity_path_301" fill="none" stroke="gray"></path></g><path id="node_outline35" fill="none" stroke="none" d="M310.5,686.5h195a5,5,0,0,1,5,5v8a5,5,0,0,1,-5,5h-195a5,5,0,0,1,-5,-5v-8a5,5,0,0,1,5,-5z" stroke-width="3"></path><g id="node_text35" fill="black"><text id="kity_text_297" text-rendering="inherit" font-size="12" dy=".8em" y="689.5" x="310.5">简洁高效（相比于windows） 200KB</text></g></g><g id="minder_node36"><g id="node_expander35" style="cursor: pointer;" display="none"><path id="kity_path_308" fill="white" stroke="gray" d="M305.5,721.5A6,6,0,1,1,293.5,721.5A6,6,0,1,1,305.5,721.5"></path><path id="kity_path_309" fill="none" stroke="gray"></path></g><path id="node_outline36" fill="none" stroke="none" d="M310.5,712.5h156a5,5,0,0,1,5,5v8a5,5,0,0,1,-5,5h-156a5,5,0,0,1,-5,-5v-8a5,5,0,0,1,5,-5z" stroke-width="3"></path><g id="node_text36" fill="black"><text id="kity_text_305" text-rendering="inherit" font-size="12" dy=".8em" y="715.5" x="310.5">内核、对象存储、窗口、事件</text></g></g><g id="minder_node37"><g id="node_expander36" style="cursor: pointer;"><path id="kity_path_316" fill="white" stroke="gray" d="M240.5,786.5A6,6,0,1,1,228.5,786.5A6,6,0,1,1,240.5,786.5"></path><path id="kity_path_317" fill="none" stroke="gray" d="M230,786.5L239,786.5"></path></g><path id="node_outline37" fill="none" stroke="none" d="M245.5,777.5h97a5,5,0,0,1,5,5v8a5,5,0,0,1,-5,5h-97a5,5,0,0,1,-5,-5v-8a5,5,0,0,1,5,-5z" stroke-width="3"></path><g id="node_text37" fill="black"><text id="kity_text_313" text-rendering="inherit" font-size="12" dy=".8em" y="780.5" x="245.5">Embedded Linux</text></g></g><g id="minder_node38"><g id="node_expander37" style="cursor: pointer;" display="none"><path id="kity_path_324" fill="white" stroke="gray" d="M363.5,747.5A6,6,0,1,1,351.5,747.5A6,6,0,1,1,363.5,747.5"></path><path id="kity_path_325" fill="none" stroke="gray"></path></g><path id="node_outline38" fill="none" stroke="none" d="M368.5,738.5h41a5,5,0,0,1,5,5v8a5,5,0,0,1,-5,5h-41a5,5,0,0,1,-5,-5v-8a5,5,0,0,1,5,-5z" stroke-width="3"></path><g id="node_text38" fill="black"><text id="kity_text_321" text-rendering="inherit" font-size="12" dy=".8em" y="741.5" x="368.5">RTLinux</text></g></g><g id="minder_node39"><g id="node_expander38" style="cursor: pointer;" display="none"><path id="kity_path_332" fill="white" stroke="gray" d="M363.5,773.5A6,6,0,1,1,351.5,773.5A6,6,0,1,1,363.5,773.5"></path><path id="kity_path_333" fill="none" stroke="gray"></path></g><path id="node_outline39" fill="none" stroke="none" d="M368.5,764.5h43a5,5,0,0,1,5,5v8a5,5,0,0,1,-5,5h-43a5,5,0,0,1,-5,-5v-8a5,5,0,0,1,5,-5z" stroke-width="3"></path><g id="node_text39" fill="black"><text id="kity_text_329" text-rendering="inherit" font-size="12" dy=".8em" y="767.5" x="368.5">ucLinux</text></g></g><g id="minder_node40"><g id="node_expander39" style="cursor: pointer;" display="none"><path id="kity_path_340" fill="white" stroke="gray" d="M363.5,799.5A6,6,0,1,1,351.5,799.5A6,6,0,1,1,363.5,799.5"></path><path id="kity_path_341" fill="none" stroke="gray"></path></g><path id="node_outline40" fill="none" stroke="none" d="M368.5,790.5h48a5,5,0,0,1,5,5v8a5,5,0,0,1,-5,5h-48a5,5,0,0,1,-5,-5v-8a5,5,0,0,1,5,-5z" stroke-width="3"></path><g id="node_text40" fill="black"><text id="kity_text_337" text-rendering="inherit" font-size="12" dy=".8em" y="793.5" x="368.5">Embedx</text></g></g><g id="minder_node41"><g id="node_expander40" style="cursor: pointer;" display="none"><path id="kity_path_348" fill="white" stroke="gray" d="M363.5,825.5A6,6,0,1,1,351.5,825.5A6,6,0,1,1,363.5,825.5"></path><path id="kity_path_349" fill="none" stroke="gray"></path></g><path id="node_outline41" fill="none" stroke="none" d="M368.5,816.5h36a5,5,0,0,1,5,5v8a5,5,0,0,1,-5,5h-36a5,5,0,0,1,-5,-5v-8a5,5,0,0,1,5,-5z" stroke-width="3"></path><g id="node_text41" fill="black"><text id="kity_text_345" text-rendering="inherit" font-size="12" dy=".8em" y="819.5" x="368.5">XLinux</text></g></g><g id="minder_node42"><g id="node_expander41" style="cursor: pointer;" display="none"><path id="kity_path_356" fill="white" stroke="gray" d="M240.5,851.5A6,6,0,1,1,228.5,851.5A6,6,0,1,1,240.5,851.5"></path><path id="kity_path_357" fill="none" stroke="gray"></path></g><path id="node_outline42" fill="none" stroke="none" d="M245.5,842.5h38a5,5,0,0,1,5,5v8a5,5,0,0,1,-5,5h-38a5,5,0,0,1,-5,-5v-8a5,5,0,0,1,5,-5z" stroke-width="3"></path><g id="node_text42" fill="black"><text id="kity_text_353" text-rendering="inherit" font-size="12" dy=".8em" y="845.5" x="245.5">TinyOS</text></g></g><g id="minder_node43"><g id="node_expander42" style="cursor: pointer;" display="none"><path id="kity_path_364" fill="white" stroke="gray" d="M240.5,877.5A6,6,0,1,1,228.5,877.5A6,6,0,1,1,240.5,877.5"></path><path id="kity_path_365" fill="none" stroke="gray"></path></g><path id="node_outline43" fill="none" stroke="none" d="M245.5,868.5h39a5,5,0,0,1,5,5v8a5,5,0,0,1,-5,5h-39a5,5,0,0,1,-5,-5v-8a5,5,0,0,1,5,-5z" stroke-width="3"></path><g id="node_text43" fill="black"><text id="kity_text_361" text-rendering="inherit" font-size="12" dy=".8em" y="871.5" x="245.5">uC/OS</text></g></g></g></g></svg>