<svg id="kity_svg_6" xmlns="http://www.w3.org/2000/svg" xmlns:xlink="http://www.w3.org/1999/xlink" version="1.1" width="779" height="638" style="background-color: rgb(251, 251, 251); visibility: visible;" viewBox="0 0 779 638"><defs id="kity_defs_7"><linearGradient id="kity_linearGradient_17" x1="0" y1="0" x2="0" y2="1"><stop id="kity_stop_18" offset="0" stop-color="rgb(255, 255, 255)"></stop><stop id="kity_stop_19" offset="1" stop-color="rgb(204, 204, 204)"></stop></linearGradient><marker id="kity_marker_2" orient="auto" refX="6" refY="0" viewBox="-7 -7 14 14" markerWidth="7" markerHeight="7" markerUnits="userSpaceOnUse"><path id="kity_path_3" fill="rgb(115, 191, 118)" stroke="none" d="M6,0A6,6,0,1,1,-6,0A6,6,0,1,1,6,0"></path></marker></defs><g id="kity_g_8"><g id="minder1" text-rendering="optimize-speed"><g id="minder_connect_group1"><path id="kity_path_31" fill="none" stroke="rgb(115, 191, 118)" stroke-width="1" d="M148,319.5A143.5,283,0,0,1,291.5,36.5"></path><path id="kity_path_33" fill="none" stroke="rgb(115, 191, 118)" stroke-width="1" d="M444.5,36.5C452.5,36.5,452.5,36.5,460.5,36.5"></path><path id="kity_path_35" fill="none" stroke="rgb(115, 191, 118)" stroke-width="1" d="M148,319.5A143.5,203,0,0,1,291.5,116.5"></path><path id="kity_path_37" fill="none" stroke="rgb(115, 191, 118)" stroke-width="1" d="M458.5,116.5C466.5,116.5,466.5,77.5,474.5,77.5"></path><path id="kity_path_39" fill="none" stroke="rgb(115, 191, 118)" stroke-width="1" d="M458.5,116.5C466.5,116.5,466.5,103.5,474.5,103.5"></path><path id="kity_path_41" fill="none" stroke="rgb(115, 191, 118)" stroke-width="1" d="M458.5,116.5C466.5,116.5,466.5,129.5,474.5,129.5"></path><path id="kity_path_43" fill="none" stroke="rgb(115, 191, 118)" stroke-width="1" d="M458.5,116.5C466.5,116.5,466.5,155.5,474.5,155.5"></path><path id="kity_path_45" fill="none" stroke="rgb(115, 191, 118)" stroke-width="1" d="M148,319.5A143.5,104,0,0,1,291.5,215.5"></path><path id="kity_path_47" fill="none" stroke="rgb(115, 191, 118)" stroke-width="1" d="M479.5,215.5C487.5,215.5,487.5,215.5,495.5,215.5"></path><path id="kity_path_49" fill="none" stroke="rgb(115, 191, 118)" stroke-width="1" d="M620.5,215.5C628.5,215.5,628.5,189.5,636.5,189.5"></path><path id="kity_path_51" fill="none" stroke="rgb(115, 191, 118)" stroke-width="1" d="M620.5,215.5C628.5,215.5,628.5,215.5,636.5,215.5"></path><path id="kity_path_53" fill="none" stroke="rgb(115, 191, 118)" stroke-width="1" d="M620.5,215.5C628.5,215.5,628.5,241.5,636.5,241.5"></path><path id="kity_path_55" fill="none" stroke="rgb(115, 191, 118)" stroke-width="1" d="M148,319.5A143.5,37,0,0,1,291.5,282.5"></path><path id="kity_path_57" fill="none" stroke="rgb(115, 191, 118)" stroke-width="1" d="M148,319.5A143.5,30,0,0,0,291.5,349.5"></path><path id="kity_path_59" fill="none" stroke="rgb(115, 191, 118)" stroke-width="1" d="M464.5,349.5C472.5,349.5,472.5,323.5,480.5,323.5"></path><path id="kity_path_61" fill="none" stroke="rgb(115, 191, 118)" stroke-width="1" d="M464.5,349.5C472.5,349.5,472.5,349.5,480.5,349.5"></path><path id="kity_path_63" fill="none" stroke="rgb(115, 191, 118)" stroke-width="1" d="M464.5,349.5C472.5,349.5,472.5,375.5,480.5,375.5"></path><path id="kity_path_65" fill="none" stroke="rgb(115, 191, 118)" stroke-width="1" d="M148,319.5A143.5,97,0,0,0,291.5,416.5"></path><path id="kity_path_67" fill="none" stroke="rgb(115, 191, 118)" stroke-width="1" d="M148,319.5A143.5,145,0,0,0,291.5,464.5"></path><path id="kity_path_69" fill="none" stroke="rgb(115, 191, 118)" stroke-width="1" d="M148,319.5A143.5,193,0,0,0,291.5,512.5"></path><path id="kity_path_71" fill="none" stroke="rgb(115, 191, 118)" stroke-width="1" d="M148,319.5A143.5,241,0,0,0,291.5,560.5"></path><path id="kity_path_73" fill="none" stroke="rgb(115, 191, 118)" stroke-width="1" d="M557.5,560.5C565.5,560.5,565.5,560.5,573.5,560.5"></path><path id="kity_path_75" fill="none" stroke="rgb(115, 191, 118)" stroke-width="1" d="M148,319.5A143.5,286,0,0,0,291.5,605.5"></path><path id="kity_path_77" fill="none" stroke="rgb(115, 191, 118)" stroke-width="1" d="M453.5,605.5C461.5,605.5,461.5,605.5,469.5,605.5"></path></g><g id="minder_node1"><path id="node_outline1" fill="rgb(115, 191, 118)" stroke="rgb(115, 191, 118)" d="M25.5,305.5h245a5,5,0,0,1,5,5v18a5,5,0,0,1,-5,5h-245a5,5,0,0,1,-5,-5v-18a5,5,0,0,1,5,-5z" stroke-width="3"></path><g id="node_text1" fill="white"><text id="kity_text_22" text-rendering="inherit" font-size="16" dy=".8em" y="311.5" font-family="sans-serif" x="32.5">do_bootm-&gt;do_bootm_states</text></g></g><g id="kity_g_12"><path id="kity_path_13" fill="none" stroke="none" d="M32.5,319.5h0v0h0z"></path></g><g id="kity_g_14"><path id="kity_path_15" fill="none" stroke="none" d="M32.5,319.5h0v0h0z"></path><path id="kity_path_16" fill="none" stroke="none"></path></g><g id="minder_node2"><g id="node_expander2" style="cursor: pointer;"><path id="kity_path_179" fill="white" stroke="gray" d="M292.5,36.5A6,6,0,1,1,280.5,36.5A6,6,0,1,1,292.5,36.5"></path><path id="kity_path_180" fill="none" stroke="gray" d="M282,36.5L291,36.5"></path></g><path id="node_outline3" fill="rgb(238, 246, 238)" stroke="rgb(115, 191, 118)" d="M296.5,20.5h145a3,3,0,0,1,3,3v26a3,3,0,0,1,-3,3h-145a3,3,0,0,1,-3,-3v-26a3,3,0,0,1,3,-3z" stroke-width="1"></path><g id="node_text3" fill="black"><text id="kity_text_91" text-rendering="inherit" font-size="14" dy=".8em" y="29.5" font-family="sans-serif" x="338.5">bootrm_start</text></g><g id="node_priority1"><path id="kity_path_432" fill="#840023" stroke="none" d="M314,40c0,3.866,3.134,7,7,7h6c3.866,0,7,-3.134,7,-7V34H314V40z"></path><path id="kity_path_433" fill="#FF1200" stroke="none" d="M334,37c0,3.866,-3.134,7,-7,7H321c-3.866,0,-7,-3.134,-7,-7V34c0,-3.866,3.134,-7,7,-7h6c3.866,0,7,3.134,7,7V37z" opacity="0.8"></path><text id="kity_text_434" text-rendering="geometricPrecision" x="323" y="36.5" text-anchor="middle" font-style="italic" font-size="12" fill="white" dy="4.3203125">1</text></g></g><g id="minder_node3"><g id="node_expander1" display="none" style="cursor: pointer;"><path id="kity_path_176" fill="white" stroke="gray" d="M460.5,36.5A6,6,0,1,1,448.5,36.5A6,6,0,1,1,460.5,36.5"></path><path id="kity_path_177" fill="none" stroke="gray"></path></g><path id="node_outline2" fill="none" stroke="none" d="M465.5,27.5h91a5,5,0,0,1,5,5v8a5,5,0,0,1,-5,5h-91a5,5,0,0,1,-5,-5v-8a5,5,0,0,1,5,-5z" stroke-width="3"></path><g id="node_text2" fill="black"><text id="kity_text_89" text-rendering="inherit" font-size="12" dy=".8em" y="30.5" font-family="sans-serif" x="465.5">boot_start_1mb</text></g></g><g id="minder_node4"><g id="node_expander7" style="cursor: pointer;"><path id="kity_path_194" fill="white" stroke="gray" d="M292.5,116.5A6,6,0,1,1,280.5,116.5A6,6,0,1,1,292.5,116.5"></path><path id="kity_path_195" fill="none" stroke="gray" d="M282,116.5L291,116.5"></path></g><path id="node_outline8" fill="rgb(238, 246, 238)" stroke="rgb(115, 191, 118)" d="M296.5,100.5h159a3,3,0,0,1,3,3v26a3,3,0,0,1,-3,3h-159a3,3,0,0,1,-3,-3v-26a3,3,0,0,1,3,-3z" stroke-width="1"></path><g id="node_text8" fill="black"><text id="kity_text_101" text-rendering="inherit" font-size="14" dy=".8em" y="109.5" font-family="sans-serif" x="338.5">bootm_find_os</text></g><g id="node_priority2"><path id="kity_path_437" fill="#01467F" stroke="none" d="M314,120c0,3.866,3.134,7,7,7h6c3.866,0,7,-3.134,7,-7V114H314V120z"></path><path id="kity_path_438" fill="#0074FF" stroke="none" d="M334,117c0,3.866,-3.134,7,-7,7H321c-3.866,0,-7,-3.134,-7,-7V114c0,-3.866,3.134,-7,7,-7h6c3.866,0,7,3.134,7,7V117z" opacity="0.8"></path><text id="kity_text_439" text-rendering="geometricPrecision" x="323" y="116.5" text-anchor="middle" font-style="italic" font-size="12" fill="white" dy="4.3203125">2</text></g></g><g id="minder_node5"><g id="node_expander3" display="none" style="cursor: pointer;"><path id="kity_path_182" fill="white" stroke="gray" d="M474.5,77.5A6,6,0,1,1,462.5,77.5A6,6,0,1,1,474.5,77.5"></path><path id="kity_path_183" fill="none" stroke="gray"></path></g><path id="node_outline4" fill="none" stroke="none" d="M479.5,68.5h95a5,5,0,0,1,5,5v8a5,5,0,0,1,-5,5h-95a5,5,0,0,1,-5,-5v-8a5,5,0,0,1,5,-5z" stroke-width="3"></path><g id="node_text4" fill="black"><text id="kity_text_93" text-rendering="inherit" font-size="12" dy=".8em" y="71.5" font-family="sans-serif" x="479.5">boot_get_kernel</text></g></g><g id="minder_node6"><g id="node_expander4" display="none" style="cursor: pointer;"><path id="kity_path_185" fill="white" stroke="gray" d="M474.5,103.5A6,6,0,1,1,462.5,103.5A6,6,0,1,1,474.5,103.5"></path><path id="kity_path_186" fill="none" stroke="gray"></path></g><path id="node_outline5" fill="none" stroke="none" d="M479.5,94.5h108a5,5,0,0,1,5,5v8a5,5,0,0,1,-5,5h-108a5,5,0,0,1,-5,-5v-8a5,5,0,0,1,5,-5z" stroke-width="3"></path><g id="node_text5" fill="black"><text id="kity_text_95" text-rendering="inherit" font-size="12" dy=".8em" y="97.5" font-family="sans-serif" x="479.5">legacy_image_hdl</text></g></g><g id="minder_node7"><g id="node_expander5" display="none" style="cursor: pointer;"><path id="kity_path_188" fill="white" stroke="gray" d="M474.5,129.5A6,6,0,1,1,462.5,129.5A6,6,0,1,1,474.5,129.5"></path><path id="kity_path_189" fill="none" stroke="gray"></path></g><path id="node_outline6" fill="none" stroke="none" d="M479.5,120.5h78a5,5,0,0,1,5,5v8a5,5,0,0,1,-5,5h-78a5,5,0,0,1,-5,-5v-8a5,5,0,0,1,5,-5z" stroke-width="3"></path><g id="node_text6" fill="black"><text id="kity_text_97" text-rendering="inherit" font-size="12" dy=".8em" y="123.5" font-family="sans-serif" x="479.5">fit_image_hdl</text></g></g><g id="minder_node8"><g id="node_expander6" display="none" style="cursor: pointer;"><path id="kity_path_191" fill="white" stroke="gray" d="M474.5,155.5A6,6,0,1,1,462.5,155.5A6,6,0,1,1,474.5,155.5"></path><path id="kity_path_192" fill="none" stroke="gray"></path></g><path id="node_outline7" fill="none" stroke="none" d="M479.5,146.5h96a5,5,0,0,1,5,5v8a5,5,0,0,1,-5,5h-96a5,5,0,0,1,-5,-5v-8a5,5,0,0,1,5,-5z" stroke-width="3"></path><g id="node_text7" fill="black"><text id="kity_text_99" text-rendering="inherit" font-size="12" dy=".8em" y="149.5" font-family="sans-serif" x="479.5">boot_image_hdl</text></g></g><g id="minder_node9"><g id="node_expander12" style="cursor: pointer;"><path id="kity_path_209" fill="white" stroke="gray" d="M292.5,215.5A6,6,0,1,1,280.5,215.5A6,6,0,1,1,292.5,215.5"></path><path id="kity_path_210" fill="none" stroke="gray" d="M282,215.5L291,215.5"></path></g><path id="node_outline13" fill="rgb(238, 246, 238)" stroke="rgb(115, 191, 118)" d="M296.5,199.5h180a3,3,0,0,1,3,3v26a3,3,0,0,1,-3,3h-180a3,3,0,0,1,-3,-3v-26a3,3,0,0,1,3,-3z" stroke-width="1"></path><g id="node_text13" fill="black"><text id="kity_text_111" text-rendering="inherit" font-size="14" dy=".8em" y="208.5" font-family="sans-serif" x="338.5">bootm_find_other</text></g><g id="node_priority3"><path id="kity_path_442" fill="#006300" stroke="none" d="M314,219c0,3.866,3.134,7,7,7h6c3.866,0,7,-3.134,7,-7V213H314V219z"></path><path id="kity_path_443" fill="#00AF00" stroke="none" d="M334,216c0,3.866,-3.134,7,-7,7H321c-3.866,0,-7,-3.134,-7,-7V213c0,-3.866,3.134,-7,7,-7h6c3.866,0,7,3.134,7,7V216z" opacity="0.8"></path><text id="kity_text_444" text-rendering="geometricPrecision" x="323" y="215.5" text-anchor="middle" font-style="italic" font-size="12" fill="white" dy="4.3203125">3</text></g></g><g id="minder_node10"><g id="node_expander11" style="cursor: pointer;"><path id="kity_path_206" fill="white" stroke="gray" d="M495.5,215.5A6,6,0,1,1,483.5,215.5A6,6,0,1,1,495.5,215.5"></path><path id="kity_path_207" fill="none" stroke="gray" d="M485,215.5L494,215.5"></path></g><path id="node_outline12" fill="none" stroke="none" d="M500.5,206.5h115a5,5,0,0,1,5,5v8a5,5,0,0,1,-5,5h-115a5,5,0,0,1,-5,-5v-8a5,5,0,0,1,5,-5z" stroke-width="3"></path><g id="node_text12" fill="black"><text id="kity_text_109" text-rendering="inherit" font-size="12" dy=".8em" y="209.5" font-family="sans-serif" x="500.5">bootm_find_images</text></g></g><g id="minder_node11"><g id="node_expander8" display="none" style="cursor: pointer;"><path id="kity_path_197" fill="white" stroke="gray" d="M636.5,189.5A6,6,0,1,1,624.5,189.5A6,6,0,1,1,636.5,189.5"></path><path id="kity_path_198" fill="none" stroke="gray"></path></g><path id="node_outline9" fill="none" stroke="none" d="M641.5,180.5h104a5,5,0,0,1,5,5v8a5,5,0,0,1,-5,5h-104a5,5,0,0,1,-5,-5v-8a5,5,0,0,1,5,-5z" stroke-width="3"></path><g id="node_text9" fill="black"><text id="kity_text_103" text-rendering="inherit" font-size="12" dy=".8em" y="183.5" font-family="sans-serif" x="641.5">boot_get_ramdisk</text></g></g><g id="minder_node12"><g id="node_expander9" display="none" style="cursor: pointer;"><path id="kity_path_200" fill="white" stroke="gray" d="M636.5,215.5A6,6,0,1,1,624.5,215.5A6,6,0,1,1,636.5,215.5"></path><path id="kity_path_201" fill="none" stroke="gray"></path></g><path id="node_outline10" fill="none" stroke="none" d="M641.5,206.5h76a5,5,0,0,1,5,5v8a5,5,0,0,1,-5,5h-76a5,5,0,0,1,-5,-5v-8a5,5,0,0,1,5,-5z" stroke-width="3"></path><g id="node_text10" fill="black"><text id="kity_text_105" text-rendering="inherit" font-size="12" dy=".8em" y="209.5" font-family="sans-serif" x="641.5">boot_get_fdt</text></g></g><g id="minder_node13"><g id="node_expander10" display="none" style="cursor: pointer;"><path id="kity_path_203" fill="white" stroke="gray" d="M636.5,241.5A6,6,0,1,1,624.5,241.5A6,6,0,1,1,636.5,241.5"></path><path id="kity_path_204" fill="none" stroke="gray"></path></g><path id="node_outline11" fill="none" stroke="none" d="M641.5,232.5h113a5,5,0,0,1,5,5v8a5,5,0,0,1,-5,5h-113a5,5,0,0,1,-5,-5v-8a5,5,0,0,1,5,-5z" stroke-width="3"></path><g id="node_text11" fill="black"><text id="kity_text_107" text-rendering="inherit" font-size="12" dy=".8em" y="235.5" font-family="sans-serif" x="641.5">boot_get_laodable</text></g></g><g id="minder_node14"><g id="node_expander13" display="none" style="cursor: pointer;"><path id="kity_path_212" fill="white" stroke="gray" d="M292.5,282.5A6,6,0,1,1,280.5,282.5A6,6,0,1,1,292.5,282.5"></path><path id="kity_path_213" fill="none" stroke="gray"></path></g><path id="node_outline14" fill="rgb(238, 246, 238)" stroke="rgb(115, 191, 118)" d="M296.5,266.5h224a3,3,0,0,1,3,3v26a3,3,0,0,1,-3,3h-224a3,3,0,0,1,-3,-3v-26a3,3,0,0,1,3,-3z" stroke-width="1"></path><g id="node_text14" fill="black"><text id="kity_text_113" text-rendering="inherit" font-size="14" dy=".8em" y="275.5" font-family="sans-serif" x="338.5">bootm_disable_interrupt</text></g><g id="node_priority4"><path id="kity_path_447" fill="#B25000" stroke="none" d="M314,286c0,3.866,3.134,7,7,7h6c3.866,0,7,-3.134,7,-7V280H314V286z"></path><path id="kity_path_448" fill="#FF962E" stroke="none" d="M334,283c0,3.866,-3.134,7,-7,7H321c-3.866,0,-7,-3.134,-7,-7V280c0,-3.866,3.134,-7,7,-7h6c3.866,0,7,3.134,7,7V283z" opacity="0.8"></path><text id="kity_text_449" text-rendering="geometricPrecision" x="323" y="282.5" text-anchor="middle" font-style="italic" font-size="12" fill="white" dy="4.3203125">4</text></g></g><g id="minder_node15"><g id="node_expander17" style="cursor: pointer;"><path id="kity_path_224" fill="white" stroke="gray" d="M292.5,349.5A6,6,0,1,1,280.5,349.5A6,6,0,1,1,292.5,349.5"></path><path id="kity_path_225" fill="none" stroke="gray" d="M282,349.5L291,349.5"></path></g><path id="node_outline18" fill="rgb(238, 246, 238)" stroke="rgb(115, 191, 118)" d="M296.5,333.5h165a3,3,0,0,1,3,3v26a3,3,0,0,1,-3,3h-165a3,3,0,0,1,-3,-3v-26a3,3,0,0,1,3,-3z" stroke-width="1"></path><g id="node_text18" fill="black"><text id="kity_text_121" text-rendering="inherit" font-size="14" dy=".8em" y="342.5" font-family="sans-serif" x="338.5">bootm_load_os</text></g><g id="node_priority5"><path id="kity_path_452" fill="#4720C4" stroke="none" d="M314,353c0,3.866,3.134,7,7,7h6c3.866,0,7,-3.134,7,-7V347H314V353z"></path><path id="kity_path_453" fill="#A464FF" stroke="none" d="M334,350c0,3.866,-3.134,7,-7,7H321c-3.866,0,-7,-3.134,-7,-7V347c0,-3.866,3.134,-7,7,-7h6c3.866,0,7,3.134,7,7V350z" opacity="0.8"></path><text id="kity_text_454" text-rendering="geometricPrecision" x="323" y="349.5" text-anchor="middle" font-style="italic" font-size="12" fill="white" dy="4.3203125">5</text></g></g><g id="minder_node16"><g id="node_expander14" display="none" style="cursor: pointer;"><path id="kity_path_215" fill="white" stroke="gray" d="M480.5,323.5A6,6,0,1,1,468.5,323.5A6,6,0,1,1,480.5,323.5"></path><path id="kity_path_216" fill="none" stroke="gray"></path></g><path id="node_outline15" fill="none" stroke="none" d="M485.5,314.5h95a5,5,0,0,1,5,5v8a5,5,0,0,1,-5,5h-95a5,5,0,0,1,-5,-5v-8a5,5,0,0,1,5,-5z" stroke-width="3"></path><g id="node_text15" fill="black"><text id="kity_text_115" text-rendering="inherit" font-size="12" dy=".8em" y="317.5" font-family="sans-serif" x="485.5">image_decomp</text></g></g><g id="minder_node17"><g id="node_expander15" display="none" style="cursor: pointer;"><path id="kity_path_218" fill="white" stroke="gray" d="M480.5,349.5A6,6,0,1,1,468.5,349.5A6,6,0,1,1,480.5,349.5"></path><path id="kity_path_219" fill="none" stroke="gray"></path></g><path id="node_outline16" fill="none" stroke="none" d="M485.5,340.5h70a5,5,0,0,1,5,5v8a5,5,0,0,1,-5,5h-70a5,5,0,0,1,-5,-5v-8a5,5,0,0,1,5,-5z" stroke-width="3"></path><g id="node_text16" fill="black"><text id="kity_text_117" text-rendering="inherit" font-size="12" dy=".8em" y="343.5" font-family="sans-serif" x="485.5">flush_cache</text></g></g><g id="minder_node18"><g id="node_expander16" display="none" style="cursor: pointer;"><path id="kity_path_221" fill="white" stroke="gray" d="M480.5,375.5A6,6,0,1,1,468.5,375.5A6,6,0,1,1,480.5,375.5"></path><path id="kity_path_222" fill="none" stroke="gray"></path></g><path id="node_outline17" fill="none" stroke="none" d="M485.5,366.5h74a5,5,0,0,1,5,5v8a5,5,0,0,1,-5,5h-74a5,5,0,0,1,-5,-5v-8a5,5,0,0,1,5,-5z" stroke-width="3"></path><g id="node_text17" fill="black"><text id="kity_text_119" text-rendering="inherit" font-size="12" dy=".8em" y="369.5" font-family="sans-serif" x="485.5">1mb_reserve</text></g></g><g id="minder_node19"><g id="node_expander18" display="none" style="cursor: pointer;"><path id="kity_path_227" fill="white" stroke="gray" d="M292.5,416.5A6,6,0,1,1,280.5,416.5A6,6,0,1,1,292.5,416.5"></path><path id="kity_path_228" fill="none" stroke="gray"></path></g><path id="node_outline19" fill="rgb(238, 246, 238)" stroke="rgb(115, 191, 118)" d="M296.5,400.5h187a3,3,0,0,1,3,3v26a3,3,0,0,1,-3,3h-187a3,3,0,0,1,-3,-3v-26a3,3,0,0,1,3,-3z" stroke-width="1"></path><g id="node_text19" fill="black"><text id="kity_text_123" text-rendering="inherit" font-size="14" dy=".8em" y="409.5" font-family="sans-serif" x="338.5">boot_ramdisk_high</text></g><g id="node_priority6"><path id="kity_path_457" fill="#515151" stroke="none" d="M314,420c0,3.866,3.134,7,7,7h6c3.866,0,7,-3.134,7,-7V414H314V420z"></path><path id="kity_path_458" fill="#A3A3A3" stroke="none" d="M334,417c0,3.866,-3.134,7,-7,7H321c-3.866,0,-7,-3.134,-7,-7V414c0,-3.866,3.134,-7,7,-7h6c3.866,0,7,3.134,7,7V417z" opacity="0.8"></path><text id="kity_text_459" text-rendering="geometricPrecision" x="323" y="416.5" text-anchor="middle" font-style="italic" font-size="12" fill="white" dy="4.3203125">6</text></g></g><g id="minder_node20"><g id="node_expander19" display="none" style="cursor: pointer;"><path id="kity_path_230" fill="white" stroke="gray" d="M292.5,464.5A6,6,0,1,1,280.5,464.5A6,6,0,1,1,292.5,464.5"></path><path id="kity_path_231" fill="none" stroke="gray"></path></g><path id="node_outline20" fill="rgb(238, 246, 238)" stroke="rgb(115, 191, 118)" d="M296.5,448.5h182a3,3,0,0,1,3,3v26a3,3,0,0,1,-3,3h-182a3,3,0,0,1,-3,-3v-26a3,3,0,0,1,3,-3z" stroke-width="1"></path><g id="node_text20" fill="black"><text id="kity_text_125" text-rendering="inherit" font-size="14" dy=".8em" y="457.5" font-family="sans-serif" x="338.5">boot_relocate_fdt</text></g><g id="node_priority7"><path id="kity_path_462" fill="#515151" stroke="none" d="M314,468c0,3.866,3.134,7,7,7h6c3.866,0,7,-3.134,7,-7V462H314V468z"></path><path id="kity_path_463" fill="#A3A3A3" stroke="none" d="M334,465c0,3.866,-3.134,7,-7,7H321c-3.866,0,-7,-3.134,-7,-7V462c0,-3.866,3.134,-7,7,-7h6c3.866,0,7,3.134,7,7V465z" opacity="0.8"></path><text id="kity_text_464" text-rendering="geometricPrecision" x="323" y="464.5" text-anchor="middle" font-style="italic" font-size="12" fill="white" dy="4.3203125">7</text></g></g><g id="minder_node21"><g id="node_expander20" display="none" style="cursor: pointer;"><path id="kity_path_233" fill="white" stroke="gray" d="M292.5,512.5A6,6,0,1,1,280.5,512.5A6,6,0,1,1,292.5,512.5"></path><path id="kity_path_234" fill="none" stroke="gray"></path></g><path id="node_outline21" fill="rgb(238, 246, 238)" stroke="rgb(115, 191, 118)" d="M296.5,496.5h234a3,3,0,0,1,3,3v26a3,3,0,0,1,-3,3h-234a3,3,0,0,1,-3,-3v-26a3,3,0,0,1,3,-3z" stroke-width="1"></path><g id="node_text21" fill="black"><text id="kity_text_127" text-rendering="inherit" font-size="14" dy=".8em" y="505.5" font-family="sans-serif" x="338.5">bootm_os_get_boot_func</text></g><g id="node_priority8"><path id="kity_path_467" fill="#515151" stroke="none" d="M314,516c0,3.866,3.134,7,7,7h6c3.866,0,7,-3.134,7,-7V510H314V516z"></path><path id="kity_path_468" fill="#A3A3A3" stroke="none" d="M334,513c0,3.866,-3.134,7,-7,7H321c-3.866,0,-7,-3.134,-7,-7V510c0,-3.866,3.134,-7,7,-7h6c3.866,0,7,3.134,7,7V513z" opacity="0.8"></path><text id="kity_text_469" text-rendering="geometricPrecision" x="323" y="512.5" text-anchor="middle" font-style="italic" font-size="12" fill="white" dy="4.3203125">8</text></g></g><g id="minder_node22"><g id="node_expander22" style="cursor: pointer;"><path id="kity_path_239" fill="white" stroke="gray" d="M292.5,560.5A6,6,0,1,1,280.5,560.5A6,6,0,1,1,292.5,560.5"></path><path id="kity_path_240" fill="none" stroke="gray" d="M282,560.5L291,560.5"></path></g><path id="node_outline23" fill="rgb(238, 246, 238)" stroke="rgb(115, 191, 118)" d="M296.5,544.5h258a3,3,0,0,1,3,3v26a3,3,0,0,1,-3,3h-258a3,3,0,0,1,-3,-3v-26a3,3,0,0,1,3,-3z" stroke-width="1"></path><g id="node_text23" fill="black"><text id="kity_text_131" text-rendering="inherit" font-size="14" dy=".8em" y="553.5" font-family="sans-serif" x="338.5">bootm_precess_cmdline_env</text></g><g id="node_priority9"><path id="kity_path_472" fill="#515151" stroke="none" d="M314,564c0,3.866,3.134,7,7,7h6c3.866,0,7,-3.134,7,-7V558H314V564z"></path><path id="kity_path_473" fill="#A3A3A3" stroke="none" d="M334,561c0,3.866,-3.134,7,-7,7H321c-3.866,0,-7,-3.134,-7,-7V558c0,-3.866,3.134,-7,7,-7h6c3.866,0,7,3.134,7,7V561z" opacity="0.8"></path><text id="kity_text_474" text-rendering="geometricPrecision" x="323" y="560.5" text-anchor="middle" font-style="italic" font-size="12" fill="white" dy="4.3203125">9</text></g></g><g id="minder_node23"><g id="node_expander21" style="cursor: pointer;" display="none"><path id="kity_path_236" fill="white" stroke="gray" d="M573.5,560.5A6,6,0,1,1,561.5,560.5A6,6,0,1,1,573.5,560.5"></path><path id="kity_path_237" fill="none" stroke="gray"></path></g><path id="node_outline22" fill="none" stroke="none" d="M578.5,551.5h143a5,5,0,0,1,5,5v8a5,5,0,0,1,-5,5h-143a5,5,0,0,1,-5,-5v-8a5,5,0,0,1,5,-5z" stroke-width="3"></path><g id="node_text22" fill="black"><text id="kity_text_129" text-rendering="inherit" font-size="12" dy=".8em" y="554.5" font-family="sans-serif" x="578.5">bootm_precess_cmdline</text></g></g><g id="minder_node24"><g id="node_expander29" style="cursor: pointer;"><path id="kity_path_260" fill="white" stroke="gray" d="M292.5,605.5A6,6,0,1,1,280.5,605.5A6,6,0,1,1,292.5,605.5"></path><path id="kity_path_261" fill="none" stroke="gray" d="M282,605.5L291,605.5"></path></g><path id="node_outline30" fill="rgb(238, 246, 238)" stroke="rgb(115, 191, 118)" d="M296.5,592.5h154a3,3,0,0,1,3,3v20a3,3,0,0,1,-3,3h-154a3,3,0,0,1,-3,-3v-20a3,3,0,0,1,3,-3z" stroke-width="1"></path><g id="node_text30" fill="black"><text id="kity_text_145" text-rendering="inherit" font-size="14" dy=".8em" y="598.5" font-family="sans-serif" x="313.5">boot_selected_os</text></g></g><g id="minder_node25"><g id="node_expander28" style="cursor: pointer;" display="none"><path id="kity_path_257" fill="white" stroke="gray" d="M469.5,605.5A6,6,0,1,1,457.5,605.5A6,6,0,1,1,469.5,605.5"></path><path id="kity_path_258" fill="none" stroke="gray" d="M459,605.5L468,605.5"></path></g><path id="node_outline29" fill="#c00000" stroke="none" d="M474.5,592.5h117a5,5,0,0,1,5,5v16a5,5,0,0,1,-5,5h-117a5,5,0,0,1,-5,-5v-16a5,5,0,0,1,5,-5z" stroke-width="3"></path><g id="node_text29" fill="black"><text id="kity_text_143" text-rendering="inherit" font-size="12" dy=".8em" y="599.5" font-family="sans-serif" x="499.5">do_bootm_linux</text></g><g id="node_progress1"><path id="kity_path_476" fill="#FFED83" stroke="none" d="M494,606A9,9,0,1,1,476,606A9,9,0,1,1,494,606"></path><path id="kity_path_477" fill="#43BC00" stroke="none" d="M485,606L494,606A9,9,0,0,1,476,606A9,9,0,0,1,494,606L485,606z"></path><path id="kity_path_478" fill="#8E8E8E" stroke="none" d="M485,599c4.418,0,8,3.582,8,8h1c0,-5.523,-3.477,-10,-9,-10S476,601.477,476,607h1C477,602.582,480.582,599,485,599z"></path><path id="kity_path_480" fill="#EEE" stroke="none" d="M490.812,603.896l-6.75,6.75l-4.5,-4.5L481.25,604.459l2.812,2.803l5.062,-5.053L490.812,603.896z"></path><path id="kity_path_479" fill="url(#kity_linearGradient_17)" stroke="none" d="M485,596C479.477,596,475,600.477,475,606c0,5.523,4.477,10,10,10s10,-4.477,10,-10C495,600.477,490.523,596,485,596zM485,614c-4.418,0,-8,-3.582,-8,-8s3.582,-8,8,-8s8,3.582,8,8S489.418,614,485,614z"></path></g></g></g></g></svg>