<svg id="kity_svg_6" xmlns="http://www.w3.org/2000/svg" xmlns:xlink="http://www.w3.org/1999/xlink" version="1.1" width="738" height="560" style="background-color: rgb(251, 251, 251); visibility: visible;" viewBox="0 0 738 560"><defs id="kity_defs_7"><linearGradient id="kity_linearGradient_17" x1="0" y1="0" x2="0" y2="1"><stop id="kity_stop_18" offset="0" stop-color="rgb(255, 255, 255)"></stop><stop id="kity_stop_19" offset="1" stop-color="rgb(204, 204, 204)"></stop></linearGradient><marker id="kity_marker_2" orient="auto" refX="6" refY="0" viewBox="-7 -7 14 14" markerWidth="7" markerHeight="7" markerUnits="userSpaceOnUse"><path id="kity_path_3" fill="rgb(115, 191, 118)" stroke="none" d="M6,0A6,6,0,1,1,-6,0A6,6,0,1,1,6,0"></path></marker></defs><g id="kity_g_8"><g id="minder1" text-rendering="geometricPrecision"><g id="minder_connect_group1"><path id="kity_path_3267" fill="none" stroke="rgb(115, 191, 118)" stroke-width="1" d="M89,371.5A84.5,108,0,0,1,173.5,263.5"></path><path id="kity_path_3411" fill="none" stroke="rgb(115, 191, 118)" stroke-width="1" d="M89,371.5A84.5,108,0,0,0,173.5,479.5"></path><path id="kity_path_3466" fill="none" stroke="rgb(115, 191, 118)" stroke-width="1" d="M441.5,133.5C449.5,133.5,449.5,29.5,457.5,29.5"></path><path id="kity_path_3467" fill="none" stroke="rgb(115, 191, 118)" stroke-width="1" d="M441.5,133.5C449.5,133.5,449.5,55.5,457.5,55.5"></path><path id="kity_path_3468" fill="none" stroke="rgb(115, 191, 118)" stroke-width="1" d="M441.5,133.5C449.5,133.5,449.5,81.5,457.5,81.5"></path><path id="kity_path_3469" fill="none" stroke="rgb(115, 191, 118)" stroke-width="1" d="M568.5,237.5C576.5,237.5,576.5,107.5,584.5,107.5"></path><path id="kity_path_3470" fill="none" stroke="rgb(115, 191, 118)" stroke-width="1" d="M568.5,237.5C576.5,237.5,576.5,133.5,584.5,133.5"></path><path id="kity_path_3471" fill="none" stroke="rgb(115, 191, 118)" stroke-width="1" d="M568.5,237.5C576.5,237.5,576.5,159.5,584.5,159.5"></path><path id="kity_path_3472" fill="none" stroke="rgb(115, 191, 118)" stroke-width="1" d="M568.5,237.5C576.5,237.5,576.5,185.5,584.5,185.5"></path><path id="kity_path_3473" fill="none" stroke="rgb(115, 191, 118)" stroke-width="1" d="M568.5,237.5C576.5,237.5,576.5,211.5,584.5,211.5"></path><path id="kity_path_3474" fill="none" stroke="rgb(115, 191, 118)" stroke-width="1" d="M568.5,237.5C576.5,237.5,576.5,237.5,584.5,237.5"></path><path id="kity_path_3475" fill="none" stroke="rgb(115, 191, 118)" stroke-width="1" d="M568.5,237.5C576.5,237.5,576.5,263.5,584.5,263.5"></path><path id="kity_path_3476" fill="none" stroke="rgb(115, 191, 118)" stroke-width="1" d="M568.5,237.5C576.5,237.5,576.5,289.5,584.5,289.5"></path><path id="kity_path_3477" fill="none" stroke="rgb(115, 191, 118)" stroke-width="1" d="M568.5,237.5C576.5,237.5,576.5,315.5,584.5,315.5"></path><path id="kity_path_3478" fill="none" stroke="rgb(115, 191, 118)" stroke-width="1" d="M568.5,237.5C576.5,237.5,576.5,341.5,584.5,341.5"></path><path id="kity_path_3479" fill="none" stroke="rgb(115, 191, 118)" stroke-width="1" d="M568.5,237.5C576.5,237.5,576.5,367.5,584.5,367.5"></path><path id="kity_path_3480" fill="none" stroke="rgb(115, 191, 118)" stroke-width="1" d="M441.5,133.5C449.5,133.5,449.5,237.5,457.5,237.5"></path><path id="kity_path_3481" fill="none" stroke="rgb(115, 191, 118)" stroke-width="1" d="M315.5,263.5C323.5,263.5,323.5,133.5,331.5,133.5"></path><path id="kity_path_3482" fill="none" stroke="rgb(115, 191, 118)" stroke-width="1" d="M315.5,263.5C323.5,263.5,323.5,393.5,331.5,393.5"></path><path id="kity_path_3483" fill="none" stroke="rgb(115, 191, 118)" stroke-width="1" d="M317.5,479.5C325.5,479.5,325.5,427.5,333.5,427.5"></path><path id="kity_path_3484" fill="none" stroke="rgb(115, 191, 118)" stroke-width="1" d="M464.5,466.5C472.5,466.5,472.5,453.5,480.5,453.5"></path><path id="kity_path_3485" fill="none" stroke="rgb(115, 191, 118)" stroke-width="1" d="M464.5,466.5C472.5,466.5,472.5,479.5,480.5,479.5"></path><path id="kity_path_3486" fill="none" stroke="rgb(115, 191, 118)" stroke-width="1" d="M317.5,479.5C325.5,479.5,325.5,466.5,333.5,466.5"></path><path id="kity_path_3487" fill="none" stroke="rgb(115, 191, 118)" stroke-width="1" d="M317.5,479.5C325.5,479.5,325.5,505.5,333.5,505.5"></path><path id="kity_path_3488" fill="none" stroke="rgb(115, 191, 118)" stroke-width="1" d="M317.5,479.5C325.5,479.5,325.5,531.5,333.5,531.5"></path></g><g id="minder_node1"><path id="node_outline1" fill="rgb(115, 191, 118)" stroke="rgb(115, 191, 118)" d="M25.5,357.5h127a5,5,0,0,1,5,5v18a5,5,0,0,1,-5,5h-127a5,5,0,0,1,-5,-5v-18a5,5,0,0,1,5,-5z" stroke-width="3"></path><g id="node_text1" fill="white"><text id="kity_text_22" text-rendering="inherit" font-size="16" dy=".8em" y="363.5" font-family="sans-serif" x="32.5">do_bootm_linux</text></g></g><g id="kity_g_14" display="none"><path id="kity_path_15" fill="none" stroke="none" d="M32.5,371.5h0v0h0z"></path><path id="kity_path_16" fill="none" stroke="none"></path></g><g id="minder_node382" opacity="1"><g id="node_expander398" style="cursor: pointer;"><path id="kity_path_3408" fill="white" stroke="gray" d="M174.5,263.5A6,6,0,1,1,162.5,263.5A6,6,0,1,1,174.5,263.5"></path><path id="kity_path_3409" fill="none" stroke="gray" d="M164,263.5L173,263.5"></path></g><path id="node_outline399" fill="rgb(238, 246, 238)" stroke="rgb(115, 191, 118)" d="M178.5,250.5h134a3,3,0,0,1,3,3v20a3,3,0,0,1,-3,3h-134a3,3,0,0,1,-3,-3v-20a3,3,0,0,1,3,-3z" stroke-width="1"></path><g id="node_text399" fill="black"><text id="kity_text_3337" text-rendering="inherit" font-family="sans-serif" font-size="14" dy=".8em" y="256.5" x="195.5">boot_prep_linux</text></g></g><g id="minder_node400" opacity="1"><g id="node_expander405" style="cursor: pointer;"><path id="kity_path_3464" fill="white" stroke="gray" d="M174.5,479.5A6,6,0,1,1,162.5,479.5A6,6,0,1,1,174.5,479.5"></path><path id="kity_path_3465" fill="none" stroke="gray" d="M164,479.5L173,479.5"></path></g><path id="node_outline406" fill="rgb(238, 246, 238)" stroke="rgb(115, 191, 118)" d="M178.5,466.5h136a3,3,0,0,1,3,3v20a3,3,0,0,1,-3,3h-136a3,3,0,0,1,-3,-3v-20a3,3,0,0,1,3,-3z" stroke-width="1"></path><g id="node_text406" fill="black"><text id="kity_text_3437" text-rendering="inherit" font-family="sans-serif" font-size="14" dy=".8em" y="472.5" x="195.5">boot_jump_linux</text></g></g><g id="kity_g_12" display="none"><path id="kity_path_13" fill="none" stroke="rgb(66, 112, 68)" d="M25.5,357.5h223a5,5,0,0,1,5,5v18a5,5,0,0,1,-5,5h-223a5,5,0,0,1,-5,-5v-18a5,5,0,0,1,5,-5z" stroke-width="5"></path></g><g id="minder_node384"><g id="node_expander381" display="none" style="cursor: pointer;"><path id="kity_path_3357" fill="white" stroke="gray" d="M457.5,29.5A6,6,0,1,1,445.5,29.5A6,6,0,1,1,457.5,29.5"></path><path id="kity_path_3358" fill="none" stroke="gray"></path></g><path id="node_outline382" fill="none" stroke="none" d="M462.5,20.5h172a5,5,0,0,1,5,5v8a5,5,0,0,1,-5,5h-172a5,5,0,0,1,-5,-5v-8a5,5,0,0,1,5,-5z" stroke-width="3"></path><g id="node_text382" fill="black"><text id="kity_text_3303" text-rendering="inherit" font-family="sans-serif" font-size="12" dy=".8em" y="23.5" x="462.5">boot_fdt_add_mem_rsv_regions</text></g></g><g id="minder_node385"><g id="node_expander382" display="none" style="cursor: pointer;"><path id="kity_path_3360" fill="white" stroke="gray" d="M457.5,55.5A6,6,0,1,1,445.5,55.5A6,6,0,1,1,457.5,55.5"></path><path id="kity_path_3361" fill="none" stroke="gray"></path></g><path id="node_outline383" fill="none" stroke="none" d="M462.5,46.5h95a5,5,0,0,1,5,5v8a5,5,0,0,1,-5,5h-95a5,5,0,0,1,-5,-5v-8a5,5,0,0,1,5,-5z" stroke-width="3"></path><g id="node_text383" fill="black"><text id="kity_text_3305" text-rendering="inherit" font-family="sans-serif" font-size="12" dy=".8em" y="49.5" x="462.5">boot_get_cmdline</text></g></g><g id="minder_node386"><g id="node_expander383" display="none" style="cursor: pointer;"><path id="kity_path_3363" fill="white" stroke="gray" d="M457.5,81.5A6,6,0,1,1,445.5,81.5A6,6,0,1,1,457.5,81.5"></path><path id="kity_path_3364" fill="none" stroke="gray"></path></g><path id="node_outline384" fill="none" stroke="none" d="M462.5,72.5h93a5,5,0,0,1,5,5v8a5,5,0,0,1,-5,5h-93a5,5,0,0,1,-5,-5v-8a5,5,0,0,1,5,-5z" stroke-width="3"></path><g id="node_text384" fill="black"><text id="kity_text_3307" text-rendering="inherit" font-family="sans-serif" font-size="12" dy=".8em" y="75.5" x="462.5">boot_relocate_fdt</text></g></g><g id="minder_node388"><g id="node_expander384" display="none" style="cursor: pointer;"><path id="kity_path_3366" fill="white" stroke="gray" d="M584.5,107.5A6,6,0,1,1,572.5,107.5A6,6,0,1,1,584.5,107.5"></path><path id="kity_path_3367" fill="none" stroke="gray"></path></g><path id="node_outline385" fill="none" stroke="none" d="M589.5,98.5h41a5,5,0,0,1,5,5v8a5,5,0,0,1,-5,5h-41a5,5,0,0,1,-5,-5v-8a5,5,0,0,1,5,-5z" stroke-width="3"></path><g id="node_text385" fill="black"><text id="kity_text_3309" text-rendering="inherit" font-family="sans-serif" font-size="12" dy=".8em" y="101.5" x="589.5">fdt_root</text></g></g><g id="minder_node389"><g id="node_expander385" display="none" style="cursor: pointer;"><path id="kity_path_3369" fill="white" stroke="gray" d="M584.5,133.5A6,6,0,1,1,572.5,133.5A6,6,0,1,1,584.5,133.5"></path><path id="kity_path_3370" fill="none" stroke="gray"></path></g><path id="node_outline386" fill="none" stroke="none" d="M589.5,124.5h59a5,5,0,0,1,5,5v8a5,5,0,0,1,-5,5h-59a5,5,0,0,1,-5,-5v-8a5,5,0,0,1,5,-5z" stroke-width="3"></path><g id="node_text386" fill="black"><text id="kity_text_3311" text-rendering="inherit" font-family="sans-serif" font-size="12" dy=".8em" y="127.5" x="589.5">fdt_chosen</text></g></g><g id="minder_node390"><g id="node_expander386" display="none" style="cursor: pointer;"><path id="kity_path_3372" fill="white" stroke="gray" d="M584.5,159.5A6,6,0,1,1,572.5,159.5A6,6,0,1,1,584.5,159.5"></path><path id="kity_path_3373" fill="none" stroke="gray"></path></g><path id="node_outline387" fill="none" stroke="none" d="M589.5,150.5h75a5,5,0,0,1,5,5v8a5,5,0,0,1,-5,5h-75a5,5,0,0,1,-5,-5v-8a5,5,0,0,1,5,-5z" stroke-width="3"></path><g id="node_text387" fill="black"><text id="kity_text_3313" text-rendering="inherit" font-family="sans-serif" font-size="12" dy=".8em" y="153.5" x="589.5">arch_fixup_fdt</text></g></g><g id="minder_node391"><g id="node_expander387" display="none" style="cursor: pointer;"><path id="kity_path_3375" fill="white" stroke="gray" d="M584.5,185.5A6,6,0,1,1,572.5,185.5A6,6,0,1,1,584.5,185.5"></path><path id="kity_path_3376" fill="none" stroke="gray"></path></g><path id="node_outline388" fill="none" stroke="none" d="M589.5,176.5h121a5,5,0,0,1,5,5v8a5,5,0,0,1,-5,5h-121a5,5,0,0,1,-5,-5v-8a5,5,0,0,1,5,-5z" stroke-width="3"></path><g id="node_text388" fill="black"><text id="kity_text_3315" text-rendering="inherit" font-family="sans-serif" font-size="12" dy=".8em" y="179.5" x="589.5">optee_copy_fdt_nodes</text></g></g><g id="minder_node392"><g id="node_expander388" display="none" style="cursor: pointer;"><path id="kity_path_3378" fill="white" stroke="gray" d="M584.5,211.5A6,6,0,1,1,572.5,211.5A6,6,0,1,1,584.5,211.5"></path><path id="kity_path_3379" fill="none" stroke="gray"></path></g><path id="node_outline389" fill="none" stroke="none" d="M589.5,202.5h96a5,5,0,0,1,5,5v8a5,5,0,0,1,-5,5h-96a5,5,0,0,1,-5,-5v-8a5,5,0,0,1,5,-5z" stroke-width="3"></path><g id="node_text389" fill="black"><text id="kity_text_3317" text-rendering="inherit" font-family="sans-serif" font-size="12" dy=".8em" y="205.5" x="589.5">fdt_fixup_ethernet</text></g></g><g id="minder_node393"><g id="node_expander389" display="none" style="cursor: pointer;"><path id="kity_path_3381" fill="white" stroke="gray" d="M584.5,237.5A6,6,0,1,1,572.5,237.5A6,6,0,1,1,584.5,237.5"></path><path id="kity_path_3382" fill="none" stroke="gray"></path></g><path id="node_outline390" fill="none" stroke="none" d="M589.5,228.5h85a5,5,0,0,1,5,5v8a5,5,0,0,1,-5,5h-85a5,5,0,0,1,-5,-5v-8a5,5,0,0,1,5,-5z" stroke-width="3"></path><g id="node_text390" fill="black"><text id="kity_text_3319" text-rendering="inherit" font-family="sans-serif" font-size="12" dy=".8em" y="231.5" x="589.5">fdt_fixup_pstore</text></g></g><g id="minder_node394"><g id="node_expander390" display="none" style="cursor: pointer;"><path id="kity_path_3384" fill="white" stroke="gray" d="M584.5,263.5A6,6,0,1,1,572.5,263.5A6,6,0,1,1,584.5,263.5"></path><path id="kity_path_3385" fill="none" stroke="gray"></path></g><path id="node_outline391" fill="none" stroke="none" d="M589.5,254.5h80a5,5,0,0,1,5,5v8a5,5,0,0,1,-5,5h-80a5,5,0,0,1,-5,-5v-8a5,5,0,0,1,5,-5z" stroke-width="3"></path><g id="node_text391" fill="black"><text id="kity_text_3321" text-rendering="inherit" font-family="sans-serif" font-size="12" dy=".8em" y="257.5" x="589.5">ft_board_setup</text></g></g><g id="minder_node395"><g id="node_expander391" display="none" style="cursor: pointer;"><path id="kity_path_3387" fill="white" stroke="gray" d="M584.5,289.5A6,6,0,1,1,572.5,289.5A6,6,0,1,1,584.5,289.5"></path><path id="kity_path_3388" fill="none" stroke="gray"></path></g><path id="node_outline392" fill="none" stroke="none" d="M589.5,280.5h87a5,5,0,0,1,5,5v8a5,5,0,0,1,-5,5h-87a5,5,0,0,1,-5,-5v-8a5,5,0,0,1,5,-5z" stroke-width="3"></path><g id="node_text392" fill="black"><text id="kity_text_3323" text-rendering="inherit" font-family="sans-serif" font-size="12" dy=".8em" y="283.5" x="589.5">ft_system_setup</text></g></g><g id="minder_node396"><g id="node_expander392" display="none" style="cursor: pointer;"><path id="kity_path_3390" fill="white" stroke="gray" d="M584.5,315.5A6,6,0,1,1,572.5,315.5A6,6,0,1,1,584.5,315.5"></path><path id="kity_path_3391" fill="none" stroke="gray"></path></g><path id="node_outline393" fill="none" stroke="none" d="M589.5,306.5h124a5,5,0,0,1,5,5v8a5,5,0,0,1,-5,5h-124a5,5,0,0,1,-5,-5v-8a5,5,0,0,1,5,-5z" stroke-width="3"></path><g id="node_text393" fill="black"><text id="kity_text_3325" text-rendering="inherit" font-family="sans-serif" font-size="12" dy=".8em" y="309.5" x="589.5">fdt_shrink_to_minimum</text></g></g><g id="minder_node397"><g id="node_expander393" display="none" style="cursor: pointer;"><path id="kity_path_3393" fill="white" stroke="gray" d="M584.5,341.5A6,6,0,1,1,572.5,341.5A6,6,0,1,1,584.5,341.5"></path><path id="kity_path_3394" fill="none" stroke="gray"></path></g><path id="node_outline394" fill="none" stroke="none" d="M589.5,332.5h70a5,5,0,0,1,5,5v8a5,5,0,0,1,-5,5h-70a5,5,0,0,1,-5,-5v-8a5,5,0,0,1,5,-5z" stroke-width="3"></path><g id="node_text394" fill="black"><text id="kity_text_3327" text-rendering="inherit" font-family="sans-serif" font-size="12" dy=".8em" y="335.5" x="589.5">1mb_reserve</text></g></g><g id="minder_node398"><g id="node_expander394" display="none" style="cursor: pointer;"><path id="kity_path_3396" fill="white" stroke="gray" d="M584.5,367.5A6,6,0,1,1,572.5,367.5A6,6,0,1,1,584.5,367.5"></path><path id="kity_path_3397" fill="none" stroke="gray"></path></g><path id="node_outline395" fill="none" stroke="none" d="M589.5,358.5h43a5,5,0,0,1,5,5v8a5,5,0,0,1,-5,5h-43a5,5,0,0,1,-5,-5v-8a5,5,0,0,1,5,-5z" stroke-width="3"></path><g id="node_text395" fill="black"><text id="kity_text_3329" text-rendering="inherit" font-family="sans-serif" font-size="12" dy=".8em" y="361.5" x="589.5">fdt_inird</text></g></g><g id="minder_node387"><g id="node_expander395" style="cursor: pointer;"><path id="kity_path_3399" fill="white" stroke="gray" d="M457.5,237.5A6,6,0,1,1,445.5,237.5A6,6,0,1,1,457.5,237.5"></path><path id="kity_path_3400" fill="none" stroke="gray" d="M447,237.5L456,237.5"></path></g><path id="node_outline396" fill="none" stroke="none" d="M462.5,228.5h101a5,5,0,0,1,5,5v8a5,5,0,0,1,-5,5h-101a5,5,0,0,1,-5,-5v-8a5,5,0,0,1,5,-5z" stroke-width="3"></path><g id="node_text396" fill="black"><text id="kity_text_3331" text-rendering="inherit" font-family="sans-serif" font-size="12" dy=".8em" y="231.5" x="462.5">image_setup_libfdt</text></g></g><g id="minder_node383"><g id="node_expander396" style="cursor: pointer;"><path id="kity_path_3402" fill="white" stroke="gray" d="M331.5,133.5A6,6,0,1,1,319.5,133.5A6,6,0,1,1,331.5,133.5"></path><path id="kity_path_3403" fill="none" stroke="gray" d="M321,133.5L330,133.5"></path></g><path id="node_outline397" fill="none" stroke="none" d="M336.5,124.5h100a5,5,0,0,1,5,5v8a5,5,0,0,1,-5,5h-100a5,5,0,0,1,-5,-5v-8a5,5,0,0,1,5,-5z" stroke-width="3"></path><g id="node_text397" fill="black"><text id="kity_text_3333" text-rendering="inherit" font-family="sans-serif" font-size="12" dy=".8em" y="127.5" x="336.5">image_setup_linux</text></g></g><g id="minder_node399"><g id="node_expander397" display="none" style="cursor: pointer;"><path id="kity_path_3405" fill="white" stroke="gray" d="M331.5,393.5A6,6,0,1,1,319.5,393.5A6,6,0,1,1,331.5,393.5"></path><path id="kity_path_3406" fill="none" stroke="gray"></path></g><path id="node_outline398" fill="none" stroke="none" d="M336.5,384.5h93a5,5,0,0,1,5,5v8a5,5,0,0,1,-5,5h-93a5,5,0,0,1,-5,-5v-8a5,5,0,0,1,5,-5z" stroke-width="3"></path><g id="node_text398" fill="black"><text id="kity_text_3335" text-rendering="inherit" font-family="sans-serif" font-size="12" dy=".8em" y="387.5" x="336.5">board_prep_linux</text></g></g><g id="minder_node401"><g id="node_expander399" display="none" style="cursor: pointer;"><path id="kity_path_3446" fill="white" stroke="gray" d="M333.5,427.5A6,6,0,1,1,321.5,427.5A6,6,0,1,1,333.5,427.5"></path><path id="kity_path_3447" fill="none" stroke="gray"></path></g><path id="node_outline400" fill="none" stroke="none" d="M338.5,418.5h97a5,5,0,0,1,5,5v8a5,5,0,0,1,-5,5h-97a5,5,0,0,1,-5,-5v-8a5,5,0,0,1,5,-5z" stroke-width="3"></path><g id="node_text400" fill="black"><text id="kity_text_3425" text-rendering="inherit" font-family="sans-serif" font-size="12" dy=".8em" y="421.5" x="338.5">armv8_setup_psci</text></g></g><g id="minder_node403"><g id="node_expander400" display="none" style="cursor: pointer;"><path id="kity_path_3449" fill="white" stroke="gray" d="M480.5,453.5A6,6,0,1,1,468.5,453.5A6,6,0,1,1,480.5,453.5"></path><path id="kity_path_3450" fill="none" stroke="gray"></path></g><path id="node_outline401" fill="none" stroke="none" d="M485.5,444.5h101a5,5,0,0,1,5,5v8a5,5,0,0,1,-5,5h-101a5,5,0,0,1,-5,-5v-8a5,5,0,0,1,5,-5z" stroke-width="3"></path><g id="node_text401" fill="black"><text id="kity_text_3427" text-rendering="inherit" font-family="sans-serif" font-size="12" dy=".8em" y="447.5" x="485.5">smp_kick_all_cpus</text></g></g><g id="minder_node404"><g id="node_expander401" display="none" style="cursor: pointer;"><path id="kity_path_3452" fill="white" stroke="gray" d="M480.5,479.5A6,6,0,1,1,468.5,479.5A6,6,0,1,1,480.5,479.5"></path><path id="kity_path_3453" fill="none" stroke="gray"></path></g><path id="node_outline402" fill="none" stroke="none" d="M485.5,470.5h83a5,5,0,0,1,5,5v8a5,5,0,0,1,-5,5h-83a5,5,0,0,1,-5,-5v-8a5,5,0,0,1,5,-5z" stroke-width="3"></path><g id="node_text402" fill="black"><text id="kity_text_3429" text-rendering="inherit" font-family="sans-serif" font-size="12" dy=".8em" y="473.5" x="485.5">dcache_disable</text></g></g><g id="minder_node402"><g id="node_expander402" style="cursor: pointer;"><path id="kity_path_3455" fill="white" stroke="gray" d="M333.5,466.5A6,6,0,1,1,321.5,466.5A6,6,0,1,1,333.5,466.5"></path><path id="kity_path_3456" fill="none" stroke="gray" d="M323,466.5L332,466.5"></path></g><path id="node_outline403" fill="none" stroke="none" d="M338.5,457.5h121a5,5,0,0,1,5,5v8a5,5,0,0,1,-5,5h-121a5,5,0,0,1,-5,-5v-8a5,5,0,0,1,5,-5z" stroke-width="3"></path><g id="node_text403" fill="black"><text id="kity_text_3431" text-rendering="inherit" font-family="sans-serif" font-size="12" dy=".8em" y="460.5" x="338.5">do_nonsec_virt_switch</text></g></g><g id="minder_node405"><g id="node_expander403" display="none" style="cursor: pointer;"><path id="kity_path_3458" fill="white" stroke="gray" d="M333.5,505.5A6,6,0,1,1,321.5,505.5A6,6,0,1,1,333.5,505.5"></path><path id="kity_path_3459" fill="none" stroke="gray"></path></g><path id="node_outline404" fill="none" stroke="none" d="M338.5,496.5h184a5,5,0,0,1,5,5v8a5,5,0,0,1,-5,5h-184a5,5,0,0,1,-5,-5v-8a5,5,0,0,1,5,-5z" stroke-width="3"></path><g id="node_text404" fill="black"><text id="kity_text_3433" text-rendering="inherit" font-family="sans-serif" font-size="12" dy=".8em" y="499.5" x="338.5">update_os_arch_secondary_cores</text></g></g><g id="minder_node406"><g id="node_expander404" display="none" style="cursor: pointer;"><path id="kity_path_3461" fill="white" stroke="gray" d="M333.5,531.5A6,6,0,1,1,321.5,531.5A6,6,0,1,1,333.5,531.5"></path><path id="kity_path_3462" fill="none" stroke="gray"></path></g><path id="node_outline405" fill="none" stroke="none" d="M338.5,522.5h113a5,5,0,0,1,5,5v8a5,5,0,0,1,-5,5h-113a5,5,0,0,1,-5,-5v-8a5,5,0,0,1,5,-5z" stroke-width="3"></path><g id="node_text405" fill="black"><text id="kity_text_3435" text-rendering="inherit" font-family="sans-serif" font-size="12" dy=".8em" y="525.5" x="338.5">armv8_switch_to_el2</text></g></g></g></g></svg>