<svg id="kity_svg_6" xmlns="http://www.w3.org/2000/svg" xmlns:xlink="http://www.w3.org/1999/xlink" version="1.1" width="565" height="650" style="background: rgb(251, 251, 251); visibility: visible;" viewBox="0 0 565 650"><defs id="kity_defs_7"><linearGradient id="kity_linearGradient_17" x1="0" y1="0" x2="0" y2="1"><stop id="kity_stop_18" offset="0" stop-color="rgb(255, 255, 255)"></stop><stop id="kity_stop_19" offset="1" stop-color="rgb(204, 204, 204)"></stop></linearGradient><marker id="kity_marker_2" orient="auto" refX="6" refY="0" viewBox="-7 -7 14 14" markerWidth="7" markerHeight="7" markerUnits="userSpaceOnUse"><path id="kity_path_3" fill="rgb(115, 161, 191)" stroke="none" d="M6,0A6,6,0,1,1,-6,0A6,6,0,1,1,6,0"></path></marker></defs><g id="kity_g_8"><g id="minder1" text-rendering="optimize-speed"><g id="minder_connect_group1"><path id="kity_path_31" fill="none" stroke="rgb(115, 161, 191)" stroke-width="1" d="M88,349.5A83.5,268,0,0,1,171.5,81.5"></path><path id="kity_path_39" fill="none" stroke="rgb(115, 161, 191)" stroke-width="1" d="M88,349.5A83.5,130,0,0,1,171.5,219.5"></path><path id="kity_path_47" fill="none" stroke="rgb(115, 161, 191)" stroke-width="1" d="M88,349.5A83.5,8,0,0,0,171.5,357.5"></path><path id="kity_path_55" fill="none" stroke="rgb(115, 161, 191)" stroke-width="1" d="M88,349.5A83.5,120,0,0,0,171.5,469.5"></path><path id="kity_path_63" fill="none" stroke="rgb(115, 161, 191)" stroke-width="1" d="M88,349.5A83.5,184,0,0,0,171.5,533.5"></path><path id="kity_path_71" fill="none" stroke="rgb(115, 161, 191)" stroke-width="1" d="M88,349.5A83.5,226,0,0,0,171.5,575.5"></path><path id="kity_path_79" fill="none" stroke="rgb(115, 161, 191)" stroke-width="1" d="M88,349.5A83.5,268,0,0,0,171.5,617.5"></path><path id="kity_path_87" fill="none" stroke="rgb(115, 161, 191)" stroke-width="1" d="M267.5,219.5C275.5,219.5,275.5,167.5,283.5,167.5"></path><path id="kity_path_95" fill="none" stroke="rgb(115, 161, 191)" stroke-width="1" d="M267.5,219.5C275.5,219.5,275.5,193.5,283.5,193.5"></path><path id="kity_path_111" fill="none" stroke="rgb(115, 161, 191)" stroke-width="1" d="M267.5,219.5C275.5,219.5,275.5,219.5,283.5,219.5"></path><path id="kity_path_127" fill="none" stroke="rgb(115, 161, 191)" stroke-width="1" d="M267.5,219.5C275.5,219.5,275.5,245.5,283.5,245.5"></path><path id="kity_path_135" fill="none" stroke="rgb(115, 161, 191)" stroke-width="1" d="M267.5,219.5C275.5,219.5,275.5,271.5,283.5,271.5"></path><path id="kity_path_143" fill="none" stroke="rgb(115, 161, 191)" stroke-width="1" d="M280.5,357.5C288.5,357.5,288.5,305.5,296.5,305.5"></path><path id="kity_path_151" fill="none" stroke="rgb(115, 161, 191)" stroke-width="1" d="M280.5,357.5C288.5,357.5,288.5,331.5,296.5,331.5"></path><path id="kity_path_159" fill="none" stroke="rgb(115, 161, 191)" stroke-width="1" d="M280.5,357.5C288.5,357.5,288.5,357.5,296.5,357.5"></path><path id="kity_path_167" fill="none" stroke="rgb(115, 161, 191)" stroke-width="1" d="M280.5,357.5C288.5,357.5,288.5,383.5,296.5,383.5"></path><path id="kity_path_175" fill="none" stroke="rgb(115, 161, 191)" stroke-width="1" d="M280.5,357.5C288.5,357.5,288.5,409.5,296.5,409.5"></path><path id="kity_path_183" fill="none" stroke="rgb(115, 161, 191)" stroke-width="1" d="M251.5,81.5C259.5,81.5,259.5,29.5,267.5,29.5"></path><path id="kity_path_215" fill="none" stroke="rgb(115, 161, 191)" stroke-width="1" d="M251.5,81.5C259.5,81.5,259.5,55.5,267.5,55.5"></path><path id="kity_path_223" fill="none" stroke="rgb(115, 161, 191)" stroke-width="1" d="M251.5,81.5C259.5,81.5,259.5,81.5,267.5,81.5"></path><path id="kity_path_231" fill="none" stroke="rgb(115, 161, 191)" stroke-width="1" d="M251.5,81.5C259.5,81.5,259.5,107.5,267.5,107.5"></path><path id="kity_path_239" fill="none" stroke="rgb(115, 161, 191)" stroke-width="1" d="M251.5,81.5C259.5,81.5,259.5,133.5,267.5,133.5"></path><path id="kity_path_247" fill="none" stroke="rgb(115, 161, 191)" stroke-width="1" d="M417.5,469.5C425.5,469.5,425.5,443.5,433.5,443.5"></path><path id="kity_path_255" fill="none" stroke="rgb(115, 161, 191)" stroke-width="1" d="M417.5,469.5C425.5,469.5,425.5,469.5,433.5,469.5"></path><path id="kity_path_263" fill="none" stroke="rgb(115, 161, 191)" stroke-width="1" d="M417.5,469.5C425.5,469.5,425.5,495.5,433.5,495.5"></path></g><g id="minder_node1"><path id="node_outline1" fill="rgb(115, 161, 191)" stroke="rgb(115, 161, 191)" d="M25.5,335.5h125a5,5,0,0,1,5,5v18a5,5,0,0,1,-5,5h-125a5,5,0,0,1,-5,-5v-18a5,5,0,0,1,5,-5z" stroke-width="3"></path><g id="node_text1" fill="white"><text id="kity_text_22" text-rendering="inherit" font-size="16" dy=".8em" y="341.5" x="32.5">struct irq_desc</text></g></g><g id="kity_g_12"><path id="kity_path_13" fill="none" stroke="none" d="M32.5,349.5h0v0h0z"></path></g><g id="kity_g_14"><path id="kity_path_15" fill="none" stroke="none" d="M32.5,349.5h0v0h0z"></path><path id="kity_path_16" fill="none" stroke="none"></path></g><g id="minder_node2"><g id="node_expander1" style="cursor: pointer;"><path id="kity_path_36" fill="white" stroke="gray" d="M172.5,81.5A6,6,0,1,1,160.5,81.5A6,6,0,1,1,172.5,81.5"></path><path id="kity_path_37" fill="none" stroke="gray" d="M162,81.5L171,81.5"></path></g><path id="node_outline2" fill="rgb(238, 243, 246)" stroke="rgb(115, 161, 191)" d="M176.5,68.5h72a3,3,0,0,1,3,3v20a3,3,0,0,1,-3,3h-72a3,3,0,0,1,-3,-3v-20a3,3,0,0,1,3,-3z" stroke-width="1"></path><g id="node_text2" fill="black"><text id="kity_text_33" text-rendering="inherit" font-size="14" dy=".8em" y="74.5" x="193.5">status</text></g></g><g id="minder_node3"><g id="node_expander2" style="cursor: pointer;"><path id="kity_path_44" fill="white" stroke="gray" d="M172.5,219.5A6,6,0,1,1,160.5,219.5A6,6,0,1,1,172.5,219.5"></path><path id="kity_path_45" fill="none" stroke="gray" d="M162,219.5L171,219.5"></path></g><path id="node_outline3" fill="rgb(238, 243, 246)" stroke="rgb(115, 161, 191)" d="M176.5,206.5h88a3,3,0,0,1,3,3v20a3,3,0,0,1,-3,3h-88a3,3,0,0,1,-3,-3v-20a3,3,0,0,1,3,-3z" stroke-width="1"></path><g id="node_text3" fill="black"><text id="kity_text_41" text-rendering="inherit" font-size="14" dy=".8em" y="212.5" x="193.5">irq_chip</text></g></g><g id="minder_node4"><g id="node_expander3" style="cursor: pointer;"><path id="kity_path_52" fill="white" stroke="gray" d="M172.5,357.5A6,6,0,1,1,160.5,357.5A6,6,0,1,1,172.5,357.5"></path><path id="kity_path_53" fill="none" stroke="gray" d="M162,357.5L171,357.5"></path></g><path id="node_outline4" fill="rgb(238, 243, 246)" stroke="rgb(115, 161, 191)" d="M176.5,344.5h101a3,3,0,0,1,3,3v20a3,3,0,0,1,-3,3h-101a3,3,0,0,1,-3,-3v-20a3,3,0,0,1,3,-3z" stroke-width="1"></path><g id="node_text4" fill="black"><text id="kity_text_49" text-rendering="inherit" font-size="14" dy=".8em" y="350.5" x="193.5">irq_action</text></g></g><g id="minder_node5"><g id="node_expander4" style="cursor: pointer;"><path id="kity_path_60" fill="white" stroke="gray" d="M172.5,469.5A6,6,0,1,1,160.5,469.5A6,6,0,1,1,172.5,469.5"></path><path id="kity_path_61" fill="none" stroke="gray" d="M162,469.5L171,469.5"></path></g><path id="node_outline5" fill="rgb(238, 243, 246)" stroke="rgb(115, 161, 191)" d="M176.5,456.5h238a3,3,0,0,1,3,3v20a3,3,0,0,1,-3,3h-238a3,3,0,0,1,-3,-3v-20a3,3,0,0,1,3,-3z" stroke-width="1"></path><g id="node_text5" fill="black"><text id="kity_text_57" text-rendering="inherit" font-size="14" dy=".8em" y="462.5" x="193.5">irq_flow_handler_t *handle_irq</text></g></g><g id="minder_node6"><g id="node_expander5" style="cursor: pointer;" display="none"><path id="kity_path_68" fill="white" stroke="gray" d="M172.5,533.5A6,6,0,1,1,160.5,533.5A6,6,0,1,1,172.5,533.5"></path><path id="kity_path_69" fill="none" stroke="gray"></path></g><path id="node_outline6" fill="rgb(238, 243, 246)" stroke="rgb(115, 161, 191)" d="M176.5,520.5h74a3,3,0,0,1,3,3v20a3,3,0,0,1,-3,3h-74a3,3,0,0,1,-3,-3v-20a3,3,0,0,1,3,-3z" stroke-width="1"></path><g id="node_text6" fill="black"><text id="kity_text_65" text-rendering="inherit" font-size="14" dy=".8em" y="526.5" x="193.5">name</text></g></g><g id="minder_node7"><g id="node_expander6" style="cursor: pointer;" display="none"><path id="kity_path_76" fill="white" stroke="gray" d="M172.5,575.5A6,6,0,1,1,160.5,575.5A6,6,0,1,1,172.5,575.5"></path><path id="kity_path_77" fill="none" stroke="gray"></path></g><path id="node_outline7" fill="rgb(238, 243, 246)" stroke="rgb(115, 161, 191)" d="M176.5,562.5h76a3,3,0,0,1,3,3v20a3,3,0,0,1,-3,3h-76a3,3,0,0,1,-3,-3v-20a3,3,0,0,1,3,-3z" stroke-width="1"></path><g id="node_text7" fill="black"><text id="kity_text_73" text-rendering="inherit" font-size="14" dy=".8em" y="568.5" x="193.5">depth</text></g></g><g id="minder_node8"><g id="node_expander7" style="cursor: pointer;" display="none"><path id="kity_path_84" fill="white" stroke="gray" d="M172.5,617.5A6,6,0,1,1,160.5,617.5A6,6,0,1,1,172.5,617.5"></path><path id="kity_path_85" fill="none" stroke="gray"></path></g><path id="node_outline8" fill="rgb(238, 243, 246)" stroke="rgb(115, 161, 191)" d="M176.5,604.5h50a3,3,0,0,1,3,3v20a3,3,0,0,1,-3,3h-50a3,3,0,0,1,-3,-3v-20a3,3,0,0,1,3,-3z" stroke-width="1"></path><g id="node_text8" fill="black"><text id="kity_text_81" text-rendering="inherit" font-size="14" dy=".8em" y="610.5" x="193.5">....</text></g></g><g id="minder_node9"><g id="node_expander8" style="cursor: pointer;" display="none"><path id="kity_path_92" fill="white" stroke="gray" d="M283.5,167.5A6,6,0,1,1,271.5,167.5A6,6,0,1,1,283.5,167.5"></path><path id="kity_path_93" fill="none" stroke="gray"></path></g><path id="node_outline9" fill="none" stroke="none" d="M288.5,158.5h35a5,5,0,0,1,5,5v8a5,5,0,0,1,-5,5h-35a5,5,0,0,1,-5,-5v-8a5,5,0,0,1,5,-5z" stroke-width="3"></path><g id="node_text9" fill="black"><text id="kity_text_89" text-rendering="inherit" font-size="12" dy=".8em" y="161.5" x="288.5">name</text></g></g><g id="minder_node10"><g id="node_expander9" style="cursor: pointer;" display="none"><path id="kity_path_100" fill="white" stroke="gray" d="M283.5,193.5A6,6,0,1,1,271.5,193.5A6,6,0,1,1,283.5,193.5"></path><path id="kity_path_101" fill="none" stroke="gray"></path></g><path id="node_outline10" fill="none" stroke="none" d="M288.5,184.5h112a5,5,0,0,1,5,5v8a5,5,0,0,1,-5,5h-112a5,5,0,0,1,-5,-5v-8a5,5,0,0,1,5,-5z" stroke-width="3"></path><g id="node_text10" fill="black"><text id="kity_text_97" text-rendering="inherit" font-size="12" dy=".8em" y="187.5" x="288.5">*startup/*shutdown</text></g></g><g id="minder_node12"><g id="node_expander11" style="cursor: pointer;" display="none"><path id="kity_path_116" fill="white" stroke="gray" d="M283.5,219.5A6,6,0,1,1,271.5,219.5A6,6,0,1,1,283.5,219.5"></path><path id="kity_path_117" fill="none" stroke="gray"></path></g><path id="node_outline12" fill="none" stroke="none" d="M288.5,210.5h99a5,5,0,0,1,5,5v8a5,5,0,0,1,-5,5h-99a5,5,0,0,1,-5,-5v-8a5,5,0,0,1,5,-5z" stroke-width="3"></path><g id="node_text12" fill="black"><text id="kity_text_113" text-rendering="inherit" font-size="12" dy=".8em" y="213.5" x="288.5">*enable/*disable</text></g></g><g id="minder_node14"><g id="node_expander13" style="cursor: pointer;" display="none"><path id="kity_path_132" fill="white" stroke="gray" d="M283.5,245.5A6,6,0,1,1,271.5,245.5A6,6,0,1,1,283.5,245.5"></path><path id="kity_path_133" fill="none" stroke="gray"></path></g><path id="node_outline14" fill="none" stroke="none" d="M288.5,236.5h123a5,5,0,0,1,5,5v8a5,5,0,0,1,-5,5h-123a5,5,0,0,1,-5,-5v-8a5,5,0,0,1,5,-5z" stroke-width="3"></path><g id="node_text14" fill="black"><text id="kity_text_129" text-rendering="inherit" font-size="12" dy=".8em" y="239.5" x="288.5">*ack/*mask/*unmask</text></g></g><g id="minder_node15"><g id="node_expander14" style="cursor: pointer;" display="none"><path id="kity_path_140" fill="white" stroke="gray" d="M283.5,271.5A6,6,0,1,1,271.5,271.5A6,6,0,1,1,283.5,271.5"></path><path id="kity_path_141" fill="none" stroke="gray"></path></g><path id="node_outline15" fill="none" stroke="none" d="M288.5,262.5h128a5,5,0,0,1,5,5v8a5,5,0,0,1,-5,5h-128a5,5,0,0,1,-5,-5v-8a5,5,0,0,1,5,-5z" stroke-width="3"></path><g id="node_text15" fill="black"><text id="kity_text_137" text-rendering="inherit" font-size="12" dy=".8em" y="265.5" x="288.5">*eoi/*end/*set_affinity</text></g></g><g id="minder_node16"><g id="node_expander15" style="cursor: pointer;" display="none"><path id="kity_path_148" fill="white" stroke="gray" d="M296.5,305.5A6,6,0,1,1,284.5,305.5A6,6,0,1,1,296.5,305.5"></path><path id="kity_path_149" fill="none" stroke="gray"></path></g><path id="node_outline16" fill="none" stroke="none" d="M301.5,296.5h45a5,5,0,0,1,5,5v8a5,5,0,0,1,-5,5h-45a5,5,0,0,1,-5,-5v-8a5,5,0,0,1,5,-5z" stroke-width="3"></path><g id="node_text16" fill="black"><text id="kity_text_145" text-rendering="inherit" font-size="12" dy=".8em" y="299.5" x="301.5">handler</text></g></g><g id="minder_node17"><g id="node_expander16" style="cursor: pointer;" display="none"><path id="kity_path_156" fill="white" stroke="gray" d="M296.5,331.5A6,6,0,1,1,284.5,331.5A6,6,0,1,1,296.5,331.5"></path><path id="kity_path_157" fill="none" stroke="gray"></path></g><path id="node_outline17" fill="none" stroke="none" d="M301.5,322.5h27a5,5,0,0,1,5,5v8a5,5,0,0,1,-5,5h-27a5,5,0,0,1,-5,-5v-8a5,5,0,0,1,5,-5z" stroke-width="3"></path><g id="node_text17" fill="black"><text id="kity_text_153" text-rendering="inherit" font-size="12" dy=".8em" y="325.5" x="301.5">flags</text></g></g><g id="minder_node18"><g id="node_expander17" style="cursor: pointer;" display="none"><path id="kity_path_164" fill="white" stroke="gray" d="M296.5,357.5A6,6,0,1,1,284.5,357.5A6,6,0,1,1,296.5,357.5"></path><path id="kity_path_165" fill="none" stroke="gray"></path></g><path id="node_outline18" fill="none" stroke="none" d="M301.5,348.5h40a5,5,0,0,1,5,5v8a5,5,0,0,1,-5,5h-40a5,5,0,0,1,-5,-5v-8a5,5,0,0,1,5,-5z" stroke-width="3"></path><g id="node_text18" fill="black"><text id="kity_text_161" text-rendering="inherit" font-size="12" dy=".8em" y="351.5" x="301.5">*name</text></g></g><g id="minder_node19"><g id="node_expander18" style="cursor: pointer;" display="none"><path id="kity_path_172" fill="white" stroke="gray" d="M296.5,383.5A6,6,0,1,1,284.5,383.5A6,6,0,1,1,296.5,383.5"></path><path id="kity_path_173" fill="none" stroke="gray"></path></g><path id="node_outline19" fill="none" stroke="none" d="M301.5,374.5h44a5,5,0,0,1,5,5v8a5,5,0,0,1,-5,5h-44a5,5,0,0,1,-5,-5v-8a5,5,0,0,1,5,-5z" stroke-width="3"></path><g id="node_text19" fill="black"><text id="kity_text_169" text-rendering="inherit" font-size="12" dy=".8em" y="377.5" x="301.5">*dev_id</text></g></g><g id="minder_node20"><g id="node_expander19" style="cursor: pointer;" display="none"><path id="kity_path_180" fill="white" stroke="gray" d="M296.5,409.5A6,6,0,1,1,284.5,409.5A6,6,0,1,1,296.5,409.5"></path><path id="kity_path_181" fill="none" stroke="gray"></path></g><path id="node_outline20" fill="#c00000" stroke="none" d="M301.5,400.5h30a5,5,0,0,1,5,5v8a5,5,0,0,1,-5,5h-30a5,5,0,0,1,-5,-5v-8a5,5,0,0,1,5,-5z" stroke-width="3"></path><g id="node_text20" fill="black"><text id="kity_text_177" text-rendering="inherit" font-size="12" dy=".8em" y="403.5" x="301.5">*next</text></g></g><g id="minder_node21"><g id="node_expander20" style="cursor: pointer;" display="none"><path id="kity_path_188" fill="white" stroke="gray" d="M267.5,29.5A6,6,0,1,1,255.5,29.5A6,6,0,1,1,267.5,29.5"></path><path id="kity_path_189" fill="none" stroke="gray" d="M257,29.5L266,29.5"></path></g><path id="node_outline21" fill="none" stroke="none" d="M272.5,20.5h72a5,5,0,0,1,5,5v8a5,5,0,0,1,-5,5h-72a5,5,0,0,1,-5,-5v-8a5,5,0,0,1,5,-5z" stroke-width="3"></path><g id="node_text21" fill="black"><text id="kity_text_185" text-rendering="inherit" font-size="12" dy=".8em" y="23.5" x="272.5">IRQ_DISABLE</text></g></g><g id="minder_node25"><g id="node_expander24" style="cursor: pointer;" display="none"><path id="kity_path_220" fill="white" stroke="gray" d="M267.5,55.5A6,6,0,1,1,255.5,55.5A6,6,0,1,1,267.5,55.5"></path><path id="kity_path_221" fill="none" stroke="gray"></path></g><path id="node_outline25" fill="none" stroke="none" d="M272.5,46.5h59a5,5,0,0,1,5,5v8a5,5,0,0,1,-5,5h-59a5,5,0,0,1,-5,-5v-8a5,5,0,0,1,5,-5z" stroke-width="3"></path><g id="node_text25" fill="black"><text id="kity_text_217" text-rendering="inherit" font-size="12" dy=".8em" y="49.5" x="272.5">IRQ_LEVEL</text></g></g><g id="minder_node26"><g id="node_expander25" style="cursor: pointer;" display="none"><path id="kity_path_228" fill="white" stroke="gray" d="M267.5,81.5A6,6,0,1,1,255.5,81.5A6,6,0,1,1,267.5,81.5"></path><path id="kity_path_229" fill="none" stroke="gray"></path></g><path id="node_outline26" fill="none" stroke="none" d="M272.5,72.5h69a5,5,0,0,1,5,5v8a5,5,0,0,1,-5,5h-69a5,5,0,0,1,-5,-5v-8a5,5,0,0,1,5,-5z" stroke-width="3"></path><g id="node_text26" fill="black"><text id="kity_text_225" text-rendering="inherit" font-size="12" dy=".8em" y="75.5" x="272.5">IRQ_REPLAY</text></g></g><g id="minder_node27"><g id="node_expander26" style="cursor: pointer;" display="none"><path id="kity_path_236" fill="white" stroke="gray" d="M267.5,107.5A6,6,0,1,1,255.5,107.5A6,6,0,1,1,267.5,107.5"></path><path id="kity_path_237" fill="none" stroke="gray"></path></g><path id="node_outline27" fill="none" stroke="none" d="M272.5,98.5h100a5,5,0,0,1,5,5v8a5,5,0,0,1,-5,5h-100a5,5,0,0,1,-5,-5v-8a5,5,0,0,1,5,-5z" stroke-width="3"></path><g id="node_text27" fill="black"><text id="kity_text_233" text-rendering="inherit" font-size="12" dy=".8em" y="101.5" x="272.5">IRQ_AUTODETECT</text></g></g><g id="minder_node28"><g id="node_expander27" style="cursor: pointer;" display="none"><path id="kity_path_244" fill="white" stroke="gray" d="M267.5,133.5A6,6,0,1,1,255.5,133.5A6,6,0,1,1,267.5,133.5"></path><path id="kity_path_245" fill="none" stroke="gray"></path></g><path id="node_outline28" fill="none" stroke="none" d="M272.5,124.5h74a5,5,0,0,1,5,5v8a5,5,0,0,1,-5,5h-74a5,5,0,0,1,-5,-5v-8a5,5,0,0,1,5,-5z" stroke-width="3"></path><g id="node_text28" fill="black"><text id="kity_text_241" text-rendering="inherit" font-size="12" dy=".8em" y="127.5" x="272.5">IRQ_WATING</text></g></g><g id="minder_node29"><g id="node_expander28" style="cursor: pointer;" display="none"><path id="kity_path_252" fill="white" stroke="gray" d="M433.5,443.5A6,6,0,1,1,421.5,443.5A6,6,0,1,1,433.5,443.5"></path><path id="kity_path_253" fill="none" stroke="gray"></path></g><path id="node_outline29" fill="#00b050" stroke="rgb(57, 80, 96)" d="M438.5,434.5h83a5,5,0,0,1,5,5v8a5,5,0,0,1,-5,5h-83a5,5,0,0,1,-5,-5v-8a5,5,0,0,1,5,-5z" stroke-width="3"></path><g id="node_text29" fill="black"><text id="kity_text_249" text-rendering="inherit" font-size="12" dy=".8em" y="437.5" x="438.5">&lt;- set_irq_chip</text></g></g><g id="minder_node30"><g id="node_expander29" style="cursor: pointer;" display="none"><path id="kity_path_260" fill="white" stroke="gray" d="M433.5,469.5A6,6,0,1,1,421.5,469.5A6,6,0,1,1,433.5,469.5"></path><path id="kity_path_261" fill="none" stroke="gray"></path></g><path id="node_outline30" fill="#00b050" stroke="rgb(57, 80, 96)" d="M438.5,460.5h102a5,5,0,0,1,5,5v8a5,5,0,0,1,-5,5h-102a5,5,0,0,1,-5,-5v-8a5,5,0,0,1,5,-5z" stroke-width="3"></path><g id="node_text30" fill="black"><text id="kity_text_257" text-rendering="inherit" font-size="12" dy=".8em" y="463.5" x="438.5">&lt;- set_irq_handler</text></g></g><g id="minder_node31"><g id="node_expander30" style="cursor: pointer;" display="none"><path id="kity_path_268" fill="white" stroke="gray" d="M433.5,495.5A6,6,0,1,1,421.5,495.5A6,6,0,1,1,433.5,495.5"></path><path id="kity_path_269" fill="none" stroke="gray"></path></g><path id="node_outline31" fill="#00b050" stroke="rgb(57, 80, 96)" d="M438.5,486.5h74a5,5,0,0,1,5,5v8a5,5,0,0,1,-5,5h-74a5,5,0,0,1,-5,-5v-8a5,5,0,0,1,5,-5z" stroke-width="3"></path><g id="node_text31" fill="black"><text id="kity_text_265" text-rendering="inherit" font-size="12" dy=".8em" y="489.5" x="438.5">&lt;- set_irq_xxx</text></g></g></g></g></svg>