<svg id="kity_svg_6" xmlns="http://www.w3.org/2000/svg" xmlns:xlink="http://www.w3.org/1999/xlink" version="1.1" width="674" height="454" style="background: rgb(251, 251, 251); visibility: visible;" viewBox="0 0 674 454"><defs id="kity_defs_7"><linearGradient id="kity_linearGradient_17" x1="0" y1="0" x2="0" y2="1"><stop id="kity_stop_18" offset="0" stop-color="rgb(255, 255, 255)"></stop><stop id="kity_stop_19" offset="1" stop-color="rgb(204, 204, 204)"></stop></linearGradient><marker id="kity_marker_2" orient="auto" refX="6" refY="0" viewBox="-7 -7 14 14" markerWidth="7" markerHeight="7" markerUnits="userSpaceOnUse"><path id="kity_path_3" fill="rgb(115, 191, 118)" stroke="none" d="M6,0A6,6,0,1,1,-6,0A6,6,0,1,1,6,0"></path></marker></defs><g id="kity_g_8"><g id="minder1" text-rendering="optimize-speed"><g id="minder_connect_group1"><path id="kity_path_31" fill="none" stroke="rgb(115, 191, 118)" stroke-width="1" d="M40.5,92.5V113.5L48.5,113.5"></path><path id="kity_path_39" fill="none" stroke="rgb(115, 191, 118)" stroke-width="1" d="M40.5,92.5V139.5L48.5,139.5"></path><path id="kity_path_47" fill="none" stroke="rgb(115, 191, 118)" stroke-width="1" d="M40.5,92.5V165.5L48.5,165.5"></path><path id="kity_path_55" fill="none" stroke="rgb(115, 191, 118)" stroke-width="1" d="M40.5,92.5V191.5L48.5,191.5"></path><path id="kity_path_63" fill="none" stroke="rgb(115, 191, 118)" stroke-width="1" d="M40.5,92.5V217.5L48.5,217.5"></path><path id="kity_path_71" fill="none" stroke="rgb(115, 191, 118)" stroke-width="1" d="M254.5,48.5v10h-21V66.5"></path><path id="kity_path_79" fill="none" stroke="rgb(115, 191, 118)" stroke-width="1" d="M254.5,48.5v10h183.5V66.5"></path><path id="kity_path_87" fill="none" stroke="rgb(115, 191, 118)" stroke-width="1" d="M201.5,92.5V113.5L209.5,113.5"></path><path id="kity_path_95" fill="none" stroke="rgb(115, 191, 118)" stroke-width="1" d="M201.5,92.5V139.5L209.5,139.5"></path><path id="kity_path_103" fill="none" stroke="rgb(115, 191, 118)" stroke-width="1" d="M407.5,92.5V113.5L415.5,113.5"></path><path id="kity_path_111" fill="none" stroke="rgb(115, 191, 118)" stroke-width="1" d="M407.5,92.5V139.5L415.5,139.5"></path><path id="kity_path_119" fill="none" stroke="rgb(115, 191, 118)" stroke-width="1" d="M407.5,92.5V165.5L415.5,165.5"></path><path id="kity_path_127" fill="none" stroke="rgb(115, 191, 118)" stroke-width="1" d="M407.5,92.5V191.5L415.5,191.5"></path><path id="kity_path_135" fill="none" stroke="rgb(115, 191, 118)" stroke-width="1" d="M407.5,92.5V399.5L415.5,399.5"></path><path id="kity_path_143" fill="none" stroke="rgb(115, 191, 118)" stroke-width="1" d="M407.5,92.5V425.5L415.5,425.5"></path><path id="kity_path_151" fill="none" stroke="rgb(115, 191, 118)" stroke-width="1" d="M435.5,200.5V217.5L443.5,217.5"></path><path id="kity_path_159" fill="none" stroke="rgb(115, 191, 118)" stroke-width="1" d="M435.5,200.5V243.5L443.5,243.5"></path><path id="kity_path_167" fill="none" stroke="rgb(115, 191, 118)" stroke-width="1" d="M435.5,200.5V269.5L443.5,269.5"></path><path id="kity_path_175" fill="none" stroke="rgb(115, 191, 118)" stroke-width="1" d="M435.5,200.5V295.5L443.5,295.5"></path><path id="kity_path_183" fill="none" stroke="rgb(115, 191, 118)" stroke-width="1" d="M435.5,200.5V321.5L443.5,321.5"></path><path id="kity_path_191" fill="none" stroke="rgb(115, 191, 118)" stroke-width="1" d="M435.5,200.5V347.5L443.5,347.5"></path><path id="kity_path_199" fill="none" stroke="rgb(115, 191, 118)" stroke-width="1" d="M435.5,200.5V373.5L443.5,373.5"></path><path id="kity_path_207" fill="none" stroke="rgb(115, 191, 118)" stroke-width="1" d="M254.5,48.5v10h-204.5V66.5"></path></g><g id="minder_node1"><path id="node_outline1" fill="rgb(115, 191, 118)" stroke="rgb(115, 191, 118)" d="M192.5,20.5h124a5,5,0,0,1,5,5v18a5,5,0,0,1,-5,5h-124a5,5,0,0,1,-5,-5v-18a5,5,0,0,1,5,-5z" stroke-width="3"></path><g id="node_text1" fill="white"><text id="kity_text_22" text-rendering="inherit" font-size="16" dy=".8em" y="26.5" font-family="sans-serif" x="199.5">bl2_entrypoint</text></g></g><g id="kity_g_14" display="none"><path id="kity_path_15" fill="rgba(0, 153, 5, 0.5)" stroke="none" d="M339.5,-172.5h59v8h-59z"></path><path id="kity_path_16" fill="none" stroke="rgb(0, 128, 4)" d="M339.5,-172.5L398.5,-172.5" stroke-width="1"></path></g><g id="minder_node2" opacity="1"><g id="node_expander1" style="cursor: pointer;" display="none"><path id="kity_path_36" fill="white" stroke="gray" d="M48.5,113.5A6,6,0,1,1,36.5,113.5A6,6,0,1,1,48.5,113.5"></path><path id="kity_path_37" fill="none" stroke="gray"></path></g><path id="node_outline2" fill="none" stroke="none" d="M53.5,104.5h87a5,5,0,0,1,5,5v8a5,5,0,0,1,-5,5h-87a5,5,0,0,1,-5,-5v-8a5,5,0,0,1,5,-5z" stroke-width="3"></path><g id="node_text2" fill="black"><text id="kity_text_33" text-rendering="inherit" font-size="12" dy=".8em" y="107.5" font-family="sans-serif" x="53.5">save_parameter</text></g></g><g id="minder_node3" opacity="1"><g id="node_expander2" style="cursor: pointer;" display="none"><path id="kity_path_44" fill="white" stroke="gray" d="M48.5,139.5A6,6,0,1,1,36.5,139.5A6,6,0,1,1,48.5,139.5"></path><path id="kity_path_45" fill="none" stroke="gray"></path></g><path id="node_outline3" fill="none" stroke="none" d="M53.5,130.5h107a5,5,0,0,1,5,5v8a5,5,0,0,1,-5,5h-107a5,5,0,0,1,-5,-5v-8a5,5,0,0,1,5,-5z" stroke-width="3"></path><g id="node_text3" fill="black"><text id="kity_text_41" text-rendering="inherit" font-size="12" dy=".8em" y="133.5" font-family="sans-serif" x="53.5">set_exception_table</text></g></g><g id="minder_node4" opacity="1"><g id="node_expander3" style="cursor: pointer;" display="none"><path id="kity_path_52" fill="white" stroke="gray" d="M48.5,165.5A6,6,0,1,1,36.5,165.5A6,6,0,1,1,48.5,165.5"></path><path id="kity_path_53" fill="none" stroke="gray"></path></g><path id="node_outline4" fill="none" stroke="none" d="M53.5,156.5h67a5,5,0,0,1,5,5v8a5,5,0,0,1,-5,5h-67a5,5,0,0,1,-5,-5v-8a5,5,0,0,1,5,-5z" stroke-width="3"></path><g id="node_text4" fill="black"><text id="kity_text_49" text-rendering="inherit" font-size="12" dy=".8em" y="159.5" font-family="sans-serif" x="53.5">set_sctlr_el1</text></g></g><g id="minder_node5" opacity="1"><g id="node_expander4" style="cursor: pointer;" display="none"><path id="kity_path_60" fill="white" stroke="gray" d="M48.5,191.5A6,6,0,1,1,36.5,191.5A6,6,0,1,1,48.5,191.5"></path><path id="kity_path_61" fill="none" stroke="gray"></path></g><path id="node_outline5" fill="none" stroke="none" d="M53.5,182.5h96a5,5,0,0,1,5,5v8a5,5,0,0,1,-5,5h-96a5,5,0,0,1,-5,-5v-8a5,5,0,0,1,5,-5z" stroke-width="3"></path><g id="node_text5" fill="black"><text id="kity_text_57" text-rendering="inherit" font-size="12" dy=".8em" y="185.5" font-family="sans-serif" x="53.5">clear_bss_section</text></g></g><g id="minder_node6" opacity="1"><g id="node_expander5" style="cursor: pointer;" display="none"><path id="kity_path_68" fill="white" stroke="gray" d="M48.5,217.5A6,6,0,1,1,36.5,217.5A6,6,0,1,1,48.5,217.5"></path><path id="kity_path_69" fill="none" stroke="gray"></path></g><path id="node_outline6" fill="none" stroke="none" d="M53.5,208.5h99a5,5,0,0,1,5,5v8a5,5,0,0,1,-5,5h-99a5,5,0,0,1,-5,-5v-8a5,5,0,0,1,5,-5z" stroke-width="3"></path><g id="node_text6" fill="black"><text id="kity_text_65" text-rendering="inherit" font-size="12" dy=".8em" y="211.5" font-family="sans-serif" x="53.5">plat_set_my_stack</text></g></g><g id="minder_node7"><g id="node_expander6" style="cursor: pointer;"><path id="kity_path_76" fill="white" stroke="gray" d="M239.5,59.5A6,6,0,1,1,227.5,59.5A6,6,0,1,1,239.5,59.5"></path><path id="kity_path_77" fill="none" stroke="gray" d="M229,59.5L238,59.5"></path></g><path id="node_outline7" fill="rgb(238, 246, 238)" stroke="rgb(115, 191, 118)" d="M184.5,66.5h98a3,3,0,0,1,3,3v20a3,3,0,0,1,-3,3h-98a3,3,0,0,1,-3,-3v-20a3,3,0,0,1,3,-3z" stroke-width="1"></path><g id="node_text7" fill="black"><text id="kity_text_73" text-rendering="inherit" font-size="14" dy=".8em" y="72.5" font-family="sans-serif" x="201.5">bl2_setup</text></g></g><g id="minder_node8"><g id="node_expander7" style="cursor: pointer;"><path id="kity_path_84" fill="white" stroke="gray" d="M444,59.5A6,6,0,1,1,432,59.5A6,6,0,1,1,444,59.5"></path><path id="kity_path_85" fill="none" stroke="gray" d="M433.5,59.5L442.5,59.5"></path></g><path id="node_outline8" fill="rgb(238, 246, 238)" stroke="rgb(115, 191, 118)" d="M390.5,66.5h95a3,3,0,0,1,3,3v20a3,3,0,0,1,-3,3h-95a3,3,0,0,1,-3,-3v-20a3,3,0,0,1,3,-3z" stroke-width="1"></path><g id="node_text8" fill="black"><text id="kity_text_81" text-rendering="inherit" font-size="14" dy=".8em" y="72.5" font-family="sans-serif" x="407.5">bl2_main</text></g></g><g id="minder_node9"><g id="node_expander8" style="cursor: pointer;" display="none"><path id="kity_path_92" fill="white" stroke="gray" d="M209.5,113.5A6,6,0,1,1,197.5,113.5A6,6,0,1,1,209.5,113.5"></path><path id="kity_path_93" fill="none" stroke="gray"></path></g><path id="node_outline9" fill="none" stroke="none" d="M214.5,104.5h152a5,5,0,0,1,5,5v8a5,5,0,0,1,-5,5h-152a5,5,0,0,1,-5,-5v-8a5,5,0,0,1,5,-5z" stroke-width="3"></path><g id="node_text9" fill="black"><text id="kity_text_89" text-rendering="inherit" font-size="12" dy=".8em" y="107.5" font-family="sans-serif" x="214.5">bl2_early_platform_setup2</text></g></g><g id="minder_node10"><g id="node_expander9" style="cursor: pointer;" display="none"><path id="kity_path_100" fill="white" stroke="gray" d="M209.5,139.5A6,6,0,1,1,197.5,139.5A6,6,0,1,1,209.5,139.5"></path><path id="kity_path_101" fill="none" stroke="gray"></path></g><path id="node_outline10" fill="none" stroke="none" d="M214.5,130.5h117a5,5,0,0,1,5,5v8a5,5,0,0,1,-5,5h-117a5,5,0,0,1,-5,-5v-8a5,5,0,0,1,5,-5z" stroke-width="3"></path><g id="node_text10" fill="black"><text id="kity_text_97" text-rendering="inherit" font-size="12" dy=".8em" y="133.5" font-family="sans-serif" x="214.5">bl2_plat_arch_setup</text></g></g><g id="minder_node11"><g id="node_expander10" style="cursor: pointer;" display="none"><path id="kity_path_108" fill="white" stroke="gray" d="M415.5,113.5A6,6,0,1,1,403.5,113.5A6,6,0,1,1,415.5,113.5"></path><path id="kity_path_109" fill="none" stroke="gray"></path></g><path id="node_outline11" fill="none" stroke="none" d="M420.5,104.5h88a5,5,0,0,1,5,5v8a5,5,0,0,1,-5,5h-88a5,5,0,0,1,-5,-5v-8a5,5,0,0,1,5,-5z" stroke-width="3"></path><g id="node_text11" fill="black"><text id="kity_text_105" text-rendering="inherit" font-size="12" dy=".8em" y="107.5" font-family="sans-serif" x="420.5">bl2_arch_setup</text></g></g><g id="minder_node12"><g id="node_expander11" style="cursor: pointer;" display="none"><path id="kity_path_116" fill="white" stroke="gray" d="M415.5,139.5A6,6,0,1,1,403.5,139.5A6,6,0,1,1,415.5,139.5"></path><path id="kity_path_117" fill="none" stroke="gray"></path></g><path id="node_outline12" fill="none" stroke="none" d="M420.5,130.5h90a5,5,0,0,1,5,5v8a5,5,0,0,1,-5,5h-90a5,5,0,0,1,-5,-5v-8a5,5,0,0,1,5,-5z" stroke-width="3"></path><g id="node_text12" fill="black"><text id="kity_text_113" text-rendering="inherit" font-size="12" dy=".8em" y="133.5" font-family="sans-serif" x="420.5">auth_mode_init</text></g></g><g id="minder_node13"><g id="node_expander12" style="cursor: pointer;" display="none"><path id="kity_path_124" fill="white" stroke="gray" d="M415.5,165.5A6,6,0,1,1,403.5,165.5A6,6,0,1,1,415.5,165.5"></path><path id="kity_path_125" fill="none" stroke="gray"></path></g><path id="node_outline13" fill="none" stroke="none" d="M420.5,156.5h136a5,5,0,0,1,5,5v8a5,5,0,0,1,-5,5h-136a5,5,0,0,1,-5,-5v-8a5,5,0,0,1,5,-5z" stroke-width="3"></path><g id="node_text13" fill="black"><text id="kity_text_121" text-rendering="inherit" font-size="12" dy=".8em" y="159.5" font-family="sans-serif" x="420.5">bl2_plat_preload_setup</text></g></g><g id="minder_node14"><g id="node_expander13" style="cursor: pointer;"><path id="kity_path_132" fill="white" stroke="gray" d="M415.5,191.5A6,6,0,1,1,403.5,191.5A6,6,0,1,1,415.5,191.5"></path><path id="kity_path_133" fill="none" stroke="gray" d="M405,191.5L414,191.5"></path></g><path id="node_outline14" fill="#ff0000" stroke="none" d="M420.5,182.5h98a5,5,0,0,1,5,5v8a5,5,0,0,1,-5,5h-98a5,5,0,0,1,-5,-5v-8a5,5,0,0,1,5,-5z" stroke-width="3"></path><g id="node_text14" fill="black"><text id="kity_text_129" text-rendering="inherit" font-size="12" dy=".8em" y="185.5" font-family="sans-serif" x="420.5">bl2_load_images</text></g></g><g id="minder_node15"><g id="node_expander14" style="cursor: pointer;" display="none"><path id="kity_path_140" fill="white" stroke="gray" d="M415.5,399.5A6,6,0,1,1,403.5,399.5A6,6,0,1,1,415.5,399.5"></path><path id="kity_path_141" fill="none" stroke="gray"></path></g><path id="node_outline15" fill="none" stroke="none" d="M420.5,390.5h77a5,5,0,0,1,5,5v8a5,5,0,0,1,-5,5h-77a5,5,0,0,1,-5,-5v-8a5,5,0,0,1,5,-5z" stroke-width="3"></path><g id="node_text15" fill="black"><text id="kity_text_137" text-rendering="inherit" font-size="12" dy=".8em" y="393.5" font-family="sans-serif" x="420.5">console_flush</text></g></g><g id="minder_node16"><g id="node_expander15" style="cursor: pointer;" display="none"><path id="kity_path_148" fill="white" stroke="gray" d="M415.5,425.5A6,6,0,1,1,403.5,425.5A6,6,0,1,1,415.5,425.5"></path><path id="kity_path_149" fill="none" stroke="gray"></path></g><path id="node_outline16" fill="none" stroke="none" d="M420.5,416.5h24a5,5,0,0,1,5,5v8a5,5,0,0,1,-5,5h-24a5,5,0,0,1,-5,-5v-8a5,5,0,0,1,5,-5z" stroke-width="3"></path><g id="node_text16" fill="black"><text id="kity_text_145" text-rendering="inherit" font-size="12" dy=".8em" y="419.5" font-family="sans-serif" x="420.5">smc</text></g></g><g id="minder_node17"><g id="node_expander16" style="cursor: pointer;" display="none"><path id="kity_path_156" fill="white" stroke="gray" d="M443.5,217.5A6,6,0,1,1,431.5,217.5A6,6,0,1,1,443.5,217.5"></path><path id="kity_path_157" fill="none" stroke="gray"></path></g><path id="node_outline17" fill="none" stroke="none" d="M448.5,208.5h169a5,5,0,0,1,5,5v8a5,5,0,0,1,-5,5h-169a5,5,0,0,1,-5,-5v-8a5,5,0,0,1,5,-5z" stroke-width="3"></path><g id="node_text17" fill="black"><text id="kity_text_153" text-rendering="inherit" font-size="12" dy=".8em" y="211.5" font-family="sans-serif" x="448.5">plat_get_bl_image_load_info</text></g></g><g id="minder_node18"><g id="node_expander17" style="cursor: pointer;" display="none"><path id="kity_path_164" fill="white" stroke="gray" d="M443.5,243.5A6,6,0,1,1,431.5,243.5A6,6,0,1,1,443.5,243.5"></path><path id="kity_path_165" fill="none" stroke="gray"></path></g><path id="node_outline18" fill="none" stroke="none" d="M448.5,234.5h111a5,5,0,0,1,5,5v8a5,5,0,0,1,-5,5h-111a5,5,0,0,1,-5,-5v-8a5,5,0,0,1,5,-5z" stroke-width="3"></path><g id="node_text18" fill="black"><text id="kity_text_161" text-rendering="inherit" font-size="12" dy=".8em" y="237.5" font-family="sans-serif" x="448.5">bl2_platform_setup</text></g></g><g id="minder_node19"><g id="node_expander18" style="cursor: pointer;" display="none"><path id="kity_path_172" fill="white" stroke="gray" d="M443.5,269.5A6,6,0,1,1,431.5,269.5A6,6,0,1,1,443.5,269.5"></path><path id="kity_path_173" fill="none" stroke="gray"></path></g><path id="node_outline19" fill="none" stroke="none" d="M448.5,260.5h195a5,5,0,0,1,5,5v8a5,5,0,0,1,-5,5h-195a5,5,0,0,1,-5,-5v-8a5,5,0,0,1,5,-5z" stroke-width="3"></path><g id="node_text19" fill="black"><text id="kity_text_169" text-rendering="inherit" font-size="12" dy=".8em" y="263.5" font-family="sans-serif" x="448.5">bl2_plat_handle_pre_image_load</text></g></g><g id="minder_node20"><g id="node_expander19" style="cursor: pointer;" display="none"><path id="kity_path_180" fill="white" stroke="gray" d="M443.5,295.5A6,6,0,1,1,431.5,295.5A6,6,0,1,1,443.5,295.5"></path><path id="kity_path_181" fill="none" stroke="gray"></path></g><path id="node_outline20" fill="none" stroke="none" d="M448.5,286.5h103a5,5,0,0,1,5,5v8a5,5,0,0,1,-5,5h-103a5,5,0,0,1,-5,-5v-8a5,5,0,0,1,5,-5z" stroke-width="3"></path><g id="node_text20" fill="black"><text id="kity_text_177" text-rendering="inherit" font-size="12" dy=".8em" y="289.5" font-family="sans-serif" x="448.5">load_auth_image</text></g></g><g id="minder_node21"><g id="node_expander20" style="cursor: pointer;" display="none"><path id="kity_path_188" fill="white" stroke="gray" d="M443.5,321.5A6,6,0,1,1,431.5,321.5A6,6,0,1,1,443.5,321.5"></path><path id="kity_path_189" fill="none" stroke="gray"></path></g><path id="node_outline21" fill="none" stroke="none" d="M448.5,312.5h201a5,5,0,0,1,5,5v8a5,5,0,0,1,-5,5h-201a5,5,0,0,1,-5,-5v-8a5,5,0,0,1,5,-5z" stroke-width="3"></path><g id="node_text21" fill="black"><text id="kity_text_185" text-rendering="inherit" font-size="12" dy=".8em" y="315.5" font-family="sans-serif" x="448.5">bl2_plat_handle_post_image_load</text></g></g><g id="minder_node22"><g id="node_expander21" style="cursor: pointer;" display="none"><path id="kity_path_196" fill="white" stroke="gray" d="M443.5,347.5A6,6,0,1,1,431.5,347.5A6,6,0,1,1,443.5,347.5"></path><path id="kity_path_197" fill="none" stroke="gray"></path></g><path id="node_outline22" fill="none" stroke="none" d="M448.5,338.5h146a5,5,0,0,1,5,5v8a5,5,0,0,1,-5,5h-146a5,5,0,0,1,-5,-5v-8a5,5,0,0,1,5,-5z" stroke-width="3"></path><g id="node_text22" fill="black"><text id="kity_text_193" text-rendering="inherit" font-size="12" dy=".8em" y="341.5" font-family="sans-serif" x="448.5">plat_get_next_bl_params</text></g></g><g id="minder_node23"><g id="node_expander22" style="cursor: pointer;" display="none"><path id="kity_path_204" fill="white" stroke="gray" d="M443.5,373.5A6,6,0,1,1,431.5,373.5A6,6,0,1,1,443.5,373.5"></path><path id="kity_path_205" fill="none" stroke="gray"></path></g><path id="node_outline23" fill="none" stroke="none" d="M448.5,364.5h152a5,5,0,0,1,5,5v8a5,5,0,0,1,-5,5h-152a5,5,0,0,1,-5,-5v-8a5,5,0,0,1,5,-5z" stroke-width="3"></path><g id="node_text23" fill="black"><text id="kity_text_201" text-rendering="inherit" font-size="12" dy=".8em" y="367.5" font-family="sans-serif" x="448.5">plat_flush_next_bl_params</text></g></g><g id="minder_node24" opacity="1"><g id="node_expander23" style="cursor: pointer;"><path id="kity_path_212" fill="white" stroke="gray" d="M56,59.5A6,6,0,1,1,44,59.5A6,6,0,1,1,56,59.5"></path><path id="kity_path_213" fill="none" stroke="gray" d="M45.5,59.5L54.5,59.5"></path></g><path id="node_outline24" fill="rgb(238, 246, 238)" stroke="rgb(115, 191, 118)" d="M23.5,66.5h53a3,3,0,0,1,3,3v20a3,3,0,0,1,-3,3h-53a3,3,0,0,1,-3,-3v-20a3,3,0,0,1,3,-3z" stroke-width="1"></path><g id="node_text24" fill="black"><text id="kity_text_209" text-rendering="inherit" font-size="14" dy=".8em" y="72.5" font-family="sans-serif" x="40.5">init</text></g></g><g id="kity_g_12" display="none"><path id="kity_path_13" fill="none" stroke="rgb(66, 112, 68)" d="M342.5,-203.5h53a3,3,0,0,1,3,3v20a3,3,0,0,1,-3,3h-53a3,3,0,0,1,-3,-3v-20a3,3,0,0,1,3,-3z" stroke-width="5"></path></g></g></g></svg>