<svg id="kity_svg_6" xmlns="http://www.w3.org/2000/svg" xmlns:xlink="http://www.w3.org/1999/xlink" version="1.1" width="616" height="1342" style="background: rgb(251, 251, 251); visibility: visible;" viewBox="0 0 616 1342"><defs id="kity_defs_7"><linearGradient id="kity_linearGradient_17" x1="0" y1="0" x2="0" y2="1"><stop id="kity_stop_18" offset="0" stop-color="rgb(255, 255, 255)"></stop><stop id="kity_stop_19" offset="1" stop-color="rgb(204, 204, 204)"></stop></linearGradient><marker id="kity_marker_2" orient="auto" refX="6" refY="0" viewBox="-7 -7 14 14" markerWidth="7" markerHeight="7" markerUnits="userSpaceOnUse"><path id="kity_path_3" fill="rgb(191, 147, 115)" stroke="none" d="M6,0A6,6,0,1,1,-6,0A6,6,0,1,1,6,0"></path></marker></defs><g id="kity_g_8"><g id="minder1" text-rendering="geometricPrecision"><g id="minder_connect_group1"><path id="kity_path_31" fill="none" stroke="rgb(191, 147, 115)" stroke-width="1" d="M264.50000416311264,581.5000088697113C272.50000416311264,581.5000088697113,272.50000416311264,107.50000886971134,280.50000416311264,107.50000886971134"></path><path id="kity_path_39" fill="none" stroke="rgb(191, 147, 115)" stroke-width="1" d="M264.50000416311264,581.5000088697113C272.50000416311264,581.5000088697113,272.50000416311264,276.50000886971134,280.50000416311264,276.50000886971134"></path><path id="kity_path_47" fill="none" stroke="rgb(191, 147, 115)" stroke-width="1" d="M264.50000416311264,581.5000088697113C272.50000416311264,581.5000088697113,272.50000416311264,419.50000886971134,280.50000416311264,419.50000886971134"></path><path id="kity_path_55" fill="none" stroke="rgb(191, 147, 115)" stroke-width="1" d="M264.50000416311264,581.5000088697113C272.50000416311264,581.5000088697113,272.50000416311264,510.50000886971134,280.50000416311264,510.50000886971134"></path><path id="kity_path_63" fill="none" stroke="rgb(191, 147, 115)" stroke-width="1" d="M264.50000416311264,581.5000088697113C272.50000416311264,581.5000088697113,272.50000416311264,562.5000088697113,280.50000416311264,562.5000088697113"></path><path id="kity_path_71" fill="none" stroke="rgb(191, 147, 115)" stroke-width="1" d="M264.50000416311264,581.5000088697113C272.50000416311264,581.5000088697113,272.50000416311264,679.5000088697113,280.50000416311264,679.5000088697113"></path><path id="kity_path_79" fill="none" stroke="rgb(191, 147, 115)" stroke-width="1" d="M264.50000416311264,581.5000088697113C272.50000416311264,581.5000088697113,272.50000416311264,835.5000088697113,280.50000416311264,835.5000088697113"></path><path id="kity_path_87" fill="none" stroke="rgb(191, 147, 115)" stroke-width="1" d="M264.50000416311264,581.5000088697113C272.50000416311264,581.5000088697113,272.50000416311264,926.5000088697113,280.50000416311264,926.5000088697113"></path><path id="kity_path_95" fill="none" stroke="rgb(191, 147, 115)" stroke-width="1" d="M264.50000416311264,581.5000088697113C272.50000416311264,581.5000088697113,272.50000416311264,991.5000088697113,280.50000416311264,991.5000088697113"></path><path id="kity_path_103" fill="none" stroke="rgb(191, 147, 115)" stroke-width="1" d="M264.50000416311264,581.5000088697113C272.50000416311264,581.5000088697113,272.50000416311264,1056.5000088697113,280.50000416311264,1056.5000088697113"></path><path id="kity_path_631" fill="none" stroke="rgb(191, 147, 115)" stroke-width="1" d="M64.50000416311264,894.5000088697113A60,313,0,0,1,124.50000416311264,581.5000088697113"></path><path id="kity_path_639" fill="none" stroke="rgb(191, 147, 115)" stroke-width="1" d="M338.50000416311264,107.50000886971134C346.50000416311264,107.50000886971134,346.50000416311264,29.500008869711337,354.50000416311264,29.500008869711337"></path><path id="kity_path_641" fill="none" stroke="rgb(191, 147, 115)" stroke-width="1" d="M338.50000416311264,107.50000886971134C346.50000416311264,107.50000886971134,346.50000416311264,55.50000886971134,354.50000416311264,55.50000886971134"></path><path id="kity_path_643" fill="none" stroke="rgb(191, 147, 115)" stroke-width="1" d="M427.50000416311264,94.50000886971134C435.50000416311264,94.50000886971134,435.50000416311264,81.50000886971134,443.50000416311264,81.50000886971134"></path><path id="kity_path_644" fill="none" stroke="rgb(191, 147, 115)" stroke-width="1" d="M427.50000416311264,94.50000886971134C435.50000416311264,94.50000886971134,435.50000416311264,107.50000886971134,443.50000416311264,107.50000886971134"></path><path id="kity_path_645" fill="none" stroke="rgb(191, 147, 115)" stroke-width="1" d="M338.50000416311264,107.50000886971134C346.50000416311264,107.50000886971134,346.50000416311264,94.50000886971134,354.50000416311264,94.50000886971134"></path><path id="kity_path_647" fill="none" stroke="rgb(191, 147, 115)" stroke-width="1" d="M338.50000416311264,107.50000886971134C346.50000416311264,107.50000886971134,346.50000416311264,133.50000886971134,354.50000416311264,133.50000886971134"></path><path id="kity_path_649" fill="none" stroke="rgb(191, 147, 115)" stroke-width="1" d="M338.50000416311264,107.50000886971134C346.50000416311264,107.50000886971134,346.50000416311264,159.50000886971134,354.50000416311264,159.50000886971134"></path><path id="kity_path_651" fill="none" stroke="rgb(191, 147, 115)" stroke-width="1" d="M338.50000416311264,107.50000886971134C346.50000416311264,107.50000886971134,346.50000416311264,185.50000886971134,354.50000416311264,185.50000886971134"></path><path id="kity_path_653" fill="none" stroke="rgb(191, 147, 115)" stroke-width="1" d="M338.50000416311264,276.50000886971134C346.50000416311264,276.50000886971134,346.50000416311264,211.50000886971134,354.50000416311264,211.50000886971134"></path><path id="kity_path_654" fill="none" stroke="rgb(191, 147, 115)" stroke-width="1" d="M338.50000416311264,276.50000886971134C346.50000416311264,276.50000886971134,346.50000416311264,237.50000886971134,354.50000416311264,237.50000886971134"></path><path id="kity_path_655" fill="none" stroke="rgb(191, 147, 115)" stroke-width="1" d="M338.50000416311264,276.50000886971134C346.50000416311264,276.50000886971134,346.50000416311264,263.50000886971134,354.50000416311264,263.50000886971134"></path><path id="kity_path_656" fill="none" stroke="rgb(191, 147, 115)" stroke-width="1" d="M338.50000416311264,276.50000886971134C346.50000416311264,276.50000886971134,346.50000416311264,289.50000886971134,354.50000416311264,289.50000886971134"></path><path id="kity_path_657" fill="none" stroke="rgb(191, 147, 115)" stroke-width="1" d="M338.50000416311264,276.50000886971134C346.50000416311264,276.50000886971134,346.50000416311264,315.50000886971134,354.50000416311264,315.50000886971134"></path><path id="kity_path_658" fill="none" stroke="rgb(191, 147, 115)" stroke-width="1" d="M338.50000416311264,276.50000886971134C346.50000416311264,276.50000886971134,346.50000416311264,341.50000886971134,354.50000416311264,341.50000886971134"></path><path id="kity_path_659" fill="none" stroke="rgb(191, 147, 115)" stroke-width="1" d="M338.50000416311264,419.50000886971134C346.50000416311264,419.50000886971134,346.50000416311264,367.50000886971134,354.50000416311264,367.50000886971134"></path><path id="kity_path_660" fill="none" stroke="rgb(191, 147, 115)" stroke-width="1" d="M338.50000416311264,419.50000886971134C346.50000416311264,419.50000886971134,346.50000416311264,393.50000886971134,354.50000416311264,393.50000886971134"></path><path id="kity_path_661" fill="none" stroke="rgb(191, 147, 115)" stroke-width="1" d="M338.50000416311264,419.50000886971134C346.50000416311264,419.50000886971134,346.50000416311264,419.50000886971134,354.50000416311264,419.50000886971134"></path><path id="kity_path_662" fill="none" stroke="rgb(191, 147, 115)" stroke-width="1" d="M338.50000416311264,419.50000886971134C346.50000416311264,419.50000886971134,346.50000416311264,445.50000886971134,354.50000416311264,445.50000886971134"></path><path id="kity_path_663" fill="none" stroke="rgb(191, 147, 115)" stroke-width="1" d="M338.50000416311264,419.50000886971134C346.50000416311264,419.50000886971134,346.50000416311264,471.50000886971134,354.50000416311264,471.50000886971134"></path><path id="kity_path_664" fill="none" stroke="rgb(191, 147, 115)" stroke-width="1" d="M314.50000416311264,510.50000886971134C322.50000416311264,510.50000886971134,322.50000416311264,497.50000886971134,330.50000416311264,497.50000886971134"></path><path id="kity_path_665" fill="none" stroke="rgb(191, 147, 115)" stroke-width="1" d="M314.50000416311264,510.50000886971134C322.50000416311264,510.50000886971134,322.50000416311264,523.5000088697113,330.50000416311264,523.5000088697113"></path><path id="kity_path_666" fill="none" stroke="rgb(191, 147, 115)" stroke-width="1" d="M314.50000416311264,562.5000088697113C322.50000416311264,562.5000088697113,322.50000416311264,549.5000088697113,330.50000416311264,549.5000088697113"></path><path id="kity_path_667" fill="none" stroke="rgb(191, 147, 115)" stroke-width="1" d="M314.50000416311264,562.5000088697113C322.50000416311264,562.5000088697113,322.50000416311264,575.5000088697113,330.50000416311264,575.5000088697113"></path><path id="kity_path_668" fill="none" stroke="rgb(191, 147, 115)" stroke-width="1" d="M338.50000416311264,679.5000088697113C346.50000416311264,679.5000088697113,346.50000416311264,601.5000088697113,354.50000416311264,601.5000088697113"></path><path id="kity_path_669" fill="none" stroke="rgb(191, 147, 115)" stroke-width="1" d="M338.50000416311264,679.5000088697113C346.50000416311264,679.5000088697113,346.50000416311264,627.5000088697113,354.50000416311264,627.5000088697113"></path><path id="kity_path_670" fill="none" stroke="rgb(191, 147, 115)" stroke-width="1" d="M338.50000416311264,679.5000088697113C346.50000416311264,679.5000088697113,346.50000416311264,653.5000088697113,354.50000416311264,653.5000088697113"></path><path id="kity_path_671" fill="none" stroke="rgb(191, 147, 115)" stroke-width="1" d="M338.50000416311264,679.5000088697113C346.50000416311264,679.5000088697113,346.50000416311264,679.5000088697113,354.50000416311264,679.5000088697113"></path><path id="kity_path_672" fill="none" stroke="rgb(191, 147, 115)" stroke-width="1" d="M338.50000416311264,679.5000088697113C346.50000416311264,679.5000088697113,346.50000416311264,705.5000088697113,354.50000416311264,705.5000088697113"></path><path id="kity_path_673" fill="none" stroke="rgb(191, 147, 115)" stroke-width="1" d="M338.50000416311264,679.5000088697113C346.50000416311264,679.5000088697113,346.50000416311264,731.5000088697113,354.50000416311264,731.5000088697113"></path><path id="kity_path_674" fill="none" stroke="rgb(191, 147, 115)" stroke-width="1" d="M338.50000416311264,679.5000088697113C346.50000416311264,679.5000088697113,346.50000416311264,757.5000088697113,354.50000416311264,757.5000088697113"></path><path id="kity_path_675" fill="none" stroke="rgb(191, 147, 115)" stroke-width="1" d="M338.50000416311264,835.5000088697113C346.50000416311264,835.5000088697113,346.50000416311264,783.5000088697113,354.50000416311264,783.5000088697113"></path><path id="kity_path_676" fill="none" stroke="rgb(191, 147, 115)" stroke-width="1" d="M338.50000416311264,835.5000088697113C346.50000416311264,835.5000088697113,346.50000416311264,809.5000088697113,354.50000416311264,809.5000088697113"></path><path id="kity_path_677" fill="none" stroke="rgb(191, 147, 115)" stroke-width="1" d="M338.50000416311264,835.5000088697113C346.50000416311264,835.5000088697113,346.50000416311264,835.5000088697113,354.50000416311264,835.5000088697113"></path><path id="kity_path_678" fill="none" stroke="rgb(191, 147, 115)" stroke-width="1" d="M338.50000416311264,835.5000088697113C346.50000416311264,835.5000088697113,346.50000416311264,861.5000088697113,354.50000416311264,861.5000088697113"></path><path id="kity_path_679" fill="none" stroke="rgb(191, 147, 115)" stroke-width="1" d="M338.50000416311264,835.5000088697113C346.50000416311264,835.5000088697113,346.50000416311264,887.5000088697113,354.50000416311264,887.5000088697113"></path><path id="kity_path_680" fill="none" stroke="rgb(191, 147, 115)" stroke-width="1" d="M374.50000416311264,926.5000088697113C382.50000416311264,926.5000088697113,382.50000416311264,913.5000088697113,390.50000416311264,913.5000088697113"></path><path id="kity_path_681" fill="none" stroke="rgb(191, 147, 115)" stroke-width="1" d="M374.50000416311264,926.5000088697113C382.50000416311264,926.5000088697113,382.50000416311264,939.5000088697113,390.50000416311264,939.5000088697113"></path><path id="kity_path_682" fill="none" stroke="rgb(191, 147, 115)" stroke-width="1" d="M374.50000416311264,991.5000088697113C382.50000416311264,991.5000088697113,382.50000416311264,965.5000088697113,390.50000416311264,965.5000088697113"></path><path id="kity_path_683" fill="none" stroke="rgb(191, 147, 115)" stroke-width="1" d="M374.50000416311264,991.5000088697113C382.50000416311264,991.5000088697113,382.50000416311264,991.5000088697113,390.50000416311264,991.5000088697113"></path><path id="kity_path_684" fill="none" stroke="rgb(191, 147, 115)" stroke-width="1" d="M374.50000416311264,991.5000088697113C382.50000416311264,991.5000088697113,382.50000416311264,1017.5000088697113,390.50000416311264,1017.5000088697113"></path><path id="kity_path_685" fill="none" stroke="rgb(191, 147, 115)" stroke-width="1" d="M374.50000416311264,1056.5000088697113C382.50000416311264,1056.5000088697113,382.50000416311264,1043.5000088697113,390.50000416311264,1043.5000088697113"></path><path id="kity_path_686" fill="none" stroke="rgb(191, 147, 115)" stroke-width="1" d="M374.50000416311264,1056.5000088697113C382.50000416311264,1056.5000088697113,382.50000416311264,1069.5000088697113,390.50000416311264,1069.5000088697113"></path><path id="kity_path_688" fill="none" stroke="rgb(191, 147, 115)" stroke-width="1" d="M64.50000416311264,894.5000088697113A60,313,0,0,0,124.50000416311264,1207.5000088697113"></path><path id="kity_path_696" fill="none" stroke="rgb(191, 147, 115)" stroke-width="1" d="M250.50000416311264,1207.5000088697113C258.50000416311264,1207.5000088697113,258.50000416311264,1129.5000088697113,266.50000416311264,1129.5000088697113"></path><path id="kity_path_704" fill="none" stroke="rgb(191, 147, 115)" stroke-width="1" d="M360.50000416311264,1129.5000088697113C368.50000416311264,1129.5000088697113,368.50000416311264,1103.5000088697113,376.50000416311264,1103.5000088697113"></path><path id="kity_path_712" fill="none" stroke="rgb(191, 147, 115)" stroke-width="1" d="M360.50000416311264,1129.5000088697113C368.50000416311264,1129.5000088697113,368.50000416311264,1129.5000088697113,376.50000416311264,1129.5000088697113"></path><path id="kity_path_720" fill="none" stroke="rgb(191, 147, 115)" stroke-width="1" d="M360.50000416311264,1129.5000088697113C368.50000416311264,1129.5000088697113,368.50000416311264,1155.5000088697113,376.50000416311264,1155.5000088697113"></path><path id="kity_path_736" fill="none" stroke="rgb(191, 147, 115)" stroke-width="1" d="M250.50000416311264,1207.5000088697113C258.50000416311264,1207.5000088697113,258.50000416311264,1207.5000088697113,266.50000416311264,1207.5000088697113"></path><path id="kity_path_744" fill="none" stroke="rgb(191, 147, 115)" stroke-width="1" d="M250.50000416311264,1207.5000088697113C258.50000416311264,1207.5000088697113,258.50000416311264,1285.5000088697113,266.50000416311264,1285.5000088697113"></path><path id="kity_path_752" fill="none" stroke="rgb(191, 147, 115)" stroke-width="1" d="M388.50000416311264,1285.5000088697113C396.50000416311264,1285.5000088697113,396.50000416311264,1259.5000088697113,404.50000416311264,1259.5000088697113"></path><path id="kity_path_760" fill="none" stroke="rgb(191, 147, 115)" stroke-width="1" d="M388.50000416311264,1285.5000088697113C396.50000416311264,1285.5000088697113,396.50000416311264,1285.5000088697113,404.50000416311264,1285.5000088697113"></path><path id="kity_path_768" fill="none" stroke="rgb(191, 147, 115)" stroke-width="1" d="M388.50000416311264,1285.5000088697113C396.50000416311264,1285.5000088697113,396.50000416311264,1311.5000088697113,404.50000416311264,1311.5000088697113"></path><path id="kity_path_776" fill="none" stroke="rgb(191, 147, 115)" stroke-width="1" d="M348.50000416311264,1207.5000088697113C356.50000416311264,1207.5000088697113,356.50000416311264,1181.5000088697113,364.50000416311264,1181.5000088697113"></path><path id="kity_path_784" fill="none" stroke="rgb(191, 147, 115)" stroke-width="1" d="M348.50000416311264,1207.5000088697113C356.50000416311264,1207.5000088697113,356.50000416311264,1207.5000088697113,364.50000416311264,1207.5000088697113"></path><path id="kity_path_792" fill="none" stroke="rgb(191, 147, 115)" stroke-width="1" d="M348.50000416311264,1207.5000088697113C356.50000416311264,1207.5000088697113,356.50000416311264,1233.5000088697113,364.50000416311264,1233.5000088697113"></path></g><g id="minder_node1"><path id="node_outline1" fill="rgb(191, 147, 115)" stroke="rgb(191, 147, 115)" d="M25.500004163112635,880.5000088697113h78a5,5,0,0,1,5,5v18a5,5,0,0,1,-5,5h-78a5,5,0,0,1,-5,-5v-18a5,5,0,0,1,5,-5z" stroke-width="3"></path><g id="node_text1" fill="white"><text id="kity_text_22" text-rendering="inherit" font-size="16" dy=".8em" y="886.5000088697113" font-family="sans-serif" x="32.500004163112635">系统调用</text></g></g><g id="kity_g_14" display="none"><path id="kity_path_15" fill="rgba(15, 0, 153, 0.5)" stroke="none" d="M126.50000416311264,1448.5000088697113h138v8h-138z"></path><path id="kity_path_16" fill="none" stroke="rgb(13, 0, 128)" d="M126.50000416311264,1448.5000088697113L264.50000416311264,1448.5000088697113" stroke-width="1"></path></g><g id="minder_node2" opacity="1"><g id="node_expander1" style="cursor: pointer;"><path id="kity_path_36" fill="white" stroke="gray" d="M280.5000006453547,107.50001995725961A6,6,0,1,1,268.5000006453547,107.50001995725961A6,6,0,1,1,280.5000006453547,107.50001995725961"></path><path id="kity_path_37" fill="none" stroke="gray" d="M270.0000006453547,107.50001995725961L279.0000006453547,107.50001995725961"></path></g><path id="node_outline2" fill="none" stroke="none" d="M285.5000005987547,98.50001995725961h48a5,5,0,0,1,5,5v8a5,5,0,0,1,-5,5h-48a5,5,0,0,1,-5,-5v-8a5,5,0,0,1,5,-5z" stroke-width="3"></path><g id="node_text2" fill="black"><text id="kity_text_33" text-rendering="inherit" font-size="12" dy=".8em" y="101.50001995725961" font-family="sans-serif" x="285.5000005987547">进程管理</text></g></g><g id="minder_node3" opacity="1"><g id="node_expander2" style="cursor: pointer;"><path id="kity_path_44" fill="white" stroke="gray" d="M280.5000006453547,276.5000175763248A6,6,0,1,1,268.5000006453547,276.5000175763248A6,6,0,1,1,280.5000006453547,276.5000175763248"></path><path id="kity_path_45" fill="none" stroke="gray" d="M270.0000006453547,276.5000175763248L279.0000006453547,276.5000175763248"></path></g><path id="node_outline3" fill="none" stroke="none" d="M285.5000005987547,267.5000175763248h48a5,5,0,0,1,5,5v8a5,5,0,0,1,-5,5h-48a5,5,0,0,1,-5,-5v-8a5,5,0,0,1,5,-5z" stroke-width="3"></path><g id="node_text3" fill="black"><text id="kity_text_41" text-rendering="inherit" font-size="12" dy=".8em" y="270.5000175763248" font-family="sans-serif" x="285.5000005987547">时间操作</text></g></g><g id="minder_node4" opacity="1"><g id="node_expander3" style="cursor: pointer;"><path id="kity_path_52" fill="white" stroke="gray" d="M280.5000006453547,419.50001556168775A6,6,0,1,1,268.5000006453547,419.50001556168775A6,6,0,1,1,280.5000006453547,419.50001556168775"></path><path id="kity_path_53" fill="none" stroke="gray" d="M270.0000006453547,419.50001556168775L279.0000006453547,419.50001556168775"></path></g><path id="node_outline4" fill="none" stroke="none" d="M285.5000005987547,410.50001556168775h48a5,5,0,0,1,5,5v8a5,5,0,0,1,-5,5h-48a5,5,0,0,1,-5,-5v-8a5,5,0,0,1,5,-5z" stroke-width="3"></path><g id="node_text4" fill="black"><text id="kity_text_49" text-rendering="inherit" font-size="12" dy=".8em" y="413.50001556168775" font-family="sans-serif" x="285.5000005987547">信号处理</text></g></g><g id="minder_node5" opacity="1"><g id="node_expander4" style="cursor: pointer;"><path id="kity_path_60" fill="white" stroke="gray" d="M280.5000006453547,510.50001427964594A6,6,0,1,1,268.5000006453547,510.50001427964594A6,6,0,1,1,280.5000006453547,510.50001427964594"></path><path id="kity_path_61" fill="none" stroke="gray" d="M270.0000006453547,510.50001427964594L279.0000006453547,510.50001427964594"></path></g><path id="node_outline5" fill="none" stroke="none" d="M285.5000005987547,501.50001427964594h24a5,5,0,0,1,5,5v8a5,5,0,0,1,-5,5h-24a5,5,0,0,1,-5,-5v-8a5,5,0,0,1,5,-5z" stroke-width="3"></path><g id="node_text5" fill="black"><text id="kity_text_57" text-rendering="inherit" font-size="12" dy=".8em" y="504.50001427964594" font-family="sans-serif" x="285.5000005987547">调度</text></g></g><g id="minder_node6" opacity="1"><g id="node_expander5" style="cursor: pointer;"><path id="kity_path_68" fill="white" stroke="gray" d="M280.5000006453547,562.5000135470507A6,6,0,1,1,268.5000006453547,562.5000135470507A6,6,0,1,1,280.5000006453547,562.5000135470507"></path><path id="kity_path_69" fill="none" stroke="gray" d="M270.0000006453547,562.5000135470507L279.0000006453547,562.5000135470507"></path></g><path id="node_outline6" fill="none" stroke="none" d="M285.5000005987547,553.5000135470507h24a5,5,0,0,1,5,5v8a5,5,0,0,1,-5,5h-24a5,5,0,0,1,-5,-5v-8a5,5,0,0,1,5,-5z" stroke-width="3"></path><g id="node_text6" fill="black"><text id="kity_text_65" text-rendering="inherit" font-size="12" dy=".8em" y="556.5000135470507" font-family="sans-serif" x="285.5000005987547">模块</text></g></g><g id="minder_node7" opacity="1"><g id="node_expander6" style="cursor: pointer;"><path id="kity_path_76" fill="white" stroke="gray" d="M280.5000006453547,679.5000118987111A6,6,0,1,1,268.5000006453547,679.5000118987111A6,6,0,1,1,280.5000006453547,679.5000118987111"></path><path id="kity_path_77" fill="none" stroke="gray" d="M270.0000006453547,679.5000118987111L279.0000006453547,679.5000118987111"></path></g><path id="node_outline7" fill="none" stroke="none" d="M285.5000005987547,670.5000118987111h48a5,5,0,0,1,5,5v8a5,5,0,0,1,-5,5h-48a5,5,0,0,1,-5,-5v-8a5,5,0,0,1,5,-5z" stroke-width="3"></path><g id="node_text7" fill="black"><text id="kity_text_73" text-rendering="inherit" font-size="12" dy=".8em" y="673.5000118987111" font-family="sans-serif" x="285.5000005987547">文件系统</text></g></g><g id="minder_node8" opacity="1"><g id="node_expander7" style="cursor: pointer;"><path id="kity_path_84" fill="white" stroke="gray" d="M280.5000006453547,835.5000097009253A6,6,0,1,1,268.5000006453547,835.5000097009253A6,6,0,1,1,280.5000006453547,835.5000097009253"></path><path id="kity_path_85" fill="none" stroke="gray" d="M270.0000006453547,835.5000097009253L279.0000006453547,835.5000097009253"></path></g><path id="node_outline8" fill="none" stroke="none" d="M285.5000005987547,826.5000097009253h48a5,5,0,0,1,5,5v8a5,5,0,0,1,-5,5h-48a5,5,0,0,1,-5,-5v-8a5,5,0,0,1,5,-5z" stroke-width="3"></path><g id="node_text8" fill="black"><text id="kity_text_81" text-rendering="inherit" font-size="12" dy=".8em" y="829.5000097009253" font-family="sans-serif" x="285.5000005987547">内存管理</text></g></g><g id="minder_node9" opacity="1"><g id="node_expander8" style="cursor: pointer;"><path id="kity_path_92" fill="white" stroke="gray" d="M280.5000006453547,926.5000084188835A6,6,0,1,1,268.5000006453547,926.5000084188835A6,6,0,1,1,280.5000006453547,926.5000084188835"></path><path id="kity_path_93" fill="none" stroke="gray" d="M270.0000006453547,926.5000084188835L279.0000006453547,926.5000084188835"></path></g><path id="node_outline9" fill="none" stroke="none" d="M285.5000005987547,917.5000084188835h84a5,5,0,0,1,5,5v8a5,5,0,0,1,-5,5h-84a5,5,0,0,1,-5,-5v-8a5,5,0,0,1,5,-5z" stroke-width="3"></path><g id="node_text9" fill="black"><text id="kity_text_89" text-rendering="inherit" font-size="12" dy=".8em" y="920.5000084188835" font-family="sans-serif" x="285.5000005987547">进程通信与网络</text></g></g><g id="minder_node10" opacity="1"><g id="node_expander9" style="cursor: pointer;"><path id="kity_path_100" fill="white" stroke="gray" d="M280.5000006453547,991.5000075031393A6,6,0,1,1,268.5000006453547,991.5000075031393A6,6,0,1,1,280.5000006453547,991.5000075031393"></path><path id="kity_path_101" fill="none" stroke="gray" d="M270.0000006453547,991.5000075031393L279.0000006453547,991.5000075031393"></path></g><path id="node_outline10" fill="none" stroke="none" d="M285.5000005987547,982.5000075031393h84a5,5,0,0,1,5,5v8a5,5,0,0,1,-5,5h-84a5,5,0,0,1,-5,-5v-8a5,5,0,0,1,5,-5z" stroke-width="3"></path><g id="node_text10" fill="black"><text id="kity_text_97" text-rendering="inherit" font-size="12" dy=".8em" y="985.5000075031393" font-family="sans-serif" x="285.5000005987547">系统信息和设置</text></g></g><g id="minder_node11" opacity="1"><g id="node_expander10" style="cursor: pointer;"><path id="kity_path_108" fill="white" stroke="gray" d="M280.5000006453547,1056.500006587395A6,6,0,1,1,268.5000006453547,1056.500006587395A6,6,0,1,1,280.5000006453547,1056.500006587395"></path><path id="kity_path_109" fill="none" stroke="gray" d="M270.0000006453547,1056.500006587395L279.0000006453547,1056.500006587395"></path></g><path id="node_outline11" fill="none" stroke="none" d="M285.5000005987547,1047.500006587395h84a5,5,0,0,1,5,5v8a5,5,0,0,1,-5,5h-84a5,5,0,0,1,-5,-5v-8a5,5,0,0,1,5,-5z" stroke-width="3"></path><g id="node_text11" fill="black"><text id="kity_text_105" text-rendering="inherit" font-size="12" dy=".8em" y="1050.500006587395" font-family="sans-serif" x="285.5000005987547">系统安全和能力</text></g></g><g id="minder_node77"><g id="node_expander76" style="cursor: pointer;"><path id="kity_path_636" fill="white" stroke="gray" d="M125.50000282905225,581.5000132793716A6,6,0,1,1,113.50000282905225,581.5000132793716A6,6,0,1,1,125.50000282905225,581.5000132793716"></path><path id="kity_path_637" fill="none" stroke="gray" d="M115.00000282905225,581.5000132793716L124.00000282905225,581.5000132793716"></path></g><path id="node_outline77" fill="rgb(246, 242, 238)" stroke="rgb(191, 147, 115)" d="M129.5000025570383,568.5000132793716h132a3,3,0,0,1,3,3v20a3,3,0,0,1,-3,3h-132a3,3,0,0,1,-3,-3v-20a3,3,0,0,1,3,-3z" stroke-width="1"></path><g id="node_text77" fill="black"><text id="kity_text_633" text-rendering="inherit" font-size="14" dy=".8em" y="574.5000132793716" font-family="sans-serif" x="146.5000025570383">支持的系统调用</text></g></g><g id="kity_g_12" display="none"><path id="kity_path_13" fill="none" stroke="rgb(71, 66, 112)" d="M129.50000416311264,1417.5000088697113h132a3,3,0,0,1,3,3v20a3,3,0,0,1,-3,3h-132a3,3,0,0,1,-3,-3v-20a3,3,0,0,1,3,-3z" stroke-width="5"></path></g><g id="minder_node15"><g id="node_expander14" style="cursor: pointer;" display="none"><path id="kity_path_140" fill="white" stroke="gray" d="M354.4999996028152,29.500021056152484A6,6,0,1,1,342.4999996028152,29.500021056152484A6,6,0,1,1,354.4999996028152,29.500021056152484"></path><path id="kity_path_141" fill="none" stroke="gray" d="M343.9999996028152,29.500021056152484L352.9999996028152,29.500021056152484"></path></g><path id="node_outline15" fill="none" stroke="none" d="M359.4999995562152,20.50002105615249h54a5,5,0,0,1,5,5v8a5,5,0,0,1,-5,5h-54a5,5,0,0,1,-5,-5v-8a5,5,0,0,1,5,-5z" stroke-width="3"></path><g id="node_text15" fill="black"><text id="kity_text_137" text-rendering="inherit" font-size="12" dy=".8em" y="23.500021056152484" font-family="sans-serif" x="359.4999995562152">fork/vfork</text></g></g><g id="minder_node19"><g id="node_expander18" style="cursor: pointer;" display="none"><path id="kity_path_172" fill="white" stroke="gray" d="M354.4999996028152,55.50002068985486A6,6,0,1,1,342.4999996028152,55.50002068985486A6,6,0,1,1,354.4999996028152,55.50002068985486"></path><path id="kity_path_173" fill="none" stroke="gray" d="M343.9999996028152,55.50002068985486L352.9999996028152,55.50002068985486"></path></g><path id="node_outline19" fill="none" stroke="none" d="M359.4999995562152,46.500020689854864h20a5,5,0,0,1,5,5v8a5,5,0,0,1,-5,5h-20a5,5,0,0,1,-5,-5v-8a5,5,0,0,1,5,-5z" stroke-width="3"></path><g id="node_text19" fill="black"><text id="kity_text_169" text-rendering="inherit" font-size="12" dy=".8em" y="49.50002068985486" font-family="sans-serif" x="359.4999995562152">exit</text></g></g><g id="minder_node71"><g id="node_expander70" style="cursor: pointer;" display="none"><path id="kity_path_588" fill="white" stroke="gray" d="M443.4999983489501,81.50002032355724A6,6,0,1,1,431.4999983489501,81.50002032355724A6,6,0,1,1,443.4999983489501,81.50002032355724"></path><path id="kity_path_589" fill="none" stroke="gray" d="M432.9999983489501,81.50002032355724L441.9999983489501,81.50002032355724"></path></g><path id="node_outline71" fill="none" stroke="none" d="M448.4999983023501,72.50002032355724h111a5,5,0,0,1,5,5v8a5,5,0,0,1,-5,5h-111a5,5,0,0,1,-5,-5v-8a5,5,0,0,1,5,-5z" stroke-width="3"></path><g id="node_text71" fill="black"><text id="kity_text_585" text-rendering="inherit" font-size="12" dy=".8em" y="75.50002032355724" font-family="sans-serif" x="448.4999983023501">execution domains</text></g></g><g id="minder_node72"><g id="node_expander71" style="cursor: pointer;" display="none"><path id="kity_path_596" fill="white" stroke="gray" d="M443.4999983489501,107.50001995725961A6,6,0,1,1,431.4999983489501,107.50001995725961A6,6,0,1,1,443.4999983489501,107.50001995725961"></path><path id="kity_path_597" fill="none" stroke="gray"></path></g><path id="node_outline72" fill="none" stroke="none" d="M448.4999983023501,98.50001995725961h63a5,5,0,0,1,5,5v8a5,5,0,0,1,-5,5h-63a5,5,0,0,1,-5,-5v-8a5,5,0,0,1,5,-5z" stroke-width="3"></path><g id="node_text72" fill="black"><text id="kity_text_593" text-rendering="inherit" font-size="12" dy=".8em" y="101.50001995725961" font-family="sans-serif" x="448.4999983023501">personality</text></g></g><g id="minder_node20"><g id="node_expander19" style="cursor: pointer;"><path id="kity_path_180" fill="white" stroke="gray" d="M354.4999996028152,94.50002014040842A6,6,0,1,1,342.4999996028152,94.50002014040842A6,6,0,1,1,354.4999996028152,94.50002014040842"></path><path id="kity_path_181" fill="none" stroke="gray" d="M343.9999996028152,94.50002014040842L352.9999996028152,94.50002014040842"></path></g><path id="node_outline20" fill="none" stroke="none" d="M359.4999995562152,85.50002014040842h63a5,5,0,0,1,5,5v8a5,5,0,0,1,-5,5h-63a5,5,0,0,1,-5,-5v-8a5,5,0,0,1,5,-5z" stroke-width="3"></path><g id="node_text20" fill="black"><text id="kity_text_177" text-rendering="inherit" font-size="12" dy=".8em" y="88.50002014040842" font-family="sans-serif" x="359.4999995562152">personality</text></g></g><g id="minder_node21"><g id="node_expander20" style="cursor: pointer;" display="none"><path id="kity_path_188" fill="white" stroke="gray" d="M354.4999996028152,133.50001959096198A6,6,0,1,1,342.4999996028152,133.50001959096198A6,6,0,1,1,354.4999996028152,133.50001959096198"></path><path id="kity_path_189" fill="none" stroke="gray" d="M343.9999996028152,133.50001959096198L352.9999996028152,133.50001959096198"></path></g><path id="node_outline21" fill="none" stroke="none" d="M359.4999995562152,124.50001959096198h40a5,5,0,0,1,5,5v8a5,5,0,0,1,-5,5h-40a5,5,0,0,1,-5,-5v-8a5,5,0,0,1,5,-5z" stroke-width="3"></path><g id="node_text21" fill="black"><text id="kity_text_185" text-rendering="inherit" font-size="12" dy=".8em" y="127.50001959096198" font-family="sans-serif" x="359.4999995562152">ptrace</text></g></g><g id="minder_node22"><g id="node_expander21" style="cursor: pointer;" display="none"><path id="kity_path_196" fill="white" stroke="gray" d="M354.4999996028152,159.50001922466413A6,6,0,1,1,342.4999996028152,159.50001922466413A6,6,0,1,1,354.4999996028152,159.50001922466413"></path><path id="kity_path_197" fill="none" stroke="gray" d="M343.9999996028152,159.50001922466413L352.9999996028152,159.50001922466413"></path></g><path id="node_outline22" fill="none" stroke="none" d="M359.4999995562152,150.50001922466413h25a5,5,0,0,1,5,5v8a5,5,0,0,1,-5,5h-25a5,5,0,0,1,-5,-5v-8a5,5,0,0,1,5,-5z" stroke-width="3"></path><g id="node_text22" fill="black"><text id="kity_text_193" text-rendering="inherit" font-size="12" dy=".8em" y="153.50001922466413" font-family="sans-serif" x="359.4999995562152">nice</text></g></g><g id="minder_node23"><g id="node_expander22" style="cursor: pointer;" display="none"><path id="kity_path_204" fill="white" stroke="gray" d="M354.4999996028152,185.50001885836662A6,6,0,1,1,342.4999996028152,185.50001885836662A6,6,0,1,1,354.4999996028152,185.50001885836662"></path><path id="kity_path_205" fill="none" stroke="gray" d="M343.9999996028152,185.50001885836662L352.9999996028152,185.50001885836662"></path></g><path id="node_outline23" fill="none" stroke="none" d="M359.4999995562152,176.50001885836662h43a5,5,0,0,1,5,5v8a5,5,0,0,1,-5,5h-43a5,5,0,0,1,-5,-5v-8a5,5,0,0,1,5,-5z" stroke-width="3"></path><g id="node_text23" fill="black"><text id="kity_text_201" text-rendering="inherit" font-size="12" dy=".8em" y="179.50001885836662" font-family="sans-serif" x="359.4999995562152">setrlimit</text></g></g><g id="minder_node24"><g id="node_expander23" style="cursor: pointer;" display="none"><path id="kity_path_212" fill="white" stroke="gray" d="M354.4999996028152,211.500018492069A6,6,0,1,1,342.4999996028152,211.500018492069A6,6,0,1,1,354.4999996028152,211.500018492069"></path><path id="kity_path_213" fill="none" stroke="gray" d="M343.9999996028152,211.500018492069L352.9999996028152,211.500018492069"></path></g><path id="node_outline24" fill="none" stroke="none" d="M359.4999995562152,202.500018492069h50a5,5,0,0,1,5,5v8a5,5,0,0,1,-5,5h-50a5,5,0,0,1,-5,-5v-8a5,5,0,0,1,5,-5z" stroke-width="3"></path><g id="node_text24" fill="black"><text id="kity_text_209" text-rendering="inherit" font-size="12" dy=".8em" y="205.500018492069" font-family="sans-serif" x="359.4999995562152">adjtimex</text></g></g><g id="minder_node25"><g id="node_expander24" style="cursor: pointer;" display="none"><path id="kity_path_220" fill="white" stroke="gray" d="M354.4999996028152,237.50001812577125A6,6,0,1,1,342.4999996028152,237.50001812577125A6,6,0,1,1,354.4999996028152,237.50001812577125"></path><path id="kity_path_221" fill="none" stroke="gray"></path></g><path id="node_outline25" fill="none" stroke="none" d="M359.4999995562152,228.50001812577125h87a5,5,0,0,1,5,5v8a5,5,0,0,1,-5,5h-87a5,5,0,0,1,-5,-5v-8a5,5,0,0,1,5,-5z" stroke-width="3"></path><g id="node_text25" fill="black"><text id="kity_text_217" text-rendering="inherit" font-size="12" dy=".8em" y="231.50001812577125" font-family="sans-serif" x="359.4999995562152">alarm/setitimer</text></g></g><g id="minder_node26"><g id="node_expander25" style="cursor: pointer;" display="none"><path id="kity_path_228" fill="white" stroke="gray" d="M354.4999996028152,263.5000177594736A6,6,0,1,1,342.4999996028152,263.5000177594736A6,6,0,1,1,354.4999996028152,263.5000177594736"></path><path id="kity_path_229" fill="none" stroke="gray"></path></g><path id="node_outline26" fill="none" stroke="none" d="M359.4999995562152,254.50001775947362h98a5,5,0,0,1,5,5v8a5,5,0,0,1,-5,5h-98a5,5,0,0,1,-5,-5v-8a5,5,0,0,1,5,-5z" stroke-width="3"></path><g id="node_text26" fill="black"><text id="kity_text_225" text-rendering="inherit" font-size="12" dy=".8em" y="257.5000177594736" font-family="sans-serif" x="359.4999995562152">sleep/nanosleep</text></g></g><g id="minder_node27"><g id="node_expander26" style="cursor: pointer;" display="none"><path id="kity_path_236" fill="white" stroke="gray" d="M354.4999996028152,289.5000173931759A6,6,0,1,1,342.4999996028152,289.5000173931759A6,6,0,1,1,354.4999996028152,289.5000173931759"></path><path id="kity_path_237" fill="none" stroke="gray"></path></g><path id="node_outline27" fill="none" stroke="none" d="M359.4999995562152,280.5000173931759h80a5,5,0,0,1,5,5v8a5,5,0,0,1,-5,5h-80a5,5,0,0,1,-5,-5v-8a5,5,0,0,1,5,-5z" stroke-width="3"></path><g id="node_text27" fill="black"><text id="kity_text_233" text-rendering="inherit" font-size="12" dy=".8em" y="283.5000173931759" font-family="sans-serif" x="359.4999995562152">gettimeofday</text></g></g><g id="minder_node30"><g id="node_expander29" style="cursor: pointer;" display="none"><path id="kity_path_260" fill="white" stroke="gray" d="M354.4999996028152,315.50001702687837A6,6,0,1,1,342.4999996028152,315.50001702687837A6,6,0,1,1,354.4999996028152,315.50001702687837"></path><path id="kity_path_261" fill="none" stroke="gray"></path></g><path id="node_outline30" fill="none" stroke="none" d="M359.4999995562152,306.50001702687837h31a5,5,0,0,1,5,5v8a5,5,0,0,1,-5,5h-31a5,5,0,0,1,-5,-5v-8a5,5,0,0,1,5,-5z" stroke-width="3"></path><g id="node_text30" fill="black"><text id="kity_text_257" text-rendering="inherit" font-size="12" dy=".8em" y="309.50001702687837" font-family="sans-serif" x="359.4999995562152">sleep</text></g></g><g id="minder_node31"><g id="node_expander30" style="cursor: pointer;" display="none"><path id="kity_path_268" fill="white" stroke="gray" d="M354.4999996028152,341.50001666058074A6,6,0,1,1,342.4999996028152,341.50001666058074A6,6,0,1,1,354.4999996028152,341.50001666058074"></path><path id="kity_path_269" fill="none" stroke="gray"></path></g><path id="node_outline31" fill="none" stroke="none" d="M359.4999995562152,332.50001666058074h26a5,5,0,0,1,5,5v8a5,5,0,0,1,-5,5h-26a5,5,0,0,1,-5,-5v-8a5,5,0,0,1,5,-5z" stroke-width="3"></path><g id="node_text31" fill="black"><text id="kity_text_265" text-rendering="inherit" font-size="12" dy=".8em" y="335.50001666058074" font-family="sans-serif" x="359.4999995562152">time</text></g></g><g id="minder_node33"><g id="node_expander32" style="cursor: pointer;" display="none"><path id="kity_path_284" fill="white" stroke="gray" d="M354.4999996028152,367.500016294283A6,6,0,1,1,342.4999996028152,367.500016294283A6,6,0,1,1,354.4999996028152,367.500016294283"></path><path id="kity_path_285" fill="none" stroke="gray"></path></g><path id="node_outline33" fill="none" stroke="none" d="M359.4999995562152,358.500016294283h33a5,5,0,0,1,5,5v8a5,5,0,0,1,-5,5h-33a5,5,0,0,1,-5,-5v-8a5,5,0,0,1,5,-5z" stroke-width="3"></path><g id="node_text33" fill="black"><text id="kity_text_281" text-rendering="inherit" font-size="12" dy=".8em" y="361.500016294283" font-family="sans-serif" x="359.4999995562152">signal</text></g></g><g id="minder_node34"><g id="node_expander33" style="cursor: pointer;" display="none"><path id="kity_path_292" fill="white" stroke="gray" d="M354.4999996028152,393.50001592798543A6,6,0,1,1,342.4999996028152,393.50001592798543A6,6,0,1,1,354.4999996028152,393.50001592798543"></path><path id="kity_path_293" fill="none" stroke="gray"></path></g><path id="node_outline34" fill="none" stroke="none" d="M359.4999995562152,384.50001592798543h64a5,5,0,0,1,5,5v8a5,5,0,0,1,-5,5h-64a5,5,0,0,1,-5,-5v-8a5,5,0,0,1,5,-5z" stroke-width="3"></path><g id="node_text34" fill="black"><text id="kity_text_289" text-rendering="inherit" font-size="12" dy=".8em" y="387.50001592798543" font-family="sans-serif" x="359.4999995562152">sigpending</text></g></g><g id="minder_node35"><g id="node_expander34" style="cursor: pointer;" display="none"><path id="kity_path_300" fill="white" stroke="gray" d="M354.4999996028152,419.50001556168775A6,6,0,1,1,342.4999996028152,419.50001556168775A6,6,0,1,1,354.4999996028152,419.50001556168775"></path><path id="kity_path_301" fill="none" stroke="gray"></path></g><path id="node_outline35" fill="none" stroke="none" d="M359.4999995562152,410.50001556168775h56a5,5,0,0,1,5,5v8a5,5,0,0,1,-5,5h-56a5,5,0,0,1,-5,-5v-8a5,5,0,0,1,5,-5z" stroke-width="3"></path><g id="node_text35" fill="black"><text id="kity_text_297" text-rendering="inherit" font-size="12" dy=".8em" y="413.50001556168775" font-family="sans-serif" x="359.4999995562152">gsuspend</text></g></g><g id="minder_node36"><g id="node_expander35" style="cursor: pointer;" display="none"><path id="kity_path_308" fill="white" stroke="gray" d="M354.4999996028152,445.50001519539006A6,6,0,1,1,342.4999996028152,445.50001519539006A6,6,0,1,1,354.4999996028152,445.50001519539006"></path><path id="kity_path_309" fill="none" stroke="gray"></path></g><path id="node_outline36" fill="none" stroke="none" d="M359.4999995562152,436.50001519539006h47a5,5,0,0,1,5,5v8a5,5,0,0,1,-5,5h-47a5,5,0,0,1,-5,-5v-8a5,5,0,0,1,5,-5z" stroke-width="3"></path><g id="node_text36" fill="black"><text id="kity_text_305" text-rendering="inherit" font-size="12" dy=".8em" y="439.50001519539006" font-family="sans-serif" x="359.4999995562152">setmask</text></g></g><g id="minder_node37"><g id="node_expander36" style="cursor: pointer;" display="none"><path id="kity_path_316" fill="white" stroke="gray" d="M354.4999996028152,471.50001482909244A6,6,0,1,1,342.4999996028152,471.50001482909244A6,6,0,1,1,354.4999996028152,471.50001482909244"></path><path id="kity_path_317" fill="none" stroke="gray"></path></g><path id="node_outline37" fill="none" stroke="none" d="M359.4999995562152,462.50001482909244h13a5,5,0,0,1,5,5v8a5,5,0,0,1,-5,5h-13a5,5,0,0,1,-5,-5v-8a5,5,0,0,1,5,-5z" stroke-width="3"></path><g id="node_text37" fill="black"><text id="kity_text_313" text-rendering="inherit" font-size="12" dy=".8em" y="465.50001482909244" font-family="sans-serif" x="359.4999995562152">kill</text></g></g><g id="minder_node39"><g id="node_expander38" style="cursor: pointer;" display="none"><path id="kity_path_332" fill="white" stroke="gray" d="M330.4999999409361,497.5000144627948A6,6,0,1,1,318.4999999409361,497.5000144627948A6,6,0,1,1,330.4999999409361,497.5000144627948"></path><path id="kity_path_333" fill="none" stroke="gray"></path></g><path id="node_outline39" fill="none" stroke="none" d="M335.4999998943361,488.5000144627948h55a5,5,0,0,1,5,5v8a5,5,0,0,1,-5,5h-55a5,5,0,0,1,-5,-5v-8a5,5,0,0,1,5,-5z" stroke-width="3"></path><g id="node_text39" fill="black"><text id="kity_text_329" text-rendering="inherit" font-size="12" dy=".8em" y="491.5000144627948" font-family="sans-serif" x="335.4999998943361">setpriority</text></g></g><g id="minder_node40"><g id="node_expander39" style="cursor: pointer;" display="none"><path id="kity_path_340" fill="white" stroke="gray" d="M330.4999999409361,523.5000140964971A6,6,0,1,1,318.4999999409361,523.5000140964971A6,6,0,1,1,330.4999999409361,523.5000140964971"></path><path id="kity_path_341" fill="none" stroke="gray"></path></g><path id="node_outline40" fill="none" stroke="none" d="M335.4999998943361,514.5000140964971h69a5,5,0,0,1,5,5v8a5,5,0,0,1,-5,5h-69a5,5,0,0,1,-5,-5v-8a5,5,0,0,1,5,-5z" stroke-width="3"></path><g id="node_text40" fill="black"><text id="kity_text_337" text-rendering="inherit" font-size="12" dy=".8em" y="517.5000140964971" font-family="sans-serif" x="335.4999998943361">sched_yield</text></g></g><g id="minder_node41"><g id="node_expander40" style="cursor: pointer;" display="none"><path id="kity_path_348" fill="white" stroke="gray" d="M330.4999999409361,549.5000137301995A6,6,0,1,1,318.4999999409361,549.5000137301995A6,6,0,1,1,330.4999999409361,549.5000137301995"></path><path id="kity_path_349" fill="none" stroke="gray"></path></g><path id="node_outline41" fill="none" stroke="none" d="M335.4999998943361,540.5000137301995h67a5,5,0,0,1,5,5v8a5,5,0,0,1,-5,5h-67a5,5,0,0,1,-5,-5v-8a5,5,0,0,1,5,-5z" stroke-width="3"></path><g id="node_text41" fill="black"><text id="kity_text_345" text-rendering="inherit" font-size="12" dy=".8em" y="543.5000137301995" font-family="sans-serif" x="335.4999998943361">init_module</text></g></g><g id="minder_node42"><g id="node_expander41" style="cursor: pointer;" display="none"><path id="kity_path_356" fill="white" stroke="gray" d="M330.4999999409361,575.5000133639019A6,6,0,1,1,318.4999999409361,575.5000133639019A6,6,0,1,1,330.4999999409361,575.5000133639019"></path><path id="kity_path_357" fill="none" stroke="gray"></path></g><path id="node_outline42" fill="none" stroke="none" d="M335.4999998943361,566.5000133639019h89a5,5,0,0,1,5,5v8a5,5,0,0,1,-5,5h-89a5,5,0,0,1,-5,-5v-8a5,5,0,0,1,5,-5z" stroke-width="3"></path><g id="node_text42" fill="black"><text id="kity_text_353" text-rendering="inherit" font-size="12" dy=".8em" y="569.5000133639019" font-family="sans-serif" x="335.4999998943361">delete_module</text></g></g><g id="minder_node43"><g id="node_expander42" style="cursor: pointer;" display="none"><path id="kity_path_364" fill="white" stroke="gray" d="M354.4999996028152,601.5000129976041A6,6,0,1,1,342.4999996028152,601.5000129976041A6,6,0,1,1,354.4999996028152,601.5000129976041"></path><path id="kity_path_365" fill="none" stroke="gray"></path></g><path id="node_outline43" fill="none" stroke="none" d="M359.4999995562152,592.5000129976041h214a5,5,0,0,1,5,5v8a5,5,0,0,1,-5,5h-214a5,5,0,0,1,-5,-5v-8a5,5,0,0,1,5,-5z" stroke-width="3"></path><g id="node_text43" fill="black"><text id="kity_text_361" text-rendering="inherit" font-size="12" dy=".8em" y="595.5000129976041" font-family="sans-serif" x="359.4999995562152">mkdir/rmdir/rename/symlink/getcwd</text></g></g><g id="minder_node44"><g id="node_expander43" style="cursor: pointer;" display="none"><path id="kity_path_372" fill="white" stroke="gray" d="M354.4999996028152,627.5000126313064A6,6,0,1,1,342.4999996028152,627.5000126313064A6,6,0,1,1,354.4999996028152,627.5000126313064"></path><path id="kity_path_373" fill="none" stroke="gray"></path></g><path id="node_outline44" fill="none" stroke="none" d="M359.4999995562152,618.5000126313064h232a5,5,0,0,1,5,5v8a5,5,0,0,1,-5,5h-232a5,5,0,0,1,-5,-5v-8a5,5,0,0,1,5,-5z" stroke-width="3"></path><g id="node_text44" fill="black"><text id="kity_text_369" text-rendering="inherit" font-size="12" dy=".8em" y="621.5000126313064" font-family="sans-serif" x="359.4999995562152">read/readv/write/writev/truncate/llseek</text></g></g><g id="minder_node45"><g id="node_expander44" style="cursor: pointer;" display="none"><path id="kity_path_380" fill="white" stroke="gray" d="M354.4999996028152,653.5000122650088A6,6,0,1,1,342.4999996028152,653.5000122650088A6,6,0,1,1,354.4999996028152,653.5000122650088"></path><path id="kity_path_381" fill="none" stroke="gray"></path></g><path id="node_outline45" fill="none" stroke="none" d="M359.4999995562152,644.5000122650088h42a5,5,0,0,1,5,5v8a5,5,0,0,1,-5,5h-42a5,5,0,0,1,-5,-5v-8a5,5,0,0,1,5,-5z" stroke-width="3"></path><g id="node_text45" fill="black"><text id="kity_text_377" text-rendering="inherit" font-size="12" dy=".8em" y="647.5000122650088" font-family="sans-serif" x="359.4999995562152">readdir</text></g></g><g id="minder_node47"><g id="node_expander46" style="cursor: pointer;" display="none"><path id="kity_path_396" fill="white" stroke="gray" d="M354.4999996028152,679.5000118987111A6,6,0,1,1,342.4999996028152,679.5000118987111A6,6,0,1,1,354.4999996028152,679.5000118987111"></path><path id="kity_path_397" fill="none" stroke="gray"></path></g><path id="node_outline47" fill="none" stroke="none" d="M359.4999995562152,670.5000118987111h64a5,5,0,0,1,5,5v8a5,5,0,0,1,-5,5h-64a5,5,0,0,1,-5,-5v-8a5,5,0,0,1,5,-5z" stroke-width="3"></path><g id="node_text47" fill="black"><text id="kity_text_393" text-rendering="inherit" font-size="12" dy=".8em" y="673.5000118987111" font-family="sans-serif" x="359.4999995562152">link/symlink</text></g></g><g id="minder_node49"><g id="node_expander48" style="cursor: pointer;" display="none"><path id="kity_path_412" fill="white" stroke="gray" d="M354.4999996028152,705.5000115324135A6,6,0,1,1,342.4999996028152,705.5000115324135A6,6,0,1,1,354.4999996028152,705.5000115324135"></path><path id="kity_path_413" fill="none" stroke="gray"></path></g><path id="node_outline49" fill="none" stroke="none" d="M359.4999995562152,696.5000115324135h88a5,5,0,0,1,5,5v8a5,5,0,0,1,-5,5h-88a5,5,0,0,1,-5,-5v-8a5,5,0,0,1,5,-5z" stroke-width="3"></path><g id="node_text49" fill="black"><text id="kity_text_409" text-rendering="inherit" font-size="12" dy=".8em" y="699.5000115324135" font-family="sans-serif" x="359.4999995562152">mount/umount</text></g></g><g id="minder_node50"><g id="node_expander49" style="cursor: pointer;" display="none"><path id="kity_path_420" fill="white" stroke="gray" d="M354.4999996028152,731.5000111661159A6,6,0,1,1,342.4999996028152,731.5000111661159A6,6,0,1,1,354.4999996028152,731.5000111661159"></path><path id="kity_path_421" fill="none" stroke="gray"></path></g><path id="node_outline50" fill="none" stroke="none" d="M359.4999995562152,722.5000111661159h61a5,5,0,0,1,5,5v8a5,5,0,0,1,-5,5h-61a5,5,0,0,1,-5,-5v-8a5,5,0,0,1,5,-5z" stroke-width="3"></path><g id="node_text50" fill="black"><text id="kity_text_417" text-rendering="inherit" font-size="12" dy=".8em" y="725.5000111661159" font-family="sans-serif" x="359.4999995562152">poll/select</text></g></g><g id="minder_node51"><g id="node_expander50" style="cursor: pointer;" display="none"><path id="kity_path_428" fill="white" stroke="gray" d="M354.4999996028152,757.5000107998183A6,6,0,1,1,342.4999996028152,757.5000107998183A6,6,0,1,1,354.4999996028152,757.5000107998183"></path><path id="kity_path_429" fill="none" stroke="gray"></path></g><path id="node_outline51" fill="none" stroke="none" d="M359.4999995562152,748.5000107998183h44a5,5,0,0,1,5,5v8a5,5,0,0,1,-5,5h-44a5,5,0,0,1,-5,-5v-8a5,5,0,0,1,5,-5z" stroke-width="3"></path><g id="node_text51" fill="black"><text id="kity_text_425" text-rendering="inherit" font-size="12" dy=".8em" y="751.5000107998183" font-family="sans-serif" x="359.4999995562152">execve</text></g></g><g id="minder_node52"><g id="node_expander51" style="cursor: pointer;" display="none"><path id="kity_path_436" fill="white" stroke="gray" d="M354.4999996028152,783.5000104335206A6,6,0,1,1,342.4999996028152,783.5000104335206A6,6,0,1,1,354.4999996028152,783.5000104335206"></path><path id="kity_path_437" fill="none" stroke="gray"></path></g><path id="node_outline52" fill="none" stroke="none" d="M359.4999995562152,774.5000104335206h72a5,5,0,0,1,5,5v8a5,5,0,0,1,-5,5h-72a5,5,0,0,1,-5,-5v-8a5,5,0,0,1,5,-5z" stroke-width="3"></path><g id="node_text52" fill="black"><text id="kity_text_433" text-rendering="inherit" font-size="12" dy=".8em" y="777.5000104335206" font-family="sans-serif" x="359.4999995562152">map/mmap</text></g></g><g id="minder_node53"><g id="node_expander52" style="cursor: pointer;" display="none"><path id="kity_path_444" fill="white" stroke="gray" d="M354.4999996028152,809.5000100672229A6,6,0,1,1,342.4999996028152,809.5000100672229A6,6,0,1,1,354.4999996028152,809.5000100672229"></path><path id="kity_path_445" fill="none" stroke="gray"></path></g><path id="node_outline53" fill="none" stroke="none" d="M359.4999995562152,800.5000100672229h46a5,5,0,0,1,5,5v8a5,5,0,0,1,-5,5h-46a5,5,0,0,1,-5,-5v-8a5,5,0,0,1,5,-5z" stroke-width="3"></path><g id="node_text53" fill="black"><text id="kity_text_441" text-rendering="inherit" font-size="12" dy=".8em" y="803.5000100672229" font-family="sans-serif" x="359.4999995562152">mmap2</text></g></g><g id="minder_node54"><g id="node_expander53" style="cursor: pointer;" display="none"><path id="kity_path_452" fill="white" stroke="gray" d="M354.4999996028152,835.5000097009253A6,6,0,1,1,342.4999996028152,835.5000097009253A6,6,0,1,1,354.4999996028152,835.5000097009253"></path><path id="kity_path_453" fill="none" stroke="gray"></path></g><path id="node_outline54" fill="none" stroke="none" d="M359.4999995562152,826.5000097009253h54a5,5,0,0,1,5,5v8a5,5,0,0,1,-5,5h-54a5,5,0,0,1,-5,-5v-8a5,5,0,0,1,5,-5z" stroke-width="3"></path><g id="node_text54" fill="black"><text id="kity_text_449" text-rendering="inherit" font-size="12" dy=".8em" y="829.5000097009253" font-family="sans-serif" x="359.4999995562152">munmap</text></g></g><g id="minder_node55"><g id="node_expander54" style="cursor: pointer;" display="none"><path id="kity_path_460" fill="white" stroke="gray" d="M354.4999996028152,861.5000093346276A6,6,0,1,1,342.4999996028152,861.5000093346276A6,6,0,1,1,354.4999996028152,861.5000093346276"></path><path id="kity_path_461" fill="none" stroke="gray"></path></g><path id="node_outline55" fill="none" stroke="none" d="M359.4999995562152,852.5000093346276h50a5,5,0,0,1,5,5v8a5,5,0,0,1,-5,5h-50a5,5,0,0,1,-5,-5v-8a5,5,0,0,1,5,-5z" stroke-width="3"></path><g id="node_text55" fill="black"><text id="kity_text_457" text-rendering="inherit" font-size="12" dy=".8em" y="855.5000093346276" font-family="sans-serif" x="359.4999995562152">mremap</text></g></g><g id="minder_node56"><g id="node_expander55" style="cursor: pointer;" display="none"><path id="kity_path_468" fill="white" stroke="gray" d="M354.4999996028152,887.5000089683299A6,6,0,1,1,342.4999996028152,887.5000089683299A6,6,0,1,1,354.4999996028152,887.5000089683299"></path><path id="kity_path_469" fill="none" stroke="gray"></path></g><path id="node_outline56" fill="none" stroke="none" d="M359.4999995562152,878.5000089683299h46a5,5,0,0,1,5,5v8a5,5,0,0,1,-5,5h-46a5,5,0,0,1,-5,-5v-8a5,5,0,0,1,5,-5z" stroke-width="3"></path><g id="node_text56" fill="black"><text id="kity_text_465" text-rendering="inherit" font-size="12" dy=".8em" y="881.5000089683299" font-family="sans-serif" x="359.4999995562152">sawpon</text></g></g><g id="minder_node57"><g id="node_expander56" style="cursor: pointer;" display="none"><path id="kity_path_476" fill="white" stroke="gray" d="M390.4999990956338,913.5000086020323A6,6,0,1,1,378.4999990956338,913.5000086020323A6,6,0,1,1,390.4999990956338,913.5000086020323"></path><path id="kity_path_477" fill="none" stroke="gray"></path></g><path id="node_outline57" fill="none" stroke="none" d="M395.4999990490338,904.5000086020323h59a5,5,0,0,1,5,5v8a5,5,0,0,1,-5,5h-59a5,5,0,0,1,-5,-5v-8a5,5,0,0,1,5,-5z" stroke-width="3"></path><g id="node_text57" fill="black"><text id="kity_text_473" text-rendering="inherit" font-size="12" dy=".8em" y="907.5000086020323" font-family="sans-serif" x="395.4999990490338">socketcall</text></g></g><g id="minder_node59"><g id="node_expander58" style="cursor: pointer;" display="none"><path id="kity_path_492" fill="white" stroke="gray" d="M390.4999990956338,939.5000082357346A6,6,0,1,1,378.4999990956338,939.5000082357346A6,6,0,1,1,390.4999990956338,939.5000082357346"></path><path id="kity_path_493" fill="none" stroke="gray"></path></g><path id="node_outline59" fill="none" stroke="none" d="M395.4999990490338,930.5000082357346h83a5,5,0,0,1,5,5v8a5,5,0,0,1,-5,5h-83a5,5,0,0,1,-5,-5v-8a5,5,0,0,1,5,-5z" stroke-width="3"></path><g id="node_text59" fill="black"><text id="kity_text_489" text-rendering="inherit" font-size="12" dy=".8em" y="933.5000082357346" font-family="sans-serif" x="395.4999990490338">ipc/socketcall</text></g></g><g id="minder_node62"><g id="node_expander61" style="cursor: pointer;" display="none"><path id="kity_path_516" fill="white" stroke="gray" d="M390.4999990956338,965.500007869437A6,6,0,1,1,378.4999990956338,965.500007869437A6,6,0,1,1,390.4999990956338,965.500007869437"></path><path id="kity_path_517" fill="none" stroke="gray"></path></g><path id="node_outline62" fill="none" stroke="none" d="M395.4999990490338,956.500007869437h34a5,5,0,0,1,5,5v8a5,5,0,0,1,-5,5h-34a5,5,0,0,1,-5,-5v-8a5,5,0,0,1,5,-5z" stroke-width="3"></path><g id="node_text62" fill="black"><text id="kity_text_513" text-rendering="inherit" font-size="12" dy=".8em" y="959.500007869437" font-family="sans-serif" x="395.4999990490338">syslog</text></g></g><g id="minder_node63"><g id="node_expander62" style="cursor: pointer;" display="none"><path id="kity_path_524" fill="white" stroke="gray" d="M390.4999990956338,991.5000075031393A6,6,0,1,1,378.4999990956338,991.5000075031393A6,6,0,1,1,390.4999990956338,991.5000075031393"></path><path id="kity_path_525" fill="none" stroke="gray"></path></g><path id="node_outline63" fill="none" stroke="none" d="M395.4999990490338,982.5000075031393h37a5,5,0,0,1,5,5v8a5,5,0,0,1,-5,5h-37a5,5,0,0,1,-5,-5v-8a5,5,0,0,1,5,-5z" stroke-width="3"></path><g id="node_text63" fill="black"><text id="kity_text_521" text-rendering="inherit" font-size="12" dy=".8em" y="985.5000075031393" font-family="sans-serif" x="395.4999990490338">sysinfo</text></g></g><g id="minder_node64"><g id="node_expander63" style="cursor: pointer;" display="none"><path id="kity_path_532" fill="white" stroke="gray" d="M390.4999990956338,1017.5000071368416A6,6,0,1,1,378.4999990956338,1017.5000071368416A6,6,0,1,1,390.4999990956338,1017.5000071368416"></path><path id="kity_path_533" fill="none" stroke="gray"></path></g><path id="node_outline64" fill="none" stroke="none" d="M395.4999990490338,1008.5000071368416h30a5,5,0,0,1,5,5v8a5,5,0,0,1,-5,5h-30a5,5,0,0,1,-5,-5v-8a5,5,0,0,1,5,-5z" stroke-width="3"></path><g id="node_text64" fill="black"><text id="kity_text_529" text-rendering="inherit" font-size="12" dy=".8em" y="1011.5000071368416" font-family="sans-serif" x="395.4999990490338">sysctl</text></g></g><g id="minder_node65"><g id="node_expander64" style="cursor: pointer;" display="none"><path id="kity_path_540" fill="white" stroke="gray" d="M390.4999990956338,1043.5000067705441A6,6,0,1,1,378.4999990956338,1043.5000067705441A6,6,0,1,1,390.4999990956338,1043.5000067705441"></path><path id="kity_path_541" fill="none" stroke="gray"></path></g><path id="node_outline65" fill="none" stroke="none" d="M395.4999990490338,1034.5000067705441h90a5,5,0,0,1,5,5v8a5,5,0,0,1,-5,5h-90a5,5,0,0,1,-5,-5v-8a5,5,0,0,1,5,-5z" stroke-width="3"></path><g id="node_text65" fill="black"><text id="kity_text_537" text-rendering="inherit" font-size="12" dy=".8em" y="1037.5000067705441" font-family="sans-serif" x="395.4999990490338">capset/capget</text></g></g><g id="minder_node66"><g id="node_expander65" style="cursor: pointer;" display="none"><path id="kity_path_548" fill="white" stroke="gray" d="M390.4999990956338,1069.5000064042463A6,6,0,1,1,378.4999990956338,1069.5000064042463A6,6,0,1,1,390.4999990956338,1069.5000064042463"></path><path id="kity_path_549" fill="none" stroke="gray"></path></g><path id="node_outline66" fill="none" stroke="none" d="M395.4999990490338,1060.5000064042463h44a5,5,0,0,1,5,5v8a5,5,0,0,1,-5,5h-44a5,5,0,0,1,-5,-5v-8a5,5,0,0,1,5,-5z" stroke-width="3"></path><g id="node_text66" fill="black"><text id="kity_text_545" text-rendering="inherit" font-size="12" dy=".8em" y="1063.5000064042463" font-family="sans-serif" x="395.4999990490338">security</text></g></g><g id="minder_node78"><g id="node_expander77" style="cursor: pointer;"><path id="kity_path_693" fill="white" stroke="gray" d="M125.50000282905225,1207.500004460051A6,6,0,1,1,113.50000282905225,1207.500004460051A6,6,0,1,1,125.50000282905225,1207.500004460051"></path><path id="kity_path_694" fill="none" stroke="gray" d="M115.00000282905225,1207.500004460051L124.00000282905225,1207.500004460051"></path></g><path id="node_outline78" fill="#9bbb59" stroke="rgb(191, 147, 115)" d="M129.5000025570383,1194.500004460051h118a3,3,0,0,1,3,3v20a3,3,0,0,1,-3,3h-118a3,3,0,0,1,-3,-3v-20a3,3,0,0,1,3,-3z" stroke-width="1"></path><g id="node_text78" fill="black"><text id="kity_text_690" text-rendering="inherit" font-size="14" dy=".8em" y="1200.500004460051" font-family="sans-serif" x="146.5000025570383">系统调用实现</text></g></g><g id="minder_node79"><g id="node_expander78" style="cursor: pointer;"><path id="kity_path_701" fill="white" stroke="gray" d="M266.5000008425918,1129.500005558944A6,6,0,1,1,254.50000084259182,1129.500005558944A6,6,0,1,1,266.5000008425918,1129.500005558944"></path><path id="kity_path_702" fill="none" stroke="gray" d="M256.0000008425918,1129.500005558944L265.0000008425918,1129.500005558944"></path></g><path id="node_outline79" fill="#00b050" stroke="none" d="M271.5000007959918,1120.500005558944h84a5,5,0,0,1,5,5v8a5,5,0,0,1,-5,5h-84a5,5,0,0,1,-5,-5v-8a5,5,0,0,1,5,-5z" stroke-width="3"></path><g id="node_text79" fill="black"><text id="kity_text_698" text-rendering="inherit" font-size="12" dy=".8em" y="1123.500005558944" font-family="sans-serif" x="271.5000007959918">系统调用的结构</text></g></g><g id="minder_node80"><g id="node_expander79" style="cursor: pointer;" display="none"><path id="kity_path_709" fill="white" stroke="gray" d="M376.49999929287105,1103.5000059252418A6,6,0,1,1,364.49999929287105,1103.5000059252418A6,6,0,1,1,376.49999929287105,1103.5000059252418"></path><path id="kity_path_710" fill="none" stroke="gray"></path></g><path id="node_outline80" fill="#00b050" stroke="none" d="M381.49999924627105,1094.5000059252418h108a5,5,0,0,1,5,5v8a5,5,0,0,1,-5,5h-108a5,5,0,0,1,-5,-5v-8a5,5,0,0,1,5,-5z" stroke-width="3"></path><g id="node_text80" fill="black"><text id="kity_text_706" text-rendering="inherit" font-size="12" dy=".8em" y="1097.5000059252418" font-family="sans-serif" x="381.49999924627105">处理程序函数的实现</text></g></g><g id="minder_node81"><g id="node_expander80" style="cursor: pointer;" display="none"><path id="kity_path_717" fill="white" stroke="gray" d="M376.49999929287105,1129.500005558944A6,6,0,1,1,364.49999929287105,1129.500005558944A6,6,0,1,1,376.49999929287105,1129.500005558944"></path><path id="kity_path_718" fill="none" stroke="gray"></path></g><path id="node_outline81" fill="#00b050" stroke="none" d="M381.49999924627105,1120.500005558944h108a5,5,0,0,1,5,5v8a5,5,0,0,1,-5,5h-108a5,5,0,0,1,-5,-5v-8a5,5,0,0,1,5,-5z" stroke-width="3"></path><g id="node_text81" fill="black"><text id="kity_text_714" text-rendering="inherit" font-size="12" dy=".8em" y="1123.500005558944" font-family="sans-serif" x="381.49999924627105">调用分派和参数传递</text></g></g><g id="minder_node82"><g id="node_expander81" style="cursor: pointer;" display="none"><path id="kity_path_725" fill="white" stroke="gray" d="M376.49999929287105,1155.5000051926463A6,6,0,1,1,364.49999929287105,1155.5000051926463A6,6,0,1,1,376.49999929287105,1155.5000051926463"></path><path id="kity_path_726" fill="none" stroke="gray"></path></g><path id="node_outline82" fill="#00b050" stroke="none" d="M381.49999924627105,1146.5000051926463h60a5,5,0,0,1,5,5v8a5,5,0,0,1,-5,5h-60a5,5,0,0,1,-5,-5v-8a5,5,0,0,1,5,-5z" stroke-width="3"></path><g id="node_text82" fill="black"><text id="kity_text_722" text-rendering="inherit" font-size="12" dy=".8em" y="1149.5000051926463" font-family="sans-serif" x="381.49999924627105">返回用户态</text></g></g><g id="minder_node84"><g id="node_expander83" style="cursor: pointer;"><path id="kity_path_741" fill="white" stroke="gray" d="M266.5000008425918,1207.500004460051A6,6,0,1,1,254.50000084259182,1207.500004460051A6,6,0,1,1,266.5000008425918,1207.500004460051"></path><path id="kity_path_742" fill="none" stroke="gray" d="M256.0000008425918,1207.500004460051L265.0000008425918,1207.500004460051"></path></g><path id="node_outline84" fill="#00b050" stroke="none" d="M271.5000007959918,1198.500004460051h72a5,5,0,0,1,5,5v8a5,5,0,0,1,-5,5h-72a5,5,0,0,1,-5,-5v-8a5,5,0,0,1,5,-5z" stroke-width="3"></path><g id="node_text84" fill="black"><text id="kity_text_738" text-rendering="inherit" font-size="12" dy=".8em" y="1201.500004460051" font-family="sans-serif" x="271.5000007959918">访问用户空间</text></g></g><g id="minder_node85"><g id="node_expander84" style="cursor: pointer;"><path id="kity_path_749" fill="white" stroke="gray" d="M266.5000008425918,1285.5000033611582A6,6,0,1,1,254.50000084259182,1285.5000033611582A6,6,0,1,1,266.5000008425918,1285.5000033611582"></path><path id="kity_path_750" fill="none" stroke="gray" d="M256.0000008425918,1285.5000033611582L265.0000008425918,1285.5000033611582"></path></g><path id="node_outline85" fill="#00b050" stroke="none" d="M271.5000007959918,1276.5000033611582h112a5,5,0,0,1,5,5v8a5,5,0,0,1,-5,5h-112a5,5,0,0,1,-5,-5v-8a5,5,0,0,1,5,-5z" stroke-width="3"></path><g id="node_text85" fill="black"><text id="kity_text_746" text-rendering="inherit" font-size="12" dy=".8em" y="1279.5000033611582" font-family="sans-serif" x="271.5000007959918">追踪系统调用ptrace</text></g></g><g id="minder_node86"><g id="node_expander85" style="cursor: pointer;" display="none"><path id="kity_path_757" fill="white" stroke="gray" d="M404.4999988983966,1259.5000037274558A6,6,0,1,1,392.4999988983966,1259.5000037274558A6,6,0,1,1,404.4999988983966,1259.5000037274558"></path><path id="kity_path_758" fill="none" stroke="gray"></path></g><path id="node_outline86" fill="#00b050" stroke="none" d="M409.4999988517966,1250.5000037274558h24a5,5,0,0,1,5,5v8a5,5,0,0,1,-5,5h-24a5,5,0,0,1,-5,-5v-8a5,5,0,0,1,5,-5z" stroke-width="3"></path><g id="node_text86" fill="black"><text id="kity_text_754" text-rendering="inherit" font-size="12" dy=".8em" y="1253.5000037274558" font-family="sans-serif" x="409.4999988517966">追踪</text></g></g><g id="minder_node87"><g id="node_expander86" style="cursor: pointer;" display="none"><path id="kity_path_765" fill="white" stroke="gray" d="M404.4999988983966,1285.5000033611582A6,6,0,1,1,392.4999988983966,1285.5000033611582A6,6,0,1,1,404.4999988983966,1285.5000033611582"></path><path id="kity_path_766" fill="none" stroke="gray"></path></g><path id="node_outline87" fill="#00b050" stroke="none" d="M409.4999988517966,1276.5000033611582h60a5,5,0,0,1,5,5v8a5,5,0,0,1,-5,5h-60a5,5,0,0,1,-5,-5v-8a5,5,0,0,1,5,-5z" stroke-width="3"></path><g id="node_text87" fill="black"><text id="kity_text_762" text-rendering="inherit" font-size="12" dy=".8em" y="1279.5000033611582" font-family="sans-serif" x="409.4999988517966">内核端实现</text></g></g><g id="minder_node88"><g id="node_expander87" style="cursor: pointer;" display="none"><path id="kity_path_773" fill="white" stroke="gray" d="M404.4999988983966,1311.5000029948606A6,6,0,1,1,392.4999988983966,1311.5000029948606A6,6,0,1,1,404.4999988983966,1311.5000029948606"></path><path id="kity_path_774" fill="none" stroke="gray"></path></g><path id="node_outline88" fill="#00b050" stroke="none" d="M409.4999988517966,1302.5000029948606h48a5,5,0,0,1,5,5v8a5,5,0,0,1,-5,5h-48a5,5,0,0,1,-5,-5v-8a5,5,0,0,1,5,-5z" stroke-width="3"></path><g id="node_text88" fill="black"><text id="kity_text_770" text-rendering="inherit" font-size="12" dy=".8em" y="1305.5000029948606" font-family="sans-serif" x="409.4999988517966">停止追踪</text></g></g><g id="minder_node89"><g id="node_expander88" style="cursor: pointer;" display="none"><path id="kity_path_781" fill="white" stroke="gray" d="M364.4999994619315,1181.5000048263487A6,6,0,1,1,352.4999994619315,1181.5000048263487A6,6,0,1,1,364.4999994619315,1181.5000048263487"></path><path id="kity_path_782" fill="none" stroke="gray"></path></g><path id="node_outline89" fill="#00b050" stroke="none" d="M369.4999994153315,1172.5000048263487h154a5,5,0,0,1,5,5v8a5,5,0,0,1,-5,5h-154a5,5,0,0,1,-5,-5v-8a5,5,0,0,1,5,-5z" stroke-width="3"></path><g id="node_text89" fill="black"><text id="kity_text_778" text-rendering="inherit" font-size="12" dy=".8em" y="1175.5000048263487" font-family="sans-serif" x="369.4999994153315">借助进程内存空间的C结构体</text></g></g><g id="minder_node90"><g id="node_expander89" style="cursor: pointer;" display="none"><path id="kity_path_789" fill="white" stroke="gray" d="M364.4999994619315,1207.500004460051A6,6,0,1,1,352.4999994619315,1207.500004460051A6,6,0,1,1,364.4999994619315,1207.500004460051"></path><path id="kity_path_790" fill="none" stroke="gray"></path></g><path id="node_outline90" fill="#00b050" stroke="none" d="M369.4999994153315,1198.500004460051h36a5,5,0,0,1,5,5v8a5,5,0,0,1,-5,5h-36a5,5,0,0,1,-5,-5v-8a5,5,0,0,1,5,-5z" stroke-width="3"></path><g id="node_text90" fill="black"><text id="kity_text_786" text-rendering="inherit" font-size="12" dy=".8em" y="1201.500004460051" font-family="sans-serif" x="369.4999994153315">寄存器</text></g></g><g id="minder_node91"><g id="node_expander90" style="cursor: pointer;" display="none"><path id="kity_path_797" fill="white" stroke="gray" d="M364.4999994619315,1233.5000040937534A6,6,0,1,1,352.4999994619315,1233.5000040937534A6,6,0,1,1,364.4999994619315,1233.5000040937534"></path><path id="kity_path_798" fill="none" stroke="gray"></path></g><path id="node_outline91" fill="#00b050" stroke="none" d="M369.4999994153315,1224.5000040937534h175a5,5,0,0,1,5,5v8a5,5,0,0,1,-5,5h-175a5,5,0,0,1,-5,-5v-8a5,5,0,0,1,5,-5z" stroke-width="3"></path><g id="node_text91" fill="black"><text id="kity_text_794" text-rendering="inherit" font-size="12" dy=".8em" y="1227.5000040937534" font-family="sans-serif" x="369.4999994153315">copy_to_user/copy_from_user</text></g></g></g></g></svg>