<svg id="kity_svg_6" xmlns="http://www.w3.org/2000/svg" xmlns:xlink="http://www.w3.org/1999/xlink" version="1.1" width="585" height="958" style="background: rgb(251, 251, 251); visibility: visible;" viewBox="0 0 585 958"><defs id="kity_defs_7"><linearGradient id="kity_linearGradient_17" x1="0" y1="0" x2="0" y2="1"><stop id="kity_stop_18" offset="0" stop-color="rgb(255, 255, 255)"></stop><stop id="kity_stop_19" offset="1" stop-color="rgb(204, 204, 204)"></stop></linearGradient><marker id="kity_marker_2" orient="auto" refX="6" refY="0" viewBox="-7 -7 14 14" markerWidth="7" markerHeight="7" markerUnits="userSpaceOnUse"><path id="kity_path_3" fill="rgb(115, 191, 118)" stroke="none" d="M6,0A6,6,0,1,1,-6,0A6,6,0,1,1,6,0"></path></marker></defs><g id="kity_g_8"><g id="minder1" text-rendering="optimize-speed"><g id="minder_connect_group1"><path id="kity_path_31" fill="none" stroke="rgb(115, 191, 118)" stroke-width="1" d="M80.5,414.5A76,242,0,0,1,156.5,172.5"></path><path id="kity_path_39" fill="none" stroke="rgb(115, 191, 118)" stroke-width="1" d="M80.5,414.5A76,52,0,0,1,156.5,362.5"></path><path id="kity_path_47" fill="none" stroke="rgb(115, 191, 118)" stroke-width="1" d="M80.5,414.5A76,242,0,0,0,156.5,656.5"></path><path id="kity_path_55" fill="none" stroke="rgb(115, 191, 118)" stroke-width="1" d="M268.5,172.5C276.5,172.5,276.5,29.5,284.5,29.5"></path><path id="kity_path_63" fill="none" stroke="rgb(115, 191, 118)" stroke-width="1" d="M268.5,172.5C276.5,172.5,276.5,55.5,284.5,55.5"></path><path id="kity_path_71" fill="none" stroke="rgb(115, 191, 118)" stroke-width="1" d="M268.5,172.5C276.5,172.5,276.5,81.5,284.5,81.5"></path><path id="kity_path_79" fill="none" stroke="rgb(115, 191, 118)" stroke-width="1" d="M268.5,172.5C276.5,172.5,276.5,107.5,284.5,107.5"></path><path id="kity_path_87" fill="none" stroke="rgb(115, 191, 118)" stroke-width="1" d="M268.5,172.5C276.5,172.5,276.5,133.5,284.5,133.5"></path><path id="kity_path_95" fill="none" stroke="rgb(115, 191, 118)" stroke-width="1" d="M268.5,172.5C276.5,172.5,276.5,159.5,284.5,159.5"></path><path id="kity_path_103" fill="none" stroke="rgb(115, 191, 118)" stroke-width="1" d="M268.5,172.5C276.5,172.5,276.5,185.5,284.5,185.5"></path><path id="kity_path_111" fill="none" stroke="rgb(115, 191, 118)" stroke-width="1" d="M268.5,172.5C276.5,172.5,276.5,237.5,284.5,237.5"></path><path id="kity_path_119" fill="none" stroke="rgb(115, 191, 118)" stroke-width="1" d="M325.5,237.5C333.5,237.5,333.5,211.5,341.5,211.5"></path><path id="kity_path_127" fill="none" stroke="rgb(115, 191, 118)" stroke-width="1" d="M325.5,237.5C333.5,237.5,333.5,237.5,341.5,237.5"></path><path id="kity_path_135" fill="none" stroke="rgb(115, 191, 118)" stroke-width="1" d="M325.5,237.5C333.5,237.5,333.5,263.5,341.5,263.5"></path><path id="kity_path_151" fill="none" stroke="rgb(115, 191, 118)" stroke-width="1" d="M268.5,172.5C276.5,172.5,276.5,289.5,284.5,289.5"></path><path id="kity_path_159" fill="none" stroke="rgb(115, 191, 118)" stroke-width="1" d="M268.5,172.5C276.5,172.5,276.5,315.5,284.5,315.5"></path><path id="kity_path_167" fill="none" stroke="rgb(115, 191, 118)" stroke-width="1" d="M254.5,362.5C262.5,362.5,262.5,349.5,270.5,349.5"></path><path id="kity_path_175" fill="none" stroke="rgb(115, 191, 118)" stroke-width="1" d="M254.5,362.5C262.5,362.5,262.5,375.5,270.5,375.5"></path><path id="kity_path_183" fill="none" stroke="rgb(115, 191, 118)" stroke-width="1" d="M254.5,656.5C262.5,656.5,262.5,435.5,270.5,435.5"></path><path id="kity_path_191" fill="none" stroke="rgb(115, 191, 118)" stroke-width="1" d="M254.5,656.5C262.5,656.5,262.5,513.5,270.5,513.5"></path><path id="kity_path_199" fill="none" stroke="rgb(115, 191, 118)" stroke-width="1" d="M254.5,656.5C262.5,656.5,262.5,617.5,270.5,617.5"></path><path id="kity_path_207" fill="none" stroke="rgb(115, 191, 118)" stroke-width="1" d="M254.5,656.5C262.5,656.5,262.5,747.5,270.5,747.5"></path><path id="kity_path_215" fill="none" stroke="rgb(115, 191, 118)" stroke-width="1" d="M254.5,656.5C262.5,656.5,262.5,877.5,270.5,877.5"></path><path id="kity_path_223" fill="none" stroke="rgb(115, 191, 118)" stroke-width="1" d="M372.5,435.5C380.5,435.5,380.5,409.5,388.5,409.5"></path><path id="kity_path_231" fill="none" stroke="rgb(115, 191, 118)" stroke-width="1" d="M372.5,435.5C380.5,435.5,380.5,435.5,388.5,435.5"></path><path id="kity_path_239" fill="none" stroke="rgb(115, 191, 118)" stroke-width="1" d="M375.5,513.5C383.5,513.5,383.5,487.5,391.5,487.5"></path><path id="kity_path_247" fill="none" stroke="rgb(115, 191, 118)" stroke-width="1" d="M375.5,513.5C383.5,513.5,383.5,513.5,391.5,513.5"></path><path id="kity_path_255" fill="none" stroke="rgb(115, 191, 118)" stroke-width="1" d="M359.5,617.5C367.5,617.5,367.5,565.5,375.5,565.5"></path><path id="kity_path_263" fill="none" stroke="rgb(115, 191, 118)" stroke-width="1" d="M359.5,617.5C367.5,617.5,367.5,591.5,375.5,591.5"></path><path id="kity_path_271" fill="none" stroke="rgb(115, 191, 118)" stroke-width="1" d="M359.5,617.5C367.5,617.5,367.5,617.5,375.5,617.5"></path><path id="kity_path_279" fill="none" stroke="rgb(115, 191, 118)" stroke-width="1" d="M360.5,747.5C368.5,747.5,368.5,695.5,376.5,695.5"></path><path id="kity_path_287" fill="none" stroke="rgb(115, 191, 118)" stroke-width="1" d="M360.5,747.5C368.5,747.5,368.5,721.5,376.5,721.5"></path><path id="kity_path_295" fill="none" stroke="rgb(115, 191, 118)" stroke-width="1" d="M360.5,747.5C368.5,747.5,368.5,747.5,376.5,747.5"></path><path id="kity_path_303" fill="none" stroke="rgb(115, 191, 118)" stroke-width="1" d="M371.5,877.5C379.5,877.5,379.5,825.5,387.5,825.5"></path><path id="kity_path_305" fill="none" stroke="rgb(115, 191, 118)" stroke-width="1" d="M371.5,877.5C379.5,877.5,379.5,851.5,387.5,851.5"></path><path id="kity_path_307" fill="none" stroke="rgb(115, 191, 118)" stroke-width="1" d="M371.5,877.5C379.5,877.5,379.5,877.5,387.5,877.5"></path><path id="kity_path_327" fill="none" stroke="rgb(115, 191, 118)" stroke-width="1" d="M372.5,435.5C380.5,435.5,380.5,461.5,388.5,461.5"></path><path id="kity_path_335" fill="none" stroke="rgb(115, 191, 118)" stroke-width="1" d="M375.5,513.5C383.5,513.5,383.5,539.5,391.5,539.5"></path><path id="kity_path_343" fill="none" stroke="rgb(115, 191, 118)" stroke-width="1" d="M359.5,617.5C367.5,617.5,367.5,643.5,375.5,643.5"></path><path id="kity_path_351" fill="none" stroke="rgb(115, 191, 118)" stroke-width="1" d="M359.5,617.5C367.5,617.5,367.5,669.5,375.5,669.5"></path><path id="kity_path_359" fill="none" stroke="rgb(115, 191, 118)" stroke-width="1" d="M360.5,747.5C368.5,747.5,368.5,773.5,376.5,773.5"></path><path id="kity_path_367" fill="none" stroke="rgb(115, 191, 118)" stroke-width="1" d="M371.5,877.5C379.5,877.5,379.5,903.5,387.5,903.5"></path><path id="kity_path_375" fill="none" stroke="rgb(115, 191, 118)" stroke-width="1" d="M371.5,877.5C379.5,877.5,379.5,929.5,387.5,929.5"></path><path id="kity_path_383" fill="none" stroke="rgb(115, 191, 118)" stroke-width="1" d="M360.5,747.5C370,747.5,370,802.5,379.5,802.5"></path></g><g id="minder_node1"><path id="node_outline1" fill="rgb(115, 191, 118)" stroke="rgb(115, 191, 118)" d="M25.5,400.5h110a5,5,0,0,1,5,5v18a5,5,0,0,1,-5,5h-110a5,5,0,0,1,-5,-5v-18a5,5,0,0,1,5,-5z" stroke-width="3"></path><g id="node_text1" fill="white"><text id="kity_text_22" text-rendering="inherit" font-size="16" dy=".8em" y="406.5" x="32.5">对称密钥算法</text></g></g><g id="kity_g_14" display="none"><path id="kity_path_15" fill="rgba(0, 153, 5, 0.5)" stroke="none" d="M376.5,787.5h82v4h-82z"></path><path id="kity_path_16" fill="none" stroke="rgb(0, 128, 4)" d="M376.5,787.5L458.5,787.5" stroke-width="1"></path></g><g id="minder_node2"><g id="node_expander1" style="cursor: pointer;"><path id="kity_path_36" fill="white" stroke="gray" d="M157.5,172.5A6,6,0,1,1,145.5,172.5A6,6,0,1,1,157.5,172.5"></path><path id="kity_path_37" fill="none" stroke="gray" d="M147,172.5L156,172.5"></path></g><path id="node_outline2" fill="rgb(238, 246, 238)" stroke="rgb(115, 191, 118)" d="M161.5,159.5h104a3,3,0,0,1,3,3v20a3,3,0,0,1,-3,3h-104a3,3,0,0,1,-3,-3v-20a3,3,0,0,1,3,-3z" stroke-width="1"></path><g id="node_text2" fill="black"><text id="kity_text_33" text-rendering="inherit" font-size="14" dy=".8em" y="165.5" x="178.5">常见主算法</text></g></g><g id="minder_node3"><g id="node_expander2" style="cursor: pointer;"><path id="kity_path_44" fill="white" stroke="gray" d="M157.5,362.5A6,6,0,1,1,145.5,362.5A6,6,0,1,1,157.5,362.5"></path><path id="kity_path_45" fill="none" stroke="gray" d="M147,362.5L156,362.5"></path></g><path id="node_outline3" fill="rgb(238, 246, 238)" stroke="rgb(115, 191, 118)" d="M161.5,349.5h90a3,3,0,0,1,3,3v20a3,3,0,0,1,-3,3h-90a3,3,0,0,1,-3,-3v-20a3,3,0,0,1,3,-3z" stroke-width="1"></path><g id="node_text3" fill="black"><text id="kity_text_41" text-rendering="inherit" font-size="14" dy=".8em" y="355.5" x="178.5">算法类型</text></g></g><g id="minder_node4"><g id="node_expander3" style="cursor: pointer;"><path id="kity_path_52" fill="white" stroke="gray" d="M157.5,656.5A6,6,0,1,1,145.5,656.5A6,6,0,1,1,157.5,656.5"></path><path id="kity_path_53" fill="none" stroke="gray" d="M147,656.5L156,656.5"></path></g><path id="node_outline4" fill="rgb(238, 246, 238)" stroke="rgb(115, 191, 118)" d="M161.5,643.5h90a3,3,0,0,1,3,3v20a3,3,0,0,1,-3,3h-90a3,3,0,0,1,-3,-3v-20a3,3,0,0,1,3,-3z" stroke-width="1"></path><g id="node_text4" fill="black"><text id="kity_text_49" text-rendering="inherit" font-size="14" dy=".8em" y="649.5" x="178.5">算法模式</text></g></g><g id="minder_node5"><g id="node_expander4" style="cursor: pointer;" display="none"><path id="kity_path_60" fill="white" stroke="gray" d="M284.5,29.5A6,6,0,1,1,272.5,29.5A6,6,0,1,1,284.5,29.5"></path><path id="kity_path_61" fill="none" stroke="gray"></path></g><path id="node_outline5" fill="none" stroke="none" d="M289.5,20.5h69a5,5,0,0,1,5,5v8a5,5,0,0,1,-5,5h-69a5,5,0,0,1,-5,-5v-8a5,5,0,0,1,5,-5z" stroke-width="3"></path><g id="node_text5" fill="black"><text id="kity_text_57" text-rendering="inherit" font-size="12" dy=".8em" y="23.5" x="289.5">DES（淘汰）</text></g></g><g id="minder_node6"><g id="node_expander5" style="cursor: pointer;" display="none"><path id="kity_path_68" fill="white" stroke="gray" d="M284.5,55.5A6,6,0,1,1,272.5,55.5A6,6,0,1,1,284.5,55.5"></path><path id="kity_path_69" fill="none" stroke="gray"></path></g><path id="node_outline6" fill="none" stroke="none" d="M289.5,46.5h76a5,5,0,0,1,5,5v8a5,5,0,0,1,-5,5h-76a5,5,0,0,1,-5,-5v-8a5,5,0,0,1,5,-5z" stroke-width="3"></path><g id="node_text6" fill="black"><text id="kity_text_65" text-rendering="inherit" font-size="12" dy=".8em" y="49.5" x="289.5">3DES（淘汰）</text></g></g><g id="minder_node7"><g id="node_expander6" style="cursor: pointer;" display="none"><path id="kity_path_76" fill="white" stroke="gray" d="M284.5,81.5A6,6,0,1,1,272.5,81.5A6,6,0,1,1,284.5,81.5"></path><path id="kity_path_77" fill="none" stroke="gray"></path></g><path id="node_outline7" fill="none" stroke="none" d="M289.5,72.5h27a5,5,0,0,1,5,5v8a5,5,0,0,1,-5,5h-27a5,5,0,0,1,-5,-5v-8a5,5,0,0,1,5,-5z" stroke-width="3"></path><g id="node_text7" fill="black"><text id="kity_text_73" text-rendering="inherit" font-size="12" dy=".8em" y="75.5" x="289.5">IDEA</text></g></g><g id="minder_node8"><g id="node_expander7" style="cursor: pointer;" display="none"><path id="kity_path_84" fill="white" stroke="gray" d="M284.5,107.5A6,6,0,1,1,272.5,107.5A6,6,0,1,1,284.5,107.5"></path><path id="kity_path_85" fill="none" stroke="gray"></path></g><path id="node_outline8" fill="none" stroke="none" d="M289.5,98.5h24a5,5,0,0,1,5,5v8a5,5,0,0,1,-5,5h-24a5,5,0,0,1,-5,-5v-8a5,5,0,0,1,5,-5z" stroke-width="3"></path><g id="node_text8" fill="black"><text id="kity_text_81" text-rendering="inherit" font-size="12" dy=".8em" y="101.5" x="289.5">RC4</text></g></g><g id="minder_node9"><g id="node_expander8" style="cursor: pointer;" display="none"><path id="kity_path_92" fill="white" stroke="gray" d="M284.5,133.5A6,6,0,1,1,272.5,133.5A6,6,0,1,1,284.5,133.5"></path><path id="kity_path_93" fill="none" stroke="gray"></path></g><path id="node_outline9" fill="none" stroke="none" d="M289.5,124.5h24a5,5,0,0,1,5,5v8a5,5,0,0,1,-5,5h-24a5,5,0,0,1,-5,-5v-8a5,5,0,0,1,5,-5z" stroke-width="3"></path><g id="node_text9" fill="black"><text id="kity_text_89" text-rendering="inherit" font-size="12" dy=".8em" y="127.5" x="289.5">RC5</text></g></g><g id="minder_node10"><g id="node_expander9" style="cursor: pointer;" display="none"><path id="kity_path_100" fill="white" stroke="gray" d="M284.5,159.5A6,6,0,1,1,272.5,159.5A6,6,0,1,1,284.5,159.5"></path><path id="kity_path_101" fill="none" stroke="gray"></path></g><path id="node_outline10" fill="none" stroke="none" d="M289.5,150.5h45a5,5,0,0,1,5,5v8a5,5,0,0,1,-5,5h-45a5,5,0,0,1,-5,-5v-8a5,5,0,0,1,5,-5z" stroke-width="3"></path><g id="node_text10" fill="black"><text id="kity_text_97" text-rendering="inherit" font-size="12" dy=".8em" y="153.5" x="289.5">Blowfish</text></g></g><g id="minder_node11"><g id="node_expander10" style="cursor: pointer;" display="none"><path id="kity_path_108" fill="white" stroke="gray" d="M284.5,185.5A6,6,0,1,1,272.5,185.5A6,6,0,1,1,284.5,185.5"></path><path id="kity_path_109" fill="none" stroke="gray"></path></g><path id="node_outline11" fill="none" stroke="none" d="M289.5,176.5h102a5,5,0,0,1,5,5v8a5,5,0,0,1,-5,5h-102a5,5,0,0,1,-5,-5v-8a5,5,0,0,1,5,-5z" stroke-width="3"></path><g id="node_text11" fill="black"><text id="kity_text_105" text-rendering="inherit" font-size="12" dy=".8em" y="179.5" x="289.5">AES(高级加密标准)</text></g></g><g id="minder_node12"><g id="node_expander11" style="cursor: pointer;"><path id="kity_path_116" fill="white" stroke="gray" d="M284.5,237.5A6,6,0,1,1,272.5,237.5A6,6,0,1,1,284.5,237.5"></path><path id="kity_path_117" fill="none" stroke="gray" d="M274,237.5L283,237.5"></path></g><path id="node_outline12" fill="none" stroke="none" d="M289.5,228.5h31a5,5,0,0,1,5,5v8a5,5,0,0,1,-5,5h-31a5,5,0,0,1,-5,-5v-8a5,5,0,0,1,5,-5z" stroke-width="3"></path><g id="node_text12" fill="black"><text id="kity_text_113" text-rendering="inherit" font-size="12" dy=".8em" y="231.5" x="289.5">3GPP</text></g></g><g id="minder_node13"><g id="node_expander12" style="cursor: pointer;" display="none"><path id="kity_path_124" fill="white" stroke="gray" d="M341.5,211.5A6,6,0,1,1,329.5,211.5A6,6,0,1,1,341.5,211.5"></path><path id="kity_path_125" fill="none" stroke="gray"></path></g><path id="node_outline13" fill="none" stroke="none" d="M346.5,202.5h44a5,5,0,0,1,5,5v8a5,5,0,0,1,-5,5h-44a5,5,0,0,1,-5,-5v-8a5,5,0,0,1,5,-5z" stroke-width="3"></path><g id="node_text13" fill="black"><text id="kity_text_121" text-rendering="inherit" font-size="12" dy=".8em" y="205.5" x="346.5">KASUMI</text></g></g><g id="minder_node14"><g id="node_expander13" style="cursor: pointer;" display="none"><path id="kity_path_132" fill="white" stroke="gray" d="M341.5,237.5A6,6,0,1,1,329.5,237.5A6,6,0,1,1,341.5,237.5"></path><path id="kity_path_133" fill="none" stroke="gray"></path></g><path id="node_outline14" fill="none" stroke="none" d="M346.5,228.5h23a5,5,0,0,1,5,5v8a5,5,0,0,1,-5,5h-23a5,5,0,0,1,-5,-5v-8a5,5,0,0,1,5,-5z" stroke-width="3"></path><g id="node_text14" fill="black"><text id="kity_text_129" text-rendering="inherit" font-size="12" dy=".8em" y="231.5" x="346.5">ZUC</text></g></g><g id="minder_node15"><g id="node_expander14" style="cursor: pointer;" display="none"><path id="kity_path_140" fill="white" stroke="gray" d="M341.5,263.5A6,6,0,1,1,329.5,263.5A6,6,0,1,1,341.5,263.5"></path><path id="kity_path_141" fill="none" stroke="gray" d="M331,263.5L340,263.5"></path></g><path id="node_outline15" fill="none" stroke="none" d="M346.5,254.5h60a5,5,0,0,1,5,5v8a5,5,0,0,1,-5,5h-60a5,5,0,0,1,-5,-5v-8a5,5,0,0,1,5,-5z" stroke-width="3"></path><g id="node_text15" fill="black"><text id="kity_text_137" text-rendering="inherit" font-size="12" dy=".8em" y="257.5" x="346.5">SNOW_3G </text></g></g><g id="minder_node17"><g id="node_expander16" style="cursor: pointer;" display="none"><path id="kity_path_156" fill="white" stroke="gray" d="M284.5,289.5A6,6,0,1,1,272.5,289.5A6,6,0,1,1,284.5,289.5"></path><path id="kity_path_157" fill="none" stroke="gray"></path></g><path id="node_outline17" fill="none" stroke="none" d="M289.5,280.5h67a5,5,0,0,1,5,5v8a5,5,0,0,1,-5,5h-67a5,5,0,0,1,-5,-5v-8a5,5,0,0,1,5,-5z" stroke-width="3"></path><g id="node_text17" fill="black"><text id="kity_text_153" text-rendering="inherit" font-size="12" dy=".8em" y="283.5" x="289.5">CHACHA20</text></g></g><g id="minder_node18"><g id="node_expander17" style="cursor: pointer;" display="none"><path id="kity_path_164" fill="white" stroke="gray" d="M284.5,315.5A6,6,0,1,1,272.5,315.5A6,6,0,1,1,284.5,315.5"></path><path id="kity_path_165" fill="none" stroke="gray"></path></g><path id="node_outline18" fill="none" stroke="none" d="M289.5,306.5h10a5,5,0,0,1,5,5v8a5,5,0,0,1,-5,5h-10a5,5,0,0,1,-5,-5v-8a5,5,0,0,1,5,-5z" stroke-width="3"></path><g id="node_text18" fill="black"><text id="kity_text_161" text-rendering="inherit" font-size="12" dy=".8em" y="309.5" x="289.5">...</text></g></g><g id="minder_node19"><g id="node_expander18" style="cursor: pointer;" display="none"><path id="kity_path_172" fill="white" stroke="gray" d="M270.5,349.5A6,6,0,1,1,258.5,349.5A6,6,0,1,1,270.5,349.5"></path><path id="kity_path_173" fill="none" stroke="gray"></path></g><path id="node_outline19" fill="none" stroke="none" d="M275.5,340.5h129a5,5,0,0,1,5,5v8a5,5,0,0,1,-5,5h-129a5,5,0,0,1,-5,-5v-8a5,5,0,0,1,5,-5z" stroke-width="3"></path><g id="node_text19" fill="black"><text id="kity_text_169" text-rendering="inherit" font-size="12" dy=".8em" y="343.5" x="275.5">流加密(stream ciphers)</text></g></g><g id="minder_node20"><g id="node_expander19" style="cursor: pointer;" display="none"><path id="kity_path_180" fill="white" stroke="gray" d="M270.5,375.5A6,6,0,1,1,258.5,375.5A6,6,0,1,1,270.5,375.5"></path><path id="kity_path_181" fill="none" stroke="gray"></path></g><path id="node_outline20" fill="none" stroke="none" d="M275.5,366.5h122a5,5,0,0,1,5,5v8a5,5,0,0,1,-5,5h-122a5,5,0,0,1,-5,-5v-8a5,5,0,0,1,5,-5z" stroke-width="3"></path><g id="node_text20" fill="black"><text id="kity_text_177" text-rendering="inherit" font-size="12" dy=".8em" y="369.5" x="275.5">块加密(block ciphers)</text></g></g><g id="minder_node21"><g id="node_expander20" style="cursor: pointer;"><path id="kity_path_188" fill="white" stroke="gray" d="M270.5,435.5A6,6,0,1,1,258.5,435.5A6,6,0,1,1,270.5,435.5"></path><path id="kity_path_189" fill="none" stroke="gray" d="M260,435.5L269,435.5"></path></g><path id="node_outline21" fill="none" stroke="none" d="M275.5,426.5h92a5,5,0,0,1,5,5v8a5,5,0,0,1,-5,5h-92a5,5,0,0,1,-5,-5v-8a5,5,0,0,1,5,-5z" stroke-width="3"></path><g id="node_text21" fill="black"><text id="kity_text_185" text-rendering="inherit" font-size="12" dy=".8em" y="429.5" x="275.5">ECB(电子编码簿)</text></g></g><g id="minder_node22"><g id="node_expander21" style="cursor: pointer;"><path id="kity_path_196" fill="white" stroke="gray" d="M270.5,513.5A6,6,0,1,1,258.5,513.5A6,6,0,1,1,270.5,513.5"></path><path id="kity_path_197" fill="none" stroke="gray" d="M260,513.5L269,513.5"></path></g><path id="node_outline22" fill="none" stroke="none" d="M275.5,504.5h95a5,5,0,0,1,5,5v8a5,5,0,0,1,-5,5h-95a5,5,0,0,1,-5,-5v-8a5,5,0,0,1,5,-5z" stroke-width="3"></path><g id="node_text22" fill="black"><text id="kity_text_193" text-rendering="inherit" font-size="12" dy=".8em" y="507.5" x="275.5">CBC(加密块链接)</text></g></g><g id="minder_node23"><g id="node_expander22" style="cursor: pointer;"><path id="kity_path_204" fill="white" stroke="gray" d="M270.5,617.5A6,6,0,1,1,258.5,617.5A6,6,0,1,1,270.5,617.5"></path><path id="kity_path_205" fill="none" stroke="gray" d="M260,617.5L269,617.5"></path></g><path id="node_outline23" fill="none" stroke="none" d="M275.5,608.5h79a5,5,0,0,1,5,5v8a5,5,0,0,1,-5,5h-79a5,5,0,0,1,-5,-5v-8a5,5,0,0,1,5,-5z" stroke-width="3"></path><g id="node_text23" fill="black"><text id="kity_text_201" text-rendering="inherit" font-size="12" dy=".8em" y="611.5" x="275.5">CFB(加密反馈)</text></g></g><g id="minder_node24"><g id="node_expander23" style="cursor: pointer;"><path id="kity_path_212" fill="white" stroke="gray" d="M270.5,747.5A6,6,0,1,1,258.5,747.5A6,6,0,1,1,270.5,747.5"></path><path id="kity_path_213" fill="none" stroke="gray" d="M260,747.5L269,747.5"></path></g><path id="node_outline24" fill="none" stroke="none" d="M275.5,738.5h80a5,5,0,0,1,5,5v8a5,5,0,0,1,-5,5h-80a5,5,0,0,1,-5,-5v-8a5,5,0,0,1,5,-5z" stroke-width="3"></path><g id="node_text24" fill="black"><text id="kity_text_209" text-rendering="inherit" font-size="12" dy=".8em" y="741.5" x="275.5">OFB(加密反馈)</text></g></g><g id="minder_node25"><g id="node_expander24" style="cursor: pointer;"><path id="kity_path_220" fill="white" stroke="gray" d="M270.5,877.5A6,6,0,1,1,258.5,877.5A6,6,0,1,1,270.5,877.5"></path><path id="kity_path_221" fill="none" stroke="gray" d="M260,877.5L269,877.5"></path></g><path id="node_outline25" fill="none" stroke="none" d="M275.5,868.5h91a5,5,0,0,1,5,5v8a5,5,0,0,1,-5,5h-91a5,5,0,0,1,-5,-5v-8a5,5,0,0,1,5,-5z" stroke-width="3"></path><g id="node_text25" fill="black"><text id="kity_text_217" text-rendering="inherit" font-size="12" dy=".8em" y="871.5" x="275.5">CTR(计数器模式)</text></g></g><g id="minder_node26"><g id="node_expander25" style="cursor: pointer;" display="none"><path id="kity_path_228" fill="white" stroke="gray" d="M388.5,409.5A6,6,0,1,1,376.5,409.5A6,6,0,1,1,388.5,409.5"></path><path id="kity_path_229" fill="none" stroke="gray"></path></g><path id="node_outline26" fill="none" stroke="none" d="M393.5,400.5h144a5,5,0,0,1,5,5v8a5,5,0,0,1,-5,5h-144a5,5,0,0,1,-5,-5v-8a5,5,0,0,1,5,-5z" stroke-width="3"></path><g id="node_text26" fill="black"><text id="kity_text_225" text-rendering="inherit" font-size="12" dy=".8em" y="403.5" x="393.5">不能隐藏明文，没有随机化</text></g></g><g id="minder_node27"><g id="node_expander26" style="cursor: pointer;" display="none"><path id="kity_path_236" fill="white" stroke="gray" d="M388.5,435.5A6,6,0,1,1,376.5,435.5A6,6,0,1,1,388.5,435.5"></path><path id="kity_path_237" fill="none" stroke="gray"></path></g><path id="node_outline27" fill="none" stroke="none" d="M393.5,426.5h144a5,5,0,0,1,5,5v8a5,5,0,0,1,-5,5h-144a5,5,0,0,1,-5,-5v-8a5,5,0,0,1,5,-5z" stroke-width="3"></path><g id="node_text27" fill="black"><text id="kity_text_233" text-rendering="inherit" font-size="12" dy=".8em" y="429.5" x="393.5">同一密钥可以加密多个消息</text></g></g><g id="minder_node28"><g id="node_expander27" style="cursor: pointer;" display="none"><path id="kity_path_244" fill="white" stroke="gray" d="M391.5,487.5A6,6,0,1,1,379.5,487.5A6,6,0,1,1,391.5,487.5"></path><path id="kity_path_245" fill="none" stroke="gray"></path></g><path id="node_outline28" fill="none" stroke="none" d="M396.5,478.5h48a5,5,0,0,1,5,5v8a5,5,0,0,1,-5,5h-48a5,5,0,0,1,-5,-5v-8a5,5,0,0,1,5,-5z" stroke-width="3"></path><g id="node_text28" fill="black"><text id="kity_text_241" text-rendering="inherit" font-size="12" dy=".8em" y="481.5" x="396.5">隐藏明文</text></g></g><g id="minder_node29"><g id="node_expander28" style="cursor: pointer;" display="none"><path id="kity_path_252" fill="white" stroke="gray" d="M391.5,513.5A6,6,0,1,1,379.5,513.5A6,6,0,1,1,391.5,513.5"></path><path id="kity_path_253" fill="none" stroke="gray"></path></g><path id="node_outline29" fill="none" stroke="none" d="M396.5,504.5h144a5,5,0,0,1,5,5v8a5,5,0,0,1,-5,5h-144a5,5,0,0,1,-5,-5v-8a5,5,0,0,1,5,-5z" stroke-width="3"></path><g id="node_text29" fill="black"><text id="kity_text_249" text-rendering="inherit" font-size="12" dy=".8em" y="507.5" x="396.5">同一密钥可以加密多个消息</text></g></g><g id="minder_node30"><g id="node_expander29" style="cursor: pointer;" display="none"><path id="kity_path_260" fill="white" stroke="gray" d="M375.5,565.5A6,6,0,1,1,363.5,565.5A6,6,0,1,1,375.5,565.5"></path><path id="kity_path_261" fill="none" stroke="gray"></path></g><path id="node_outline30" fill="none" stroke="none" d="M380.5,556.5h107a5,5,0,0,1,5,5v8a5,5,0,0,1,-5,5h-107a5,5,0,0,1,-5,-5v-8a5,5,0,0,1,5,-5z" stroke-width="3"></path><g id="node_text30" fill="black"><text id="kity_text_257" text-rendering="inherit" font-size="12" dy=".8em" y="559.5" x="380.5">隐藏明文使用不同IV</text></g></g><g id="minder_node31"><g id="node_expander30" style="cursor: pointer;" display="none"><path id="kity_path_268" fill="white" stroke="gray" d="M375.5,591.5A6,6,0,1,1,363.5,591.5A6,6,0,1,1,375.5,591.5"></path><path id="kity_path_269" fill="none" stroke="gray"></path></g><path id="node_outline31" fill="none" stroke="none" d="M380.5,582.5h156a5,5,0,0,1,5,5v8a5,5,0,0,1,-5,5h-156a5,5,0,0,1,-5,-5v-8a5,5,0,0,1,5,-5z" stroke-width="3"></path><g id="node_text31" fill="black"><text id="kity_text_265" text-rendering="inherit" font-size="12" dy=".8em" y="585.5" x="380.5">可以用同一密钥加密多个消息</text></g></g><g id="minder_node32"><g id="node_expander31" style="cursor: pointer;" display="none"><path id="kity_path_276" fill="white" stroke="gray" d="M375.5,617.5A6,6,0,1,1,363.5,617.5A6,6,0,1,1,375.5,617.5"></path><path id="kity_path_277" fill="none" stroke="gray"></path></g><path id="node_outline32" fill="none" stroke="none" d="M380.5,608.5h120a5,5,0,0,1,5,5v8a5,5,0,0,1,-5,5h-120a5,5,0,0,1,-5,-5v-8a5,5,0,0,1,5,-5z" stroke-width="3"></path><g id="node_text32" fill="black"><text id="kity_text_273" text-rendering="inherit" font-size="12" dy=".8em" y="611.5" x="380.5">块加密的输入是随机的</text></g></g><g id="minder_node33"><g id="node_expander32" style="cursor: pointer;" display="none"><path id="kity_path_284" fill="white" stroke="gray" d="M376.5,695.5A6,6,0,1,1,364.5,695.5A6,6,0,1,1,376.5,695.5"></path><path id="kity_path_285" fill="none" stroke="gray"></path></g><path id="node_outline33" fill="none" stroke="none" d="M381.5,686.5h131a5,5,0,0,1,5,5v8a5,5,0,0,1,-5,5h-131a5,5,0,0,1,-5,-5v-8a5,5,0,0,1,5,-5z" stroke-width="3"></path><g id="node_text33" fill="black"><text id="kity_text_281" text-rendering="inherit" font-size="12" dy=".8em" y="689.5" x="381.5">可以隐藏明文通过不同IV</text></g></g><g id="minder_node34"><g id="node_expander33" style="cursor: pointer;" display="none"><path id="kity_path_292" fill="white" stroke="gray" d="M376.5,721.5A6,6,0,1,1,364.5,721.5A6,6,0,1,1,376.5,721.5"></path><path id="kity_path_293" fill="none" stroke="gray"></path></g><path id="node_outline34" fill="none" stroke="none" d="M381.5,712.5h144a5,5,0,0,1,5,5v8a5,5,0,0,1,-5,5h-144a5,5,0,0,1,-5,-5v-8a5,5,0,0,1,5,-5z" stroke-width="3"></path><g id="node_text34" fill="black"><text id="kity_text_289" text-rendering="inherit" font-size="12" dy=".8em" y="715.5" x="381.5">可以同一密钥加密多个消息</text></g></g><g id="minder_node35"><g id="node_expander34" style="cursor: pointer;" display="none"><path id="kity_path_300" fill="white" stroke="gray" d="M376.5,747.5A6,6,0,1,1,364.5,747.5A6,6,0,1,1,376.5,747.5"></path><path id="kity_path_301" fill="none" stroke="gray"></path></g><path id="node_outline35" fill="none" stroke="none" d="M381.5,738.5h60a5,5,0,0,1,5,5v8a5,5,0,0,1,-5,5h-60a5,5,0,0,1,-5,-5v-8a5,5,0,0,1,5,-5z" stroke-width="3"></path><g id="node_text35" fill="black"><text id="kity_text_297" text-rendering="inherit" font-size="12" dy=".8em" y="741.5" x="381.5">块解密随机</text></g></g><g id="minder_node36"><g id="node_expander37" style="cursor: pointer;" display="none"><path id="kity_path_324" fill="white" stroke="gray" d="M387.5,825.5A6,6,0,1,1,375.5,825.5A6,6,0,1,1,387.5,825.5"></path><path id="kity_path_325" fill="none" stroke="gray"></path></g><path id="node_outline38" fill="none" stroke="none" d="M392.5,816.5h131a5,5,0,0,1,5,5v8a5,5,0,0,1,-5,5h-131a5,5,0,0,1,-5,-5v-8a5,5,0,0,1,5,-5z" stroke-width="3"></path><g id="node_text38" fill="black"><text id="kity_text_321" text-rendering="inherit" font-size="12" dy=".8em" y="819.5" x="392.5">可以隐藏明文通过不同IV</text></g></g><g id="minder_node37"><g id="node_expander36" style="cursor: pointer;" display="none"><path id="kity_path_318" fill="white" stroke="gray" d="M387.5,851.5A6,6,0,1,1,375.5,851.5A6,6,0,1,1,387.5,851.5"></path><path id="kity_path_319" fill="none" stroke="gray"></path></g><path id="node_outline37" fill="none" stroke="none" d="M392.5,842.5h144a5,5,0,0,1,5,5v8a5,5,0,0,1,-5,5h-144a5,5,0,0,1,-5,-5v-8a5,5,0,0,1,5,-5z" stroke-width="3"></path><g id="node_text37" fill="black"><text id="kity_text_315" text-rendering="inherit" font-size="12" dy=".8em" y="845.5" x="392.5">可以同一密钥加密多个消息</text></g></g><g id="minder_node38"><g id="node_expander35" style="cursor: pointer;" display="none"><path id="kity_path_312" fill="white" stroke="gray" d="M387.5,877.5A6,6,0,1,1,375.5,877.5A6,6,0,1,1,387.5,877.5"></path><path id="kity_path_313" fill="none" stroke="gray"></path></g><path id="node_outline36" fill="none" stroke="none" d="M392.5,868.5h60a5,5,0,0,1,5,5v8a5,5,0,0,1,-5,5h-60a5,5,0,0,1,-5,-5v-8a5,5,0,0,1,5,-5z" stroke-width="3"></path><g id="node_text36" fill="black"><text id="kity_text_309" text-rendering="inherit" font-size="12" dy=".8em" y="871.5" x="392.5">块解密随机</text></g></g><g id="minder_node39"><g id="node_expander38" style="cursor: pointer;" display="none"><path id="kity_path_332" fill="white" stroke="gray" d="M388.5,461.5A6,6,0,1,1,376.5,461.5A6,6,0,1,1,388.5,461.5"></path><path id="kity_path_333" fill="none" stroke="gray"></path></g><path id="node_outline39" fill="none" stroke="none" d="M393.5,452.5h167a5,5,0,0,1,5,5v8a5,5,0,0,1,-5,5h-167a5,5,0,0,1,-5,-5v-8a5,5,0,0,1,5,-5z" stroke-width="3"></path><g id="node_text39" fill="black"><text id="kity_text_329" text-rendering="inherit" font-size="12" dy=".8em" y="455.5" x="393.5">块填充-&gt;密文长度大于明文长度</text></g></g><g id="minder_node40"><g id="node_expander39" style="cursor: pointer;" display="none"><path id="kity_path_340" fill="white" stroke="gray" d="M391.5,539.5A6,6,0,1,1,379.5,539.5A6,6,0,1,1,391.5,539.5"></path><path id="kity_path_341" fill="none" stroke="gray"></path></g><path id="node_outline40" fill="none" stroke="none" d="M396.5,530.5h108a5,5,0,0,1,5,5v8a5,5,0,0,1,-5,5h-108a5,5,0,0,1,-5,-5v-8a5,5,0,0,1,5,-5z" stroke-width="3"></path><g id="node_text40" fill="black"><text id="kity_text_337" text-rendering="inherit" font-size="12" dy=".8em" y="533.5" x="396.5">密文比明文多一个块</text></g></g><g id="minder_node41"><g id="node_expander40" style="cursor: pointer;" display="none"><path id="kity_path_348" fill="white" stroke="gray" d="M375.5,643.5A6,6,0,1,1,363.5,643.5A6,6,0,1,1,375.5,643.5"></path><path id="kity_path_349" fill="none" stroke="gray"></path></g><path id="node_outline41" fill="none" stroke="none" d="M380.5,634.5h96a5,5,0,0,1,5,5v8a5,5,0,0,1,-5,5h-96a5,5,0,0,1,-5,-5v-8a5,5,0,0,1,5,-5z" stroke-width="3"></path><g id="node_text41" fill="black"><text id="kity_text_345" text-rendering="inherit" font-size="12" dy=".8em" y="637.5" x="380.5">明文密文长度相同</text></g></g><g id="minder_node42"><g id="node_expander41" style="cursor: pointer;" display="none"><path id="kity_path_356" fill="white" stroke="gray" d="M375.5,669.5A6,6,0,1,1,363.5,669.5A6,6,0,1,1,375.5,669.5"></path><path id="kity_path_357" fill="none" stroke="gray"></path></g><path id="node_outline42" fill="none" stroke="none" d="M380.5,660.5h96a5,5,0,0,1,5,5v8a5,5,0,0,1,-5,5h-96a5,5,0,0,1,-5,-5v-8a5,5,0,0,1,5,-5z" stroke-width="3"></path><g id="node_text42" fill="black"><text id="kity_text_353" text-rendering="inherit" font-size="12" dy=".8em" y="663.5" x="380.5">加密不能引入并行</text></g></g><g id="minder_node43"><g id="node_expander42" style="cursor: pointer;" display="none"><path id="kity_path_364" fill="white" stroke="gray" d="M376.5,773.5A6,6,0,1,1,364.5,773.5A6,6,0,1,1,376.5,773.5"></path><path id="kity_path_365" fill="none" stroke="gray"></path></g><path id="node_outline43" fill="none" stroke="none" d="M381.5,764.5h72a5,5,0,0,1,5,5v8a5,5,0,0,1,-5,5h-72a5,5,0,0,1,-5,-5v-8a5,5,0,0,1,5,-5z" stroke-width="3"></path><g id="node_text43" fill="black"><text id="kity_text_361" text-rendering="inherit" font-size="12" dy=".8em" y="767.5" x="381.5">加密可以并行</text></g></g><g id="minder_node44"><g id="node_expander43" style="cursor: pointer;" display="none"><path id="kity_path_372" fill="white" stroke="gray" d="M387.5,903.5A6,6,0,1,1,375.5,903.5A6,6,0,1,1,387.5,903.5"></path><path id="kity_path_373" fill="none" stroke="gray"></path></g><path id="node_outline44" fill="none" stroke="none" d="M392.5,894.5h99a5,5,0,0,1,5,5v8a5,5,0,0,1,-5,5h-99a5,5,0,0,1,-5,-5v-8a5,5,0,0,1,5,-5z" stroke-width="3"></path><g id="node_text44" fill="black"><text id="kity_text_369" text-rendering="inherit" font-size="12" dy=".8em" y="897.5" x="392.5">加密不能 引入并行</text></g></g><g id="minder_node45"><g id="node_expander44" style="cursor: pointer;" display="none"><path id="kity_path_380" fill="white" stroke="gray" d="M387.5,929.5A6,6,0,1,1,375.5,929.5A6,6,0,1,1,387.5,929.5"></path><path id="kity_path_381" fill="none" stroke="gray"></path></g><path id="node_outline45" fill="none" stroke="none" d="M392.5,920.5h96a5,5,0,0,1,5,5v8a5,5,0,0,1,-5,5h-96a5,5,0,0,1,-5,-5v-8a5,5,0,0,1,5,-5z" stroke-width="3"></path><g id="node_text45" fill="black"><text id="kity_text_377" text-rendering="inherit" font-size="12" dy=".8em" y="923.5" x="392.5">明文密文长度相同</text></g></g><g id="minder_node46" opacity="1"><g id="node_expander45" style="cursor: pointer;" display="none"><path id="kity_path_388" fill="white" stroke="gray" d="M379.5,802.5A6,6,0,1,1,367.5,802.5A6,6,0,1,1,379.5,802.5"></path><path id="kity_path_389" fill="none" stroke="gray"></path></g><path id="node_outline46" fill="none" stroke="none" d="M384.5,793.5h96a5,5,0,0,1,5,5v8a5,5,0,0,1,-5,5h-96a5,5,0,0,1,-5,-5v-8a5,5,0,0,1,5,-5z" stroke-width="3"></path><g id="node_text46" fill="black"><text id="kity_text_385" text-rendering="inherit" font-size="12" dy=".8em" y="796.5" x="384.5">明文密文长度相同</text></g></g><g id="kity_g_12" display="none"><path id="kity_path_13" fill="none" stroke="rgb(66, 112, 68)" d="M381.5,764.5h72a5,5,0,0,1,5,5v8a5,5,0,0,1,-5,5h-72a5,5,0,0,1,-5,-5v-8a5,5,0,0,1,5,-5z" stroke-width="5"></path></g></g></g></svg>